<svg width="15" height="12" viewBox="0 0 15 12" fill="none" xmlns="http://www.w3.org/2000/svg">
<path fill-rule="evenodd" clip-rule="evenodd" d="M5.41341 8.51963L7.80675 6.1263L5.41341 3.73297L6.35341 2.79297L8.74675 5.1863L11.1401 2.79297L12.0801 3.73297L9.68674 6.1263L12.0801 8.51963L11.1401 9.45963L8.74675 7.0663L6.35341 9.45963L5.41341 8.51963ZM13.4134 2.1263H4.74674L1.74674 6.1263L4.74674 10.1263H13.4134V2.1263ZM13.4134 0.792969C14.1467 0.792969 14.7467 1.39297 14.7467 2.1263V10.1263C14.7467 10.8596 14.1467 11.4596 13.4134 11.4596H4.74674C4.32674 11.4596 3.93341 11.2596 3.68008 10.9263L0.0800781 6.1263L3.68008 1.3263C3.93341 0.992969 4.32674 0.792969 4.74674 0.792969H13.4134Z" fill="#C7C7C7"/>
</svg>
