<svg width="24" height="24" viewBox="0 0 24 24" fill="none" xmlns="http://www.w3.org/2000/svg">
<g clip-path="url(#clip0_3263_26730)">
<path d="M19.9999 8C22.2059 8 23.9999 6.206 23.9999 4C23.9999 1.794 22.2059 0 19.9999 0C17.7939 0 15.9999 1.794 15.9999 4C15.9999 6.206 17.7939 8 19.9999 8ZM19.9999 1C21.6539 1 22.9999 2.346 22.9999 4C22.9999 5.654 21.6539 7 19.9999 7C18.3459 7 16.9999 5.654 16.9999 4C16.9999 2.346 18.3459 1 19.9999 1ZM21.9869 12.726L21.3179 9.85C20.9949 9.923 20.6619 9.966 20.3219 9.984L21.0119 12.952L21.9609 17.037C22.0649 17.519 21.9529 18.019 21.6569 18.406C21.3649 18.783 20.9329 19 20.4719 19H3.52693C3.06593 19 2.63393 18.783 2.34393 18.406C2.04693 18.018 1.93493 17.519 2.03493 17.046L4.26593 7.448C5.07593 3.651 8.25593 1 11.9999 1C12.9009 1 13.7679 1.157 14.5779 1.443C14.7239 1.134 14.8929 0.839 15.0869 0.562C14.1219 0.199 13.0829 0 11.9999 0C7.77993 0 4.19693 2.977 3.29093 7.23L1.05993 16.828C0.895929 17.598 1.07493 18.394 1.55193 19.016C2.03393 19.641 2.75493 19.999 3.52793 19.999H7.10193C7.56693 22.278 9.58593 23.999 12.0009 23.999C14.4159 23.999 16.4349 22.278 16.8999 19.999H20.4749C21.2469 19.999 21.9669 19.641 22.4529 19.015C22.9279 18.393 23.1059 17.596 22.9399 16.819L21.9889 12.725L21.9869 12.726ZM11.9999 23C10.1419 23 8.58893 21.721 8.14193 20H15.8579C15.4109 21.721 13.8589 23 11.9999 23Z" fill="black"/>
</g>
<defs>
<clipPath id="clip0_3263_26730">
<rect width="24" height="24" fill="white"/>
</clipPath>
</defs>
</svg>
