<svg width="181" height="36" viewBox="0 0 181 36" fill="none" xmlns="http://www.w3.org/2000/svg">
<rect width="181" height="36" rx="8" fill="#1BC469"/>
<path d="M36.2524 19.056C36.2524 19.808 36.2124 20.496 36.1324 21.12C36.0684 21.744 35.8524 22.28 35.4844 22.728C35.1324 23.16 34.5644 23.496 33.7804 23.736C33.0124 23.96 31.9244 24.072 30.5164 24.072C29.3964 24.072 28.4764 24 27.7564 23.856C27.0524 23.696 26.5004 23.472 26.1004 23.184C25.7164 22.896 25.4364 22.56 25.2604 22.176C25.0844 21.776 24.9804 21.328 24.9484 20.832C24.9164 20.32 24.9004 19.784 24.9004 19.224V14.16C24.9004 13.824 24.9084 13.576 24.9244 13.416C24.9404 13.24 25.0124 13.12 25.1404 13.056C25.2844 12.992 25.5164 12.96 25.8364 12.96H27.3724V20.04C27.3724 20.744 27.4764 21.288 27.6844 21.672C27.8924 22.04 28.2284 22.296 28.6924 22.44C29.1724 22.584 29.7884 22.656 30.5404 22.656C31.7084 22.656 32.5404 22.456 33.0364 22.056C33.5324 21.656 33.7804 20.984 33.7804 20.04V12.96H35.2924C35.6124 12.96 35.8364 12.992 35.9644 13.056C36.1084 13.12 36.1884 13.24 36.2044 13.416C36.2364 13.576 36.2524 13.824 36.2524 14.16V19.056ZM39.2157 26.568L39.2397 16.368C39.2397 15.952 39.2317 15.584 39.2157 15.264C39.2157 14.944 39.1997 14.736 39.1677 14.64C39.2957 14.608 39.5357 14.576 39.8877 14.544C40.2557 14.512 40.6717 14.488 41.1357 14.472C41.5997 14.44 42.0717 14.416 42.5517 14.4C43.0477 14.368 43.4877 14.352 43.8717 14.352C45.2317 14.352 46.2877 14.52 47.0397 14.856C47.8077 15.192 48.3437 15.728 48.6477 16.464C48.9677 17.184 49.1117 18.136 49.0797 19.32C49.0317 20.488 48.8717 21.424 48.5997 22.128C48.3277 22.816 47.8797 23.32 47.2557 23.64C46.6477 23.944 45.7997 24.096 44.7117 24.096C44.0557 24.096 43.4717 24.032 42.9597 23.904C42.4637 23.776 42.0637 23.56 41.7597 23.256C41.4557 22.936 41.2477 22.512 41.1357 21.984L41.4957 21.744V26.568H39.2157ZM44.1837 22.8C45.0957 22.8 45.7517 22.52 46.1517 21.96C46.5677 21.4 46.7757 20.464 46.7757 19.152C46.8077 17.84 46.6157 16.92 46.1997 16.392C45.7837 15.864 45.0237 15.6 43.9197 15.6C43.6957 15.6 43.4157 15.608 43.0797 15.624C42.7597 15.64 42.4557 15.664 42.1677 15.696C41.8797 15.712 41.6557 15.736 41.4957 15.768V20.136C41.4957 20.856 41.6077 21.408 41.8317 21.792C42.0557 22.176 42.3677 22.44 42.7677 22.584C43.1677 22.728 43.6397 22.8 44.1837 22.8ZM55.6746 26.784C55.2106 26.784 54.7466 26.768 54.2826 26.736C53.8186 26.704 53.3866 26.648 52.9866 26.568C52.6026 26.488 52.2826 26.368 52.0266 26.208C51.7866 26.064 51.6666 25.872 51.6666 25.632C51.6666 25.568 51.6666 25.48 51.6666 25.368C51.6666 25.256 51.6666 25.176 51.6666 25.128C51.8746 25.24 52.1866 25.336 52.6026 25.416C53.0346 25.512 53.4906 25.584 53.9706 25.632C54.4666 25.696 54.8986 25.728 55.2666 25.728C56.1946 25.728 56.9066 25.592 57.4026 25.32C57.8986 25.048 58.2346 24.608 58.4106 24C58.5866 23.408 58.6426 22.616 58.5786 21.624H58.9626C58.8026 22.152 58.5386 22.56 58.1706 22.848C57.8186 23.136 57.3866 23.336 56.8746 23.448C56.3626 23.56 55.7866 23.616 55.1466 23.616C54.2026 23.616 53.4186 23.504 52.7946 23.28C52.1866 23.04 51.7386 22.6 51.4506 21.96C51.1786 21.32 51.0426 20.392 51.0426 19.176C51.0426 18.152 51.1306 17.328 51.3066 16.704C51.4986 16.064 51.8026 15.576 52.2186 15.24C52.6506 14.888 53.2026 14.656 53.8746 14.544C54.5626 14.416 55.4106 14.352 56.4186 14.352C56.7546 14.352 57.1546 14.368 57.6186 14.4C58.0826 14.432 58.5386 14.464 58.9866 14.496C59.4506 14.528 59.8506 14.56 60.1866 14.592C60.5386 14.624 60.7786 14.648 60.9066 14.664C60.8906 14.712 60.8746 14.84 60.8586 15.048C60.8586 15.256 60.8586 15.496 60.8586 15.768C60.8586 16.024 60.8586 16.28 60.8586 16.536L60.8346 22.224C60.8346 23.392 60.6586 24.304 60.3066 24.96C59.9546 25.632 59.3946 26.104 58.6266 26.376C57.8746 26.648 56.8906 26.784 55.6746 26.784ZM55.7706 22.32C56.2986 22.32 56.7706 22.256 57.1866 22.128C57.6026 22 57.9386 21.784 58.1946 21.48C58.4666 21.176 58.6026 20.76 58.6026 20.232V15.816C58.4586 15.784 58.1546 15.744 57.6906 15.696C57.2266 15.648 56.6906 15.624 56.0826 15.624C55.3946 15.624 54.8506 15.712 54.4506 15.888C54.0506 16.064 53.7626 16.392 53.5866 16.872C53.4106 17.352 53.3226 18.048 53.3226 18.96C53.3226 19.856 53.4026 20.552 53.5626 21.048C53.7386 21.528 54.0026 21.864 54.3546 22.056C54.7066 22.232 55.1786 22.32 55.7706 22.32ZM65.682 24H64.146C63.906 24 63.722 23.936 63.594 23.808C63.466 23.68 63.402 23.44 63.402 23.088V14.904C63.786 14.792 64.322 14.672 65.01 14.544C65.698 14.416 66.522 14.352 67.482 14.352C68.426 14.352 69.17 14.416 69.714 14.544C70.258 14.656 70.658 14.832 70.914 15.072C71.186 15.296 71.354 15.576 71.418 15.912C71.498 16.232 71.538 16.608 71.538 17.04H69.378L69.354 16.704C69.354 16.32 69.25 16.048 69.042 15.888C68.85 15.712 68.618 15.6 68.346 15.552C68.074 15.504 67.802 15.48 67.53 15.48C67.114 15.48 66.738 15.52 66.402 15.6C66.082 15.68 65.842 15.784 65.682 15.912V24ZM77.6607 24.144C76.6687 24.144 75.8607 24.096 75.2367 24C74.6127 23.92 74.1327 23.768 73.7967 23.544C73.4607 23.32 73.2287 23.016 73.1007 22.632C72.9887 22.248 72.9327 21.768 72.9327 21.192C72.9327 20.376 73.0207 19.76 73.1967 19.344C73.3887 18.912 73.7087 18.616 74.1567 18.456C74.6207 18.296 75.2367 18.216 76.0047 18.216C76.4047 18.216 76.8447 18.224 77.3247 18.24C77.8207 18.256 78.2927 18.28 78.7407 18.312C79.2047 18.328 79.6047 18.352 79.9407 18.384C80.2927 18.416 80.5247 18.456 80.6367 18.504C80.6367 17.832 80.5807 17.304 80.4687 16.92C80.3567 16.536 80.1727 16.248 79.9167 16.056C79.6767 15.864 79.3727 15.736 79.0047 15.672C78.6367 15.608 78.2047 15.576 77.7087 15.576C77.1647 15.576 76.6207 15.592 76.0767 15.624C75.5487 15.656 75.0447 15.712 74.5647 15.792C74.1007 15.872 73.7167 15.976 73.4127 16.104V15.648C73.4127 15.28 73.5087 15.016 73.7007 14.856C73.9087 14.696 74.1567 14.592 74.4447 14.544C74.7647 14.464 75.2367 14.4 75.8607 14.352C76.4847 14.304 77.1487 14.288 77.8527 14.304C78.7487 14.304 79.5087 14.352 80.1327 14.448C80.7727 14.528 81.2847 14.704 81.6687 14.976C82.0687 15.248 82.3567 15.656 82.5327 16.2C82.7247 16.744 82.8207 17.472 82.8207 18.384V23.28C82.6767 23.584 82.1887 23.808 81.3567 23.952C80.5247 24.08 79.2927 24.144 77.6607 24.144ZM77.6607 23.136C78.3007 23.136 78.8207 23.12 79.2207 23.088C79.6367 23.04 79.9567 22.984 80.1807 22.92C80.4047 22.84 80.5567 22.744 80.6367 22.632V19.32C80.4927 19.272 80.2367 19.232 79.8687 19.2C79.5007 19.152 79.1167 19.112 78.7167 19.08C78.3167 19.048 77.9807 19.032 77.7087 19.032C77.1167 19.032 76.6367 19.072 76.2687 19.152C75.9007 19.232 75.6367 19.416 75.4767 19.704C75.3167 19.992 75.2367 20.44 75.2367 21.048C75.2367 21.544 75.2927 21.944 75.4047 22.248C75.5167 22.552 75.7407 22.776 76.0767 22.92C76.4287 23.064 76.9567 23.136 77.6607 23.136ZM84.9332 19.176C84.9332 17.88 85.1092 16.888 85.4612 16.2C85.8132 15.496 86.3252 15.016 86.9972 14.76C87.6692 14.488 88.4772 14.352 89.4212 14.352C89.7092 14.352 90.0372 14.368 90.4052 14.4C90.7892 14.416 91.1652 14.448 91.5332 14.496C91.9012 14.544 92.2292 14.6 92.5172 14.664C92.8052 14.712 93.0052 14.768 93.1172 14.832L92.5172 15.12V11.88H94.7252L94.7012 19.176C94.7012 20.264 94.6212 21.136 94.4612 21.792C94.3012 22.432 94.0372 22.912 93.6692 23.232C93.3012 23.552 92.7892 23.768 92.1332 23.88C91.4772 23.992 90.6612 24.048 89.6852 24.048C88.7732 24.048 88.0052 23.992 87.3812 23.88C86.7732 23.752 86.2852 23.52 85.9172 23.184C85.5652 22.848 85.3092 22.36 85.1492 21.72C85.0052 21.08 84.9332 20.232 84.9332 19.176ZM89.6372 22.824C90.2612 22.824 90.7652 22.784 91.1492 22.704C91.5332 22.608 91.8212 22.44 92.0132 22.2C92.2212 21.96 92.3572 21.624 92.4212 21.192C92.4852 20.744 92.5172 20.168 92.5172 19.464L92.4932 15.792C92.3332 15.776 92.1172 15.76 91.8452 15.744C91.5732 15.728 91.2852 15.72 90.9812 15.72C90.6772 15.704 90.3972 15.696 90.1412 15.696C89.4212 15.696 88.8452 15.792 88.4132 15.984C87.9812 16.16 87.6692 16.504 87.4772 17.016C87.2852 17.528 87.1892 18.264 87.1892 19.224C87.1892 20.248 87.2612 21.016 87.4052 21.528C87.5652 22.04 87.8212 22.384 88.1732 22.56C88.5412 22.736 89.0292 22.824 89.6372 22.824ZM101.881 24.144C100.905 24.144 100.081 24.08 99.4092 23.952C98.7532 23.824 98.2252 23.584 97.8252 23.232C97.4412 22.88 97.1692 22.392 97.0092 21.768C96.8492 21.144 96.7692 20.336 96.7692 19.344C96.7692 18.16 96.9212 17.2 97.2252 16.464C97.5292 15.728 98.0652 15.192 98.8332 14.856C99.6172 14.504 100.705 14.328 102.097 14.328C103.185 14.328 104.049 14.464 104.689 14.736C105.345 14.992 105.817 15.4 106.105 15.96C106.393 16.52 106.537 17.232 106.537 18.096V19.632H99.7932C99.7932 19.376 99.8492 19.168 99.9612 19.008C100.073 18.848 100.281 18.768 100.585 18.768H104.521L104.497 18.144C104.481 17.248 104.289 16.592 103.921 16.176C103.569 15.76 102.929 15.552 102.001 15.552C101.233 15.552 100.633 15.672 100.201 15.912C99.7692 16.152 99.4652 16.544 99.2892 17.088C99.1132 17.616 99.0252 18.352 99.0252 19.296C99.0252 20.272 99.1212 21.016 99.3132 21.528C99.5212 22.024 99.8572 22.36 100.321 22.536C100.801 22.712 101.465 22.8 102.313 22.8C102.617 22.8 102.969 22.792 103.369 22.776C103.785 22.76 104.201 22.736 104.617 22.704C105.049 22.672 105.433 22.632 105.769 22.584C106.105 22.536 106.329 22.488 106.441 22.44V22.776C106.441 22.952 106.401 23.128 106.321 23.304C106.241 23.48 106.073 23.624 105.817 23.736C105.481 23.896 104.985 24 104.329 24.048C103.689 24.112 102.873 24.144 101.881 24.144ZM115.469 24V14.064C115.469 13.584 115.517 13.28 115.613 13.152C115.709 13.024 115.965 12.96 116.381 12.96H118.637L125.213 21.48L125.285 21.672V12.96H127.157C127.125 12.976 127.101 13.048 127.085 13.176C127.085 13.304 127.085 13.44 127.085 13.584C127.085 13.728 127.085 13.864 127.085 13.992V23.016C127.085 23.464 127.013 23.744 126.869 23.856C126.725 23.952 126.445 24 126.029 24H123.965L117.317 15.384L117.269 15.144V24H115.469ZM134.973 24.144C134.173 24.144 133.461 24.088 132.837 23.976C132.229 23.848 131.701 23.616 131.253 23.28C130.821 22.944 130.493 22.448 130.269 21.792C130.045 21.136 129.933 20.28 129.933 19.224C129.933 18.168 130.045 17.312 130.269 16.656C130.493 16 130.821 15.504 131.253 15.168C131.701 14.832 132.229 14.608 132.837 14.496C133.461 14.368 134.173 14.304 134.973 14.304C135.741 14.304 136.429 14.368 137.037 14.496C137.661 14.608 138.189 14.832 138.621 15.168C139.053 15.504 139.381 16 139.605 16.656C139.845 17.312 139.965 18.168 139.965 19.224C139.965 20.296 139.845 21.16 139.605 21.816C139.381 22.472 139.053 22.968 138.621 23.304C138.189 23.624 137.661 23.848 137.037 23.976C136.429 24.088 135.741 24.144 134.973 24.144ZM134.973 22.944C135.549 22.944 136.037 22.856 136.437 22.68C136.853 22.504 137.165 22.152 137.373 21.624C137.581 21.096 137.685 20.296 137.685 19.224C137.685 18.152 137.581 17.352 137.373 16.824C137.165 16.296 136.853 15.944 136.437 15.768C136.037 15.592 135.549 15.504 134.973 15.504C134.397 15.504 133.901 15.592 133.485 15.768C133.069 15.944 132.749 16.296 132.525 16.824C132.317 17.352 132.213 18.152 132.213 19.224C132.213 20.296 132.317 21.096 132.525 21.624C132.749 22.152 133.069 22.504 133.485 22.68C133.901 22.856 134.397 22.944 134.973 22.944ZM145.87 24.096C144.99 24.096 144.262 24.024 143.686 23.88C143.126 23.72 142.71 23.416 142.438 22.968C142.182 22.504 142.054 21.816 142.054 20.904V15.456C142.054 15.04 142.102 14.768 142.198 14.64C142.31 14.496 142.534 14.424 142.87 14.424H144.31V20.952C144.31 21.704 144.462 22.2 144.766 22.44C145.07 22.664 145.55 22.776 146.206 22.776C146.91 22.776 147.414 22.656 147.718 22.416C148.022 22.176 148.174 21.784 148.174 21.24V14.424H150.43V21.264C150.43 21.792 150.582 22.176 150.886 22.416C151.19 22.656 151.686 22.776 152.374 22.776C153.046 22.776 153.534 22.664 153.838 22.44C154.142 22.2 154.294 21.696 154.294 20.928V14.424H155.662C156.046 14.424 156.286 14.488 156.382 14.616C156.494 14.744 156.55 15.024 156.55 15.456V20.904C156.55 21.784 156.414 22.456 156.142 22.92C155.87 23.384 155.446 23.696 154.87 23.856C154.31 24.016 153.558 24.096 152.614 24.096C151.654 24.096 150.87 23.944 150.262 23.64C149.654 23.336 149.286 22.8 149.158 22.032H149.47C149.358 22.56 149.158 22.976 148.87 23.28C148.582 23.584 148.19 23.8 147.694 23.928C147.214 24.04 146.606 24.096 145.87 24.096Z" fill="white"/>
</svg>
