<svg width="40" height="40" viewBox="0 0 40 40" fill="none" xmlns="http://www.w3.org/2000/svg">
<g clip-path="url(#clip0_3329_9352)">
<path d="M33.5617 40C32.9451 39.9983 32.335 39.8744 31.7666 39.6356C31.1982 39.3967 30.6827 39.0476 30.25 38.6083L20 28.4183L9.75004 38.615C9.09176 39.2829 8.24753 39.7369 7.3274 39.918C6.40728 40.099 5.45396 39.9987 4.59171 39.63C3.7209 39.2797 2.97595 38.675 2.45414 37.8948C1.93233 37.1146 1.65791 36.1952 1.66671 35.2567V8.33333C1.66671 6.1232 2.54468 4.00358 4.10749 2.44078C5.67029 0.877974 7.78991 0 10 0L30 0C31.0944 0 32.178 0.215548 33.1891 0.634337C34.2001 1.05313 35.1188 1.66696 35.8926 2.44078C36.6664 3.2146 37.2803 4.13326 37.699 5.14431C38.1178 6.15535 38.3334 7.23898 38.3334 8.33333V35.2567C38.3427 36.1945 38.0693 37.1133 37.5487 37.8934C37.0281 38.6735 36.2846 39.2787 35.415 39.63C34.8281 39.8755 34.198 40.0013 33.5617 40ZM10 3.33333C8.67396 3.33333 7.40219 3.86012 6.46451 4.7978C5.52683 5.73548 5.00004 7.00725 5.00004 8.33333V35.2567C4.99944 35.5344 5.08116 35.8061 5.23488 36.0374C5.38859 36.2687 5.60741 36.4492 5.86369 36.5562C6.11998 36.6632 6.40222 36.6919 6.67478 36.6386C6.94733 36.5853 7.19798 36.4524 7.39504 36.2567L18.8334 24.8883C19.1456 24.5779 19.5681 24.4037 20.0084 24.4037C20.4487 24.4037 20.8711 24.5779 21.1834 24.8883L32.6084 36.2533C32.8054 36.449 33.0561 36.5819 33.3286 36.6352C33.6012 36.6886 33.8834 36.6599 34.1397 36.5529C34.396 36.4459 34.6148 36.2653 34.7685 36.034C34.9223 35.8027 35.004 35.5311 35.0034 35.2533V8.33333C35.0034 7.00725 34.4766 5.73548 33.5389 4.7978C32.6012 3.86012 31.3295 3.33333 30.0034 3.33333H10Z" fill="#1C274C"/>
</g>
<defs>
<clipPath id="clip0_3329_9352">
<rect width="40" height="40" fill="white"/>
</clipPath>
</defs>
</svg>
