<svg width="24" height="24" viewBox="0 0 24 24" fill="none" xmlns="http://www.w3.org/2000/svg">
<path opacity="0.5" d="M5.00004 6.25623C4.68618 6.25623 4.40551 6.44101 4.29662 6.71934C4.18773 6.99768 4.27364 7.31068 4.51194 7.50382L11.5119 13.1771C11.7928 13.4047 12.2073 13.4047 12.4881 13.1771L19.4881 7.50382C19.7264 7.31068 19.8123 6.99768 19.7035 6.71934C19.5946 6.44101 19.3139 6.25623 19 6.25623H5.00004Z" fill="white"/>
<path fill-rule="evenodd" clip-rule="evenodd" d="M4.43057 10.286C4.70014 9.98862 5.17361 9.95418 5.48811 10.2091L12 15.4868L18.5119 10.2091C18.8264 9.95418 19.2999 9.98862 19.5695 10.286C19.839 10.5834 19.8026 11.031 19.4881 11.2859L12.4881 16.9592C12.2072 17.1868 11.7928 17.1868 11.5119 16.9592L4.51192 11.2859C4.19743 11.031 4.161 10.5834 4.43057 10.286Z" fill="white"/>
</svg>
