<svg width="13" height="13" viewBox="0 0 13 13" fill="none" xmlns="http://www.w3.org/2000/svg">
<g clip-path="url(#clip0_3289_3725)">
<path d="M3.45141 3.1203C3.28041 3.1203 3.11441 3.0328 3.02091 2.8753L2.72441 2.3753C2.58391 2.1378 2.66191 1.8313 2.89991 1.6903C3.13691 1.5498 3.44391 1.6278 3.58491 1.8658L3.88141 2.3658C4.02191 2.6033 3.94391 2.9098 3.70591 3.0508C3.62591 3.0983 3.53841 3.1203 3.45141 3.1203ZM6.73091 5.8418C6.17941 5.8418 5.73091 6.2903 5.73091 6.8418C5.73091 7.3933 6.17941 7.8418 6.73091 7.8418C7.28241 7.8418 7.73091 7.3933 7.73091 6.8418C7.73091 6.2903 7.28241 5.8418 6.73091 5.8418ZM11.3259 7.9788C10.9029 8.5328 9.32091 10.3418 6.73091 10.3418C4.14091 10.3418 2.65341 8.7123 2.12841 8.0113C1.61741 7.3293 1.61841 6.3833 2.13091 5.7108C2.55441 5.1553 4.13841 3.3418 6.73091 3.3418C9.28891 3.3418 10.7979 4.9748 11.3279 5.6768C11.8419 6.3578 11.8409 7.3043 11.3259 7.9788ZM8.73091 6.8418C8.73091 5.7388 7.83391 4.8418 6.73091 4.8418C5.62791 4.8418 4.73091 5.7388 4.73091 6.8418C4.73091 7.9448 5.62791 8.8418 6.73091 8.8418C7.83391 8.8418 8.73091 7.9448 8.73091 6.8418ZM7.23091 1.8418V1.3418C7.23091 1.0658 7.00691 0.841797 6.73091 0.841797C6.45491 0.841797 6.23091 1.0658 6.23091 1.3418V1.8418C6.23091 2.1178 6.45491 2.3418 6.73091 2.3418C7.00691 2.3418 7.23091 2.1178 7.23091 1.8418ZM10.4409 2.8748L10.7374 2.3748C10.8779 2.1373 10.7999 1.8308 10.5619 1.6898C10.3249 1.5493 10.0179 1.6273 9.87691 1.8653L9.58041 2.3653C9.43991 2.6028 9.51791 2.9093 9.75591 3.0503C9.98941 3.1898 10.2994 3.1148 10.4409 2.8748ZM10.5619 11.9933C10.7994 11.8523 10.8779 11.5458 10.7374 11.3083L10.4409 10.8083C10.2999 10.5703 9.99341 10.4923 9.75591 10.6328C9.51841 10.7733 9.43991 11.0803 9.58041 11.3178L9.87691 11.8178C10.0184 12.0573 10.3284 12.1323 10.5619 11.9933ZM7.23091 12.3413V11.8413C7.23091 11.5653 7.00691 11.3413 6.73091 11.3413C6.45491 11.3413 6.23091 11.5653 6.23091 11.8413V12.3413C6.23091 12.6173 6.45491 12.8413 6.73091 12.8413C7.00691 12.8413 7.23091 12.6173 7.23091 12.3413ZM3.58491 11.8178L3.88141 11.3178C4.02191 11.0803 3.94391 10.7738 3.70591 10.6328C3.46791 10.4918 3.16191 10.5703 3.02091 10.8083L2.72441 11.3083C2.58391 11.5458 2.66191 11.8523 2.89991 11.9933C3.13341 12.1328 3.44341 12.0578 3.58491 11.8178Z" fill="white"/>
</g>
<defs>
<clipPath id="clip0_3289_3725">
<rect width="12" height="12" fill="white" transform="translate(0.730957 0.841797)"/>
</clipPath>
</defs>
</svg>
