<svg width="24" height="24" viewBox="0 0 24 24" fill="none" xmlns="http://www.w3.org/2000/svg">
<g clip-path="url(#clip0_3263_26766)">
<path d="M9.5 21H4.5C2.57 21 1 19.43 1 17.5V4.5C1 2.57 2.57 1 4.5 1H11V4.5C11 5.88 12.12 7 13.5 7H17V8.5C17 8.78 17.22 9 17.5 9C17.78 9 18 8.78 18 8.5C18 8.5 18.01 6.4 18 6.36C17.91 5.57 17.54 4.83 16.97 4.27L13.73 1.03C13.08 0.38 12.18 0 11.26 0H4.5C2.02 0 0 2.02 0 4.5V17.5C0 19.98 2.02 22 4.5 22H9.5C9.78 22 10 21.78 10 21.5C10 21.22 9.78 21 9.5 21ZM16.27 4.97C16.56 5.26 16.77 5.61 16.89 6H13.5C12.67 6 12 5.33 12 4.5V1.11C12.38 1.23 12.74 1.44 13.03 1.73L16.27 4.97ZM17.5 11C13.92 11 11 13.92 11 17.5C11 21.08 13.92 24 17.5 24C21.08 24 24 21.08 24 17.5C24 13.92 21.08 11 17.5 11ZM17.5 23C14.47 23 12 20.53 12 17.5C12 14.47 14.47 12 17.5 12C20.53 12 23 14.47 23 17.5C23 20.53 20.53 23 17.5 23ZM18.5 15C18.5 15.55 18.05 16 17.5 16C16.95 16 16.5 15.55 16.5 15C16.5 14.45 16.95 14 17.5 14C18.05 14 18.5 14.45 18.5 15ZM18 17.5V20.5C18 20.78 17.78 21 17.5 21C17.22 21 17 20.78 17 20.5V17.5C17 17.22 17.22 17 17.5 17C17.78 17 18 17.22 18 17.5Z" fill="black"/>
</g>
<defs>
<clipPath id="clip0_3263_26766">
<rect width="24" height="24" fill="white"/>
</clipPath>
</defs>
</svg>
