<svg width="1920" height="1080" viewBox="0 0 1920 1080" fill="none" xmlns="http://www.w3.org/2000/svg">
<mask id="mask0_3261_22715" style="mask-type:luminance" maskUnits="userSpaceOnUse" x="0" y="0" width="1920" height="1080">
<path d="M1920 0H0V1080H1920V0Z" fill="white"/>
</mask>
<g mask="url(#mask0_3261_22715)">
<path opacity="0.9" d="M263.872 568.716C118.139 445.754 -118.139 445.754 -263.872 568.716C-409.605 691.678 -409.605 891.038 -263.872 1014C-118.139 1136.96 118.139 1136.96 263.87 1014C409.605 891.036 409.605 691.677 263.872 568.716Z" fill="url(#paint0_linear_3261_22715)"/>
</g>
<mask id="mask1_3261_22715" style="mask-type:luminance" maskUnits="userSpaceOnUse" x="0" y="0" width="1920" height="1080">
<path d="M1920 0H0V1080H1920V0Z" fill="white"/>
</mask>
<g mask="url(#mask1_3261_22715)">
<path opacity="0.9" d="M1888.07 863.834C2050.85 1001.18 2314.77 1001.18 2477.55 863.834C2640.33 726.488 2640.33 503.805 2477.55 366.46C2314.77 229.114 2050.85 229.114 1888.07 366.46C1725.29 503.805 1725.29 726.488 1888.07 863.834Z" fill="url(#paint1_linear_3261_22715)"/>
</g>
<mask id="mask2_3261_22715" style="mask-type:luminance" maskUnits="userSpaceOnUse" x="0" y="0" width="1920" height="1080">
<path d="M1920 0H0V1080H1920V0Z" fill="white"/>
</mask>
<g mask="url(#mask2_3261_22715)">
<path opacity="0.54" d="M1430.56 1092.78C1284.83 969.814 1048.55 969.814 902.819 1092.78C757.086 1215.74 757.086 1415.1 902.819 1538.06C1048.55 1661.02 1284.83 1661.02 1430.56 1538.06C1576.3 1415.1 1576.3 1215.74 1430.56 1092.78Z" fill="url(#paint2_linear_3261_22715)"/>
</g>
<mask id="mask3_3261_22715" style="mask-type:luminance" maskUnits="userSpaceOnUse" x="0" y="0" width="1920" height="1080">
<path d="M1920 0H0V1080H1920V0Z" fill="white"/>
</mask>
<g mask="url(#mask3_3261_22715)">
<path opacity="0.8" d="M267.318 94.716L-260.426 -350.567L-788.17 94.716L-260.426 540L267.318 94.716Z" fill="url(#paint3_linear_3261_22715)"/>
</g>
<mask id="mask4_3261_22715" style="mask-type:luminance" maskUnits="userSpaceOnUse" x="0" y="0" width="1920" height="1080">
<path d="M1920 0H0V1080H1920V0Z" fill="white"/>
</mask>
<g mask="url(#mask4_3261_22715)">
<path opacity="0.46" d="M1672.2 358.37L2181.04 787.705L2689.88 358.37L2181.04 -70.9655L1672.2 358.37Z" fill="url(#paint4_linear_3261_22715)"/>
</g>
<mask id="mask5_3261_22715" style="mask-type:luminance" maskUnits="userSpaceOnUse" x="0" y="0" width="1920" height="1080">
<path d="M1920 0H0V1080H1920V0Z" fill="white"/>
</mask>
<g mask="url(#mask5_3261_22715)">
<path opacity="0.8" d="M1386.03 217.227L1721.9 -66.1635L1386.03 -349.554L1050.16 -66.1635L1386.03 217.227Z" fill="url(#paint5_linear_3261_22715)"/>
</g>
<mask id="mask6_3261_22715" style="mask-type:luminance" maskUnits="userSpaceOnUse" x="0" y="0" width="1920" height="1080">
<path d="M1920 0H0V1080H1920V0Z" fill="white"/>
</mask>
<g mask="url(#mask6_3261_22715)">
<path opacity="0.8" d="M1882.9 432.366L2218.77 148.975L1882.9 -134.415L1547.03 148.975L1882.9 432.366Z" fill="url(#paint6_linear_3261_22715)"/>
</g>
<mask id="mask7_3261_22715" style="mask-type:luminance" maskUnits="userSpaceOnUse" x="0" y="0" width="1920" height="1080">
<path d="M1920 0H0V1080H1920V0Z" fill="white"/>
</mask>
<g mask="url(#mask7_3261_22715)">
<path opacity="0.91" d="M625.347 887.844L266.509 1190.61L625.347 1493.38L984.186 1190.61L625.347 887.844Z" fill="url(#paint7_linear_3261_22715)"/>
</g>
<mask id="mask8_3261_22715" style="mask-type:luminance" maskUnits="userSpaceOnUse" x="0" y="0" width="1920" height="1080">
<path d="M1920 0H0V1080H1920V0Z" fill="white"/>
<rect x="542.81" y="475" width="194.64" height="4" rx="2" fill="white"/>
<rect x="542" y="475" width="150.45" height="4" rx="2" fill="white"/>
</mask>
<g mask="url(#mask8_3261_22715)">
<path opacity="0.74" d="M207.995 745.334L-276.266 1153.93L207.995 1562.52L692.256 1153.93L207.995 745.334Z" fill="url(#paint8_linear_3261_22715)"/>
</g>
<path opacity="0.54" d="M2152.54 -104.535L1787.49 -412.545L1422.44 -104.535L1787.49 203.476L2152.54 -104.535Z" fill="url(#paint9_linear_3261_22715)"/>
<path opacity="0.25" d="M-85.5263 -81.0042L-569.787 327.591L-85.5263 736.186L398.734 327.591L-85.5263 -81.0042Z" fill="url(#paint10_linear_3261_22715)"/>
<path opacity="0.54" d="M-85.5263 654.504L-569.787 1063.1L-85.5263 1471.69L398.734 1063.1L-85.5263 654.504Z" fill="url(#paint11_linear_3261_22715)"/>
<defs>
<linearGradient id="paint0_linear_3261_22715" x1="-387.545" y1="791.357" x2="337.206" y2="791.357" gradientUnits="userSpaceOnUse">
<stop offset="0.2411" stop-color="#84B887"/>
<stop offset="1" stop-color="#88BB8C" stop-opacity="0.1"/>
</linearGradient>
<linearGradient id="paint1_linear_3261_22715" x1="2615.69" y1="615.147" x2="1806.16" y2="615.147" gradientUnits="userSpaceOnUse">
<stop offset="0.2411" stop-color="#84B887"/>
<stop offset="1" stop-color="#88BB8C" stop-opacity="0.1"/>
</linearGradient>
<linearGradient id="paint2_linear_3261_22715" x1="779.147" y1="1315.42" x2="1503.9" y2="1315.42" gradientUnits="userSpaceOnUse">
<stop offset="0.2411" stop-color="#67AD93"/>
<stop offset="1" stop-color="#69AF97" stop-opacity="0.1"/>
</linearGradient>
<linearGradient id="paint3_linear_3261_22715" x1="-808.497" y1="94.7164" x2="216.455" y2="94.7164" gradientUnits="userSpaceOnUse">
<stop offset="0.2411" stop-color="#84B887"/>
<stop offset="1" stop-color="#88BB8C" stop-opacity="0.1"/>
</linearGradient>
<linearGradient id="paint4_linear_3261_22715" x1="2709.48" y1="358.369" x2="1721.24" y2="358.369" gradientUnits="userSpaceOnUse">
<stop offset="0.2411" stop-color="#84B887"/>
<stop offset="1" stop-color="#88BB8C" stop-opacity="0.1"/>
</linearGradient>
<linearGradient id="paint5_linear_3261_22715" x1="1386.03" y1="-360.469" x2="1386.03" y2="189.915" gradientUnits="userSpaceOnUse">
<stop offset="0.2411" stop-color="#84B887"/>
<stop offset="1" stop-color="#88BB8C" stop-opacity="0.1"/>
</linearGradient>
<linearGradient id="paint6_linear_3261_22715" x1="1882.9" y1="-145.332" x2="1882.9" y2="405.053" gradientUnits="userSpaceOnUse">
<stop offset="0.2411" stop-color="#84B887"/>
<stop offset="1" stop-color="#88BB8C" stop-opacity="0.1"/>
</linearGradient>
<linearGradient id="paint7_linear_3261_22715" x1="625.347" y1="1505.05" x2="625.347" y2="917.025" gradientUnits="userSpaceOnUse">
<stop offset="0.2411" stop-color="#84B887"/>
<stop offset="1" stop-color="#88BB8C" stop-opacity="0.1"/>
</linearGradient>
<linearGradient id="paint8_linear_3261_22715" x1="-276.265" y1="1153.93" x2="692.256" y2="1153.93" gradientUnits="userSpaceOnUse">
<stop offset="0.2411" stop-color="#67AD93"/>
<stop offset="1" stop-color="#69AF97" stop-opacity="0.1"/>
</linearGradient>
<linearGradient id="paint9_linear_3261_22715" x1="1787.49" y1="-412.545" x2="1787.49" y2="203.477" gradientUnits="userSpaceOnUse">
<stop offset="0.2411" stop-color="#67AD93"/>
<stop offset="1" stop-color="#69AF97" stop-opacity="0.1"/>
</linearGradient>
<linearGradient id="paint10_linear_3261_22715" x1="-569.788" y1="327.59" x2="398.734" y2="327.59" gradientUnits="userSpaceOnUse">
<stop offset="0.2411" stop-color="#67AD93"/>
<stop offset="1" stop-color="#69AF97" stop-opacity="0.1"/>
</linearGradient>
<linearGradient id="paint11_linear_3261_22715" x1="-569.788" y1="1063.1" x2="398.734" y2="1063.1" gradientUnits="userSpaceOnUse">
<stop offset="0.2411" stop-color="#67AD93"/>
<stop offset="1" stop-color="#69AF97" stop-opacity="0.1"/>
</linearGradient>
</defs>
</svg>
