<svg width="130" height="131" viewBox="0 0 130 131" fill="none" xmlns="http://www.w3.org/2000/svg">
<path d="M65.0009 0.303925C29.2973 0.303925 0.250468 29.3504 0.250468 65.0536C0.250468 100.757 29.2973 129.805 65.0009 129.805C100.704 129.805 129.75 100.757 129.75 65.0536C129.75 29.3504 100.704 0.303925 65.0009 0.303925ZM65.0009 130.056C47.6382 130.056 31.3151 123.293 19.0381 111.016C6.76109 98.7394 0 82.416 0 65.0536C0 47.6913 6.76109 31.3683 19.0381 19.0912C31.3151 6.81422 47.6382 0.0531158 65.0009 0.0531158C82.3632 0.0531158 98.6862 6.81422 110.964 19.0912C123.241 31.3683 130 47.6913 130 65.0536C130 82.416 123.241 98.7394 110.964 111.016C98.6862 123.293 82.3632 130.056 65.0009 130.056Z" fill="white"/>
<path d="M67.1321 15.0515H62.869V5.02038H67.1321V15.0515Z" fill="#98E419"/>
<path d="M72.3546 15.5419L68.1138 15.1013L69.1503 5.12405L73.3911 5.56462L72.3546 15.5419Z" fill="#98E419"/>
<path d="M77.4897 16.5756L73.3189 15.6934L75.3947 5.8788L79.5658 6.76095L77.4897 16.5756Z" fill="#98E419"/>
<path d="M82.4853 18.1442L78.4305 16.8277L81.5284 7.2858L85.5832 8.60265L82.4853 18.1442Z" fill="#98E419"/>
<path d="M87.2875 20.2294L83.3936 18.493L87.479 9.33093L91.3726 11.0674L87.2875 20.2294Z" fill="#98E419"/>
<path d="M91.8469 22.8073L88.1568 20.6721L93.1799 11.9904L96.87 14.1252L91.8469 22.8073Z" fill="#98E419"/>
<path d="M96.1134 25.85L92.6665 23.3409L98.569 15.2301L102.016 17.739L96.1134 25.85Z" fill="#98E419"/>
<path d="M100.042 29.3207L96.874 26.4671L103.589 19.0141L106.756 21.8677L100.042 29.3207Z" fill="#98E419"/>
<path d="M103.589 33.1812L100.735 30.0136L108.187 23.2997L111.04 26.4673L103.589 33.1812Z" fill="#98E419"/>
<path d="M106.714 37.3882L104.205 33.941L112.315 28.0385L114.824 31.4857L106.714 37.3882Z" fill="#98E419"/>
<path d="M109.382 41.8983L107.247 38.2078L115.929 33.1844L118.066 36.8745L109.382 41.8983Z" fill="#98E419"/>
<path d="M111.561 46.6608L109.826 42.7668L118.989 38.6821L120.725 42.5761L111.561 46.6608Z" fill="#98E419"/>
<path d="M113.228 51.6243L111.911 47.5691L121.453 44.4711L122.77 48.5263L113.228 51.6243Z" fill="#98E419"/>
<path d="M114.361 56.736L113.479 52.5648L123.292 50.489L124.177 54.6602L114.361 56.736Z" fill="#98E419"/>
<path d="M114.954 61.9409L114.512 57.7004L124.489 56.6639L124.932 60.904L114.954 61.9409Z" fill="#98E419"/>
<path d="M125.035 67.1856H115.002V62.9221H125.035V67.1856Z" fill="#98E419"/>
<path d="M124.489 73.4441L114.512 72.4076L114.954 68.1671L124.932 69.2036L124.489 73.4441Z" fill="#98E419"/>
<path d="M123.292 79.6193L113.479 77.5435L114.361 73.372L124.177 75.4478L123.292 79.6193Z" fill="#98E419"/>
<path d="M121.453 85.6362L111.911 82.538L113.228 78.4828L122.77 81.581L121.453 85.6362Z" fill="#98E419"/>
<path d="M118.989 91.4269L109.826 87.3415L111.561 83.4475L120.725 87.5326L118.989 91.4269Z" fill="#98E419"/>
<path d="M115.929 96.9233L107.247 91.8995L109.382 88.2094L118.066 93.2329L115.929 96.9233Z" fill="#98E419"/>
<path d="M112.315 102.07L104.205 96.1671L106.714 92.7199L114.824 98.6224L112.315 102.07Z" fill="#98E419"/>
<path d="M108.187 106.809L100.735 100.095L103.588 96.9276L111.039 103.642L108.187 106.809Z" fill="#98E419"/>
<path d="M103.589 111.096L96.8743 103.642L100.041 100.788L106.756 108.241L103.589 111.096Z" fill="#98E419"/>
<path d="M98.5686 114.877L92.6665 106.768L96.1134 104.259L102.016 112.369L98.5686 114.877Z" fill="#98E419"/>
<path d="M93.1801 118.12L88.1563 109.436L91.8467 107.301L96.8702 115.982L93.1801 118.12Z" fill="#98E419"/>
<path d="M87.4793 120.779L83.3942 111.618L87.2878 109.88L91.3729 119.043L87.4793 120.779Z" fill="#98E419"/>
<path d="M81.5284 122.824L78.4305 113.282L82.4853 111.964L85.5832 121.506L81.5284 122.824Z" fill="#98E419"/>
<path d="M75.395 124.23L73.3189 114.414L77.4897 113.532L79.5658 123.348L75.395 124.23Z" fill="#98E419"/>
<path d="M69.1503 124.985L68.1138 115.008L72.3546 114.565L73.3911 124.543L69.1503 124.985Z" fill="#98E419"/>
<path d="M67.1321 125.088H62.869V115.055H67.1321V125.088Z" fill="#98E419"/>
<path d="M60.8509 124.985L56.6104 124.543L57.6469 114.565L61.8874 115.008L60.8509 124.985Z" fill="#98E419"/>
<path d="M54.6064 124.23L50.4352 123.348L52.5113 113.532L56.6825 114.414L54.6064 124.23Z" fill="#98E419"/>
<path d="M48.4728 122.824L44.4179 121.506L47.5158 111.964L51.5707 113.282L48.4728 122.824Z" fill="#98E419"/>
<path d="M42.5224 120.779L38.6284 119.043L42.7135 109.88L46.6071 111.618L42.5224 120.779Z" fill="#98E419"/>
<path d="M36.8214 118.12L33.1313 115.982L38.155 107.301L41.8452 109.436L36.8214 118.12Z" fill="#98E419"/>
<path d="M31.4324 114.877L27.9852 112.369L33.8877 104.259L37.3349 106.768L31.4324 114.877Z" fill="#C8D8FA"/>
<path d="M26.4124 111.096L23.2452 108.241L29.9598 100.788L33.1271 103.642L26.4124 111.096Z" fill="#C8D8FA"/>
<path d="M21.8142 106.81L18.9606 103.642L26.4129 96.9275L29.2665 100.095L21.8142 106.81Z" fill="#C8D8FA"/>
<path d="M17.6855 102.07L15.1767 98.6224L23.2871 92.7199L25.7959 96.1671L17.6855 102.07Z" fill="#C8D8FA"/>
<path d="M14.0709 96.9236L11.9357 93.2335L20.6195 88.2094L22.7547 91.8995L14.0709 96.9236Z" fill="#C8D8FA"/>
<path d="M11.0134 91.4269L9.2773 87.5326L18.4393 83.4475L20.1754 87.3415L11.0134 91.4269Z" fill="#C8D8FA"/>
<path d="M8.54877 85.6361L7.2319 81.5809L16.7727 78.4833L18.0892 82.5385L8.54877 85.6361Z" fill="#C8D8FA"/>
<path d="M6.70716 79.6193L5.82503 75.4478L15.64 73.372L16.5221 77.5431L6.70716 79.6193Z" fill="#C8D8FA"/>
<path d="M5.51109 73.4441L5.07019 69.2036L15.0478 68.1674L15.4883 72.4076L5.51109 73.4441Z" fill="#C8D8FA"/>
<path d="M14.998 67.1856H4.96692V62.9221H14.998V67.1856Z" fill="#C8D8FA"/>
<path d="M15.0478 61.9409L5.07019 60.904L5.51109 56.6639L15.4883 57.7004L15.0478 61.9409Z" fill="#C8D8FA"/>
<path d="M15.64 56.736L5.82503 54.6598L6.70716 50.4886L16.5221 52.5648L15.64 56.736Z" fill="#C8D8FA"/>
<path d="M16.7727 51.6243L7.2319 48.5267L8.54877 44.4715L18.0892 47.5691L16.7727 51.6243Z" fill="#C8D8FA"/>
<path d="M18.4393 46.6609L9.2773 42.5755L11.0134 38.6816L20.1754 42.767L18.4393 46.6609Z" fill="#C8D8FA"/>
<path d="M20.6195 41.8983L11.9357 36.8745L14.0709 33.184L22.7547 38.2082L20.6195 41.8983Z" fill="#C8D8FA"/>
<path d="M23.2867 37.3882L15.1767 31.4857L17.6855 28.0385L25.7955 33.941L23.2867 37.3882Z" fill="#C8D8FA"/>
<path d="M26.413 33.1812L18.9603 26.4669L21.8139 23.2994L29.2666 30.0136L26.413 33.1812Z" fill="#C8D8FA"/>
<path d="M29.9598 29.3207L23.2452 21.8677L26.4128 19.0141L33.1274 26.4671L29.9598 29.3207Z" fill="#C8D8FA"/>
<path d="M33.8881 25.85L27.9852 17.739L31.4324 15.2301L37.3349 23.3409L33.8881 25.85Z" fill="#C8D8FA"/>
<path d="M38.1547 22.8073L33.1316 14.1252L36.8217 11.9904L41.8448 20.6721L38.1547 22.8073Z" fill="#C8D8FA"/>
<path d="M42.7138 20.2294L38.6284 11.0674L42.5224 9.33093L46.6074 18.493L42.7138 20.2294Z" fill="#C8D8FA"/>
<path d="M47.5162 18.1442L44.4179 8.60265L48.4728 7.2858L51.571 16.8277L47.5162 18.1442Z" fill="#C8D8FA"/>
<path d="M52.5113 16.5756L50.4355 6.76095L54.6064 5.8788L56.6825 15.6934L52.5113 16.5756Z" fill="#C8D8FA"/>
<path d="M57.6469 15.5419L56.6104 5.56462L60.8509 5.12405L61.8874 15.1013L57.6469 15.5419Z" fill="#C8D8FA"/>
<path d="M47.2536 63.9044C48.2747 64.558 50.6435 65.5791 53.1352 65.5791C57.7507 65.5791 59.1808 62.6383 59.1396 60.4328C59.0988 56.7156 55.7493 55.1225 52.2778 55.1225H50.2761V52.427H52.2778C54.8919 52.427 58.2001 51.079 58.2001 47.9337C58.2001 45.8099 56.8524 43.9306 53.5438 43.9306C51.4196 43.9306 49.3775 44.8704 48.2339 45.6874L47.2941 43.0732C48.683 42.0518 51.3788 41.031 54.2383 41.031C59.4662 41.031 61.8354 44.1351 61.8354 47.3621C61.8354 50.0984 60.2015 52.427 56.9341 53.6111V53.6931C60.2015 54.3464 62.8565 56.7972 62.8565 60.5141C62.8565 64.7625 59.5482 68.4794 53.1763 68.4794C50.1944 68.4794 47.5803 67.5399 46.2734 66.6818L47.2536 63.9044Z" fill="black"/>
<path d="M46.7867 66.5008C48.1626 67.3006 50.5743 68.0555 53.1764 68.0555C59.5706 68.0555 62.4328 64.2682 62.4328 60.5143C62.4328 57.3014 60.2417 54.7871 56.8511 54.1088L56.51 54.0408V53.3141L56.7897 53.2129C59.7703 52.1328 61.4114 50.0546 61.4114 47.3622C61.4114 44.6373 59.5328 41.4549 54.2383 41.4549C51.6266 41.4549 49.1895 42.3227 47.803 43.2357L48.4497 45.0353C49.7172 44.2496 51.595 43.5071 53.5439 43.5071C57.2896 43.5071 58.6243 45.7942 58.6243 47.9342C58.6243 51.1622 55.4313 52.8509 52.2778 52.8509H50.6999V54.6989H52.2778C55.6097 54.6989 59.517 56.1993 59.5637 60.4282C59.5901 61.863 59.0504 63.2537 58.0822 64.2397C56.9335 65.4097 55.269 66.0033 53.1353 66.0033C50.8131 66.0033 48.6357 65.149 47.4829 64.5286L46.7867 66.5008ZM53.1764 68.9036C50.0088 68.9036 47.3528 67.898 46.0408 67.0364L45.7632 66.8542L47.032 63.2595L47.4822 63.5477C48.3509 64.1039 50.6505 65.1555 53.1353 65.1555C55.033 65.1555 56.4939 64.6474 57.4773 63.6458C58.287 62.821 58.7382 61.6527 58.7159 60.4408C58.6761 56.8276 55.2227 55.5468 52.2778 55.5468H49.852V52.0031H52.2778C54.4881 52.0031 57.7765 50.9196 57.7765 47.9342C57.7765 46.8579 57.364 44.3549 53.5439 44.3549C51.5398 44.3549 49.5635 45.2586 48.4803 46.0323L48.0243 46.358L46.7884 42.919L47.043 42.7316C48.4813 41.6742 51.2639 40.6071 54.2383 40.6071C59.7792 40.6071 62.2595 43.9998 62.2595 47.3622C62.2595 50.0574 60.7667 52.2718 58.1217 53.5684C61.2913 54.6169 63.2806 57.2441 63.2806 60.5143C63.2806 64.6903 60.1563 68.9036 53.1764 68.9036Z" fill="black"/>
<path d="M83.1971 44.5026H73.0675L72.0464 51.3239C72.6588 51.2423 73.2308 51.1606 74.2111 51.1606C76.2533 51.1606 78.2958 51.6098 79.9297 52.5904C82.0127 53.7744 83.7282 56.0619 83.7282 59.4114C83.7282 64.5988 79.603 68.4794 73.8432 68.4794C70.9433 68.4794 68.4928 67.6624 67.2264 66.8451L68.125 64.1088C69.2278 64.7625 71.3928 65.5791 73.8028 65.5791C77.1927 65.5791 80.093 63.3736 80.093 59.82C80.0522 56.3889 77.7646 53.9381 72.4547 53.9381C70.9433 53.9381 69.7589 54.1014 68.7786 54.2239L70.4942 41.4802H83.1971V44.5026Z" fill="black"/>
<path d="M67.7346 66.6569C68.9385 67.336 71.1444 68.0555 73.8433 68.0555C79.3255 68.0555 83.3042 64.4202 83.3042 59.4115C83.3042 56.6059 81.998 54.2539 79.7201 52.959C78.2399 52.0711 76.2866 51.5845 74.2111 51.5845C73.2985 51.5845 72.7532 51.6573 72.1761 51.7345L71.5435 51.8185L72.7024 44.079H82.7731V41.9041H70.8648L69.2724 53.7351C70.1412 53.6281 71.1911 53.5142 72.4547 53.5142C77.5307 53.5142 80.4691 55.8106 80.5167 59.815C80.5167 63.4029 77.6933 66.0033 73.8028 66.0033C71.6433 66.0033 69.6303 65.3607 68.369 64.7246L67.7346 66.6569ZM73.8433 68.9036C70.7364 68.9036 68.2132 67.9868 66.9966 67.2015L66.7217 67.0244L67.8869 63.4753L68.3412 63.7443C69.4395 64.3952 71.529 65.1555 73.8028 65.1555C76.7179 65.1555 79.6689 63.3226 79.6689 59.8202C79.6271 56.3023 77.0651 54.362 72.4547 54.362C71.0754 54.362 69.9943 54.4982 69.0401 54.6186L68.2853 54.713L70.1233 41.0563H83.6212V44.9269H73.4326L72.5488 50.8321C72.9969 50.7793 73.506 50.7367 74.2111 50.7367C76.4701 50.7367 78.523 51.2521 80.1476 52.2272C82.6893 53.672 84.152 56.2923 84.152 59.4115C84.152 64.9116 79.8165 68.9036 73.8433 68.9036Z" fill="black"/>
<path d="M47.1682 80.5483C47.1682 79.3402 47.1438 78.3496 47.0714 77.3831H48.9318L49.0285 79.2678H49.1009C49.7532 78.1561 50.8408 77.1172 52.7736 77.1172C54.368 77.1172 55.5761 78.0837 56.0835 79.461H56.1319C56.4942 78.8087 56.9547 78.3026 57.4367 77.9389C58.1387 77.4092 58.9107 77.1172 60.0221 77.1172C61.5684 77.1172 63.8635 78.1321 63.8635 82.1914V89.0773H61.7856V82.457C61.7856 80.21 60.9642 78.8567 59.2487 78.8567C58.0406 78.8567 57.0916 79.7485 56.7361 80.7898C56.6373 81.0794 56.5669 81.4664 56.5669 81.8531V89.0773H54.4891V82.0707C54.4891 80.21 53.6674 78.8567 52.0486 78.8567C50.7197 78.8567 49.7532 79.92 49.4152 80.9833C49.2944 81.2973 49.2457 81.6599 49.2457 82.0219V89.0773H47.1682V80.5483Z" fill="black"/>
<path d="M62.0367 88.8268H63.6129V82.1914C63.6129 78.6354 61.7581 77.3683 60.0223 77.3683C59.0283 77.3683 58.3006 77.5986 57.5886 78.1386C57.1004 78.5047 56.6729 79.0039 56.3514 79.5828L56.2797 79.7121H55.9091L55.8484 79.5478C55.3457 78.1829 54.1963 77.3683 52.7738 77.3683C51.2483 77.3683 50.1178 78.0312 49.3173 79.3947L49.2446 79.5186H48.7903L48.6939 77.6339H47.3407C47.3952 78.4656 47.4192 79.357 47.4192 80.5483V88.8268H48.9951V82.0223C48.9951 81.5941 49.0579 81.2146 49.1811 80.8934C49.529 79.7989 50.5782 78.6063 52.0488 78.6063C53.7088 78.6063 54.7401 79.9338 54.7401 82.0706V88.8268H56.3164V81.8531C56.3164 81.474 56.3826 81.0578 56.4982 80.7106C56.8643 79.6617 57.8562 78.6063 59.2489 78.6063C61.0468 78.6063 62.0367 79.9739 62.0367 82.457V88.8268ZM64.1146 89.3281H61.5354V82.457C61.5354 80.9291 61.1388 79.1079 59.2489 79.1079C58.1023 79.1079 57.2795 79.9941 56.9731 80.8725C56.875 81.1672 56.818 81.5258 56.818 81.8531V89.3281H54.2385V82.0706C54.2385 80.2155 53.4199 79.1079 52.0488 79.1079C50.8301 79.1079 49.9531 80.1194 49.6543 81.0592C49.5482 81.3367 49.4968 81.6562 49.4968 82.0223V89.3281H46.9176V80.5483C46.9176 79.2407 46.8888 78.2995 46.8215 77.402L46.8013 77.1323H49.1704L49.2456 78.5984C50.1116 77.4486 51.2957 76.8667 52.7738 76.8667C54.242 76.8667 55.497 77.659 56.1424 78.9628C56.4629 78.4814 56.853 78.0631 57.2863 77.7382C58.081 77.1357 58.925 76.8667 60.0223 76.8667C62.0007 76.8667 64.1146 78.2656 64.1146 82.1914V89.3281Z" fill="black"/>
<path d="M67.321 89.0773V77.3831H69.4472V89.0773H67.321ZM69.6887 74.0972C69.7128 74.8221 69.1813 75.402 68.3355 75.402C67.5865 75.402 67.0551 74.8221 67.0551 74.0972C67.0551 73.3481 67.6109 72.7683 68.3839 72.7683C69.1813 72.7683 69.6887 73.3481 69.6887 74.0972Z" fill="black"/>
<path d="M68.3839 73.0191C67.7594 73.0191 67.3059 73.4723 67.3059 74.0971C67.3059 74.6983 67.7485 75.1512 68.3355 75.1512C68.6814 75.1512 68.9706 75.0414 69.172 74.8331C69.3528 74.6458 69.4475 74.3874 69.4379 74.1057V74.0971C69.4379 73.4524 69.0145 73.0191 68.3839 73.0191ZM68.3355 75.6528C67.4626 75.6528 66.8042 74.9841 66.8042 74.0971C66.8042 73.1968 67.4836 72.5175 68.3839 72.5175C69.2839 72.5175 69.9375 73.1797 69.9395 74.093C69.9522 74.5102 69.8078 74.8969 69.5323 75.1817C69.2386 75.4857 68.8135 75.6528 68.3355 75.6528ZM67.5718 88.8268H69.1964V77.6339H67.5718V88.8268ZM69.698 89.3281H67.0701V77.1323H69.698V89.3281Z" fill="black"/>
<path d="M72.9754 80.5483C72.9754 79.3402 72.9511 78.3496 72.8787 77.3831H74.7634L74.8841 79.3162H74.9325C75.5124 78.2048 76.8656 77.1172 78.7983 77.1172C80.4171 77.1172 82.93 78.0837 82.93 82.0947V89.0773H80.8038V82.3362C80.8038 80.4519 80.1032 78.8811 78.0977 78.8811C76.6964 78.8811 75.6397 79.8816 75.2468 81.0557C75.1569 81.3237 75.1017 81.684 75.1017 82.0463V89.0773H72.9754V80.5483Z" fill="black"/>
<path d="M81.0545 88.8268H82.6791V82.0947C82.6791 77.5958 79.4464 77.3683 78.7982 77.3683C76.906 77.3683 75.6753 78.4344 75.1548 79.4321L75.0844 79.567H74.6487L74.5276 77.6339H73.1476C73.2025 78.4656 73.2262 79.357 73.2262 80.5483V88.8268H74.8508V82.0463C74.8508 81.6359 74.9077 81.2537 75.011 80.9699C75.3651 79.8116 76.4596 78.6303 78.0976 78.6303C80.0043 78.6303 81.0545 79.9465 81.0545 82.3366V88.8268ZM83.1808 89.3281H80.5529V82.3366C80.5529 80.8746 80.1271 79.1319 78.0976 79.1319C76.7159 79.1319 75.7905 80.1352 75.4862 81.1291C75.3997 81.3683 75.3524 81.698 75.3524 82.0463V89.3281H72.7245V80.5483C72.7245 79.2407 72.6957 78.2995 72.6284 77.402L72.6082 77.1323H74.9986L75.091 78.6083C75.8046 77.6874 77.0518 76.8667 78.7982 76.8667C79.5301 76.8667 83.1808 77.1186 83.1808 82.0947V89.3281Z" fill="black"/>
</svg>
