<svg width="55" height="55" viewBox="0 0 55 55" fill="none" xmlns="http://www.w3.org/2000/svg">
<rect width="55" height="55" rx="27.5" fill="#F2F2F2"/>
<path d="M32.3865 23.4516H35.1285H36.7736H38.4188V20.1613H36.7736H35.1285H32.3865C31.478 20.1613 30.7413 19.4247 30.7413 18.5162C30.7413 17.6076 31.478 16.871 32.3865 16.871H35.1053H36.7548H38.4044C38.1183 11.3798 33.5607 7 27.9995 7C22.4383 7 17.8806 11.3798 17.5945 16.871H19.2441H20.8936H23.6124C24.5209 16.871 25.2576 17.6076 25.2576 18.5162C25.2576 19.4247 24.521 20.1613 23.6124 20.1613H20.8704H19.2253H17.5801V23.4516H19.2253H20.8704H23.6124C24.5209 23.4516 25.2576 24.1882 25.2576 25.0968C25.2576 26.0053 24.521 26.742 23.6124 26.742H20.8936H19.2441H17.5945C17.8806 32.2332 22.4383 36.6129 27.9995 36.6129C33.5607 36.6129 38.1183 32.2332 38.4044 26.742H36.7548H35.1053H32.3865C31.478 26.742 30.7413 26.0053 30.7413 25.0968C30.7413 24.1882 31.478 23.4516 32.3865 23.4516Z" fill="#1C274C"/>
<path d="M43.3548 21.7734C42.4463 21.7734 41.7096 22.5101 41.7096 23.4186V25.1004V26.4897C41.7096 34.0491 35.5595 40.1993 28 40.1993C20.4405 40.1993 14.2904 34.0491 14.2904 26.4897V25.1004V23.4186C14.2904 22.5101 13.5537 21.7734 12.6452 21.7734C11.7366 21.7734 11 22.5101 11 23.4186V26.4897C11 35.3085 17.7501 42.5795 26.3548 43.4097V45.9391C26.3548 46.8476 27.0915 47.5843 28 47.5843C28.9085 47.5843 29.6452 46.8477 29.6452 45.9391V43.4098C38.2499 42.5797 45 35.3086 45 26.4898V23.4188C45 22.51 44.2634 21.7734 43.3548 21.7734Z" fill="#8E93A6"/>
</svg>
