<svg width="40" height="40" viewBox="0 0 40 40" fill="none" xmlns="http://www.w3.org/2000/svg">
<g clip-path="url(#clip0_3329_9325)">
<path d="M36.6667 9.54231V3.33565C36.6667 2.41565 35.9217 1.66898 35 1.66898C34.0783 1.66898 33.3333 2.41565 33.3333 3.33565V7.27898L24.6617 1.42731C21.83 -0.482688 18.17 -0.482688 15.3383 1.42731L3.67167 9.30065C1.37333 10.8523 0 13.434 0 16.209V31.669C0 36.264 3.73833 40.0023 8.33333 40.0023H13.3333C14.255 40.0023 15 39.2556 15 38.3356V25.0023C15 24.084 15.7467 23.3356 16.6667 23.3356H23.3333C24.2533 23.3356 25 24.084 25 25.0023V38.3356C25 39.2556 25.745 40.0023 26.6667 40.0023H31.6667C36.2617 40.0023 40 36.264 40 31.669V16.209C40 13.574 38.76 11.1123 36.6667 9.54231ZM36.6667 31.669C36.6667 34.4256 34.4233 36.669 31.6667 36.669H28.3333V25.0023C28.3333 22.2456 26.09 20.0023 23.3333 20.0023H16.6667C13.91 20.0023 11.6667 22.2456 11.6667 25.0023V36.669H8.33333C5.57667 36.669 3.33333 34.4256 3.33333 31.669V16.209C3.33333 14.544 4.15667 12.994 5.53667 12.064L17.2033 4.19065C18.9033 3.04398 21.0967 3.04398 22.795 4.19065L34.4617 12.064C35.8417 12.994 36.665 14.544 36.665 16.209L36.6667 31.669Z" fill="#ED1C24"/>
</g>
<defs>
<clipPath id="clip0_3329_9325">
<rect width="40" height="40" fill="white"/>
</clipPath>
</defs>
</svg>
