<svg width="157" height="130" viewBox="0 0 157 130" fill="none" xmlns="http://www.w3.org/2000/svg">
<path d="M48.4699 128.473C47.8751 128.473 47.3653 128.303 47.0254 127.963C46.6856 127.624 46.5156 127.114 46.5156 126.519V115.133C46.5156 114.454 46.6856 113.944 47.0254 113.604C47.3653 113.264 47.8751 113.094 48.4699 113.094C49.1496 113.094 49.5744 113.264 49.9143 113.604C50.2542 113.944 50.4241 114.454 50.4241 115.133V119.127H56.6267V115.133C56.6267 114.454 56.7967 113.944 57.1365 113.604C57.4764 113.264 57.9862 113.094 58.581 113.094C59.1758 113.094 59.6856 113.264 60.0254 113.604C60.3653 113.944 60.5352 114.454 60.5352 115.133V126.519C60.5352 127.199 60.3653 127.624 60.0254 127.963C59.6856 128.303 59.1758 128.473 58.581 128.473C57.9012 128.473 57.4764 128.303 57.1365 127.963C56.7967 127.624 56.6267 127.114 56.6267 126.519V122.356H50.4241V126.519C50.4241 127.199 50.2542 127.624 49.9143 127.963C49.5744 128.303 49.0646 128.473 48.4699 128.473ZM70.4764 128.558C68.947 128.558 67.5875 128.218 66.4829 127.624C65.2934 126.944 64.4437 126.094 63.849 124.905C63.2542 123.715 62.9143 122.356 62.9143 120.826C62.9143 119.637 63.0843 118.617 63.4241 117.682C63.764 116.748 64.2738 115.898 64.9535 115.218C65.6333 114.539 66.398 114.029 67.3326 113.689C68.2673 113.349 69.2869 113.179 70.4764 113.179C72.0058 113.179 73.3653 113.519 74.4699 114.114C75.5744 114.793 76.5091 115.643 77.1039 116.833C77.7836 118.022 78.0385 119.382 78.0385 120.911C78.0385 122.101 77.8686 123.12 77.5287 124.055C77.1888 124.99 76.679 125.839 75.9993 126.519C75.3195 127.199 74.5548 127.708 73.6202 128.133C72.6856 128.473 71.666 128.643 70.4764 128.643V128.558ZM70.4764 125.244C71.2411 125.244 71.8359 125.075 72.4307 124.735C72.9405 124.395 73.3653 123.885 73.6202 123.205C73.8751 122.525 74.045 121.761 74.045 120.826C74.045 119.382 73.7052 118.362 73.1104 117.512C72.5156 116.748 71.581 116.323 70.4764 116.323C69.7117 116.323 69.1169 116.493 68.6071 116.833C68.0973 117.173 67.6725 117.682 67.4176 118.362C67.1627 119.042 66.9928 119.807 66.9928 120.741C66.9928 122.186 67.3326 123.205 67.9274 124.055C68.5222 124.82 69.4568 125.244 70.5614 125.244H70.4764ZM82.2019 128.473C81.6071 128.473 81.1823 128.303 80.9274 127.963C80.5875 127.624 80.5026 127.199 80.5026 126.604V114.793C80.5026 114.199 80.6725 113.774 81.0124 113.434C81.3522 113.094 81.7771 113.009 82.3718 113.009C82.8816 113.009 83.2215 113.094 83.5614 113.264C83.8163 113.434 84.1561 113.774 84.3261 114.199L88.9143 122.441H88.1496L92.7379 114.199C92.9928 113.774 93.2476 113.434 93.5875 113.264C93.8424 113.094 94.2673 113.009 94.7771 113.009C95.3718 113.009 95.7967 113.179 96.0516 113.434C96.3914 113.774 96.4764 114.199 96.4764 114.793V126.604C96.4764 127.199 96.3065 127.624 96.0516 127.963C95.7117 128.303 95.2869 128.473 94.6921 128.473C94.0973 128.473 93.6725 128.303 93.4176 127.963C93.0777 127.624 92.9927 127.199 92.9927 126.604V119.297H93.4176L90.0189 125.244C89.849 125.584 89.5941 125.754 89.4241 125.924C89.1692 126.094 88.9143 126.179 88.5744 126.179C88.2346 126.179 87.8947 126.094 87.7248 125.924C87.4699 125.754 87.2999 125.499 87.13 125.244L83.6463 119.297H84.1561V126.604C84.1561 127.199 83.9862 127.624 83.7313 127.963C83.3914 128.303 82.9666 128.473 82.3718 128.473H82.2019ZM101.235 128.303C100.555 128.303 100.045 128.133 99.7052 127.793C99.3653 127.454 99.1954 126.944 99.1954 126.264V115.303C99.1954 114.624 99.3653 114.114 99.7052 113.774C100.045 113.434 100.555 113.264 101.235 113.264H108.457C108.967 113.264 109.391 113.434 109.646 113.689C109.901 113.944 110.071 114.284 110.071 114.793C110.071 115.303 109.901 115.643 109.646 115.898C109.391 116.153 108.967 116.323 108.457 116.323H102.934V119.212H107.947C108.457 119.212 108.797 119.382 109.052 119.637C109.306 119.892 109.476 120.231 109.476 120.741C109.476 121.251 109.306 121.591 109.052 121.846C108.797 122.101 108.372 122.271 107.947 122.271H102.934V125.329H108.457C108.967 125.329 109.391 125.499 109.646 125.754C109.901 126.009 110.071 126.349 110.071 126.859C110.071 127.369 109.901 127.709 109.646 127.963C109.391 128.218 108.967 128.388 108.457 128.388H101.235V128.303Z" stroke="white" stroke-width="1.83835" stroke-miterlimit="2.61313" stroke-linecap="round" stroke-linejoin="round"/>
<path d="M48.4699 128.473C47.8751 128.473 47.3653 128.303 47.0254 127.963C46.6856 127.624 46.5156 127.114 46.5156 126.519V115.133C46.5156 114.454 46.6856 113.944 47.0254 113.604C47.3653 113.264 47.8751 113.094 48.4699 113.094C49.1496 113.094 49.5744 113.264 49.9143 113.604C50.2542 113.944 50.4241 114.454 50.4241 115.133V119.127H56.6267V115.133C56.6267 114.454 56.7967 113.944 57.1365 113.604C57.4764 113.264 57.9862 113.094 58.581 113.094C59.1758 113.094 59.6856 113.264 60.0254 113.604C60.3653 113.944 60.5352 114.454 60.5352 115.133V126.519C60.5352 127.199 60.3653 127.624 60.0254 127.963C59.6856 128.303 59.1758 128.473 58.581 128.473C57.9012 128.473 57.4764 128.303 57.1365 127.963C56.7967 127.624 56.6267 127.114 56.6267 126.519V122.356H50.4241V126.519C50.4241 127.199 50.2542 127.624 49.9143 127.963C49.5744 128.303 49.0646 128.473 48.4699 128.473ZM70.4764 128.558C68.947 128.558 67.5875 128.218 66.4829 127.624C65.2934 126.944 64.4437 126.094 63.849 124.905C63.2542 123.715 62.9143 122.356 62.9143 120.826C62.9143 119.637 63.0843 118.617 63.4241 117.682C63.764 116.748 64.2738 115.898 64.9535 115.218C65.6333 114.539 66.398 114.029 67.3326 113.689C68.2673 113.349 69.2869 113.179 70.4764 113.179C72.0058 113.179 73.3653 113.519 74.4699 114.114C75.5744 114.793 76.5091 115.643 77.1039 116.833C77.7836 118.022 78.0385 119.382 78.0385 120.911C78.0385 122.101 77.8686 123.12 77.5287 124.055C77.1888 124.99 76.679 125.839 75.9993 126.519C75.3195 127.199 74.5548 127.708 73.6202 128.133C72.6856 128.473 71.666 128.643 70.4764 128.643V128.558ZM70.4764 125.244C71.2411 125.244 71.8359 125.075 72.4307 124.735C72.9405 124.395 73.3653 123.885 73.6202 123.205C73.8751 122.525 74.045 121.761 74.045 120.826C74.045 119.382 73.7052 118.362 73.1104 117.512C72.5156 116.748 71.581 116.323 70.4764 116.323C69.7117 116.323 69.1169 116.493 68.6071 116.833C68.0973 117.173 67.6725 117.682 67.4176 118.362C67.1627 119.042 66.9928 119.807 66.9928 120.741C66.9928 122.186 67.3326 123.205 67.9274 124.055C68.5222 124.82 69.4568 125.244 70.5614 125.244H70.4764ZM82.2019 128.473C81.6071 128.473 81.1823 128.303 80.9274 127.963C80.5875 127.624 80.5026 127.199 80.5026 126.604V114.793C80.5026 114.199 80.6725 113.774 81.0124 113.434C81.3522 113.094 81.7771 113.009 82.3718 113.009C82.8816 113.009 83.2215 113.094 83.5614 113.264C83.8163 113.434 84.1561 113.774 84.3261 114.199L88.9143 122.441H88.1496L92.7379 114.199C92.9928 113.774 93.2477 113.434 93.5875 113.264C93.8424 113.094 94.2673 113.009 94.7771 113.009C95.3718 113.009 95.7967 113.179 96.0516 113.434C96.3914 113.774 96.4764 114.199 96.4764 114.793V126.604C96.4764 127.199 96.3065 127.624 96.0516 127.963C95.7117 128.303 95.2869 128.473 94.6921 128.473C94.0973 128.473 93.6725 128.303 93.4176 127.963C93.0777 127.624 92.9927 127.199 92.9927 126.604V119.297H93.4176L90.0189 125.244C89.849 125.584 89.5941 125.754 89.4241 125.924C89.1692 126.094 88.9143 126.179 88.5744 126.179C88.2346 126.179 87.8947 126.094 87.7248 125.924C87.4699 125.754 87.2999 125.499 87.13 125.244L83.6463 119.297H84.1562V126.604C84.1562 127.199 83.9862 127.624 83.7313 127.963C83.3914 128.303 82.9666 128.473 82.3718 128.473H82.2019ZM101.235 128.303C100.555 128.303 100.045 128.133 99.7052 127.793C99.3653 127.454 99.1954 126.944 99.1954 126.264V115.303C99.1954 114.624 99.3653 114.114 99.7052 113.774C100.045 113.434 100.555 113.264 101.235 113.264H108.457C108.967 113.264 109.391 113.434 109.646 113.689C109.901 113.944 110.071 114.284 110.071 114.793C110.071 115.303 109.901 115.643 109.646 115.898C109.391 116.153 108.967 116.323 108.457 116.323H102.934V119.212H107.947C108.457 119.212 108.797 119.382 109.052 119.637C109.306 119.892 109.476 120.231 109.476 120.741C109.476 121.251 109.306 121.591 109.052 121.846C108.797 122.101 108.372 122.271 107.947 122.271H102.934V125.329H108.457C108.967 125.329 109.391 125.499 109.646 125.754C109.901 126.009 110.071 126.349 110.071 126.859C110.071 127.369 109.901 127.709 109.646 127.963C109.391 128.218 108.967 128.388 108.457 128.388H101.235V128.303Z" fill="black"/>
<path fill-rule="evenodd" clip-rule="evenodd" d="M2.16272 47.0745C-1.23598 55.0614 0.208467 64.2379 4.032 70.4405L4.45683 71.0353L4.96664 71.8849L5.39147 72.3948L6.75095 74.1791C7.43069 74.1791 7.26075 74.0091 7.26075 74.6889L9.04507 76.4732C9.80977 76.4732 9.63984 76.3033 9.63984 76.983C12.7836 79.447 13.8882 80.3817 18.3915 81.8261C24.5091 83.8653 25.7836 83.0157 30.117 82.9307C34.3653 101.029 54.6725 102.558 63.1692 90.8327L64.8686 88.3686C66.398 93.9765 73.7052 97.3752 79.2281 98.2248C81.4372 98.5647 82.6268 98.1399 84.496 97.8C86.8751 97.3752 86.5353 97.6301 88.5745 98.9046C99.2803 105.362 115.169 101.624 122.222 90.3229C123.581 88.1137 125.45 84.4601 125.705 81.4863C131.738 82.8457 137.856 85.3948 146.097 80.3817C148.986 78.5974 150.856 76.8131 152.725 74.264C154.084 72.3948 156.633 68.1464 156.123 65.0876C157.653 55.0614 152.895 46.9895 144.908 42.7412C141.169 40.7869 140.235 41.3817 136.581 40.1921C135.476 37.3032 135.731 28.8915 126.385 25.5778C116.529 22.0941 111.601 29.1464 109.137 30.4209C107.607 23.1137 100.64 19.63 93.1627 19.5451C92.483 17.4209 91.8882 16.4013 90.6987 14.617L87.5549 10.1137C85.5156 8.66926 83.8163 6.54508 81.0974 4.9307C78.6333 3.48625 76.0843 2.29671 72.7706 1.36207C55.3523 -3.22617 35.5549 8.07449 34.6202 31.5255C28.3327 31.2706 23.1496 28.7215 13.8032 33.9895C5.39147 38.7477 3.69213 45.5451 2.33265 46.9895L2.16272 47.0745Z" fill="#96CFFF"/>
<path fill-rule="evenodd" clip-rule="evenodd" d="M46.6856 57.0157C47.1954 61.0091 50.0843 72.6497 51.2738 77.8327C51.4437 78.6823 52.2934 84.2052 53.1431 84.4601H67.0777L66.9928 66.7019C66.9928 63.898 68.2673 62.6235 71.0712 62.6235C85.0058 62.6235 84.3261 61.434 84.3261 71.5451V84.5451H96.9012C97.9209 83.7804 98.6006 79.532 98.9405 78.0876C99.5352 75.7935 100.13 73.5843 100.725 71.2052C101.489 68.1464 104.123 59.8196 104.208 57.2706C103.019 56.3359 77.1039 34.4144 75.4895 33.6497C74.5548 34.2444 72.7705 35.7738 71.8359 36.5385C70.4764 37.6431 69.6267 38.3229 68.3522 39.4274L46.5156 57.1856L46.6856 57.0157ZM81.862 58.5451H67.7575C67.5026 57.4405 67.2477 56.4209 66.9928 55.3163L66.398 52.9372C66.1431 51.8327 65.8882 50.8131 65.6333 49.7085C65.3784 48.6039 65.1235 47.5843 64.8686 46.4797H85.5156C85.1758 47.5843 84.8359 48.6039 84.581 49.7085L83.9012 52.0876C83.5614 53.1921 83.2215 54.2117 82.9666 55.3163C82.6267 56.4209 82.2869 57.4405 82.032 58.5451H81.7771H81.862ZM66.7378 52.0876H75.9143V49.5385H66.9078C67.0777 50.3033 67.2477 51.1529 67.4176 51.9176C67.5875 52.6823 67.7575 53.532 67.9274 54.2967L66.7378 52.0876ZM75.4045 52.0876H83.0516C83.3065 51.3229 83.4764 50.4732 83.7313 49.7085C83.9862 48.9438 84.1561 48.0941 84.411 47.3294H75.4045V48.434V52.0876ZM74.6398 57.6954V55.7412H67.5026C67.6725 56.5059 67.8424 57.3555 68.0124 58.1202C68.1823 58.885 68.3522 59.7346 68.5222 60.4993H75.1496L74.6398 57.6954ZM75.2346 57.6954H81.862C82.1169 56.9307 82.2869 56.081 82.5418 55.3163C82.7967 54.5516 82.9666 53.7019 83.2215 52.9372H75.9993V54.9765L75.2346 57.6954Z" fill="#003399"/>
<path fill-rule="evenodd" clip-rule="evenodd" d="M60.1954 30.6758C59.4307 23.2837 62.6595 19.3752 52.2935 20.6497C49.1497 21.0745 49.6595 24.1333 49.6595 27.1072V36.3686C49.6595 40.9569 49.7445 39.9373 44.3915 44.4405L39.3784 48.6889C36.4046 51.1529 33.0909 53.4471 34.7052 56.9307C35.4699 58.6301 38.019 60.6693 40.7379 59.3098C42.0974 58.6301 44.3065 56.3359 45.666 55.2314L72.9405 32.5451C73.7902 31.7804 74.7248 30.9307 75.4895 30.4209L106.078 55.8261C107.182 56.8458 107.862 57.5255 109.052 58.4601C113.47 62.1137 118.738 56.4209 116.019 52.5974C115.339 51.6627 111.261 48.349 109.986 47.0745C109.392 46.5647 108.967 46.3098 108.457 45.8L102.509 40.532C101.914 40.0222 101.659 39.6824 101.065 39.1726L81.6072 22.1791C78.9732 20.0549 76.0843 16.4863 72.3458 19.885L63.3392 27.702C62.4046 28.5516 61.1301 29.6562 60.1105 30.3359L60.1954 30.6758Z" fill="#003399"/>
</svg>
