<svg width="65" height="65" viewBox="0 0 65 65" fill="none" xmlns="http://www.w3.org/2000/svg">
<rect opacity="0.5" width="65" height="65" rx="32.5" fill="black" fill-opacity="0.15"/>
<g clip-path="url(#clip0_3329_9322)">
<path d="M49.6667 21.5423V15.3356C49.6667 14.4156 48.9217 13.669 48 13.669C47.0783 13.669 46.3333 14.4156 46.3333 15.3356V19.279L37.6617 13.4273C34.83 11.5173 31.17 11.5173 28.3383 13.4273L16.6717 21.3006C14.3733 22.8523 13 25.434 13 28.209V43.669C13 48.264 16.7383 52.0023 21.3333 52.0023H26.3333C27.255 52.0023 28 51.2556 28 50.3356V37.0023C28 36.084 28.7467 35.3356 29.6667 35.3356H36.3333C37.2533 35.3356 38 36.084 38 37.0023V50.3356C38 51.2556 38.745 52.0023 39.6667 52.0023H44.6667C49.2617 52.0023 53 48.264 53 43.669V28.209C53 25.574 51.76 23.1123 49.6667 21.5423ZM49.6667 43.669C49.6667 46.4256 47.4233 48.669 44.6667 48.669H41.3333V37.0023C41.3333 34.2456 39.09 32.0023 36.3333 32.0023H29.6667C26.91 32.0023 24.6667 34.2456 24.6667 37.0023V48.669H21.3333C18.5767 48.669 16.3333 46.4256 16.3333 43.669V28.209C16.3333 26.544 17.1567 24.994 18.5367 24.064L30.2033 16.1906C31.9033 15.044 34.0967 15.044 35.795 16.1906L47.4617 24.064C48.8417 24.994 49.665 26.544 49.665 28.209L49.6667 43.669Z" fill="#ED1C24"/>
</g>
<defs>
<clipPath id="clip0_3329_9322">
<rect width="40" height="40" fill="white" transform="translate(13 12)"/>
</clipPath>
</defs>
</svg>
