<svg width="24" height="24" viewBox="0 0 24 24" fill="none" xmlns="http://www.w3.org/2000/svg">
<g clip-path="url(#clip0_3263_26748)">
<path d="M21.206 14.116C22.258 12.909 22.258 11.09 21.206 9.884C20.206 8.738 16.587 5 12.001 5C7.415 5 3.795 8.738 2.795 9.883C1.741 11.09 1.741 12.909 2.795 14.115C3.795 15.261 7.414 18.999 12 18.999C16.586 18.999 20.206 15.261 21.206 14.115V14.116ZM12 18C8.691 18 5.465 15.654 3.548 13.458C2.822 12.627 2.822 11.373 3.548 10.541C5.464 8.346 8.69 6 11.999 6C15.308 6 18.535 8.346 20.451 10.541C21.177 11.373 21.177 12.627 20.451 13.459C18.534 15.654 15.308 18 11.999 18H12ZM12 9C10.346 9 9 10.346 9 12C9 13.654 10.346 15 12 15C13.654 15 15 13.654 15 12C15 10.346 13.654 9 12 9ZM12 14C10.897 14 10 13.103 10 12C10 10.897 10.897 10 12 10C13.103 10 14 10.897 14 12C14 13.103 13.103 14 12 14ZM0 6.5V4.5C0 2.019 2.019 0 4.5 0H6.5C6.776 0 7 0.224 7 0.5C7 0.776 6.776 1 6.5 1H4.5C2.57 1 1 2.57 1 4.5V6.5C1 6.776 0.776 7 0.5 7C0.224 7 0 6.776 0 6.5ZM7 23.5C7 23.776 6.776 24 6.5 24H4.5C2.019 24 0 21.981 0 19.5V17.5C0 17.224 0.224 17 0.5 17C0.776 17 1 17.224 1 17.5V19.5C1 21.43 2.57 23 4.5 23H6.5C6.776 23 7 23.224 7 23.5ZM24 17.5V19.5C24 21.981 21.981 24 19.5 24H17.5C17.224 24 17 23.776 17 23.5C17 23.224 17.224 23 17.5 23H19.5C21.43 23 23 21.43 23 19.5V17.5C23 17.224 23.224 17 23.5 17C23.776 17 24 17.224 24 17.5ZM24 4.5V6.5C24 6.776 23.776 7 23.5 7C23.224 7 23 6.776 23 6.5V4.5C23 2.57 21.43 1 19.5 1H17.5C17.224 1 17 0.776 17 0.5C17 0.224 17.224 0 17.5 0H19.5C21.981 0 24 2.019 24 4.5Z" fill="black"/>
</g>
<defs>
<clipPath id="clip0_3263_26748">
<rect width="24" height="24" fill="white"/>
</clipPath>
</defs>
</svg>
