<svg width="157" height="129" viewBox="0 0 157 129" fill="none" xmlns="http://www.w3.org/2000/svg">
<path d="M45.3328 128.057C44.762 128.057 44.3814 127.962 44.0009 127.676C43.7155 127.486 43.43 127.106 43.1446 126.63L38.0072 115.308C37.8169 114.833 37.7218 114.357 37.8169 113.977C37.9121 113.596 38.1023 113.311 38.3878 113.025C38.6732 112.835 39.0537 112.74 39.5294 112.74C40.1002 112.74 40.5759 112.835 40.8613 113.12C41.1467 113.406 41.4322 113.786 41.6224 114.262L45.9988 124.347H44.762L49.1383 114.262C49.3286 113.786 49.614 113.406 49.8994 113.12C50.1848 112.835 50.6605 112.74 51.1362 112.74C51.6119 112.74 51.8973 112.835 52.2778 113.025C52.5633 113.215 52.7535 113.596 52.8487 113.977C52.9438 114.357 52.8487 114.833 52.6584 115.308L47.521 126.63C47.3307 127.106 47.0453 127.486 46.7599 127.676C46.4744 127.867 45.9988 128.057 45.4279 128.057H45.3328ZM56.559 128.057C55.8931 128.057 55.4174 127.867 55.132 127.581C54.7514 127.201 54.6563 126.725 54.6563 126.059V114.642C54.6563 113.977 54.8466 113.501 55.132 113.12C55.5125 112.74 55.9882 112.645 56.559 112.645C57.225 112.645 57.7007 112.835 57.9861 113.12C58.2715 113.501 58.4618 113.977 58.4618 114.642V126.059C58.4618 126.725 58.2715 127.201 57.9861 127.581C57.7007 127.962 57.1299 128.057 56.559 128.057ZM63.3138 127.867C62.6478 127.867 62.1721 127.676 61.7916 127.391C61.411 127.01 61.3159 126.535 61.3159 125.869V114.928C61.3159 114.262 61.5062 113.786 61.7916 113.406C62.1721 113.025 62.6478 112.93 63.3138 112.93H67.4998C70.0686 112.93 72.1616 113.596 73.5887 114.928C75.0157 116.26 75.6817 118.067 75.6817 120.446C75.6817 121.683 75.4914 122.729 75.1109 123.585C74.7303 124.537 74.2546 125.298 73.4935 125.964C72.8276 126.63 71.9713 127.106 70.9248 127.391C69.8783 127.676 68.7366 127.867 67.4047 127.867H63.2187H63.3138ZM65.2165 124.727H67.2144C67.9755 124.727 68.6415 124.632 69.1172 124.442C69.688 124.251 70.1637 123.966 70.4491 123.585C70.8297 123.205 71.1151 122.824 71.2102 122.254C71.4005 121.683 71.4956 121.112 71.4956 120.351C71.4956 118.829 71.1151 117.782 70.4491 117.116C69.688 116.45 68.6415 116.07 67.1193 116.07H65.1214V124.727H65.2165ZM80.058 127.867C79.3921 127.867 78.9164 127.676 78.5358 127.391C78.1553 127.01 78.0601 126.535 78.0601 125.869V114.928C78.0601 114.262 78.2504 113.786 78.5358 113.406C78.9164 113.025 79.3921 112.93 80.058 112.93H87.2885C87.7642 112.93 88.1447 113.025 88.4301 113.311C88.7155 113.596 88.8107 113.977 88.8107 114.452C88.8107 114.928 88.7155 115.308 88.4301 115.594C88.1447 115.879 87.7642 115.974 87.2885 115.974H81.7705V118.829H86.8128C87.2885 118.829 87.669 118.924 87.9544 119.209C88.2398 119.495 88.335 119.875 88.335 120.351C88.335 120.826 88.2398 121.207 87.9544 121.492C87.669 121.778 87.2885 121.873 86.8128 121.873H81.7705V124.917H87.2885C87.7642 124.917 88.1447 125.012 88.4301 125.298C88.7155 125.583 88.8107 125.964 88.8107 126.44C88.8107 126.915 88.7155 127.296 88.4301 127.581C88.1447 127.867 87.7642 127.962 87.2885 127.962H80.058V127.867ZM98.3244 128.057C96.8022 128.057 95.4703 127.771 94.3287 127.106C93.187 126.44 92.3308 125.583 91.6648 124.347C90.9988 123.205 90.7134 121.873 90.7134 120.256C90.7134 119.114 90.9037 118.067 91.2842 117.116C91.6648 116.165 92.1405 115.308 92.8064 114.642C93.4724 113.977 94.3286 113.406 95.1849 113.12C96.1363 112.74 97.1828 112.549 98.3244 112.549C99.8466 112.549 101.179 112.835 102.32 113.501C103.462 114.167 104.318 115.023 104.984 116.165C105.65 117.306 105.935 118.638 105.935 120.256C105.935 121.397 105.745 122.444 105.365 123.395C104.984 124.347 104.508 125.203 103.842 125.869C103.176 126.535 102.32 127.106 101.464 127.486C100.513 127.867 99.4661 128.057 98.3244 128.057ZM98.3244 124.822C99.0855 124.822 99.7515 124.632 100.227 124.251C100.798 123.871 101.179 123.395 101.464 122.729C101.749 122.063 101.845 121.302 101.845 120.351C101.845 118.924 101.559 117.877 100.893 117.116C100.227 116.355 99.3709 115.974 98.2293 115.974C97.4682 115.974 96.8974 116.165 96.3265 116.45C95.7557 116.831 95.3752 117.306 95.0898 117.972C94.8043 118.638 94.7092 119.399 94.7092 120.351C94.7092 121.778 94.9946 122.824 95.6606 123.681C96.3265 124.442 97.1828 124.822 98.3244 124.822ZM113.832 128.057C113.261 128.057 112.69 128.057 112.024 127.962C111.453 127.867 110.787 127.771 110.312 127.581C109.741 127.391 109.265 127.201 108.79 127.01C108.409 126.82 108.124 126.63 108.028 126.249C107.838 125.964 107.838 125.583 107.838 125.298C107.838 124.917 108.028 124.632 108.219 124.347C108.409 124.061 108.694 123.871 108.98 123.776C109.265 123.681 109.646 123.776 110.121 123.871C110.692 124.156 111.263 124.347 111.929 124.442C112.595 124.537 113.261 124.632 113.832 124.632C114.783 124.632 115.449 124.537 115.83 124.251C116.21 123.966 116.401 123.681 116.401 123.3C116.401 123.015 116.305 122.729 116.02 122.539C115.735 122.349 115.259 122.158 114.593 122.063L112.119 121.492C110.787 121.207 109.741 120.731 109.075 119.97C108.409 119.304 108.028 118.353 108.028 117.211C108.028 116.45 108.219 115.784 108.504 115.213C108.79 114.642 109.265 114.072 109.836 113.691C110.407 113.311 111.073 112.93 111.834 112.74C112.595 112.549 113.451 112.359 114.403 112.359C115.164 112.359 115.925 112.454 116.686 112.645C117.447 112.835 118.113 113.025 118.684 113.406C118.969 113.596 119.255 113.786 119.35 114.072C119.445 114.357 119.54 114.642 119.54 115.023C119.54 115.308 119.445 115.594 119.255 115.879C119.064 116.165 118.779 116.26 118.494 116.355C118.208 116.45 117.828 116.355 117.352 116.165C116.971 115.974 116.496 115.879 115.925 115.784C115.449 115.689 114.878 115.689 114.403 115.689C113.832 115.689 113.451 115.784 113.071 115.879C112.69 115.974 112.405 116.165 112.215 116.355C112.024 116.545 111.929 116.831 111.929 117.116C111.929 117.401 112.024 117.687 112.31 117.877C112.595 118.067 112.976 118.258 113.642 118.353L116.115 118.924C117.447 119.209 118.494 119.685 119.16 120.351C119.826 121.017 120.206 121.873 120.206 123.015C120.206 123.776 120.016 124.442 119.73 125.012C119.445 125.583 118.969 126.154 118.494 126.535C117.923 126.915 117.257 127.296 116.496 127.486C115.735 127.676 114.878 127.867 113.832 127.867V128.057Z" stroke="white" stroke-width="1.87126" stroke-miterlimit="2.61313" stroke-linecap="round" stroke-linejoin="round"/>
<path d="M45.3328 128.057C44.762 128.057 44.3814 127.962 44.0009 127.676C43.7155 127.486 43.43 127.106 43.1446 126.63L38.0072 115.308C37.8169 114.833 37.7218 114.357 37.8169 113.977C37.9121 113.596 38.1023 113.311 38.3878 113.025C38.6732 112.835 39.0537 112.74 39.5294 112.74C40.1002 112.74 40.5759 112.835 40.8613 113.12C41.1467 113.406 41.4322 113.786 41.6224 114.262L45.9988 124.347H44.762L49.1383 114.262C49.3286 113.786 49.614 113.406 49.8994 113.12C50.1848 112.835 50.6605 112.74 51.1362 112.74C51.6119 112.74 51.8973 112.835 52.2778 113.025C52.5633 113.215 52.7535 113.596 52.8487 113.977C52.9438 114.357 52.8487 114.833 52.6584 115.308L47.521 126.63C47.3307 127.106 47.0453 127.486 46.7599 127.676C46.4744 127.867 45.9988 128.057 45.4279 128.057H45.3328ZM56.559 128.057C55.8931 128.057 55.4174 127.867 55.132 127.581C54.7514 127.201 54.6563 126.725 54.6563 126.059V114.642C54.6563 113.977 54.8466 113.501 55.132 113.12C55.5125 112.74 55.9882 112.645 56.559 112.645C57.225 112.645 57.7007 112.835 57.9861 113.12C58.2715 113.501 58.4618 113.977 58.4618 114.642V126.059C58.4618 126.725 58.2715 127.201 57.9861 127.581C57.7007 127.962 57.1299 128.057 56.559 128.057ZM63.3138 127.867C62.6478 127.867 62.1721 127.676 61.7916 127.391C61.411 127.01 61.3159 126.535 61.3159 125.869V114.928C61.3159 114.262 61.5062 113.786 61.7916 113.406C62.1721 113.025 62.6478 112.93 63.3138 112.93H67.4998C70.0686 112.93 72.1616 113.596 73.5887 114.928C75.0157 116.26 75.6817 118.067 75.6817 120.446C75.6817 121.683 75.4914 122.729 75.1109 123.585C74.7303 124.537 74.2546 125.298 73.4935 125.964C72.8276 126.63 71.9713 127.106 70.9248 127.391C69.8783 127.676 68.7366 127.867 67.4047 127.867H63.2187H63.3138ZM65.2166 124.727H67.2144C67.9755 124.727 68.6415 124.632 69.1172 124.442C69.688 124.251 70.1637 123.966 70.4491 123.585C70.8297 123.205 71.1151 122.824 71.2102 122.254C71.4005 121.683 71.4956 121.112 71.4956 120.351C71.4956 118.829 71.1151 117.782 70.4491 117.116C69.688 116.45 68.6415 116.07 67.1193 116.07H65.1214V124.727H65.2166ZM80.058 127.867C79.3921 127.867 78.9164 127.676 78.5358 127.391C78.1553 127.01 78.0601 126.535 78.0601 125.869V114.928C78.0601 114.262 78.2504 113.786 78.5358 113.406C78.9164 113.025 79.3921 112.93 80.058 112.93H87.2885C87.7642 112.93 88.1447 113.025 88.4301 113.311C88.7155 113.596 88.8107 113.977 88.8107 114.452C88.8107 114.928 88.7155 115.308 88.4301 115.594C88.1447 115.879 87.7642 115.974 87.2885 115.974H81.7705V118.829H86.8128C87.2885 118.829 87.669 118.924 87.9544 119.209C88.2398 119.495 88.335 119.875 88.335 120.351C88.335 120.826 88.2398 121.207 87.9544 121.492C87.669 121.778 87.2885 121.873 86.8128 121.873H81.7705V124.917H87.2885C87.7642 124.917 88.1447 125.012 88.4301 125.298C88.7155 125.583 88.8107 125.964 88.8107 126.44C88.8107 126.915 88.7155 127.296 88.4301 127.581C88.1447 127.867 87.7642 127.962 87.2885 127.962H80.058V127.867ZM98.3244 128.057C96.8022 128.057 95.4703 127.771 94.3287 127.106C93.187 126.44 92.3308 125.583 91.6648 124.347C90.9988 123.205 90.7134 121.873 90.7134 120.256C90.7134 119.114 90.9037 118.067 91.2842 117.116C91.6648 116.165 92.1405 115.308 92.8064 114.642C93.4724 113.977 94.3286 113.406 95.1849 113.12C96.1363 112.74 97.1828 112.549 98.3244 112.549C99.8466 112.549 101.179 112.835 102.32 113.501C103.462 114.167 104.318 115.023 104.984 116.165C105.65 117.306 105.935 118.638 105.935 120.256C105.935 121.397 105.745 122.444 105.365 123.395C104.984 124.347 104.508 125.203 103.842 125.869C103.176 126.535 102.32 127.106 101.464 127.486C100.513 127.867 99.4661 128.057 98.3244 128.057ZM98.3244 124.822C99.0855 124.822 99.7515 124.632 100.227 124.251C100.798 123.871 101.179 123.395 101.464 122.729C101.749 122.063 101.845 121.302 101.845 120.351C101.845 118.924 101.559 117.877 100.893 117.116C100.227 116.355 99.3709 115.974 98.2293 115.974C97.4682 115.974 96.8974 116.165 96.3265 116.45C95.7557 116.831 95.3752 117.306 95.0898 117.972C94.8043 118.638 94.7092 119.399 94.7092 120.351C94.7092 121.778 94.9946 122.824 95.6606 123.681C96.3265 124.442 97.1828 124.822 98.3244 124.822ZM113.832 128.057C113.261 128.057 112.69 128.057 112.024 127.962C111.453 127.867 110.787 127.771 110.312 127.581C109.741 127.391 109.265 127.201 108.79 127.01C108.409 126.82 108.124 126.63 108.028 126.249C107.838 125.964 107.838 125.583 107.838 125.298C107.838 124.917 108.028 124.632 108.219 124.347C108.409 124.061 108.694 123.871 108.98 123.776C109.265 123.681 109.646 123.776 110.121 123.871C110.692 124.156 111.263 124.347 111.929 124.442C112.595 124.537 113.261 124.632 113.832 124.632C114.783 124.632 115.449 124.537 115.83 124.251C116.21 123.966 116.401 123.681 116.401 123.3C116.401 123.015 116.305 122.729 116.02 122.539C115.735 122.349 115.259 122.158 114.593 122.063L112.119 121.492C110.787 121.207 109.741 120.731 109.075 119.97C108.409 119.304 108.028 118.353 108.028 117.211C108.028 116.45 108.219 115.784 108.504 115.213C108.79 114.642 109.265 114.072 109.836 113.691C110.407 113.311 111.073 112.93 111.834 112.74C112.595 112.549 113.451 112.359 114.403 112.359C115.164 112.359 115.925 112.454 116.686 112.645C117.447 112.835 118.113 113.025 118.684 113.406C118.969 113.596 119.255 113.786 119.35 114.072C119.445 114.357 119.54 114.642 119.54 115.023C119.54 115.308 119.445 115.594 119.255 115.879C119.064 116.165 118.779 116.26 118.494 116.355C118.208 116.45 117.828 116.355 117.352 116.165C116.971 115.974 116.496 115.879 115.925 115.784C115.449 115.689 114.878 115.689 114.403 115.689C113.832 115.689 113.451 115.784 113.071 115.879C112.69 115.974 112.405 116.165 112.215 116.355C112.024 116.545 111.929 116.831 111.929 117.116C111.929 117.401 112.024 117.687 112.31 117.877C112.595 118.067 112.976 118.258 113.642 118.353L116.115 118.924C117.447 119.209 118.494 119.685 119.16 120.351C119.826 121.017 120.206 121.873 120.206 123.015C120.206 123.776 120.016 124.442 119.73 125.012C119.445 125.583 118.969 126.154 118.494 126.535C117.923 126.915 117.257 127.296 116.496 127.486C115.735 127.676 114.878 127.867 113.832 127.867V128.057Z" fill="black"/>
<path fill-rule="evenodd" clip-rule="evenodd" d="M2.90143 46.6191C-0.523524 54.6107 0.90354 63.7439 4.70904 70.0229L5.18473 70.5938L5.66042 71.45L6.13611 72.0208L7.46803 73.8285C8.134 73.8285 7.94372 73.6382 7.94372 74.3041L9.75133 76.1118C10.5124 76.1118 10.3222 75.9215 10.3222 76.5874C13.4617 79.061 14.6034 80.0124 19.0748 81.4395C25.1636 83.4374 26.4956 82.5811 30.7767 82.486C34.9628 100.562 55.3222 102.084 63.7895 90.3824L65.502 88.004C67.0242 93.6171 74.3498 96.9469 79.8677 97.8983C82.0559 98.2788 83.1975 97.8031 85.1003 97.5177C87.4787 97.1372 87.0982 97.4226 89.1912 98.6594C99.8466 105.129 115.83 101.323 122.775 90.0018C124.107 87.8137 126.009 84.1984 126.295 81.154C132.289 82.5811 138.377 85.0547 146.654 80.0124C149.508 78.2999 151.411 76.4923 153.314 73.8285C154.646 72.0208 157.31 67.7396 156.644 64.6001C158.166 54.5155 153.409 46.4288 145.418 42.2428C141.707 40.2449 140.756 40.8157 137.045 39.6741C135.904 36.7248 136.189 28.3527 126.866 25.118C117.067 21.6931 112.119 28.7332 109.646 29.97C108.124 22.6444 101.179 19.2195 93.6627 19.1243C92.9967 17.0313 92.4259 15.9848 91.1891 14.1772L88.0496 9.70572C86.0517 8.18352 84.3392 6.09049 81.5802 4.56829C79.1066 3.14123 76.5379 1.90444 73.2081 1.0482C55.7979 -3.5184 36.0093 7.80297 35.0579 31.2068C28.7788 30.9214 23.6414 28.3527 14.2228 33.6804C5.75556 38.4373 4.04308 45.192 2.71115 46.7142L2.90143 46.6191Z" fill="#96CFFF"/>
<path fill-rule="evenodd" clip-rule="evenodd" d="M90.8086 71.8306C90.5232 69.6424 92.0454 69.0716 93.9481 69.0716C95.946 69.0716 97.9439 68.8813 98.2293 70.9743C98.8001 74.9701 92.2356 73.6382 92.2356 73.6382C91.5697 73.4479 90.9989 72.6868 90.8086 71.8306ZM79.8678 71.8306C79.7726 70.8792 80.058 70.1181 80.6289 69.6424C81.2948 68.9764 81.9608 69.0716 83.0073 69.0716C85.1003 69.0716 86.9079 68.8813 87.2885 70.9743C87.669 73.2576 86.1468 73.7333 84.0538 73.7333C82.0559 73.7333 80.1532 73.8284 79.8678 71.8306ZM46.3793 71.8306C45.9988 69.4521 47.9015 69.0716 49.5189 69.0716C51.6119 69.0716 53.4195 68.8813 53.7049 70.9743C53.8952 71.9257 53.5146 72.6868 52.9438 73.1625C52.2779 73.8284 51.6119 73.7333 50.5654 73.7333C48.4724 73.7333 46.6647 73.9236 46.2842 71.8306H46.3793ZM68.5464 71.6403C68.3561 69.4521 69.8783 69.0716 71.8762 69.0716C73.9692 69.0716 75.7768 68.9764 75.9671 71.1646C76.1574 73.543 74.3498 73.8284 72.5422 73.7333C70.5443 73.7333 68.7367 73.7333 68.5464 71.6403ZM65.0263 72.0208C64.4555 74.0187 62.8381 73.7333 60.7451 73.7333C58.7472 73.7333 57.1299 72.9722 57.7958 70.6889C58.2715 68.7861 60.0791 69.0716 62.1722 69.0716C63.2187 69.0716 63.8846 69.0716 64.4555 69.7375C65.0263 70.3084 65.3117 71.1646 65.0263 72.0208ZM45.5231 33.7755H99.8467C100.227 33.9658 100.037 33.6804 100.132 34.4415V50.3295C100.132 52.7079 100.417 65.932 100.037 66.9785C96.7071 67.3591 45.7134 67.0737 45.3328 66.8834C45.0474 65.6466 45.1425 35.488 45.2377 34.1561C45.3328 32.9193 45.2377 33.8707 45.5231 33.5852V33.7755ZM47.6161 27.5916C48.5675 27.0208 52.2779 27.211 52.9438 27.877C54.0855 28.9235 53.8952 31.2068 52.4681 31.8728C51.4216 32.3485 47.9015 32.1582 47.1404 31.5874C45.7134 30.5408 46.0939 28.3527 47.6161 27.5916ZM95.8509 27.3062C97.5634 27.3062 98.6099 28.9235 98.039 30.636C97.3731 32.2533 95.8509 32.063 93.9481 32.063C92.0454 32.063 90.7134 31.6825 90.8086 29.5895C90.9037 27.0207 93.5676 27.4013 95.946 27.4013L95.8509 27.3062ZM69.4978 31.6825L69.0221 31.3019C68.7367 30.5408 68.3561 30.1603 68.5464 29.1138C68.7367 28.3527 69.2123 27.6867 69.7832 27.4964C70.8297 27.0208 74.3498 27.1159 75.1109 27.7819C76.2525 28.7332 76.2525 30.9214 74.7303 31.7776C73.5887 32.3485 70.5443 32.063 69.4978 31.7776V31.6825ZM60.1743 31.9679C58.4618 31.9679 57.3202 30.9214 57.7007 29.0186C58.0813 27.211 59.6986 27.3062 61.6013 27.3062C63.5992 27.3062 64.9312 27.4964 65.1214 29.3992C65.4068 32.4436 62.2673 31.9679 60.1743 31.9679ZM81.1045 27.5916C82.1511 27.1159 85.6711 27.1159 86.4322 27.877C87.7642 29.0186 87.3836 31.3019 85.9566 31.8728C84.8149 32.3485 81.4851 32.2533 80.6289 31.5874C79.5823 30.7311 79.2969 28.543 81.0094 27.6867L81.1045 27.5916ZM40.2905 29.6846V69.2618C40.2905 76.3972 41.8127 76.2069 48.0918 76.2069H99.8467C102.511 76.2069 104.033 75.8263 104.889 73.7333C105.65 72.0208 105.269 62.0314 105.269 59.3675V29.6846C105.269 28.0673 104.794 26.8305 103.938 25.9742C102.796 24.8326 101.654 24.9277 99.7515 24.9277H44.5717C41.8127 24.9277 40.2905 26.7353 40.2905 29.5895V29.6846Z" fill="#003399"/>
<path fill-rule="evenodd" clip-rule="evenodd" d="M65.6923 63.6487L75.6817 56.6086C77.3942 55.4669 79.0115 54.2301 80.724 52.9933C81.5802 52.4225 82.3413 51.8517 83.1976 51.1857C83.8635 50.71 85.2906 49.8538 85.6711 49.0927C84.0538 48.5219 66.8339 37.5811 65.5971 37.2005V63.5536L65.6923 63.6487ZM62.743 63.7439H64.5506V37.2956L62.743 37.2005V63.7439Z" fill="#003399"/>
<path d="M42.0981 85.7207C41.0516 85.7207 40.1954 84.8644 40.1954 83.8179C40.1954 82.7714 41.0516 81.9152 42.0981 81.9152H103.652C104.699 81.9152 105.555 82.7714 105.555 83.8179C105.555 84.8644 104.699 85.7207 103.652 85.7207H42.0981Z" fill="#5979BC"/>
<path d="M42.0981 85.7207C41.0516 85.7207 40.1954 84.8644 40.1954 83.8179C40.1954 82.7714 41.0516 81.9152 42.0981 81.9152H82.817C83.8635 81.9152 84.7198 82.7714 84.7198 83.8179C84.7198 84.8644 83.8635 85.7207 82.817 85.7207H42.0981Z" fill="#003399"/>
<path fill-rule="evenodd" clip-rule="evenodd" d="M83.5781 79.5367C86.0517 79.5367 88.1447 81.5346 88.1447 84.1034C88.1447 86.5769 86.1468 88.67 83.5781 88.67C81.1045 88.67 79.0115 86.6721 79.0115 84.1034C79.0115 81.6298 81.0094 79.5367 83.5781 79.5367Z" fill="#003399"/>
</svg>
