<svg width="157" height="131" viewBox="0 0 157 131" fill="none" xmlns="http://www.w3.org/2000/svg">
<path d="M39.3696 129.037C38.8433 129.037 38.317 128.932 38.1065 128.616C37.7907 128.3 37.6854 127.879 37.6854 127.248V115.458C37.6854 114.827 37.896 114.406 38.2117 114.09C38.5275 113.774 38.9486 113.669 39.5802 113.669C40.1065 113.669 40.4223 113.774 40.7381 113.985C41.0538 114.195 41.2644 114.511 41.5802 114.932L46.1065 123.142H45.3696L49.896 114.932C50.1065 114.511 50.4223 114.195 50.7381 113.985C51.0538 113.774 51.3696 113.669 51.896 113.669C52.4223 113.669 52.9486 113.774 53.1591 114.09C53.4749 114.406 53.5802 114.827 53.5802 115.458V127.248C53.5802 127.774 53.4749 128.3 53.1591 128.616C52.8433 128.932 52.4223 129.037 51.7907 129.037C51.2644 129.037 50.7381 128.932 50.5275 128.616C50.2117 128.3 50.1065 127.879 50.1065 127.248V119.879H50.5275L47.0538 125.879C46.8433 126.195 46.6328 126.406 46.4223 126.616C46.2117 126.721 45.8959 126.827 45.5802 126.827C45.2644 126.827 44.9486 126.721 44.7381 126.616C44.5275 126.511 44.317 126.195 44.1065 125.879L40.6328 119.879H41.1591V127.248C41.1591 127.774 41.0538 128.3 40.7381 128.616C40.4223 128.932 40.0012 129.037 39.3696 129.037ZM63.5802 129.037C62.1065 129.037 60.7381 128.721 59.5802 128.09C58.4223 127.458 57.5802 126.511 56.9486 125.353C56.317 124.195 56.0012 122.827 56.0012 121.248C56.0012 120.09 56.2117 119.037 56.5275 118.09C56.8433 117.142 57.3696 116.3 58.1065 115.669C58.7381 115.037 59.5802 114.511 60.5275 114.09C61.4749 113.774 62.5275 113.563 63.6854 113.563C65.1591 113.563 66.5275 113.879 67.6854 114.511C68.8433 115.142 69.6854 116.09 70.317 117.248C70.9486 118.406 71.2644 119.774 71.2644 121.353C71.2644 122.511 71.0538 123.563 70.7381 124.511C70.4223 125.458 69.896 126.3 69.1591 126.932C68.5275 127.669 67.6854 128.195 66.7381 128.511C65.7907 128.827 64.7381 129.037 63.6854 129.037H63.5802ZM63.5802 125.774C64.317 125.774 64.9486 125.563 65.4749 125.248C66.0012 124.932 66.4223 124.406 66.7381 123.669C67.0538 123.037 67.1591 122.195 67.1591 121.248C67.1591 119.879 66.8433 118.721 66.2117 117.985C65.5802 117.248 64.7381 116.827 63.5802 116.827C62.8433 116.827 62.2117 117.037 61.6854 117.353C61.1591 117.669 60.7381 118.195 60.4223 118.827C60.1065 119.458 60.0012 120.3 60.0012 121.248C60.0012 122.616 60.317 123.774 60.9486 124.511C61.5802 125.248 62.4223 125.669 63.5802 125.669V125.774ZM79.6854 129.037C79.1591 129.037 78.7381 128.932 78.4223 128.721C78.1065 128.511 77.7907 128.09 77.5802 127.669L72.4223 116.3C72.2117 115.774 72.1065 115.353 72.2117 114.932C72.317 114.511 72.5275 114.195 72.8433 113.985C73.1591 113.774 73.5802 113.669 74.0012 113.669C74.6328 113.669 75.0538 113.774 75.2644 114.09C75.5802 114.3 75.7907 114.721 76.0012 115.248L80.317 125.248H79.1591L83.4749 115.142C83.6854 114.616 83.896 114.3 84.2117 113.985C84.5275 113.774 84.9486 113.563 85.4749 113.563C85.896 113.563 86.317 113.669 86.6328 113.879C86.9486 114.09 87.1591 114.406 87.1591 114.827C87.2644 115.248 87.1591 115.669 86.9486 116.195L81.7907 127.563C81.5802 128.09 81.2644 128.406 80.9486 128.616C80.6328 128.827 80.2117 128.932 79.6854 128.932V129.037ZM90.8433 129.037C90.2117 129.037 89.6854 128.827 89.3696 128.511C89.0538 128.195 88.8433 127.669 88.8433 127.037V115.669C88.8433 115.037 89.0538 114.511 89.3696 114.195C89.6854 113.879 90.2117 113.669 90.8433 113.669C91.4749 113.669 92.0012 113.879 92.317 114.195C92.6328 114.511 92.8433 115.037 92.8433 115.669V127.037C92.8433 127.669 92.6328 128.195 92.317 128.511C92.0012 128.827 91.4749 129.037 90.8433 129.037ZM97.5802 128.827C96.9486 128.827 96.4223 128.616 96.1065 128.3C95.7907 127.985 95.5802 127.458 95.5802 126.827V115.879C95.5802 115.248 95.7907 114.721 96.1065 114.406C96.4223 114.09 96.9486 113.879 97.5802 113.879H104.843C105.37 113.879 105.685 113.985 106.001 114.3C106.212 114.511 106.422 114.932 106.422 115.458C106.422 115.985 106.317 116.3 106.001 116.616C105.791 116.827 105.37 117.037 104.843 117.037H99.3696V119.879H104.422C104.949 119.879 105.264 119.985 105.58 120.3C105.791 120.511 106.001 120.932 106.001 121.458C106.001 121.985 105.896 122.3 105.58 122.616C105.37 122.827 104.949 123.037 104.422 123.037H99.3696V126.09H104.843C105.37 126.09 105.685 126.195 106.001 126.511C106.212 126.721 106.422 127.142 106.422 127.669C106.422 128.195 106.317 128.511 106.001 128.827C105.791 129.037 105.37 129.248 104.843 129.248H97.5802V128.827ZM114.001 129.037C113.475 129.037 112.843 129.037 112.212 128.932C111.58 128.827 111.054 128.721 110.422 128.616C109.896 128.511 109.37 128.3 108.949 128.09C108.528 127.879 108.317 127.669 108.106 127.353C108.001 127.037 107.896 126.721 107.896 126.406C107.896 126.09 108.106 125.774 108.212 125.458C108.422 125.248 108.633 125.037 108.949 124.932C109.264 124.827 109.685 124.932 110.106 125.037C110.633 125.248 111.264 125.458 111.896 125.669C112.528 125.774 113.264 125.879 113.791 125.879C114.738 125.879 115.37 125.774 115.791 125.458C116.212 125.248 116.317 124.932 116.317 124.511C116.317 124.195 116.212 123.879 115.896 123.774C115.685 123.563 115.159 123.353 114.528 123.248L112.001 122.721C110.633 122.406 109.58 121.985 108.949 121.248C108.317 120.511 108.001 119.669 108.001 118.511C108.001 117.774 108.106 117.142 108.422 116.511C108.738 115.879 109.159 115.353 109.685 114.932C110.212 114.511 110.949 114.195 111.685 113.985C112.422 113.774 113.37 113.669 114.317 113.669C115.054 113.669 115.791 113.774 116.528 113.879C117.264 114.09 117.896 114.3 118.528 114.616C118.843 114.827 119.054 115.037 119.264 115.353C119.37 115.669 119.475 115.985 119.475 116.3C119.475 116.616 119.37 116.932 119.159 117.142C118.949 117.353 118.738 117.563 118.422 117.669C118.106 117.774 117.685 117.669 117.264 117.458C116.843 117.248 116.422 117.142 115.896 117.037C115.37 116.932 114.843 116.932 114.422 116.932C113.896 116.932 113.475 117.037 113.054 117.142C112.633 117.248 112.422 117.458 112.212 117.669C112.001 117.879 111.896 118.195 111.896 118.406C111.896 118.721 112.001 118.932 112.317 119.142C112.528 119.353 113.054 119.563 113.685 119.669L116.106 120.195C117.475 120.511 118.528 120.932 119.159 121.669C119.791 122.3 120.212 123.248 120.212 124.3C120.212 125.037 120.106 125.669 119.791 126.3C119.475 126.932 119.054 127.353 118.528 127.774C118.001 128.195 117.264 128.511 116.528 128.721C115.791 128.932 114.843 129.037 113.896 129.037H114.001Z" stroke="white" stroke-width="1.86338" stroke-miterlimit="2.61313" stroke-linecap="round" stroke-linejoin="round"/>
<path d="M39.3696 129.037C38.8433 129.037 38.317 128.932 38.1065 128.616C37.7907 128.3 37.6854 127.879 37.6854 127.248V115.458C37.6854 114.827 37.896 114.406 38.2117 114.09C38.5275 113.774 38.9486 113.669 39.5802 113.669C40.1065 113.669 40.4223 113.774 40.7381 113.985C41.0538 114.195 41.2644 114.511 41.5802 114.932L46.1065 123.142H45.3696L49.896 114.932C50.1065 114.511 50.4223 114.195 50.7381 113.985C51.0538 113.774 51.3696 113.669 51.896 113.669C52.4223 113.669 52.9486 113.774 53.1591 114.09C53.4749 114.406 53.5802 114.827 53.5802 115.458V127.248C53.5802 127.774 53.4749 128.3 53.1591 128.616C52.8433 128.932 52.4223 129.037 51.7907 129.037C51.2644 129.037 50.7381 128.932 50.5275 128.616C50.2117 128.3 50.1065 127.879 50.1065 127.248V119.879H50.5275L47.0538 125.879C46.8433 126.195 46.6328 126.406 46.4223 126.616C46.2117 126.721 45.8959 126.827 45.5802 126.827C45.2644 126.827 44.9486 126.721 44.7381 126.616C44.5275 126.511 44.317 126.195 44.1065 125.879L40.6328 119.879H41.1591V127.248C41.1591 127.774 41.0538 128.3 40.7381 128.616C40.4223 128.932 40.0012 129.037 39.3696 129.037ZM63.5802 129.037C62.1065 129.037 60.7381 128.721 59.5802 128.09C58.4223 127.458 57.5802 126.511 56.9486 125.353C56.317 124.195 56.0012 122.827 56.0012 121.248C56.0012 120.09 56.2117 119.037 56.5275 118.09C56.8433 117.142 57.3696 116.3 58.1065 115.669C58.7381 115.037 59.5802 114.511 60.5275 114.09C61.4749 113.774 62.5275 113.563 63.6854 113.563C65.1591 113.563 66.5275 113.879 67.6854 114.511C68.8433 115.142 69.6854 116.09 70.317 117.248C70.9486 118.406 71.2644 119.774 71.2644 121.353C71.2644 122.511 71.0538 123.563 70.7381 124.511C70.4223 125.458 69.896 126.3 69.1591 126.932C68.5275 127.669 67.6854 128.195 66.7381 128.511C65.7907 128.827 64.7381 129.037 63.6854 129.037H63.5802ZM63.5802 125.774C64.317 125.774 64.9486 125.563 65.4749 125.248C66.0012 124.932 66.4223 124.406 66.7381 123.669C67.0538 123.037 67.1591 122.195 67.1591 121.248C67.1591 119.879 66.8433 118.721 66.2117 117.985C65.5802 117.248 64.7381 116.827 63.5802 116.827C62.8433 116.827 62.2117 117.037 61.6854 117.353C61.1591 117.669 60.7381 118.195 60.4223 118.827C60.1065 119.458 60.0012 120.3 60.0012 121.248C60.0012 122.616 60.317 123.774 60.9486 124.511C61.5802 125.248 62.4223 125.669 63.5802 125.669V125.774ZM79.6854 129.037C79.1591 129.037 78.7381 128.932 78.4223 128.721C78.1065 128.511 77.7907 128.09 77.5802 127.669L72.4223 116.3C72.2117 115.774 72.1065 115.353 72.2117 114.932C72.317 114.511 72.5275 114.195 72.8433 113.985C73.1591 113.774 73.5802 113.669 74.0012 113.669C74.6328 113.669 75.0538 113.774 75.2644 114.09C75.5802 114.3 75.7907 114.721 76.0012 115.248L80.317 125.248H79.1591L83.4749 115.142C83.6854 114.616 83.896 114.3 84.2117 113.985C84.5275 113.774 84.9486 113.563 85.4749 113.563C85.896 113.563 86.317 113.669 86.6328 113.879C86.9486 114.09 87.1591 114.406 87.1591 114.827C87.2644 115.248 87.1591 115.669 86.9486 116.195L81.7907 127.563C81.5802 128.09 81.2644 128.406 80.9486 128.616C80.6328 128.827 80.2117 128.932 79.6854 128.932V129.037ZM90.8433 129.037C90.2117 129.037 89.6854 128.827 89.3696 128.511C89.0538 128.195 88.8433 127.669 88.8433 127.037V115.669C88.8433 115.037 89.0538 114.511 89.3696 114.195C89.6854 113.879 90.2117 113.669 90.8433 113.669C91.4749 113.669 92.0012 113.879 92.317 114.195C92.6328 114.511 92.8433 115.037 92.8433 115.669V127.037C92.8433 127.669 92.6328 128.195 92.317 128.511C92.0012 128.827 91.4749 129.037 90.8433 129.037ZM97.5802 128.827C96.9486 128.827 96.4223 128.616 96.1065 128.3C95.7907 127.985 95.5802 127.458 95.5802 126.827V115.879C95.5802 115.248 95.7907 114.721 96.1065 114.406C96.4223 114.09 96.9486 113.879 97.5802 113.879H104.843C105.37 113.879 105.685 113.985 106.001 114.3C106.212 114.511 106.422 114.932 106.422 115.458C106.422 115.985 106.317 116.3 106.001 116.616C105.791 116.827 105.37 117.037 104.843 117.037H99.3696V119.879H104.422C104.949 119.879 105.264 119.985 105.58 120.3C105.791 120.511 106.001 120.932 106.001 121.458C106.001 121.985 105.896 122.3 105.58 122.616C105.37 122.827 104.949 123.037 104.422 123.037H99.3696V126.09H104.843C105.37 126.09 105.685 126.195 106.001 126.511C106.212 126.721 106.422 127.142 106.422 127.669C106.422 128.195 106.317 128.511 106.001 128.827C105.791 129.037 105.37 129.248 104.843 129.248H97.5802V128.827ZM114.001 129.037C113.475 129.037 112.843 129.037 112.212 128.932C111.58 128.827 111.054 128.721 110.422 128.616C109.896 128.511 109.37 128.3 108.949 128.09C108.528 127.879 108.317 127.669 108.106 127.353C108.001 127.037 107.896 126.721 107.896 126.406C107.896 126.09 108.106 125.774 108.212 125.458C108.422 125.248 108.633 125.037 108.949 124.932C109.264 124.827 109.685 124.932 110.106 125.037C110.633 125.248 111.264 125.458 111.896 125.669C112.528 125.774 113.264 125.879 113.791 125.879C114.738 125.879 115.37 125.774 115.791 125.458C116.212 125.248 116.317 124.932 116.317 124.511C116.317 124.195 116.212 123.879 115.896 123.774C115.685 123.563 115.159 123.353 114.528 123.248L112.001 122.721C110.633 122.406 109.58 121.985 108.949 121.248C108.317 120.511 108.001 119.669 108.001 118.511C108.001 117.774 108.106 117.142 108.422 116.511C108.738 115.879 109.159 115.353 109.685 114.932C110.212 114.511 110.949 114.195 111.685 113.985C112.422 113.774 113.37 113.669 114.317 113.669C115.054 113.669 115.791 113.774 116.528 113.879C117.264 114.09 117.896 114.3 118.528 114.616C118.843 114.827 119.054 115.037 119.264 115.353C119.37 115.669 119.475 115.985 119.475 116.3C119.475 116.616 119.37 116.932 119.159 117.142C118.949 117.353 118.738 117.563 118.422 117.669C118.106 117.774 117.685 117.669 117.264 117.458C116.843 117.248 116.422 117.142 115.896 117.037C115.37 116.932 114.843 116.932 114.422 116.932C113.896 116.932 113.475 117.037 113.054 117.142C112.633 117.248 112.422 117.458 112.212 117.669C112.001 117.879 111.896 118.195 111.896 118.406C111.896 118.721 112.001 118.932 112.317 119.142C112.528 119.353 113.054 119.563 113.685 119.669L116.106 120.195C117.475 120.511 118.528 120.932 119.159 121.669C119.791 122.3 120.212 123.248 120.212 124.3C120.212 125.037 120.106 125.669 119.791 126.3C119.475 126.932 119.054 127.353 118.528 127.774C118.001 128.195 117.264 128.511 116.528 128.721C115.791 128.932 114.843 129.037 113.896 129.037H114.001Z" fill="black"/>
<path fill-rule="evenodd" clip-rule="evenodd" d="M2.84334 47.6687C-0.525079 55.5635 0.843342 64.8266 4.63282 71.0372L5.05387 71.5635L5.58018 72.4056L6.00124 72.9319L7.36966 74.7214C8.00124 74.7214 7.89597 74.5109 7.89597 75.2477L9.68545 77.0372C10.4223 77.0372 10.2118 76.8266 10.2118 77.5635C13.3697 80.0898 14.5276 80.9319 18.9486 82.4056C25.0539 84.4056 26.317 83.5635 30.6328 83.4582C34.8433 101.563 55.1591 103.037 63.6854 91.353L65.3697 88.9319C66.8433 94.5109 74.2118 97.8793 79.6854 98.8266C81.896 99.1424 83.0539 98.7214 84.9486 98.4056C87.3697 97.9845 86.9486 98.3003 89.0539 99.4582C99.6854 105.985 115.685 102.195 122.633 90.8266C124.001 88.6161 125.896 85.0372 126.106 81.9845C132.107 83.353 138.212 85.8793 146.528 80.9319C149.37 79.1424 151.264 77.353 153.159 74.8266C154.528 73.0372 157.159 68.7214 156.528 65.5635C158.001 55.5635 153.264 47.4582 145.264 43.1424C141.58 41.1424 140.633 41.774 136.949 40.6161C135.791 37.6688 136.106 29.353 126.738 26.0898C116.949 22.6161 112.001 29.6688 109.475 30.9319C108.001 23.6688 100.949 20.1951 93.5802 20.0898C92.9486 17.9845 92.317 16.9319 91.0539 15.1424L88.0012 10.6161C86.0012 9.14244 84.2118 7.03717 81.5802 5.45822C79.0539 3.98454 76.5275 2.82665 73.2644 1.87928C55.7907 -2.7523 36.1065 8.61612 35.1591 31.9845C28.9486 31.6688 23.6854 29.1424 14.317 34.5109C5.89597 39.2477 4.21176 45.9845 2.84334 47.4582V47.6687Z" fill="#96CFFF"/>
<path fill-rule="evenodd" clip-rule="evenodd" d="M52.0012 55.2477C55.0539 50.9319 55.896 48.0898 60.317 48.7214C57.2644 52.8266 56.5276 55.8793 52.0012 55.2477ZM43.6855 47.9845L43.2644 45.774C43.0539 45.0372 42.8433 45.774 43.6855 44.7214C45.1591 45.1424 49.7907 47.774 51.2644 48.8266C50.2118 50.5108 46.9486 54.3003 45.6855 55.4582C43.7907 54.1951 45.1591 55.1424 44.317 51.6687C43.896 50.0898 43.896 49.2477 43.6855 47.9845ZM62.4223 53.4582C65.4749 49.1424 66.4223 46.1951 70.7381 46.9319C67.5802 51.5635 66.9486 53.8793 62.4223 53.4582ZM45.3697 59.353C46.8433 58.4056 69.5802 54.7214 73.3697 53.9845C80.9486 52.6161 94.1065 50.5108 100.738 49.0372C101.791 53.1424 102.528 58.4056 103.264 62.8266C106.107 79.0372 107.58 77.774 98.8434 79.4582L57.6855 86.9319C56.0012 87.2477 52.7381 88.6161 50.9486 86.6161C49.6855 85.2477 48.4223 75.2477 47.896 72.9319L45.3697 59.4582V59.353ZM58.317 42.8266L59.1591 42.9319C58.2118 44.7214 59.0539 43.353 58.2118 43.5635C54.5276 43.8793 58.4223 46.4056 48.2118 41.774C49.6855 40.7214 51.2644 39.9845 53.0539 40.6161C54.6328 41.2477 56.8433 42.0898 58.317 42.9319V42.8266ZM72.9486 51.5635C75.7907 47.2477 77.0539 44.3003 81.3697 44.8266C77.896 49.5635 77.7907 51.774 72.9486 51.5635ZM68.1065 38.8266C68.9486 38.9319 67.5802 37.9845 68.9486 39.0372C68.2118 40.1951 68.8433 39.353 68.2118 39.353C66.4223 39.9845 65.6855 40.9319 63.5802 40.0898C61.7907 39.353 59.896 38.6161 58.1065 37.774C61.896 35.2477 63.4749 36.8266 68.0012 38.8266H68.1065ZM83.4749 49.5635C86.5276 45.353 87.2644 42.4056 91.7907 43.0372C89.3697 46.4056 88.4223 48.9319 85.896 49.4582C85.4749 49.5635 85.0539 49.5635 84.6328 49.6687C83.2644 49.774 84.5276 49.774 83.4749 49.6687V49.5635ZM69.0539 34.3003L67.6855 33.8793L68.5276 33.6687C70.2118 32.8266 71.1591 32.0898 73.2644 32.9319C75.0539 33.6687 76.8434 34.4056 78.6328 35.2477C74.7381 37.5635 73.6855 36.5108 69.0539 34.3003ZM98.7381 41.4582C99.896 42.5108 99.5802 42.8266 99.896 44.0898C100.107 45.1424 100.317 45.4582 100.001 46.6161C98.6328 47.2477 95.4749 47.8793 94.0012 47.6687L98.7381 41.353V41.4582ZM78.9486 30.3003L77.6855 29.9845L78.7381 29.6687C79.3697 29.353 80.2118 28.9319 81.0539 28.7214C82.9486 28.1951 86.8433 30.4056 88.6328 31.353C86.7381 32.4056 85.4749 33.0372 84.0012 32.5108C82.6328 31.9845 80.2118 31.0372 79.0539 30.1951L78.9486 30.3003ZM88.7381 26.4056L87.6855 26.1951C88.8433 24.9319 87.896 25.8793 88.6328 25.774C90.0012 25.1424 92.5276 24.0898 93.7907 23.9845C94.6328 25.0372 95.6855 27.6687 95.3697 28.8266C94.2118 29.1424 90.0012 27.1424 88.7381 26.4056ZM56.9486 47.0372C55.6855 47.774 56.4223 47.6687 54.8433 47.2477C55.5802 46.7214 55.6855 46.5108 56.5276 46.6161L74.317 39.6687C80.317 37.353 86.0012 35.0372 91.896 32.7214C94.9486 31.5635 99.1591 30.9319 97.4749 26.4056C95.5802 21.4582 95.2644 20.8266 90.317 22.7214C84.4223 25.0372 78.6328 27.353 72.7381 29.6687L46.2118 40.1951C37.3697 43.8793 39.1591 43.1424 41.6855 50.6161L44.2118 64.0898C45.3697 70.3003 46.4223 76.0898 47.4749 82.3003C47.896 84.5108 47.896 89.9845 52.9486 90.1951C54.9486 90.3003 93.3697 82.9319 98.5276 82.0898C100.738 81.6687 105.37 81.6687 107.159 78.6161C108.528 76.1951 107.159 71.4582 106.738 69.3529C105.58 63.0372 104.528 57.1424 103.37 50.9319C101.264 38.8266 102.528 38.8266 93.1591 40.5108C86.9486 41.6687 81.1591 42.7214 74.9486 43.774C72.317 44.1951 58.1065 46.5108 56.9486 47.2477V47.0372Z" fill="#003399"/>
<path fill-rule="evenodd" clip-rule="evenodd" d="M82.8434 69.9845C85.896 67.3529 84.8433 65.5635 81.3697 64.4056C78.8433 63.5635 76.5276 62.7214 74.0012 61.774C71.6855 60.9319 68.1065 58.9319 66.6328 60.195C64.7381 61.774 66.1065 65.2477 66.317 66.8266C66.7381 69.2477 67.1591 71.2477 67.5802 73.6687C67.896 75.1424 67.896 79.2477 70.6328 79.4582C72.4223 79.6687 75.2644 76.3003 76.9486 74.9319L82.9486 69.8792L82.8434 69.9845ZM44.2118 45.774L43.5802 46.7214L43.896 47.5635L45.0539 47.774C45.896 46.7214 45.7907 45.8792 44.2118 45.774ZM46.0013 54.195C47.2644 52.9319 47.1591 52.6161 45.5802 51.8792C44.5276 53.0371 44.7381 53.5635 46.0013 54.195Z" fill="#003399"/>
</svg>
