<svg width="148" height="131" viewBox="0 0 148 131" fill="none" xmlns="http://www.w3.org/2000/svg">
<g clip-path="url(#clip0_3300_49)">
<mask id="mask0_3300_49" style="mask-type:luminance" maskUnits="userSpaceOnUse" x="9" y="14" width="129" height="116">
<path fill-rule="evenodd" clip-rule="evenodd" d="M9.53357 14.0459H137.775V129.175H9.53357V14.0459Z" fill="url(#paint0_linear_3300_49)"/>
</mask>
<g mask="url(#mask0_3300_49)">
<path fill-rule="evenodd" clip-rule="evenodd" d="M23.2851 14.7654H123.943C131.139 14.7654 137.055 20.6818 137.055 27.8774V115.424C137.055 122.619 131.139 128.535 123.943 128.535H23.2851C16.0896 128.535 10.1732 122.619 10.1732 115.424V27.8774C10.1732 20.6818 16.0896 14.7654 23.2851 14.7654Z" fill="white"/>
</g>
<mask id="mask1_3300_49" style="mask-type:luminance" maskUnits="userSpaceOnUse" x="8" y="13" width="131" height="118">
<path fill-rule="evenodd" clip-rule="evenodd" d="M8.41418 13.2463H138.894V130.054H8.41418V13.2463Z" fill="url(#paint1_linear_3300_49)"/>
</mask>
<g mask="url(#mask1_3300_49)">
<path d="M24.8041 13.2463H122.424C126.901 13.2463 131.059 14.8454 134.017 17.4038L134.097 17.4837C136.975 20.0422 138.814 23.56 138.814 27.3976V115.823C138.814 119.741 136.975 123.259 134.017 125.817C131.059 128.375 126.901 129.975 122.424 129.975H24.8041C20.3269 129.975 16.1694 128.375 13.2112 125.817C10.2531 123.259 8.41418 119.661 8.41418 115.823V27.3976C8.41418 23.48 10.2531 19.9622 13.2112 17.4038C16.1694 14.8454 20.3269 13.2463 24.8041 13.2463ZM122.424 16.3644H24.8041C21.2863 16.3644 18.0882 17.6436 15.7697 19.6424C13.4511 21.6412 12.012 24.4395 12.012 27.4776V115.903C12.012 118.941 13.4511 121.74 15.7697 123.738C18.0882 125.737 21.2863 127.016 24.8041 127.016H122.424C125.942 127.016 129.14 125.737 131.458 123.738C133.777 121.74 135.216 118.941 135.216 115.903V27.4776C135.216 24.4395 133.777 21.7211 131.538 19.7224L131.458 19.6424C129.14 17.6436 125.942 16.3644 122.424 16.3644Z" fill="white"/>
</g>
<path d="M45.6713 120.54C45.1116 120.54 44.6319 120.38 44.3121 120.061C43.9923 119.741 43.8324 119.261 43.8324 118.701V107.988C43.8324 107.348 43.9923 106.869 44.3121 106.549C44.6319 106.229 45.1116 106.069 45.6713 106.069C46.3109 106.069 46.7106 106.229 47.0304 106.549C47.3502 106.869 47.5101 107.348 47.5101 107.988V111.746H53.3465V107.988C53.3465 107.348 53.5064 106.869 53.8262 106.549C54.1461 106.229 54.6258 106.069 55.1854 106.069C55.7451 106.069 56.2248 106.229 56.5446 106.549C56.8644 106.869 57.0243 107.348 57.0243 107.988V118.701C57.0243 119.341 56.8644 119.741 56.5446 120.061C56.2248 120.38 55.7451 120.54 55.1854 120.54C54.5458 120.54 54.1461 120.38 53.8262 120.061C53.5064 119.741 53.3465 119.261 53.3465 118.701V114.784H47.5101V118.701C47.5101 119.341 47.3502 119.741 47.0304 120.061C46.7106 120.38 46.2309 120.54 45.6713 120.54ZM66.3785 120.54C64.9394 120.54 63.6602 120.221 62.6208 119.661C61.5015 119.021 60.702 118.222 60.1424 117.102C59.5827 115.983 59.2629 114.704 59.2629 113.265C59.2629 112.146 59.4228 111.186 59.7426 110.307C60.0624 109.427 60.5421 108.628 61.1817 107.988C61.8213 107.348 62.5409 106.869 63.4203 106.549C64.2998 106.229 65.2592 106.069 66.3785 106.069C67.8176 106.069 69.0968 106.389 70.1362 106.949C71.1756 107.588 72.055 108.388 72.6147 109.507C73.2543 110.626 73.4941 111.906 73.4941 113.345C73.4941 114.464 73.3342 115.424 73.0144 116.303C72.6946 117.182 72.2149 117.982 71.5753 118.622C70.9357 119.261 70.2162 119.741 69.3367 120.141C68.4572 120.46 67.4978 120.62 66.3785 120.62V120.54ZM66.3785 117.422C67.0981 117.422 67.6577 117.262 68.2174 116.943C68.6971 116.623 69.0969 116.143 69.3367 115.503C69.5766 114.864 69.7365 114.144 69.7365 113.265C69.7365 111.906 69.4167 110.946 68.857 110.147C68.2973 109.427 67.4179 109.027 66.3785 109.027C65.659 109.027 65.0993 109.187 64.6196 109.507C64.1399 109.827 63.7401 110.307 63.5003 110.946C63.2604 111.586 63.1005 112.305 63.1005 113.185C63.1005 114.544 63.4203 115.503 63.98 116.303C64.5397 117.023 65.4191 117.422 66.4585 117.422H66.3785ZM77.4117 120.46C76.8521 120.46 76.4523 120.301 76.2125 119.981C75.8927 119.661 75.8127 119.261 75.8127 118.701V107.588C75.8127 107.029 75.9726 106.629 76.2924 106.309C76.6122 105.989 77.012 105.909 77.5716 105.909C78.0513 105.909 78.3711 105.989 78.691 106.149C78.9308 106.309 79.2506 106.629 79.4105 107.029L83.7278 114.784H83.0083L87.3256 107.029C87.5655 106.629 87.8053 106.309 88.1251 106.149C88.365 105.989 88.7647 105.909 89.2445 105.909C89.8041 105.909 90.2039 106.069 90.4437 106.309C90.7635 106.629 90.8435 107.029 90.8435 107.588V118.701C90.8435 119.261 90.6836 119.661 90.4437 119.981C90.1239 120.301 89.7242 120.46 89.1645 120.46C88.6048 120.46 88.2051 120.301 87.9652 119.981C87.6454 119.661 87.5655 119.261 87.5655 118.701V111.826H87.9652L84.7672 117.422C84.6073 117.742 84.3675 117.902 84.2076 118.062C83.9677 118.222 83.7278 118.302 83.408 118.302C83.0882 118.302 82.7684 118.222 82.6085 118.062C82.3687 117.902 82.2088 117.662 82.0489 117.422L78.7709 111.826H79.2506V118.701C79.2506 119.261 79.0907 119.661 78.8508 119.981C78.531 120.301 78.1313 120.46 77.5716 120.46H77.4117ZM95.3207 120.301C94.6811 120.301 94.2014 120.141 93.8816 119.821C93.5618 119.501 93.4019 119.021 93.4019 118.382V108.068C93.4019 107.428 93.5618 106.949 93.8816 106.629C94.2014 106.309 94.6811 106.149 95.3207 106.149H102.117C102.596 106.149 102.996 106.309 103.236 106.549C103.476 106.789 103.636 107.109 103.636 107.588C103.636 108.068 103.476 108.388 103.236 108.628C102.996 108.868 102.596 109.027 102.117 109.027H96.9197V111.746H101.637C102.117 111.746 102.436 111.906 102.676 112.146C102.916 112.385 103.076 112.705 103.076 113.185C103.076 113.665 102.916 113.984 102.676 114.224C102.436 114.464 102.037 114.624 101.637 114.624H96.9197V117.502H102.117C102.596 117.502 102.996 117.662 103.236 117.902C103.476 118.142 103.636 118.462 103.636 118.941C103.636 119.421 103.476 119.741 103.236 119.981C102.996 120.221 102.596 120.38 102.117 120.38H95.3207V120.301Z" stroke="black" stroke-width="1.83842" stroke-miterlimit="2.61313" stroke-linecap="round" stroke-linejoin="round"/>
<path d="M45.6713 120.54C45.1116 120.54 44.6319 120.38 44.3121 120.061C43.9923 119.741 43.8324 119.261 43.8324 118.701V107.988C43.8324 107.348 43.9923 106.869 44.3121 106.549C44.6319 106.229 45.1116 106.069 45.6713 106.069C46.3109 106.069 46.7106 106.229 47.0304 106.549C47.3502 106.869 47.5101 107.348 47.5101 107.988V111.746H53.3465V107.988C53.3465 107.348 53.5064 106.869 53.8262 106.549C54.1461 106.229 54.6258 106.069 55.1854 106.069C55.7451 106.069 56.2248 106.229 56.5446 106.549C56.8644 106.869 57.0243 107.348 57.0243 107.988V118.701C57.0243 119.341 56.8644 119.741 56.5446 120.061C56.2248 120.38 55.7451 120.54 55.1854 120.54C54.5458 120.54 54.1461 120.38 53.8262 120.061C53.5064 119.741 53.3465 119.261 53.3465 118.701V114.784H47.5101V118.701C47.5101 119.341 47.3502 119.741 47.0304 120.061C46.7106 120.38 46.2309 120.54 45.6713 120.54ZM66.3785 120.54C64.9394 120.54 63.6602 120.221 62.6208 119.661C61.5015 119.021 60.702 118.222 60.1424 117.102C59.5827 115.983 59.2629 114.704 59.2629 113.265C59.2629 112.146 59.4228 111.186 59.7426 110.307C60.0624 109.427 60.5421 108.628 61.1817 107.988C61.8213 107.348 62.5409 106.869 63.4203 106.549C64.2998 106.229 65.2592 106.069 66.3785 106.069C67.8176 106.069 69.0968 106.389 70.1362 106.949C71.1756 107.588 72.055 108.388 72.6147 109.507C73.2543 110.626 73.4941 111.906 73.4941 113.345C73.4941 114.464 73.3342 115.424 73.0144 116.303C72.6946 117.182 72.2149 117.982 71.5753 118.622C70.9357 119.261 70.2162 119.741 69.3367 120.141C68.4572 120.46 67.4978 120.62 66.3785 120.62V120.54ZM66.3785 117.422C67.0981 117.422 67.6577 117.262 68.2174 116.943C68.6971 116.623 69.0969 116.143 69.3367 115.503C69.5766 114.864 69.7365 114.144 69.7365 113.265C69.7365 111.906 69.4167 110.946 68.857 110.147C68.2973 109.427 67.4179 109.027 66.3785 109.027C65.659 109.027 65.0993 109.187 64.6196 109.507C64.1399 109.827 63.7401 110.307 63.5003 110.946C63.2604 111.586 63.1005 112.305 63.1005 113.185C63.1005 114.544 63.4203 115.503 63.98 116.303C64.5397 117.023 65.4191 117.422 66.4585 117.422H66.3785ZM77.4117 120.46C76.8521 120.46 76.4523 120.301 76.2125 119.981C75.8927 119.661 75.8127 119.261 75.8127 118.701V107.588C75.8127 107.029 75.9726 106.629 76.2924 106.309C76.6122 105.989 77.012 105.909 77.5716 105.909C78.0513 105.909 78.3711 105.989 78.691 106.149C78.9308 106.309 79.2506 106.629 79.4105 107.029L83.7278 114.784H83.0083L87.3256 107.029C87.5655 106.629 87.8053 106.309 88.1251 106.149C88.365 105.989 88.7647 105.909 89.2445 105.909C89.8041 105.909 90.2039 106.069 90.4437 106.309C90.7635 106.629 90.8435 107.029 90.8435 107.588V118.701C90.8435 119.261 90.6836 119.661 90.4437 119.981C90.1239 120.301 89.7242 120.46 89.1645 120.46C88.6048 120.46 88.2051 120.301 87.9652 119.981C87.6454 119.661 87.5655 119.261 87.5655 118.701V111.826H87.9652L84.7672 117.422C84.6073 117.742 84.3675 117.902 84.2076 118.062C83.9677 118.222 83.7278 118.302 83.408 118.302C83.0882 118.302 82.7684 118.222 82.6085 118.062C82.3687 117.902 82.2088 117.662 82.0489 117.422L78.7709 111.826H79.2506V118.701C79.2506 119.261 79.0907 119.661 78.8508 119.981C78.531 120.301 78.1313 120.46 77.5716 120.46H77.4117ZM95.3207 120.301C94.6811 120.301 94.2014 120.141 93.8816 119.821C93.5618 119.501 93.4019 119.021 93.4019 118.382V108.068C93.4019 107.428 93.5618 106.949 93.8816 106.629C94.2014 106.309 94.6811 106.149 95.3207 106.149H102.117C102.596 106.149 102.996 106.309 103.236 106.549C103.476 106.789 103.636 107.109 103.636 107.588C103.636 108.068 103.476 108.388 103.236 108.628C102.996 108.868 102.596 109.027 102.117 109.027H96.9197V111.746H101.637C102.117 111.746 102.436 111.906 102.676 112.146C102.916 112.385 103.076 112.705 103.076 113.185C103.076 113.665 102.916 113.984 102.676 114.224C102.436 114.464 102.037 114.624 101.637 114.624H96.9197V117.502H102.117C102.596 117.502 102.996 117.662 103.236 117.902C103.476 118.142 103.636 118.462 103.636 118.941C103.636 119.421 103.476 119.741 103.236 119.981C102.996 120.221 102.596 120.38 102.117 120.38H95.3207V120.301Z" fill="white"/>
<path fill-rule="evenodd" clip-rule="evenodd" d="M2.09813 43.9475C-1.0999 51.4628 0.259259 60.0975 3.85705 65.9339L4.2568 66.4936L4.7365 67.2931L5.13626 67.7728L6.41547 69.4518C7.05508 69.4518 6.89517 69.2919 6.89517 69.9315L8.57414 71.6105C9.2937 71.6105 9.1338 71.4506 9.1338 72.0902C12.092 74.4087 13.1313 75.2882 17.3687 76.6474C23.1252 78.5662 24.3244 77.7667 28.4019 77.6867C32.3995 94.7162 51.5077 96.1553 59.5028 85.1221L61.1018 82.8036C62.5409 88.0803 69.4167 91.2784 74.6135 92.0779C76.6922 92.3977 77.8115 91.9979 79.5704 91.6781C81.8091 91.2784 81.4893 91.5182 83.4081 92.7175C93.4819 98.7937 108.433 95.2759 115.069 84.6424C116.348 82.5637 118.107 79.1258 118.347 76.3276C124.023 77.6068 129.78 80.0053 137.535 75.2882C140.253 73.6092 142.012 71.9303 143.771 69.5317C145.05 67.7728 147.449 63.7753 146.969 60.897C148.408 51.4629 143.931 43.8675 136.415 39.87C132.898 38.0311 132.018 38.5908 128.58 37.4715C127.541 34.7531 127.781 26.838 118.986 23.7199C109.712 20.4419 105.075 27.0779 102.756 28.2771C101.317 21.4014 94.7611 18.1234 87.7254 18.0434C87.0858 16.0446 86.5262 15.0852 85.4069 13.4063L82.4487 9.16888C80.5299 7.80971 78.9308 5.81094 76.3724 4.29188C74.0538 2.93271 71.6553 1.8134 68.5372 0.933945C52.1473 -3.3834 33.5188 7.25006 32.6393 29.3165C26.723 29.0766 21.846 26.6781 13.0514 31.6351C5.13626 36.1123 3.53724 42.5084 2.25803 43.8675L2.09813 43.9475Z" fill="white"/>
<path fill-rule="evenodd" clip-rule="evenodd" d="M43.9923 53.3017C44.472 57.0594 47.1903 68.0127 48.3096 72.8897C48.4695 73.6892 49.2691 78.886 50.0686 79.1258H63.1805L63.1005 62.4161C63.1005 59.7777 64.2998 58.5785 66.9382 58.5785C80.0501 58.5785 79.4105 57.4592 79.4105 66.9733V79.2058H91.2432C92.2026 78.4862 92.8422 74.4887 93.162 73.1295C93.7217 70.9708 94.2814 68.8921 94.841 66.6535C95.5606 63.7753 98.039 55.9401 98.119 53.5416C96.9997 52.6621 72.6147 32.0348 71.0956 31.3152C70.2162 31.8749 68.5372 33.314 67.6577 34.0336C66.3785 35.0729 65.579 35.7125 64.3798 36.7519L43.8324 53.4616L43.9923 53.3017ZM77.0919 54.7408H63.8201C63.5802 53.7015 63.3404 52.7421 63.1005 51.7027L62.5409 49.4641C62.301 48.4247 62.0612 47.4653 61.8213 46.4259C61.5815 45.3866 61.3416 44.4272 61.1018 43.3878H80.5298C80.21 44.4272 79.8902 45.3866 79.6504 46.4259L79.0108 48.6646C78.691 49.7039 78.3711 50.6633 78.1313 51.7027C77.8115 52.7421 77.4917 53.7015 77.2518 54.7408H77.012H77.0919ZM62.8607 48.6646H71.4954V46.266H63.0206C63.1805 46.9856 63.3404 47.7851 63.5003 48.5047C63.6602 49.2242 63.8201 50.0237 63.98 50.7433L62.8607 48.6646ZM71.0157 48.6646H78.2112C78.4511 47.945 78.611 47.1455 78.8508 46.4259C79.0907 45.7064 79.2506 44.9069 79.4905 44.1873H71.0157V45.2267V48.6646ZM70.2961 53.9413V52.1025H63.5802C63.7401 52.822 63.9 53.6215 64.06 54.3411C64.2199 55.0606 64.3798 55.8601 64.5397 56.5797H70.7758L70.2961 53.9413ZM70.8558 53.9413H77.0919C77.3318 53.2218 77.4917 52.4223 77.7315 51.7027C77.9714 50.9831 78.1313 50.1836 78.3711 49.4641H71.5753V51.3829L70.8558 53.9413Z" fill="#FF0066"/>
<path fill-rule="evenodd" clip-rule="evenodd" d="M56.7045 28.5169C55.985 21.5612 59.0231 17.8835 49.2691 19.0827C46.3109 19.4825 46.7906 22.3607 46.7906 25.159V33.8736C46.7906 38.191 46.8706 37.2316 41.8337 41.469L37.1166 45.4665C34.3183 47.7851 31.2002 49.9438 32.7193 53.2217C33.4389 54.8208 35.8374 56.7396 38.3958 55.4604C39.675 54.8208 41.7537 52.6621 43.0329 51.6227L68.6972 30.2759C69.4967 29.5563 70.3761 28.7568 71.0957 28.2771L99.878 52.1824C100.917 53.1418 101.557 53.7814 102.676 54.6609C106.834 58.0987 111.791 52.742 109.232 49.1442C108.593 48.2648 104.755 45.1467 103.556 44.0274C102.996 43.5477 102.596 43.3078 102.117 42.8281L96.52 37.8712C95.9604 37.3915 95.7205 37.0717 95.1609 36.592L76.8521 20.6018C74.3737 18.603 71.6553 15.2451 68.1375 18.4431L59.6627 25.7986C58.7833 26.5981 57.584 27.6375 56.6246 28.2771L56.7045 28.5169Z" fill="#FF0066"/>
</g>
<defs>
<linearGradient id="paint0_linear_3300_49" x1="72.8546" y1="187.299" x2="72.8546" y2="39.1504" gradientUnits="userSpaceOnUse">
<stop stop-color="white"/>
<stop offset="1" stop-color="white" stop-opacity="0"/>
</linearGradient>
<linearGradient id="paint1_linear_3300_49" x1="72.7746" y1="190.417" x2="72.7746" y2="38.191" gradientUnits="userSpaceOnUse">
<stop stop-color="white"/>
<stop offset="1" stop-color="white" stop-opacity="0"/>
</linearGradient>
<clipPath id="clip0_3300_49">
<rect width="146.808" height="130" fill="white" transform="translate(0.25 0.0545044)"/>
</clipPath>
</defs>
</svg>
