<svg width="20" height="33" viewBox="0 0 20 33" fill="none" xmlns="http://www.w3.org/2000/svg">
<path d="M18.3528 1.0736C18.6232 1.34344 18.8377 1.66394 18.9841 2.01678C19.1305 2.36962 19.2058 2.74786 19.2058 3.12985C19.2058 3.51184 19.1305 3.89009 18.9841 4.24292C18.8377 4.59576 18.6232 4.91627 18.3528 5.1861L7.03618 16.5028L18.3528 27.8194C18.8982 28.3648 19.2046 29.1044 19.2046 29.8757C19.2046 30.6469 18.8982 31.3866 18.3528 31.9319C17.8075 32.4773 17.0678 32.7837 16.2966 32.7837C15.5254 32.7837 14.7857 32.4773 14.2403 31.9319L0.85285 18.5444C0.582464 18.2746 0.36795 17.9541 0.221588 17.6013C0.0752258 17.2484 -0.000110626 16.8702 -0.000110626 16.4882C-0.000110626 16.1062 0.0752258 15.728 0.221588 15.3751C0.36795 15.0223 0.582464 14.7018 0.85285 14.4319L14.2403 1.04444C15.3487 -0.0638971 17.2153 -0.0638964 18.3528 1.0736Z" fill="white"/>
</svg>
