<svg width="24" height="24" viewBox="0 0 24 24" fill="none" xmlns="http://www.w3.org/2000/svg">
<g clip-path="url(#clip0_3263_26704)">
<path d="M22.8022 0.703C22.5282 0.263 22.0552 0 21.5372 0H17.5122C16.1702 0 14.9672 0.748 14.3732 1.952L12.3722 6.009C12.2492 6.004 12.1252 6.001 12.0012 6.001C11.8772 6.001 11.7532 6.004 11.6302 6.009L9.6292 1.952C9.0352 0.748 7.8332 0 6.4902 0H2.4632C1.9442 0 1.4722 0.263 1.1982 0.703C0.925199 1.143 0.898199 1.683 1.1272 2.148L4.8012 9.603C3.6702 11.108 2.9992 12.977 2.9992 14.999C2.9992 19.961 7.0372 23.999 11.9992 23.999C16.9612 23.999 20.9992 19.961 20.9992 14.999C20.9992 12.976 20.3282 11.107 19.1972 9.603L22.8712 2.148C23.1002 1.683 23.0742 1.143 22.8002 0.703H22.8022ZM2.0242 1.706C1.9162 1.486 2.0042 1.3 2.0472 1.231C2.0902 1.162 2.2172 1 2.4632 1H6.4882C7.4462 1 8.3062 1.534 8.7302 2.394L10.5662 6.115C8.5932 6.432 6.8322 7.393 5.5072 8.774L2.0242 1.706ZM12.0002 23C7.5892 23 4.0002 19.411 4.0002 15C4.0002 10.824 7.7442 7 12.0002 7C16.2562 7 20.0002 10.825 20.0002 15C20.0002 19.411 16.4112 23 12.0002 23ZM21.9762 1.706L18.4922 8.774C17.1672 7.393 15.4062 6.432 13.4332 6.115L15.2692 2.394C15.6932 1.534 16.5532 1 17.5112 1H21.5362C21.7822 1 21.9092 1.162 21.9522 1.231C21.9952 1.3 22.0852 1.486 21.9762 1.706ZM15.8942 13H13.8692L13.3332 11.039C13.1762 10.438 12.6312 10.012 11.9912 10C11.3692 10.012 10.8242 10.438 10.6692 11.034L10.1312 13H8.1062C7.3142 13 6.8232 13.635 6.8232 14.224C6.8232 14.769 7.1542 15.292 7.6662 15.576L8.9972 16.405L8.3932 18.051C8.1712 18.655 8.3682 19.321 8.8822 19.708C9.1392 19.902 9.4462 19.999 9.7542 19.999C10.0672 19.999 10.3802 19.898 10.6402 19.697L12.0012 18.645L13.3622 19.697C13.8772 20.095 14.6002 20.099 15.1202 19.708C15.6342 19.321 15.8302 18.655 15.6092 18.051L15.0052 16.405L16.3142 15.589C16.8472 15.293 17.1782 14.77 17.1782 14.224C17.1782 13.635 16.6872 13 15.8952 13H15.8942ZM15.8062 14.728L14.1302 15.772C13.9292 15.897 13.8432 16.146 13.9252 16.369L14.6692 18.397C14.7362 18.581 14.6742 18.792 14.5172 18.91C14.3552 19.031 14.1312 19.029 13.9722 18.907L12.3052 17.618C12.1252 17.478 11.8732 17.478 11.6942 17.618L10.0272 18.907C9.8662 19.03 9.6422 19.032 9.4822 18.91C9.3252 18.792 9.2632 18.581 9.3302 18.397L10.0742 16.369C10.1562 16.146 10.0702 15.897 9.8692 15.772L8.1722 14.715C7.9982 14.618 7.8222 14.429 7.8222 14.224C7.8222 14.164 7.8892 14 8.1052 14H10.5122C10.7382 14 10.9352 13.849 10.9942 13.632L11.6342 11.292C11.6782 11.124 11.8322 11.003 11.9902 11C12.1662 11.003 12.3212 11.124 12.3662 11.297L13.0042 13.631C13.0642 13.848 13.2612 13.999 13.4862 13.999H15.8932C16.1092 13.999 16.1762 14.163 16.1762 14.223C16.1762 14.428 16.0002 14.617 15.8052 14.726L15.8062 14.728Z" fill="black"/>
</g>
<defs>
<clipPath id="clip0_3263_26704">
<rect width="24" height="24" fill="white"/>
</clipPath>
</defs>
</svg>
