<svg width="293" height="457" viewBox="0 0 293 457" fill="none" xmlns="http://www.w3.org/2000/svg">
<rect width="293" height="457" rx="15" fill="white"/>
<g clip-path="url(#clip0_3262_23399)">
<path d="M274.733 92.0728H18.2617C12.6192 92.0728 8.00269 87.4563 8.00269 81.8138V20.2597C8.00269 14.6172 12.6192 10.0007 18.2617 10.0007H274.733C280.375 10.0007 284.992 14.6172 284.992 20.2597V81.8138C284.992 87.4563 280.375 92.0728 274.733 92.0728Z" fill="#100F0D"/>
<path d="M274.733 10.0007H18.2617C12.6192 10.0007 8.00269 14.6172 8.00269 20.2597V81.8138C8.00269 87.4563 12.6192 92.0728 18.2617 92.0728H274.733C280.375 92.0728 284.992 87.4563 284.992 81.8138V20.2597C284.992 14.6172 280.375 10.0007 274.733 10.0007ZM274.733 11.6413C279.485 11.6413 283.351 15.5078 283.351 20.2597V81.8138C283.351 86.5657 279.485 90.4322 274.733 90.4322H18.2617C13.5098 90.4322 9.64499 86.5657 9.64499 81.8138V20.2597C9.64499 15.5078 13.5098 11.6413 18.2617 11.6413H274.733Z" fill="#A2A2A1"/>
<path d="M227.415 71.5556H231.243V45.9038H227.415V71.5556ZM261.9 55.1449L257.511 66.2655H257.38L252.825 55.1449H248.701L255.533 70.6877L251.637 79.3339H255.63L266.158 55.1457L261.9 55.1449ZM240.186 68.6419C238.934 68.6419 237.184 68.0142 237.184 66.4634C237.184 64.4836 239.363 63.7247 241.243 63.7247C242.925 63.7247 243.719 64.087 244.741 64.5823C244.444 66.9587 242.398 68.6419 240.186 68.6419ZM240.65 54.5838C237.878 54.5838 235.007 55.8052 233.819 58.5112L237.217 59.9298C237.943 58.5112 239.296 58.0496 240.715 58.0496C242.695 58.0496 244.708 59.2366 244.741 61.3493V61.6129C244.048 61.2169 242.562 60.6232 240.748 60.6232C237.084 60.6232 233.356 62.6356 233.356 66.3977C233.356 69.8297 236.36 72.041 239.724 72.041C242.297 72.041 243.719 70.886 244.608 69.5324H244.741V71.5136H248.438V61.6785C248.438 57.1245 245.037 54.5838 240.65 54.5838ZM216.988 58.2674H211.542V49.4753H216.988C219.85 49.4753 221.475 51.8446 221.475 53.8713C221.475 55.8591 219.85 58.2674 216.988 58.2674ZM216.889 45.9045H207.715V71.5562H211.542V61.8383H216.89C221.133 61.8383 225.304 58.767 225.304 53.8722C225.304 48.9784 221.133 45.9045 216.889 45.9045ZM166.865 68.6462C164.22 68.6462 162.006 66.4308 162.006 63.3909C162.006 60.3156 164.22 58.0689 166.865 58.0689C169.476 58.0689 171.525 60.3157 171.525 63.3909C171.525 66.4308 169.476 68.6462 166.865 68.6462ZM171.261 56.5808H171.129C170.269 55.5564 168.616 54.6307 166.534 54.6307C162.17 54.6307 158.171 58.4658 158.171 63.3909C158.171 68.2824 162.17 72.0838 166.534 72.0838C168.616 72.0838 170.269 71.158 171.129 70.1009H171.261V71.356C171.261 74.6958 169.476 76.4799 166.6 76.4799C164.254 76.4799 162.8 74.7943 162.204 73.3732L158.866 74.7613C159.824 77.0743 162.368 79.9181 166.6 79.9181C171.097 79.9181 174.898 77.2731 174.898 70.8268V55.1594H171.261L171.261 56.5808ZM177.543 71.5548H181.376V45.9031H177.543V71.5548ZM187.029 63.0928C186.93 59.7209 189.641 58.0024 191.591 58.0024C193.112 58.0024 194.4 58.763 194.831 59.8531L187.029 63.0928ZM198.928 60.1834C198.201 58.2342 195.987 54.6307 191.458 54.6307C186.962 54.6307 183.227 58.1676 183.227 63.3573C183.227 68.2496 186.93 72.0839 191.887 72.0839C195.887 72.0839 198.201 69.6386 199.161 68.2167L196.185 66.233C195.193 67.6878 193.839 68.6463 191.887 68.6463C189.938 68.6463 188.549 67.7536 187.658 66.0016L199.325 61.1758L198.928 60.1834ZM105.965 57.3084V61.0105H114.824C114.56 63.0929 113.866 64.6132 112.808 65.6712C111.518 66.9599 109.502 68.3818 105.965 68.3818C100.511 68.3818 96.2473 63.9856 96.2473 58.5315C96.2473 53.0774 100.511 48.6806 105.965 48.6806C108.907 48.6806 111.056 49.8378 112.642 51.3254L115.254 48.7134C113.039 46.5982 110.098 44.9785 105.965 44.9785C98.4937 44.9785 92.2134 51.0608 92.2134 58.5315C92.2134 66.0014 98.4937 72.0839 105.965 72.0839C109.998 72.0839 113.039 70.7615 115.419 68.2825C117.865 65.8363 118.625 62.3987 118.625 59.6217C118.625 58.7632 118.559 57.9698 118.427 57.3084H105.965ZM128.698 68.6462C126.053 68.6462 123.772 66.4645 123.772 63.3573C123.772 60.2171 126.053 58.0691 128.698 58.0691C131.342 58.0691 133.623 60.2171 133.623 63.3573C133.623 66.4645 131.342 68.6462 128.698 68.6462ZM128.698 54.6307C123.87 54.6307 119.938 58.2998 119.938 63.3573C119.938 68.3818 123.87 72.0839 128.698 72.0839C133.524 72.0839 137.457 68.3818 137.457 63.3573C137.457 58.2998 133.524 54.6307 128.698 54.6307ZM147.806 68.6462C145.163 68.6462 142.881 66.4645 142.881 63.3573C142.881 60.2171 145.163 58.0691 147.806 58.0691C150.451 58.0691 152.732 60.2171 152.732 63.3573C152.732 66.4645 150.451 68.6462 147.806 68.6462ZM147.806 54.6307C142.981 54.6307 139.048 58.2998 139.048 63.3573C139.048 68.3818 142.981 72.0839 147.806 72.0839C152.634 72.0839 156.567 68.3818 156.567 63.3573C156.567 58.2998 152.634 54.6307 147.806 54.6307Z" fill="white"/>
<path d="M50.5073 49.8557L28.6643 73.0407C28.6651 73.0454 28.6668 73.0494 28.6675 73.0544C29.3374 75.572 31.637 77.4257 34.366 77.4257C35.457 77.4257 36.4812 77.1308 37.3596 76.613L37.4294 76.5721L62.0178 62.3836L50.5073 49.8557Z" fill="#EB3131"/>
<path d="M72.6073 45.9084L72.5863 45.8941L61.9708 39.7401L50.011 50.3825L62.0123 62.3823L72.5719 56.2895C74.4232 55.2901 75.68 53.3384 75.68 51.0877C75.68 48.8533 74.4402 46.9112 72.6073 45.9084Z" fill="#F6B60B"/>
<path d="M28.661 29.036C28.5297 29.5202 28.4607 30.0274 28.4607 30.5541V71.524C28.4607 72.0497 28.5289 72.5586 28.6619 73.0411L51.2589 50.4487L28.661 29.036Z" fill="#5778C5"/>
<path d="M50.6688 51.0391L61.9754 39.7358L37.4148 25.4959C36.522 24.9612 35.4801 24.6526 34.3652 24.6526C31.6361 24.6526 29.3335 26.5097 28.6634 29.0303C28.6626 29.0327 28.6626 29.0344 28.6626 29.0366L50.6688 51.0391Z" fill="#3BAD49"/>
<path d="M105.247 30.0702H99.2616V31.5514H103.747C103.625 32.7601 103.144 33.7091 102.333 34.3984C101.522 35.0878 100.486 35.4339 99.2616 35.4339C97.9183 35.4339 96.7802 34.9659 95.8474 34.0362C94.9336 33.0873 94.4688 31.9138 94.4688 30.5C94.4688 29.0863 94.9336 27.9128 95.8474 26.964C96.7802 26.0343 97.9183 25.5694 99.2616 25.5694C99.951 25.5694 100.608 25.688 101.211 25.9477C101.814 26.2073 102.298 26.5696 102.676 27.0345L103.814 25.8964C103.298 25.3096 102.644 24.8609 101.833 24.5338C101.022 24.2068 100.175 24.0498 99.2614 24.0498C97.4694 24.0498 95.9499 24.6717 94.7091 25.9125C93.4684 27.1563 92.8464 28.6888 92.8464 30.5C92.8464 32.3113 93.4683 33.8471 94.7091 35.0879C95.9498 36.3284 97.4694 36.9506 99.2614 36.9506C101.143 36.9506 102.644 36.3478 103.798 35.123C104.814 34.1037 105.333 32.7251 105.333 31.0003C105.333 30.7086 105.298 30.3973 105.247 30.0702ZM107.566 24.3252V36.6747H114.776V35.1582H109.153V31.2406H114.225V29.7594H109.153V25.845H114.776V24.3252L107.566 24.3252ZM124.886 25.845V24.3252H116.4V25.845H119.85V36.6746H121.437V25.845H124.886ZM132.569 24.3252H130.982V36.6747H132.569V24.3252ZM143.044 25.845V24.3252H134.558V25.845H138.007V36.6746H139.594V25.845H143.044ZM159.057 25.9316C157.833 24.6716 156.332 24.0497 154.54 24.0497C152.745 24.0497 151.244 24.6716 150.02 25.9124C148.795 27.1371 148.192 28.6727 148.192 30.4999C148.192 32.3272 148.795 33.863 150.02 35.0878C151.244 36.3283 152.745 36.9505 154.54 36.9505C156.316 36.9505 157.832 36.3284 159.057 35.0878C160.282 33.8631 160.885 32.3274 160.885 30.4999C160.885 28.6887 160.282 27.1561 159.057 25.9316ZM151.158 26.9638C152.072 26.0342 153.194 25.5692 154.54 25.5692C155.883 25.5692 157.005 26.0342 157.903 26.9638C158.817 27.8775 159.265 29.07 159.265 30.4999C159.265 31.9331 158.817 33.1223 157.903 34.0361C157.005 34.9658 155.883 35.4338 154.54 35.4338C153.194 35.4338 152.071 34.9658 151.158 34.0361C150.263 33.1032 149.815 31.9331 149.815 30.4999C149.815 29.07 150.263 27.8967 151.158 26.9638ZM164.655 28.9836L164.588 26.6014H164.655L170.932 36.6745H172.589V24.3251H171.003V31.5513L171.07 33.9335H171.003L165.001 24.3251H163.068V36.6745H164.655V28.9836Z" fill="white" stroke="white" stroke-width="0.26666" stroke-miterlimit="10"/>
</g>
<path d="M10 129.074C10 119.646 10 114.931 12.9289 112.003C15.8579 109.074 20.5719 109.074 30 109.074H263C272.428 109.074 277.142 109.074 280.071 112.003C283 114.931 283 119.646 283 129.074V265.074C283 274.502 283 279.216 280.071 282.145C277.142 285.074 272.428 285.074 263 285.074H30C20.5719 285.074 15.8579 285.074 12.9289 282.145C10 279.216 10 274.502 10 265.074V129.074Z" fill="#F2F2F2"/>
<path d="M98.9235 210.101C98.9235 210.101 99.3654 209.986 100.115 209.726C106.957 206.879 111.303 202.762 113.041 200.887C116.049 197.581 118.414 193.429 118.384 188.725C118.384 187.516 118.24 186.248 117.902 184.885C116.627 179.642 113.337 173.015 110.221 165.588C107.13 158.146 104.2 149.76 104.188 140.474C104.164 133.852 105.768 126.84 109.67 119.832C104.935 123.839 93.1 136.187 97.44 156.692C101.991 178.199 111.535 192.787 98.9235 210.101Z" fill="#E54C3A"/>
<path d="M181.159 164.225C184.854 162.011 187.506 159.086 189.103 155.458C190.698 151.833 191.5 148.356 191.5 145.031C191.5 141.102 190.976 137.452 189.926 134.076C188.875 130.702 187.154 127.754 184.755 125.235C182.359 122.718 179.288 120.728 175.539 119.265C171.792 117.806 167.223 117.074 161.829 117.074H123.028C123.006 117.363 122.98 117.806 122.98 118.392C123.023 121.284 123.542 127.142 127.705 133.698H127.758L127.75 133.678H163.598C163.828 133.678 164.031 133.692 164.25 133.698H164.375C164.455 133.698 164.531 133.708 164.611 133.71C164.746 133.717 164.884 133.722 165.014 133.73C165.278 133.745 165.538 133.769 165.794 133.804C168.103 134.063 169.393 134.646 169.393 134.646C169.393 134.646 177.233 137.021 182.403 147.618C182.403 147.618 179.956 148.633 176.678 151.288C172.491 154.993 169.012 158.676 166.601 163.089C165.067 165.86 163.88 169.083 162.535 172.538H164.374C167.272 172.538 169.77 173.648 171.867 175.863C173.965 178.079 175.016 180.649 175.016 183.571C175.016 187.096 174.016 189.942 172.019 192.107C170.018 194.276 167.421 195.356 164.225 195.356H149.218C146.466 198.521 143.403 201.439 140 203.983C135.911 207.039 131.884 209.563 127.572 211.981H161.83C167.225 211.981 171.816 211.176 175.614 209.563C179.413 207.95 182.486 205.835 184.832 203.216C187.178 200.596 188.875 197.601 189.926 194.224C190.976 190.849 191.5 187.399 191.5 183.874C191.5 180.146 190.677 176.494 189.028 172.917C187.379 169.34 184.755 166.442 181.159 164.225Z" fill="#26A75C"/>
<path d="M151.875 140.703C145.38 141.062 138.921 140.79 138.922 140.793C136.659 140.69 134.742 140.534 134.742 140.534C145.081 155.203 141.948 168.242 141.948 168.242C141.059 163.14 139.947 154.563 129.709 146.464C112.465 132.521 115.073 117.165 115.073 117.165C94.5933 143.563 115.319 165.843 119.753 183.697C124.188 201.557 103.744 212.072 103.744 212.072C108.679 211.506 115.954 209.507 121.137 206.698C125.675 204.234 129.748 201.739 133.929 198.665C140.478 193.848 145.791 187.471 149.801 180.456C150.967 178.415 152.03 176.32 152.986 174.173C155.072 169.496 156.563 164.582 159.062 160.087C161.905 154.974 165.876 150.921 170.269 147.096C170.326 147.048 171.493 146.025 171.542 146.079C166.671 140.703 158.371 140.346 151.875 140.703ZM162.905 145.461C162.39 145.461 161.972 145.047 161.972 144.535C161.972 144.023 162.39 143.609 162.905 143.609C163.421 143.609 163.838 144.023 163.838 144.535C163.837 145.047 163.42 145.461 162.905 145.461Z" fill="#FAD117"/>
<path d="M93.3792 247.072V240.376L87.0072 231.412L86.3592 230.512H91.3632L96.1152 237.856L100.867 230.512H104.215L103.387 231.52L97.0872 240.376V245.56C97.1112 245.944 97.0752 246.256 96.9792 246.496C96.8832 246.712 96.7152 246.868 96.4752 246.964C96.2352 247.036 95.8992 247.072 95.4672 247.072H93.3792ZM111.457 247.288C109.993 247.288 108.757 247.192 107.749 247C106.765 246.808 105.973 246.448 105.373 245.92C104.797 245.392 104.389 244.66 104.149 243.724C103.909 242.788 103.789 241.576 103.789 240.088C103.789 238.312 104.017 236.872 104.473 235.768C104.929 234.664 105.733 233.86 106.885 233.356C108.061 232.828 109.693 232.564 111.781 232.564C113.413 232.564 114.709 232.768 115.669 233.176C116.653 233.56 117.361 234.172 117.793 235.012C118.225 235.852 118.441 236.92 118.441 238.216V240.52H108.325C108.325 240.136 108.409 239.824 108.577 239.584C108.745 239.344 109.057 239.224 109.513 239.224H115.417L115.381 238.288C115.357 236.944 115.069 235.96 114.517 235.336C113.989 234.712 113.029 234.4 111.637 234.4C110.485 234.4 109.585 234.58 108.937 234.94C108.289 235.3 107.833 235.888 107.569 236.704C107.305 237.496 107.173 238.6 107.173 240.016C107.173 241.48 107.317 242.596 107.604 243.364C107.917 244.108 108.421 244.612 109.117 244.876C109.837 245.14 110.833 245.272 112.105 245.272C112.561 245.272 113.089 245.26 113.689 245.236C114.313 245.212 114.937 245.176 115.561 245.128C116.209 245.08 116.785 245.02 117.289 244.948C117.793 244.876 118.129 244.804 118.297 244.732V245.236C118.297 245.5 118.237 245.764 118.117 246.028C117.997 246.292 117.745 246.508 117.361 246.676C116.857 246.916 116.113 247.072 115.129 247.144C114.169 247.24 112.945 247.288 111.457 247.288ZM121.625 247.072L121.589 230.152C121.589 229.648 121.661 229.312 121.805 229.144C121.973 228.952 122.321 228.856 122.849 228.856H125.009V239.872L131.129 233.464C131.441 233.176 131.753 232.972 132.065 232.852C132.401 232.708 132.869 232.636 133.469 232.636C133.925 232.636 134.345 232.648 134.729 232.672C135.113 232.672 135.461 232.684 135.773 232.708C135.701 232.78 135.545 232.9 135.305 233.068C135.089 233.236 134.849 233.428 134.585 233.644C134.321 233.836 134.081 234.028 133.865 234.22L129.221 238.648L135.485 245.596C135.749 245.884 136.013 246.148 136.277 246.388C136.541 246.628 136.793 246.856 137.033 247.072C136.433 247.096 135.821 247.108 135.197 247.108C134.597 247.108 134.057 247.108 133.577 247.108C133.025 247.108 132.605 247.048 132.317 246.928C132.053 246.784 131.765 246.556 131.453 246.244L126.881 241.096L125.009 242.68V247.072H121.625ZM149.407 247.144C147.559 247.144 145.975 247.144 144.655 247.144C143.335 247.144 142.219 247.132 141.307 247.108C140.419 247.108 139.687 247.096 139.111 247.072V232.168C139.111 231.472 139.255 231.028 139.543 230.836C139.855 230.644 140.275 230.536 140.803 230.512C141.523 230.512 142.159 230.512 142.711 230.512C143.287 230.488 143.803 230.476 144.259 230.476C144.739 230.452 145.195 230.44 145.627 230.44C146.083 230.44 146.563 230.44 147.067 230.44C147.643 230.44 148.255 230.452 148.903 230.476C149.551 230.476 150.163 230.488 150.739 230.512C151.315 230.512 151.759 230.524 152.071 230.548C153.415 230.644 154.399 231.016 155.023 231.664C155.647 232.312 155.959 233.272 155.959 234.544C155.959 235.48 155.803 236.236 155.491 236.812C155.203 237.364 154.819 237.76 154.339 238C153.883 238.216 153.427 238.348 152.971 238.396C153.475 238.396 153.943 238.444 154.375 238.54C154.807 238.636 155.191 238.828 155.527 239.116C155.863 239.38 156.127 239.788 156.319 240.34C156.511 240.868 156.607 241.576 156.607 242.464C156.607 243.544 156.427 244.408 156.067 245.056C155.707 245.68 155.203 246.148 154.555 246.46C153.931 246.748 153.175 246.94 152.287 247.036C151.399 247.108 150.439 247.144 149.407 247.144ZM148.327 245.272C148.927 245.272 149.491 245.26 150.019 245.236C150.571 245.188 151.063 245.08 151.495 244.912C151.927 244.744 152.263 244.456 152.503 244.048C152.767 243.616 152.899 243.028 152.899 242.284C152.899 241.228 152.659 240.496 152.179 240.088C151.723 239.68 150.811 239.476 149.443 239.476H144.007C143.671 239.476 143.443 239.332 143.323 239.044C143.227 238.732 143.179 238.276 143.179 237.676H149.335C149.839 237.676 150.307 237.616 150.739 237.496C151.195 237.352 151.555 237.076 151.819 236.668C152.107 236.236 152.251 235.6 152.251 234.76C152.251 233.968 152.071 233.356 151.711 232.924C151.375 232.492 150.811 232.24 150.019 232.168C149.611 232.144 149.143 232.132 148.615 232.132C148.087 232.108 147.571 232.096 147.067 232.096C146.419 232.096 145.807 232.096 145.231 232.096C144.655 232.096 144.163 232.108 143.755 232.132C143.491 232.132 143.263 232.216 143.071 232.384C142.903 232.528 142.819 232.78 142.819 233.14V245.236C143.035 245.236 143.275 245.248 143.539 245.272C143.803 245.272 144.115 245.272 144.475 245.272C144.859 245.272 145.351 245.272 145.951 245.272C146.575 245.272 147.367 245.272 148.327 245.272ZM163.568 232.708V242.32C163.568 243.424 163.868 244.204 164.468 244.66C165.068 245.116 166.004 245.344 167.276 245.344C168.644 245.344 169.616 245.104 170.192 244.624C170.792 244.144 171.092 243.376 171.092 242.32V232.708C171.116 232.708 171.212 232.708 171.38 232.708C171.572 232.708 171.776 232.708 171.992 232.708C172.208 232.708 172.412 232.708 172.604 232.708C172.796 232.708 172.916 232.708 172.964 232.708C173.348 232.708 173.648 232.732 173.864 232.78C174.08 232.804 174.224 232.912 174.296 233.104C174.392 233.272 174.44 233.56 174.44 233.968V241.816C174.44 243.088 174.248 244.132 173.864 244.948C173.48 245.74 172.76 246.328 171.704 246.712C170.672 247.072 169.184 247.252 167.24 247.252C165.416 247.252 163.988 247.096 162.956 246.784C161.948 246.472 161.228 245.944 160.796 245.2C160.388 244.432 160.184 243.388 160.184 242.068V233.968C160.184 233.464 160.268 233.128 160.436 232.96C160.604 232.792 160.94 232.708 161.444 232.708C161.804 232.708 162.152 232.708 162.488 232.708C162.848 232.708 163.208 232.708 163.568 232.708ZM163.424 230.512L166.772 226.192H167.888L171.272 230.512H169.688L167.312 227.812L164.9 230.512H163.424ZM179.129 247.072C178.457 247.072 178.121 246.736 178.121 246.064V233.68C178.841 233.392 179.813 233.14 181.037 232.924C182.261 232.684 183.653 232.564 185.213 232.564C186.749 232.564 187.973 232.66 188.885 232.852C189.821 233.044 190.529 233.356 191.009 233.788C191.489 234.196 191.801 234.736 191.945 235.408C192.113 236.08 192.197 236.908 192.197 237.892V245.704C192.197 246.04 192.161 246.316 192.089 246.532C192.041 246.748 191.909 246.892 191.693 246.964C191.501 247.036 191.201 247.072 190.793 247.072H188.813V237.172C188.813 236.236 188.525 235.564 187.949 235.156C187.373 234.748 186.461 234.544 185.213 234.544C184.829 234.544 184.397 234.58 183.917 234.652C183.437 234.7 182.981 234.784 182.549 234.904C182.117 235.024 181.769 235.18 181.505 235.372V247.072H179.129Z" fill="#1C274C"/>
<path opacity="0.5" d="M71.4053 271.432C71.6986 271.605 72.0786 271.739 72.5453 271.832C73.0253 271.912 73.5186 271.965 74.0253 271.992C74.532 272.005 74.972 272.012 75.3453 272.012C75.492 272.012 75.6586 272.012 75.8453 272.012C76.0453 271.999 76.2186 271.992 76.3653 271.992C76.8453 271.979 77.2653 271.925 77.6253 271.832C77.9853 271.725 78.2586 271.552 78.4453 271.312C78.6453 271.072 78.7453 270.732 78.7453 270.292C78.7453 269.745 78.5986 269.392 78.3053 269.232C78.0253 269.072 77.612 268.992 77.0653 268.992C76.8786 268.992 76.6786 268.992 76.4653 268.992C76.252 268.992 76.0053 268.992 75.7253 268.992C75.4586 268.992 75.1453 268.992 74.7853 268.992C74.3853 268.992 73.9853 268.972 73.5853 268.932C73.1853 268.892 72.8253 268.805 72.5053 268.672C72.1853 268.525 71.9253 268.299 71.7253 267.992C71.5253 267.672 71.4253 267.225 71.4253 266.652C71.4253 265.985 71.5453 265.459 71.7853 265.072C72.0253 264.685 72.3586 264.405 72.7853 264.232C73.2253 264.045 73.7253 263.925 74.2853 263.872C74.8586 263.819 75.4853 263.792 76.1653 263.792C76.5653 263.792 77.0053 263.799 77.4853 263.812C77.9653 263.825 78.4253 263.859 78.8653 263.912C79.3053 263.952 79.6453 264.025 79.8853 264.132C80.1653 264.159 80.3786 264.245 80.5253 264.392C80.6853 264.525 80.7653 264.699 80.7653 264.912C80.7653 264.952 80.7653 265.019 80.7653 265.112C80.7653 265.205 80.7653 265.292 80.7653 265.372C80.7653 265.452 80.7653 265.512 80.7653 265.552C80.6586 265.419 80.4586 265.319 80.1653 265.252C79.8853 265.172 79.5653 265.112 79.2053 265.072C78.8453 265.032 78.492 265.005 78.1453 264.992C77.812 264.965 77.5253 264.952 77.2853 264.952H75.9253C75.472 264.952 75.0653 264.992 74.7053 265.072C74.3453 265.139 74.0586 265.285 73.8453 265.512C73.632 265.725 73.5253 266.059 73.5253 266.512C73.5253 266.859 73.592 267.125 73.7253 267.312C73.872 267.485 74.0786 267.605 74.3453 267.672C74.6253 267.725 74.952 267.752 75.3253 267.752C75.9386 267.752 76.4586 267.752 76.8853 267.752C77.312 267.752 77.6386 267.752 77.8653 267.752C78.4653 267.752 78.992 267.805 79.4453 267.912C79.912 268.005 80.272 268.225 80.5253 268.572C80.792 268.919 80.9253 269.465 80.9253 270.212C80.9253 270.919 80.772 271.485 80.4653 271.912C80.1586 272.325 79.7386 272.625 79.2053 272.812C78.672 272.985 78.0586 273.092 77.3653 273.132C76.952 273.159 76.552 273.172 76.1653 273.172C75.7786 273.185 75.372 273.185 74.9453 273.172C74.5586 273.172 74.1586 273.159 73.7453 273.132C73.332 273.105 72.9453 273.059 72.5853 272.992C72.2386 272.912 71.952 272.805 71.7253 272.672C71.512 272.539 71.4053 272.359 71.4053 272.132V271.432ZM86.8325 273.192C86.1658 273.192 85.5725 273.145 85.0525 273.052C84.5458 272.945 84.1058 272.752 83.7325 272.472C83.3725 272.192 83.0992 271.779 82.9125 271.232C82.7258 270.685 82.6325 269.972 82.6325 269.092C82.6325 268.212 82.7258 267.499 82.9125 266.952C83.0992 266.405 83.3725 265.992 83.7325 265.712C84.1058 265.432 84.5458 265.245 85.0525 265.152C85.5725 265.045 86.1658 264.992 86.8325 264.992C87.4725 264.992 88.0458 265.045 88.5525 265.152C89.0725 265.245 89.5125 265.432 89.8725 265.712C90.2325 265.992 90.5058 266.405 90.6925 266.952C90.8925 267.499 90.9925 268.212 90.9925 269.092C90.9925 269.985 90.8925 270.705 90.6925 271.252C90.5058 271.799 90.2325 272.212 89.8725 272.492C89.5125 272.759 89.0725 272.945 88.5525 273.052C88.0458 273.145 87.4725 273.192 86.8325 273.192ZM86.8325 272.192C87.3125 272.192 87.7192 272.119 88.0525 271.972C88.3992 271.825 88.6592 271.532 88.8325 271.092C89.0058 270.652 89.0925 269.985 89.0925 269.092C89.0925 268.199 89.0058 267.532 88.8325 267.092C88.6592 266.652 88.3992 266.359 88.0525 266.212C87.7192 266.065 87.3125 265.992 86.8325 265.992C86.3525 265.992 85.9392 266.065 85.5925 266.212C85.2458 266.359 84.9792 266.652 84.7925 267.092C84.6192 267.532 84.5325 268.199 84.5325 269.092C84.5325 269.985 84.6192 270.652 84.7925 271.092C84.9792 271.532 85.2458 271.825 85.5925 271.972C85.9392 272.119 86.3525 272.192 86.8325 272.192ZM95.973 273.152C95.7196 273.152 95.4196 273.145 95.073 273.132C94.7263 273.119 94.373 273.092 94.013 273.052C93.6663 272.999 93.353 272.925 93.073 272.832C92.8996 272.792 92.7596 272.739 92.653 272.672C92.5596 272.605 92.4863 272.492 92.433 272.332C92.393 272.159 92.373 271.899 92.373 271.552C92.7063 271.699 93.0796 271.819 93.493 271.912C93.9063 271.992 94.313 272.045 94.713 272.072C95.1263 272.099 95.4796 272.112 95.773 272.112C96.133 272.112 96.4863 272.099 96.833 272.072C97.193 272.045 97.5196 271.985 97.813 271.892C98.1196 271.799 98.3596 271.652 98.533 271.452C98.7196 271.252 98.813 270.979 98.813 270.632C98.813 270.165 98.693 269.865 98.453 269.732C98.213 269.599 97.8796 269.532 97.453 269.532H95.353C94.833 269.532 94.3463 269.499 93.893 269.432C93.453 269.365 93.093 269.192 92.813 268.912C92.5463 268.632 92.413 268.159 92.413 267.492C92.413 266.759 92.593 266.212 92.953 265.852C93.313 265.492 93.8196 265.259 94.473 265.152C95.1396 265.045 95.9196 264.992 96.813 264.992C97.1463 264.992 97.533 264.999 97.973 265.012C98.4263 265.025 98.8463 265.065 99.233 265.132C99.553 265.159 99.8063 265.212 99.993 265.292C100.193 265.359 100.34 265.459 100.433 265.592C100.526 265.712 100.573 265.899 100.573 266.152V266.612C100.453 266.465 100.246 266.359 99.953 266.292C99.6596 266.212 99.313 266.152 98.913 266.112C98.5263 266.072 98.1196 266.052 97.693 266.052C97.2796 266.039 96.893 266.032 96.533 266.032C96.1463 266.032 95.773 266.059 95.413 266.112C95.0663 266.152 94.7863 266.265 94.573 266.452C94.3596 266.639 94.253 266.945 94.253 267.372C94.253 267.705 94.3196 267.945 94.453 268.092C94.5863 268.239 94.773 268.332 95.013 268.372C95.253 268.412 95.5263 268.432 95.833 268.432H98.033C98.5663 268.432 99.033 268.479 99.433 268.572C99.833 268.665 100.146 268.865 100.373 269.172C100.6 269.479 100.713 269.959 100.713 270.612C100.713 271.359 100.506 271.912 100.093 272.272C99.6796 272.632 99.1196 272.872 98.413 272.992C97.7063 273.099 96.893 273.152 95.973 273.152ZM104.108 273.152C103.401 273.152 102.921 272.985 102.668 272.652C102.414 272.305 102.288 271.792 102.288 271.112L102.308 265.092H104.168V271.012C104.168 271.519 104.228 271.865 104.348 272.052C104.481 272.239 104.701 272.332 105.008 272.332C105.128 272.332 105.261 272.319 105.408 272.292C105.554 272.265 105.648 272.245 105.688 272.232V272.992C105.634 273.005 105.548 273.025 105.428 273.052C105.308 273.079 105.141 273.099 104.928 273.112C104.714 273.139 104.441 273.152 104.108 273.152ZM103.268 263.992C102.961 263.992 102.728 263.952 102.568 263.872C102.421 263.779 102.348 263.612 102.348 263.372C102.348 263.132 102.421 262.972 102.568 262.892C102.714 262.799 102.948 262.752 103.268 262.752C103.574 262.752 103.794 262.799 103.928 262.892C104.074 262.972 104.148 263.132 104.148 263.372C104.148 263.612 104.074 263.779 103.928 263.872C103.794 263.952 103.574 263.992 103.268 263.992ZM110.595 273.192C109.769 273.192 109.095 273.152 108.575 273.072C108.055 273.005 107.655 272.879 107.375 272.692C107.095 272.505 106.902 272.252 106.795 271.932C106.702 271.612 106.655 271.212 106.655 270.732C106.655 270.052 106.729 269.539 106.875 269.192C107.035 268.832 107.302 268.585 107.675 268.452C108.062 268.319 108.575 268.252 109.215 268.252C109.549 268.252 109.915 268.259 110.315 268.272C110.729 268.285 111.122 268.305 111.495 268.332C111.882 268.345 112.215 268.365 112.495 268.392C112.789 268.419 112.982 268.452 113.075 268.492C113.075 267.932 113.029 267.492 112.935 267.172C112.842 266.852 112.689 266.612 112.475 266.452C112.275 266.292 112.022 266.185 111.715 266.132C111.409 266.079 111.049 266.052 110.635 266.052C110.182 266.052 109.729 266.065 109.275 266.092C108.835 266.119 108.415 266.165 108.015 266.232C107.629 266.299 107.309 266.385 107.055 266.492V266.112C107.055 265.805 107.135 265.585 107.295 265.452C107.469 265.319 107.675 265.232 107.915 265.192C108.182 265.125 108.575 265.072 109.095 265.032C109.615 264.992 110.169 264.979 110.755 264.992C111.502 264.992 112.135 265.032 112.655 265.112C113.189 265.179 113.615 265.325 113.935 265.552C114.269 265.779 114.509 266.119 114.655 266.572C114.815 267.025 114.895 267.632 114.895 268.392V272.472C114.775 272.725 114.369 272.912 113.675 273.032C112.982 273.139 111.955 273.192 110.595 273.192ZM110.595 272.352C111.129 272.352 111.562 272.339 111.895 272.312C112.242 272.272 112.509 272.225 112.695 272.172C112.882 272.105 113.009 272.025 113.075 271.932V269.172C112.955 269.132 112.742 269.099 112.435 269.072C112.129 269.032 111.809 268.999 111.475 268.972C111.142 268.945 110.862 268.932 110.635 268.932C110.142 268.932 109.742 268.965 109.435 269.032C109.129 269.099 108.909 269.252 108.775 269.492C108.642 269.732 108.575 270.105 108.575 270.612C108.575 271.025 108.622 271.359 108.715 271.612C108.809 271.865 108.995 272.052 109.275 272.172C109.569 272.292 110.009 272.352 110.595 272.352ZM118.896 273.152C118.189 273.152 117.683 273.012 117.376 272.732C117.069 272.439 116.916 271.925 116.916 271.192V263.772C116.916 263.559 116.929 263.399 116.956 263.292C116.996 263.172 117.069 263.092 117.176 263.052C117.283 262.999 117.443 262.972 117.656 262.972H118.816C118.816 262.999 118.803 263.105 118.776 263.292C118.763 263.479 118.756 263.699 118.756 263.952V270.952C118.756 271.445 118.816 271.799 118.936 272.012C119.056 272.225 119.283 272.332 119.616 272.332C119.723 272.332 119.849 272.319 119.996 272.292C120.156 272.265 120.256 272.245 120.296 272.232V272.992C120.216 273.005 120.076 273.032 119.876 273.072C119.676 273.125 119.349 273.152 118.896 273.152ZM122.325 273.072C122.018 273.072 121.812 273.025 121.705 272.932C121.612 272.839 121.565 272.639 121.565 272.332V265.652C121.712 265.612 121.898 265.559 122.125 265.492C122.365 265.425 122.638 265.359 122.945 265.292C123.265 265.212 123.612 265.152 123.985 265.112C124.372 265.072 124.772 265.052 125.185 265.052C125.665 265.052 126.078 265.092 126.425 265.172C126.772 265.239 127.072 265.372 127.325 265.572C127.578 265.759 127.785 266.032 127.945 266.392L127.625 266.372C127.732 266.119 127.892 265.905 128.105 265.732C128.318 265.545 128.558 265.405 128.825 265.312C129.105 265.205 129.392 265.132 129.685 265.092C129.978 265.052 130.252 265.032 130.505 265.032C131.305 265.032 131.932 265.112 132.385 265.272C132.852 265.419 133.178 265.672 133.365 266.032C133.565 266.392 133.665 266.885 133.665 267.512V272.392C133.665 272.672 133.612 272.859 133.505 272.952C133.412 273.032 133.225 273.072 132.945 273.072H131.805C131.805 272.139 131.805 271.205 131.805 270.272C131.805 269.339 131.805 268.399 131.805 267.452C131.792 266.879 131.658 266.492 131.405 266.292C131.152 266.092 130.765 265.992 130.245 265.992C130.005 265.992 129.752 266.025 129.485 266.092C129.232 266.159 129.012 266.252 128.825 266.372C128.652 266.492 128.565 266.632 128.565 266.792V273.072H126.685V267.032C126.685 266.712 126.538 266.465 126.245 266.292C125.952 266.105 125.572 266.012 125.105 266.012C124.825 266.012 124.565 266.039 124.325 266.092C124.085 266.132 123.885 266.192 123.725 266.272C123.565 266.352 123.472 266.459 123.445 266.592V273.072H122.325ZM139.725 273.192C138.911 273.192 138.225 273.139 137.665 273.032C137.118 272.925 136.678 272.725 136.345 272.432C136.025 272.139 135.798 271.732 135.665 271.212C135.531 270.692 135.465 270.019 135.465 269.192C135.465 268.205 135.591 267.405 135.845 266.792C136.098 266.179 136.545 265.732 137.185 265.452C137.838 265.159 138.745 265.012 139.905 265.012C140.811 265.012 141.531 265.125 142.065 265.352C142.611 265.565 143.005 265.905 143.245 266.372C143.485 266.839 143.605 267.432 143.605 268.152V269.432H137.985C137.985 269.219 138.031 269.045 138.125 268.912C138.218 268.779 138.391 268.712 138.645 268.712H141.925L141.905 268.192C141.891 267.445 141.731 266.899 141.425 266.552C141.131 266.205 140.598 266.032 139.825 266.032C139.185 266.032 138.685 266.132 138.325 266.332C137.965 266.532 137.711 266.859 137.565 267.312C137.418 267.752 137.345 268.365 137.345 269.152C137.345 269.965 137.425 270.585 137.585 271.012C137.758 271.425 138.038 271.705 138.425 271.852C138.825 271.999 139.378 272.072 140.085 272.072C140.338 272.072 140.631 272.065 140.965 272.052C141.311 272.039 141.658 272.019 142.005 271.992C142.365 271.965 142.685 271.932 142.965 271.892C143.245 271.852 143.431 271.812 143.525 271.772V272.052C143.525 272.199 143.491 272.345 143.425 272.492C143.358 272.639 143.218 272.759 143.005 272.852C142.725 272.985 142.311 273.072 141.765 273.112C141.231 273.165 140.551 273.192 139.725 273.192ZM145.074 269.052C145.074 267.972 145.221 267.145 145.514 266.572C145.807 265.985 146.234 265.585 146.794 265.372C147.354 265.145 148.027 265.032 148.814 265.032C149.054 265.032 149.327 265.045 149.634 265.072C149.954 265.085 150.267 265.112 150.574 265.152C150.881 265.192 151.154 265.239 151.394 265.292C151.634 265.332 151.801 265.379 151.894 265.432L151.394 265.672V262.972H153.234L153.214 269.052C153.214 269.959 153.147 270.685 153.014 271.232C152.881 271.765 152.661 272.165 152.354 272.432C152.047 272.699 151.621 272.879 151.074 272.972C150.527 273.065 149.847 273.112 149.034 273.112C148.274 273.112 147.634 273.065 147.114 272.972C146.607 272.865 146.201 272.672 145.894 272.392C145.601 272.112 145.387 271.705 145.254 271.172C145.134 270.639 145.074 269.932 145.074 269.052ZM148.994 272.092C149.514 272.092 149.934 272.059 150.254 271.992C150.574 271.912 150.814 271.772 150.974 271.572C151.147 271.372 151.261 271.092 151.314 270.732C151.367 270.359 151.394 269.879 151.394 269.292L151.374 266.232C151.241 266.219 151.061 266.205 150.834 266.192C150.607 266.179 150.367 266.172 150.114 266.172C149.861 266.159 149.627 266.152 149.414 266.152C148.814 266.152 148.334 266.232 147.974 266.392C147.614 266.539 147.354 266.825 147.194 267.252C147.034 267.679 146.954 268.292 146.954 269.092C146.954 269.945 147.014 270.585 147.134 271.012C147.267 271.439 147.481 271.725 147.774 271.872C148.081 272.019 148.487 272.092 148.994 272.092ZM157.037 273.152C156.331 273.152 155.851 272.985 155.597 272.652C155.344 272.305 155.217 271.792 155.217 271.112L155.237 265.092H157.097V271.012C157.097 271.519 157.157 271.865 157.277 272.052C157.411 272.239 157.631 272.332 157.937 272.332C158.057 272.332 158.191 272.319 158.337 272.292C158.484 272.265 158.577 272.245 158.617 272.232V272.992C158.564 273.005 158.477 273.025 158.357 273.052C158.237 273.079 158.071 273.099 157.857 273.112C157.644 273.139 157.371 273.152 157.037 273.152ZM156.197 263.992C155.891 263.992 155.657 263.952 155.497 263.872C155.351 263.779 155.277 263.612 155.277 263.372C155.277 263.132 155.351 262.972 155.497 262.892C155.644 262.799 155.877 262.752 156.197 262.752C156.504 262.752 156.724 262.799 156.857 262.892C157.004 262.972 157.077 263.132 157.077 263.372C157.077 263.612 157.004 263.779 156.857 263.872C156.724 263.952 156.504 263.992 156.197 263.992ZM163.525 273.192C162.698 273.192 162.025 273.152 161.505 273.072C160.985 273.005 160.585 272.879 160.305 272.692C160.025 272.505 159.832 272.252 159.725 271.932C159.632 271.612 159.585 271.212 159.585 270.732C159.585 270.052 159.658 269.539 159.805 269.192C159.965 268.832 160.232 268.585 160.605 268.452C160.992 268.319 161.505 268.252 162.145 268.252C162.478 268.252 162.845 268.259 163.245 268.272C163.658 268.285 164.052 268.305 164.425 268.332C164.812 268.345 165.145 268.365 165.425 268.392C165.718 268.419 165.912 268.452 166.005 268.492C166.005 267.932 165.958 267.492 165.865 267.172C165.772 266.852 165.618 266.612 165.405 266.452C165.205 266.292 164.952 266.185 164.645 266.132C164.338 266.079 163.978 266.052 163.565 266.052C163.112 266.052 162.658 266.065 162.205 266.092C161.765 266.119 161.345 266.165 160.945 266.232C160.558 266.299 160.238 266.385 159.985 266.492V266.112C159.985 265.805 160.065 265.585 160.225 265.452C160.398 265.319 160.605 265.232 160.845 265.192C161.112 265.125 161.505 265.072 162.025 265.032C162.545 264.992 163.098 264.979 163.685 264.992C164.432 264.992 165.065 265.032 165.585 265.112C166.118 265.179 166.545 265.325 166.865 265.552C167.198 265.779 167.438 266.119 167.585 266.572C167.745 267.025 167.825 267.632 167.825 268.392V272.472C167.705 272.725 167.298 272.912 166.605 273.032C165.912 273.139 164.885 273.192 163.525 273.192ZM163.525 272.352C164.058 272.352 164.492 272.339 164.825 272.312C165.172 272.272 165.438 272.225 165.625 272.172C165.812 272.105 165.938 272.025 166.005 271.932V269.172C165.885 269.132 165.672 269.099 165.365 269.072C165.058 269.032 164.738 268.999 164.405 268.972C164.072 268.945 163.792 268.932 163.565 268.932C163.072 268.932 162.672 268.965 162.365 269.032C162.058 269.099 161.838 269.252 161.705 269.492C161.572 269.732 161.505 270.105 161.505 270.612C161.505 271.025 161.552 271.359 161.645 271.612C161.738 271.865 161.925 272.052 162.205 272.172C162.498 272.292 162.938 272.352 163.525 272.352ZM183.499 273.232C183.232 273.232 182.986 273.199 182.759 273.132C182.546 273.065 182.339 272.959 182.139 272.812C182.046 272.732 181.912 272.599 181.739 272.412C181.566 272.225 181.366 272.012 181.139 271.772C180.912 271.519 180.679 271.265 180.439 271.012C180.212 270.759 180.006 270.532 179.819 270.332C179.632 270.119 179.486 269.959 179.379 269.852C179.232 269.692 179.106 269.572 178.999 269.492C178.892 269.412 178.726 269.339 178.499 269.272L177.599 269.212V273.072H175.559V264.572C175.559 264.412 175.566 264.285 175.579 264.192C175.606 264.085 175.666 264.005 175.759 263.952C175.866 263.899 176.019 263.872 176.219 263.872C176.459 263.872 176.692 263.872 176.919 263.872C177.146 263.872 177.372 263.872 177.599 263.872C177.599 264.059 177.599 264.319 177.599 264.652C177.599 264.985 177.599 265.339 177.599 265.712C177.599 266.085 177.599 266.439 177.599 266.772C177.599 267.105 177.599 267.365 177.599 267.552L178.519 267.472C178.679 267.445 178.806 267.399 178.899 267.332C178.992 267.265 179.099 267.165 179.219 267.032C179.472 266.752 179.752 266.452 180.059 266.132C180.379 265.812 180.706 265.485 181.039 265.152C181.372 264.819 181.679 264.505 181.959 264.212C182.159 264.052 182.372 263.945 182.599 263.892C182.839 263.839 183.112 263.812 183.419 263.812C183.659 263.812 183.859 263.825 184.019 263.852C184.179 263.879 184.346 263.912 184.519 263.952C184.492 263.965 184.399 264.052 184.239 264.212C184.092 264.372 183.926 264.545 183.739 264.732C183.552 264.919 183.392 265.085 183.259 265.232C182.872 265.552 182.466 265.899 182.039 266.272C181.612 266.632 181.199 266.992 180.799 267.352C180.399 267.712 180.032 268.052 179.699 268.372L179.739 267.852C179.979 268.039 180.286 268.312 180.659 268.672C181.032 269.019 181.446 269.419 181.899 269.872C182.366 270.325 182.846 270.799 183.339 271.292C183.832 271.772 184.319 272.232 184.799 272.672C184.759 272.725 184.679 272.799 184.559 272.892C184.439 272.972 184.292 273.045 184.119 273.112C183.946 273.192 183.739 273.232 183.499 273.232ZM187.933 265.092V270.432C187.933 271.045 188.1 271.479 188.433 271.732C188.767 271.985 189.287 272.112 189.993 272.112C190.753 272.112 191.293 271.979 191.613 271.712C191.947 271.445 192.113 271.019 192.113 270.432V265.092C192.127 265.092 192.18 265.092 192.273 265.092C192.38 265.092 192.493 265.092 192.613 265.092C192.733 265.092 192.847 265.092 192.953 265.092C193.06 265.092 193.127 265.092 193.153 265.092C193.367 265.092 193.533 265.105 193.653 265.132C193.773 265.145 193.853 265.205 193.893 265.312C193.947 265.405 193.973 265.565 193.973 265.792V270.152C193.973 270.859 193.867 271.439 193.653 271.892C193.44 272.332 193.04 272.659 192.453 272.872C191.88 273.072 191.053 273.172 189.973 273.172C188.96 273.172 188.167 273.085 187.593 272.912C187.033 272.739 186.633 272.445 186.393 272.032C186.167 271.605 186.053 271.025 186.053 270.292V265.792C186.053 265.512 186.1 265.325 186.193 265.232C186.287 265.139 186.473 265.092 186.753 265.092C186.953 265.092 187.147 265.092 187.333 265.092C187.533 265.092 187.733 265.092 187.933 265.092ZM197.918 273.072H196.638C196.438 273.072 196.285 273.019 196.178 272.912C196.071 272.805 196.018 272.605 196.018 272.312V265.492C196.338 265.399 196.785 265.299 197.358 265.192C197.931 265.085 198.618 265.032 199.418 265.032C200.205 265.032 200.825 265.085 201.278 265.192C201.731 265.285 202.065 265.432 202.278 265.632C202.505 265.819 202.645 266.052 202.698 266.332C202.765 266.599 202.798 266.912 202.798 267.272H200.998L200.978 266.992C200.978 266.672 200.891 266.445 200.718 266.312C200.558 266.165 200.365 266.072 200.138 266.032C199.911 265.992 199.685 265.972 199.458 265.972C199.111 265.972 198.798 266.005 198.518 266.072C198.251 266.139 198.051 266.225 197.918 266.332V273.072ZM203.98 269.052C203.98 267.972 204.127 267.145 204.42 266.572C204.713 265.985 205.14 265.585 205.7 265.372C206.26 265.145 206.933 265.032 207.72 265.032C207.96 265.032 208.233 265.045 208.54 265.072C208.86 265.085 209.173 265.112 209.48 265.152C209.787 265.192 210.06 265.239 210.3 265.292C210.54 265.332 210.707 265.379 210.8 265.432L210.3 265.672V262.972H212.14L212.12 269.052C212.12 269.959 212.053 270.685 211.92 271.232C211.787 271.765 211.567 272.165 211.26 272.432C210.953 272.699 210.527 272.879 209.98 272.972C209.433 273.065 208.753 273.112 207.94 273.112C207.18 273.112 206.54 273.065 206.02 272.972C205.513 272.865 205.107 272.672 204.8 272.392C204.507 272.112 204.293 271.705 204.16 271.172C204.04 270.639 203.98 269.932 203.98 269.052ZM207.9 272.092C208.42 272.092 208.84 272.059 209.16 271.992C209.48 271.912 209.72 271.772 209.88 271.572C210.053 271.372 210.167 271.092 210.22 270.732C210.273 270.359 210.3 269.879 210.3 269.292L210.28 266.232C210.147 266.219 209.967 266.205 209.74 266.192C209.513 266.179 209.273 266.172 209.02 266.172C208.767 266.159 208.533 266.152 208.32 266.152C207.72 266.152 207.24 266.232 206.88 266.392C206.52 266.539 206.26 266.825 206.1 267.252C205.94 267.679 205.86 268.292 205.86 269.092C205.86 269.945 205.92 270.585 206.04 271.012C206.173 271.439 206.387 271.725 206.68 271.872C206.987 272.019 207.393 272.092 207.9 272.092ZM215.823 273.152C215.117 273.152 214.637 272.985 214.383 272.652C214.13 272.305 214.003 271.792 214.003 271.112L214.023 265.092H215.883V271.012C215.883 271.519 215.943 271.865 216.063 272.052C216.197 272.239 216.417 272.332 216.723 272.332C216.857 272.332 216.99 272.319 217.123 272.292C217.27 272.265 217.363 272.245 217.403 272.232V272.992C217.35 273.005 217.263 273.025 217.143 273.052C217.023 273.079 216.857 273.099 216.643 273.112C216.43 273.139 216.157 273.152 215.823 273.152ZM212.603 263.872L214.463 261.472H215.083L216.963 263.872H216.083L214.763 262.372L213.423 263.872H212.603Z" fill="#101010"/>
<path d="M155.689 378.207H152.026V387.367H155.689V378.207Z" fill="black"/>
<path d="M163.017 378.207H159.353V387.367H163.017V378.207Z" fill="black"/>
<path d="M155.689 391.031H152.026V394.694H155.689V391.031Z" fill="black"/>
<path d="M163.017 391.031H159.353V394.694H163.017V391.031Z" fill="black"/>
<path d="M142.866 398.358H139.202V402.022H142.866V398.358Z" fill="black"/>
<path d="M133.707 434.996H130.043V438.66H133.707V434.996Z" fill="black"/>
<path d="M163.017 398.358H159.353V402.022H163.017V398.358Z" fill="black"/>
<path d="M155.689 405.686H152.026V409.349H155.689V405.686Z" fill="black"/>
<path d="M163.017 405.686H159.353V409.349H163.017V405.686Z" fill="black"/>
<path d="M89.7412 345.233V367.216C89.7412 368.227 90.5619 369.048 91.5731 369.048H113.556C114.567 369.048 115.388 368.227 115.388 367.216V345.233C115.388 344.222 114.567 343.401 113.556 343.401H91.5731C90.5619 343.401 89.7412 344.222 89.7412 345.233ZM93.405 347.065H111.724V365.384H93.405V347.065Z" fill="black"/>
<path d="M106.228 350.729H98.9007C97.8895 350.729 97.0688 351.549 97.0688 352.561V359.888C97.0688 360.899 97.8895 361.72 98.9007 361.72H106.228C107.24 361.72 108.06 360.899 108.06 359.888V352.561C108.06 351.549 107.24 350.729 106.228 350.729ZM104.396 358.056H100.733V354.393H104.396V358.056Z" fill="black"/>
<path d="M168.513 369.048H190.496C191.507 369.048 192.327 368.227 192.327 367.216V345.233C192.327 344.222 191.507 343.401 190.496 343.401H168.513C167.502 343.401 166.681 344.222 166.681 345.233V367.216C166.681 368.227 167.502 369.048 168.513 369.048ZM170.345 347.065H188.664V365.384H170.345V347.065Z" fill="black"/>
<path d="M183.168 350.729H175.84C174.829 350.729 174.009 351.549 174.009 352.561V359.888C174.009 360.899 174.829 361.72 175.84 361.72H183.168C184.179 361.72 185 360.899 185 359.888V352.561C185 351.549 184.179 350.729 183.168 350.729ZM181.336 358.056H177.672V354.393H181.336V358.056Z" fill="black"/>
<path d="M113.556 420.341H91.5731C90.5619 420.341 89.7412 421.162 89.7412 422.173V444.155C89.7412 445.167 90.5619 445.987 91.5731 445.987H113.556C114.567 445.987 115.388 445.167 115.388 444.155V422.173C115.388 421.162 114.567 420.341 113.556 420.341ZM111.724 442.324H93.405V424.005H111.724V442.324Z" fill="black"/>
<path d="M98.9007 438.66H106.228C107.24 438.66 108.06 437.839 108.06 436.828V429.5C108.06 428.489 107.24 427.668 106.228 427.668H98.9007C97.8895 427.668 97.0688 428.489 97.0688 429.5V436.828C97.0688 437.839 97.8895 438.66 98.9007 438.66ZM100.733 431.332H104.396V434.996H100.733V431.332Z" fill="black"/>
<path d="M163.017 370.88H150.194V348.897H146.53V372.712C146.53 373.723 147.351 374.543 148.362 374.543H163.017V370.88Z" fill="black"/>
<path d="M135.539 358.056H122.715V361.72H135.539V358.056Z" fill="black"/>
<path d="M142.866 350.729H130.043V354.393H142.866V350.729Z" fill="black"/>
<path d="M93.405 370.88H89.7412V387.367H93.405V370.88Z" fill="black"/>
<path d="M115.388 381.871H97.0688V385.535H113.556V392.862H117.22V383.703C117.22 382.692 116.399 381.871 115.388 381.871Z" fill="black"/>
<path d="M102.564 372.712H98.9006V376.375H102.564V372.712Z" fill="black"/>
<path d="M124.547 369.048H120.884V383.703H124.547V369.048Z" fill="black"/>
<path d="M137.371 387.367H120.884V391.03H137.371V387.367Z" fill="black"/>
<path d="M194.159 389.199H190.495V407.518H185V411.181H192.327C193.339 411.181 194.159 410.361 194.159 409.349V389.199Z" fill="black"/>
<path d="M133.707 369.048H130.043V372.712H133.707V369.048Z" fill="black"/>
<path d="M93.405 396.526H89.7412V411.181H93.405V396.526Z" fill="black"/>
<path d="M106.228 413.013H89.7412V416.677H106.228V413.013Z" fill="black"/>
<path d="M174.008 387.367H177.672V380.039C177.672 379.028 176.852 378.207 175.84 378.207H166.681V381.871H174.008V387.367Z" fill="black"/>
<path d="M102.564 396.526H98.9006V400.19H102.564V396.526Z" fill="black"/>
<path d="M122.715 394.694H119.052V409.35H122.715V394.694Z" fill="black"/>
<path d="M135.539 413.013H119.052V416.677H135.539V413.013Z" fill="black"/>
<path d="M113.556 405.686H97.0688V409.349H113.556V405.686Z" fill="black"/>
<path d="M124.547 431.332H120.884V438.66H124.547V431.332Z" fill="black"/>
<path d="M135.539 424.005H119.052V427.668H135.539V424.005Z" fill="black"/>
<path d="M148.362 416.677V407.518C148.362 406.506 147.541 405.686 146.53 405.686H128.211V409.349H144.698V416.677H148.362Z" fill="black"/>
<path d="M133.707 394.694H130.043V398.358H133.707V394.694Z" fill="black"/>
<path d="M113.556 398.358H109.892V402.022H113.556V398.358Z" fill="black"/>
<path d="M194.159 433.164H190.496V445.987H194.159V433.164Z" fill="black"/>
<path d="M186.832 442.324H181.336V445.987H186.832V442.324Z" fill="black"/>
<path d="M185 431.332H181.336V438.66H185V431.332Z" fill="black"/>
<path d="M194.159 416.677C194.159 415.666 193.339 414.845 192.327 414.845H172.177V418.509H190.495V429.5H194.159V416.677Z" fill="black"/>
<path d="M170.345 438.66V429.5C170.345 428.489 169.524 427.668 168.513 427.668H148.362V431.332H166.681V438.66H170.345Z" fill="black"/>
<path d="M186.832 422.173H174.009V425.837H186.832V422.173Z" fill="black"/>
<path d="M131.875 442.324H119.052V445.987H131.875V442.324Z" fill="black"/>
<path d="M141.034 429.5H137.371V445.987H141.034V429.5Z" fill="black"/>
<path d="M148.362 420.341H141.034V424.005H148.362V420.341Z" fill="black"/>
<path d="M168.513 402.022H177.672V398.358H170.345V387.367H166.681V400.19C166.681 401.201 167.502 402.022 168.513 402.022Z" fill="black"/>
<path d="M183.168 391.031H174.009V394.694H183.168V391.031Z" fill="black"/>
<path d="M186.832 372.712H181.336V376.375H186.832V372.712Z" fill="black"/>
<path d="M194.159 372.712H190.496V381.871H194.159V372.712Z" fill="black"/>
<path d="M185 381.871H181.336V385.535H185V381.871Z" fill="black"/>
<path d="M153.858 367.216H161.185C162.196 367.216 163.017 366.395 163.017 365.384V341.569H159.353V363.552H153.858V367.216Z" fill="black"/>
<path d="M126.379 345.233H153.858V341.569H124.547C123.536 341.569 122.715 342.39 122.715 343.401V352.561H126.379V345.233Z" fill="black"/>
<path d="M128.211 380.039H141.034C142.045 380.039 142.866 379.218 142.866 378.207V363.552H139.202V376.375H128.211V380.039Z" fill="black"/>
<path d="M148.362 378.207H144.698V385.535H148.362V378.207Z" fill="black"/>
<path d="M161.185 434.996H148.362V438.66H161.185V434.996Z" fill="black"/>
<path d="M164.849 442.324H148.362V445.987H164.849V442.324Z" fill="black"/>
<path d="M174.009 442.324H170.345V445.987H175.84C176.852 445.987 177.672 445.167 177.672 444.156V429.5H174.009V442.324Z" fill="black"/>
<path d="M115.388 413.013H111.724V416.677H115.388V413.013Z" fill="black"/>
<path d="M161.185 413.013H153.858V416.677H161.185V413.013Z" fill="black"/>
<path d="M170.345 405.686H166.681V411.181H170.345V405.686Z" fill="black"/>
<path d="M168.513 414.845H164.849V418.509H168.513V414.845Z" fill="black"/>
<path d="M159.353 420.341H153.858V424.005H159.353V420.341Z" fill="black"/>
<path d="M177.672 405.686H174.009V409.349H177.672V405.686Z" fill="black"/>
<path d="M186.832 398.358H181.336V402.022H186.832V398.358Z" fill="black"/>
<path d="M155.69 398.358H146.53V402.022H155.69V398.358Z" fill="black"/>
<path d="M148.362 389.199H144.698V394.694H148.362V389.199Z" fill="black"/>
<path d="M62.4724 311.626C62.4724 312.906 62.3284 313.914 62.0404 314.65C61.7684 315.386 61.3604 315.93 60.8164 316.282C60.2884 316.634 59.6244 316.866 58.8244 316.978C58.0244 317.074 57.1044 317.122 56.0644 317.122C55.5204 317.122 54.9764 317.114 54.4324 317.098C53.8884 317.098 53.3524 317.098 52.8244 317.098C52.3124 317.098 51.8404 317.09 51.4084 317.074C50.9924 317.074 50.6404 317.074 50.3524 317.074V307.57C50.3524 307.058 50.4324 306.682 50.5924 306.442C50.7524 306.202 51.1284 306.066 51.7204 306.034C52.0084 306.018 52.3684 306.01 52.8004 306.01C53.2484 306.01 53.7124 306.01 54.1924 306.01C54.6884 305.994 55.1604 305.986 55.6084 305.986C56.0724 305.986 56.4804 305.994 56.8324 306.01C57.7924 306.042 58.6244 306.122 59.3284 306.25C60.0324 306.362 60.6164 306.61 61.0804 306.994C61.5604 307.362 61.9124 307.914 62.1364 308.65C62.3604 309.386 62.4724 310.378 62.4724 311.626ZM52.8244 315.754C52.9364 315.754 53.1284 315.762 53.4004 315.778C53.6724 315.778 53.9684 315.778 54.2884 315.778C54.6084 315.778 54.9204 315.786 55.2244 315.802C55.5284 315.802 55.7684 315.802 55.9444 315.802C56.6964 315.802 57.3204 315.746 57.8164 315.634C58.3284 315.522 58.7444 315.322 59.0644 315.034C59.3844 314.746 59.6084 314.33 59.7364 313.786C59.8804 313.226 59.9524 312.514 59.9524 311.65C59.9524 310.45 59.8244 309.538 59.5684 308.914C59.3284 308.29 58.9204 307.866 58.3444 307.642C57.7844 307.418 57.0004 307.306 55.9924 307.306C55.7844 307.306 55.4884 307.306 55.1044 307.306C54.7364 307.306 54.3684 307.314 54.0004 307.33C53.6324 307.33 53.3364 307.346 53.1124 307.378C53.0164 307.442 52.9444 307.53 52.8964 307.642C52.8484 307.738 52.8244 307.93 52.8244 308.218V315.754ZM69.4849 317.218C68.6849 317.218 67.9729 317.162 67.3489 317.05C66.7409 316.922 66.2129 316.69 65.7649 316.354C65.3329 316.018 65.0049 315.522 64.7809 314.866C64.5569 314.21 64.4449 313.354 64.4449 312.298C64.4449 311.242 64.5569 310.386 64.7809 309.73C65.0049 309.074 65.3329 308.578 65.7649 308.242C66.2129 307.906 66.7409 307.682 67.3489 307.57C67.9729 307.442 68.6849 307.378 69.4849 307.378C70.2529 307.378 70.9409 307.442 71.5489 307.57C72.1729 307.682 72.7009 307.906 73.1329 308.242C73.5649 308.578 73.8929 309.074 74.1169 309.73C74.3569 310.386 74.4769 311.242 74.4769 312.298C74.4769 313.37 74.3569 314.234 74.1169 314.89C73.8929 315.546 73.5649 316.042 73.1329 316.378C72.7009 316.698 72.1729 316.922 71.5489 317.05C70.9409 317.162 70.2529 317.218 69.4849 317.218ZM69.4849 316.018C70.0609 316.018 70.5489 315.93 70.9489 315.754C71.3649 315.578 71.6769 315.226 71.8849 314.698C72.0929 314.17 72.1969 313.37 72.1969 312.298C72.1969 311.226 72.0929 310.426 71.8849 309.898C71.6769 309.37 71.3649 309.018 70.9489 308.842C70.5489 308.666 70.0609 308.578 69.4849 308.578C68.9089 308.578 68.4129 308.666 67.9969 308.842C67.5809 309.018 67.2609 309.37 67.0369 309.898C66.8289 310.426 66.7249 311.226 66.7249 312.298C66.7249 313.37 66.8289 314.17 67.0369 314.698C67.2609 315.226 67.5809 315.578 67.9969 315.754C68.4129 315.93 68.9089 316.018 69.4849 316.018ZM80.3815 317.17C79.5015 317.17 78.7735 317.098 78.1975 316.954C77.6375 316.794 77.2215 316.49 76.9495 316.042C76.6935 315.578 76.5655 314.89 76.5655 313.978V308.53C76.5655 308.114 76.6135 307.842 76.7095 307.714C76.8215 307.57 77.0455 307.498 77.3815 307.498H78.8215V314.026C78.8215 314.778 78.9735 315.274 79.2775 315.514C79.5815 315.738 80.0615 315.85 80.7175 315.85C81.4215 315.85 81.9255 315.73 82.2295 315.49C82.5335 315.25 82.6855 314.858 82.6855 314.314V307.498H84.9415V314.338C84.9415 314.866 85.0935 315.25 85.3975 315.49C85.7015 315.73 86.1975 315.85 86.8855 315.85C87.5575 315.85 88.0455 315.738 88.3495 315.514C88.6535 315.274 88.8055 314.77 88.8055 314.002V307.498H90.1735C90.5575 307.498 90.7975 307.562 90.8935 307.69C91.0055 307.818 91.0615 308.098 91.0615 308.53V313.978C91.0615 314.858 90.9255 315.53 90.6535 315.994C90.3815 316.458 89.9575 316.77 89.3815 316.93C88.8215 317.09 88.0695 317.17 87.1255 317.17C86.1655 317.17 85.3815 317.018 84.7735 316.714C84.1655 316.41 83.7975 315.874 83.6695 315.106H83.9815C83.8695 315.634 83.6695 316.05 83.3815 316.354C83.0935 316.658 82.7015 316.874 82.2055 317.002C81.7255 317.114 81.1175 317.17 80.3815 317.17ZM94.1873 317.074C93.7393 317.074 93.5153 316.85 93.5153 316.402V308.146C93.9953 307.954 94.6433 307.786 95.4593 307.642C96.2753 307.482 97.2033 307.402 98.2433 307.402C99.2673 307.402 100.083 307.466 100.691 307.594C101.315 307.722 101.787 307.93 102.107 308.218C102.427 308.49 102.635 308.85 102.731 309.298C102.843 309.746 102.899 310.298 102.899 310.954V316.162C102.899 316.386 102.875 316.57 102.827 316.714C102.795 316.858 102.707 316.954 102.563 317.002C102.435 317.05 102.235 317.074 101.963 317.074H100.643V310.474C100.643 309.85 100.451 309.402 100.067 309.13C99.6833 308.858 99.0753 308.722 98.2433 308.722C97.9873 308.722 97.6993 308.746 97.3793 308.794C97.0593 308.826 96.7553 308.882 96.4673 308.962C96.1793 309.042 95.9473 309.146 95.7713 309.274V317.074H94.1873ZM107.75 317.17C106.902 317.17 106.294 317.002 105.926 316.666C105.558 316.314 105.374 315.698 105.374 314.818V305.914C105.374 305.658 105.39 305.466 105.422 305.338C105.47 305.194 105.558 305.098 105.686 305.05C105.814 304.986 106.006 304.954 106.262 304.954H107.654C107.654 304.986 107.638 305.114 107.606 305.338C107.59 305.562 107.582 305.826 107.582 306.13V314.53C107.582 315.122 107.654 315.546 107.798 315.802C107.942 316.058 108.214 316.186 108.614 316.186C108.742 316.186 108.894 316.17 109.07 316.138C109.262 316.106 109.382 316.082 109.43 316.066V316.978C109.334 316.994 109.166 317.026 108.926 317.074C108.686 317.138 108.294 317.17 107.75 317.17ZM115.563 317.218C114.763 317.218 114.051 317.162 113.427 317.05C112.819 316.922 112.291 316.69 111.843 316.354C111.411 316.018 111.083 315.522 110.859 314.866C110.635 314.21 110.523 313.354 110.523 312.298C110.523 311.242 110.635 310.386 110.859 309.73C111.083 309.074 111.411 308.578 111.843 308.242C112.291 307.906 112.819 307.682 113.427 307.57C114.051 307.442 114.763 307.378 115.563 307.378C116.331 307.378 117.019 307.442 117.627 307.57C118.251 307.682 118.779 307.906 119.211 308.242C119.643 308.578 119.971 309.074 120.195 309.73C120.435 310.386 120.555 311.242 120.555 312.298C120.555 313.37 120.435 314.234 120.195 314.89C119.971 315.546 119.643 316.042 119.211 316.378C118.779 316.698 118.251 316.922 117.627 317.05C117.019 317.162 116.331 317.218 115.563 317.218ZM115.563 316.018C116.139 316.018 116.627 315.93 117.027 315.754C117.443 315.578 117.755 315.226 117.963 314.698C118.171 314.17 118.275 313.37 118.275 312.298C118.275 311.226 118.171 310.426 117.963 309.898C117.755 309.37 117.443 309.018 117.027 308.842C116.627 308.666 116.139 308.578 115.563 308.578C114.987 308.578 114.491 308.666 114.075 308.842C113.659 309.018 113.339 309.37 113.115 309.898C112.907 310.426 112.803 311.226 112.803 312.298C112.803 313.37 112.907 314.17 113.115 314.698C113.339 315.226 113.659 315.578 114.075 315.754C114.491 315.93 114.987 316.018 115.563 316.018ZM127.204 317.218C126.212 317.218 125.404 317.17 124.78 317.074C124.156 316.994 123.676 316.842 123.34 316.618C123.004 316.394 122.772 316.09 122.644 315.706C122.532 315.322 122.476 314.842 122.476 314.266C122.476 313.45 122.564 312.834 122.74 312.418C122.932 311.986 123.252 311.69 123.7 311.53C124.164 311.37 124.78 311.29 125.548 311.29C125.948 311.29 126.388 311.298 126.868 311.314C127.364 311.33 127.836 311.354 128.284 311.386C128.748 311.402 129.148 311.426 129.484 311.458C129.836 311.49 130.068 311.53 130.18 311.578C130.18 310.906 130.124 310.378 130.012 309.994C129.9 309.61 129.716 309.322 129.46 309.13C129.22 308.938 128.916 308.81 128.548 308.746C128.18 308.682 127.748 308.65 127.252 308.65C126.708 308.65 126.164 308.666 125.62 308.698C125.092 308.73 124.588 308.786 124.108 308.866C123.644 308.946 123.26 309.05 122.956 309.178V308.722C122.956 308.354 123.052 308.09 123.244 307.93C123.452 307.77 123.7 307.666 123.988 307.618C124.308 307.538 124.78 307.474 125.404 307.426C126.028 307.378 126.692 307.362 127.396 307.378C128.292 307.378 129.052 307.426 129.676 307.522C130.316 307.602 130.828 307.778 131.212 308.05C131.612 308.322 131.9 308.73 132.076 309.274C132.268 309.818 132.364 310.546 132.364 311.458V316.354C132.22 316.658 131.732 316.882 130.9 317.026C130.068 317.154 128.836 317.218 127.204 317.218ZM127.204 316.21C127.844 316.21 128.364 316.194 128.764 316.162C129.18 316.114 129.5 316.058 129.724 315.994C129.948 315.914 130.1 315.818 130.18 315.706V312.394C130.036 312.346 129.78 312.306 129.412 312.274C129.044 312.226 128.66 312.186 128.26 312.154C127.86 312.122 127.524 312.106 127.252 312.106C126.66 312.106 126.18 312.146 125.812 312.226C125.444 312.306 125.18 312.49 125.02 312.778C124.86 313.066 124.78 313.514 124.78 314.122C124.78 314.618 124.836 315.018 124.948 315.322C125.06 315.626 125.284 315.85 125.62 315.994C125.972 316.138 126.5 316.21 127.204 316.21ZM134.476 312.25C134.476 310.954 134.652 309.962 135.004 309.274C135.356 308.57 135.868 308.09 136.54 307.834C137.212 307.562 138.02 307.426 138.964 307.426C139.252 307.426 139.58 307.442 139.948 307.474C140.332 307.49 140.708 307.522 141.076 307.57C141.444 307.618 141.772 307.674 142.06 307.738C142.348 307.786 142.548 307.842 142.66 307.906L142.06 308.194V304.954H144.268L144.244 312.25C144.244 313.338 144.164 314.21 144.004 314.866C143.844 315.506 143.58 315.986 143.212 316.306C142.844 316.626 142.332 316.842 141.676 316.954C141.02 317.066 140.204 317.122 139.228 317.122C138.316 317.122 137.548 317.066 136.924 316.954C136.316 316.826 135.828 316.594 135.46 316.258C135.108 315.922 134.852 315.434 134.692 314.794C134.548 314.154 134.476 313.306 134.476 312.25ZM139.18 315.898C139.804 315.898 140.308 315.858 140.692 315.778C141.076 315.682 141.364 315.514 141.556 315.274C141.764 315.034 141.9 314.698 141.964 314.266C142.028 313.818 142.06 313.242 142.06 312.538L142.036 308.866C141.876 308.85 141.66 308.834 141.388 308.818C141.116 308.802 140.828 308.794 140.524 308.794C140.22 308.778 139.94 308.77 139.684 308.77C138.964 308.77 138.388 308.866 137.956 309.058C137.524 309.234 137.212 309.578 137.02 310.09C136.828 310.602 136.732 311.338 136.732 312.298C136.732 313.322 136.804 314.09 136.948 314.602C137.108 315.114 137.364 315.458 137.716 315.634C138.084 315.81 138.572 315.898 139.18 315.898ZM151.968 317.074L155.328 307.738C155.552 307.162 155.856 306.722 156.24 306.418C156.624 306.098 157.248 305.938 158.112 305.938C158.88 305.938 159.464 306.082 159.864 306.37C160.28 306.658 160.6 307.114 160.824 307.738L164.256 317.074H161.592L160.56 314.194H154.872L153.864 317.074H151.968ZM155.256 313.162H160.104L158.592 308.77C158.528 308.562 158.44 308.378 158.328 308.218C158.232 308.058 158.016 307.978 157.68 307.978C157.328 307.978 157.096 308.066 156.984 308.242C156.872 308.402 156.784 308.578 156.72 308.77L155.256 313.162ZM166.056 319.642L166.08 309.442C166.08 309.026 166.072 308.658 166.056 308.338C166.056 308.018 166.04 307.81 166.008 307.714C166.136 307.682 166.376 307.65 166.728 307.618C167.096 307.586 167.512 307.562 167.976 307.546C168.44 307.514 168.912 307.49 169.392 307.474C169.888 307.442 170.328 307.426 170.712 307.426C172.072 307.426 173.128 307.594 173.88 307.93C174.648 308.266 175.184 308.802 175.488 309.538C175.808 310.258 175.952 311.21 175.92 312.394C175.872 313.562 175.712 314.498 175.44 315.202C175.168 315.89 174.72 316.394 174.096 316.714C173.488 317.018 172.64 317.17 171.552 317.17C170.896 317.17 170.312 317.106 169.8 316.978C169.304 316.85 168.904 316.634 168.6 316.33C168.296 316.01 168.088 315.586 167.976 315.058L168.336 314.818V319.642H166.056ZM171.023 315.874C171.936 315.874 172.592 315.594 172.992 315.034C173.408 314.474 173.616 313.538 173.616 312.226C173.648 310.914 173.456 309.994 173.04 309.466C172.624 308.938 171.864 308.674 170.76 308.674C170.536 308.674 170.256 308.682 169.92 308.698C169.6 308.714 169.296 308.738 169.008 308.77C168.72 308.786 168.496 308.81 168.336 308.842V313.21C168.336 313.93 168.448 314.482 168.672 314.866C168.896 315.25 169.208 315.514 169.608 315.658C170.008 315.802 170.48 315.874 171.023 315.874ZM178.266 319.642L178.29 309.442C178.29 309.026 178.282 308.658 178.266 308.338C178.266 308.018 178.25 307.81 178.218 307.714C178.346 307.682 178.586 307.65 178.938 307.618C179.306 307.586 179.722 307.562 180.186 307.546C180.65 307.514 181.122 307.49 181.602 307.474C182.098 307.442 182.538 307.426 182.922 307.426C184.282 307.426 185.338 307.594 186.09 307.93C186.858 308.266 187.394 308.802 187.698 309.538C188.018 310.258 188.162 311.21 188.13 312.394C188.082 313.562 187.922 314.498 187.65 315.202C187.378 315.89 186.93 316.394 186.306 316.714C185.698 317.018 184.85 317.17 183.762 317.17C183.106 317.17 182.522 317.106 182.01 316.978C181.514 316.85 181.114 316.634 180.81 316.33C180.506 316.01 180.298 315.586 180.186 315.058L180.546 314.818V319.642H178.266ZM183.234 315.874C184.146 315.874 184.802 315.594 185.202 315.034C185.618 314.474 185.826 313.538 185.826 312.226C185.858 310.914 185.666 309.994 185.25 309.466C184.834 308.938 184.074 308.674 182.97 308.674C182.746 308.674 182.466 308.682 182.13 308.698C181.81 308.714 181.506 308.738 181.218 308.77C180.93 308.786 180.706 308.81 180.546 308.842V313.21C180.546 313.93 180.658 314.482 180.882 314.866C181.106 315.25 181.418 315.514 181.818 315.658C182.218 315.802 182.69 315.874 183.234 315.874ZM197.262 317.074V307.138C197.262 306.658 197.31 306.354 197.406 306.226C197.502 306.098 197.758 306.034 198.174 306.034H200.43L207.006 314.554L207.078 314.746V306.034H208.95C208.918 306.05 208.894 306.122 208.878 306.25C208.878 306.378 208.878 306.514 208.878 306.658C208.878 306.802 208.878 306.938 208.878 307.066V316.09C208.878 316.538 208.806 316.818 208.661 316.93C208.518 317.026 208.238 317.074 207.822 317.074H205.758L199.11 308.458L199.062 308.218V317.074H197.262ZM216.766 317.218C215.966 317.218 215.254 317.162 214.63 317.05C214.022 316.922 213.494 316.69 213.046 316.354C212.614 316.018 212.286 315.522 212.062 314.866C211.838 314.21 211.726 313.354 211.726 312.298C211.726 311.242 211.838 310.386 212.062 309.73C212.286 309.074 212.614 308.578 213.046 308.242C213.494 307.906 214.022 307.682 214.63 307.57C215.254 307.442 215.966 307.378 216.766 307.378C217.534 307.378 218.222 307.442 218.83 307.57C219.454 307.682 219.982 307.906 220.414 308.242C220.846 308.578 221.174 309.074 221.398 309.73C221.638 310.386 221.758 311.242 221.758 312.298C221.758 313.37 221.638 314.234 221.398 314.89C221.174 315.546 220.846 316.042 220.414 316.378C219.982 316.698 219.454 316.922 218.83 317.05C218.222 317.162 217.534 317.218 216.766 317.218ZM216.766 316.018C217.342 316.018 217.83 315.93 218.23 315.754C218.646 315.578 218.958 315.226 219.166 314.698C219.374 314.17 219.478 313.37 219.478 312.298C219.478 311.226 219.374 310.426 219.166 309.898C218.958 309.37 218.646 309.018 218.23 308.842C217.83 308.666 217.342 308.578 216.766 308.578C216.19 308.578 215.694 308.666 215.278 308.842C214.862 309.018 214.542 309.37 214.318 309.898C214.11 310.426 214.006 311.226 214.006 312.298C214.006 313.37 214.11 314.17 214.318 314.698C214.542 315.226 214.862 315.578 215.278 315.754C215.694 315.93 216.19 316.018 216.766 316.018ZM227.663 317.17C226.783 317.17 226.055 317.098 225.479 316.954C224.919 316.794 224.503 316.49 224.231 316.042C223.975 315.578 223.847 314.89 223.847 313.978V308.53C223.847 308.114 223.895 307.842 223.991 307.714C224.103 307.57 224.327 307.498 224.663 307.498H226.103V314.026C226.103 314.778 226.255 315.274 226.559 315.514C226.863 315.738 227.343 315.85 227.999 315.85C228.703 315.85 229.207 315.73 229.511 315.49C229.815 315.25 229.967 314.858 229.967 314.314V307.498H232.223V314.338C232.223 314.866 232.375 315.25 232.679 315.49C232.983 315.73 233.479 315.85 234.167 315.85C234.839 315.85 235.327 315.738 235.631 315.514C235.935 315.274 236.087 314.77 236.087 314.002V307.498H237.455C237.839 307.498 238.079 307.562 238.175 307.69C238.287 307.818 238.343 308.098 238.343 308.53V313.978C238.343 314.858 238.207 315.53 237.935 315.994C237.663 316.458 237.239 316.77 236.663 316.93C236.103 317.09 235.351 317.17 234.407 317.17C233.447 317.17 232.663 317.018 232.055 316.714C231.447 316.41 231.079 315.874 230.951 315.106H231.263C231.151 315.634 230.951 316.05 230.663 316.354C230.375 316.658 229.983 316.874 229.487 317.002C229.007 317.114 228.399 317.17 227.663 317.17ZM241.469 313.33L240.917 306.058C240.917 305.69 240.989 305.41 241.133 305.218C241.277 305.026 241.509 304.93 241.829 304.93H243.293L243.245 307.114L242.645 313.33H241.469ZM240.845 316.282C240.845 315.914 240.965 315.69 241.205 315.61C241.445 315.514 241.733 315.466 242.069 315.466C242.421 315.466 242.701 315.514 242.909 315.61C243.133 315.69 243.245 315.914 243.245 316.282C243.245 316.538 243.189 316.73 243.077 316.858C242.981 316.97 242.837 317.042 242.645 317.074C242.469 317.106 242.269 317.122 242.045 317.122C241.837 317.122 241.637 317.106 241.445 317.074C241.269 317.042 241.125 316.97 241.013 316.858C240.901 316.73 240.845 316.538 240.845 316.282Z" fill="black"/>
<defs>
<clipPath id="clip0_3262_23399">
<rect width="277" height="82.0736" fill="white" transform="translate(8 10)"/>
</clipPath>
</defs>
</svg>
