<svg width="49" height="49" viewBox="0 0 49 49" fill="none" xmlns="http://www.w3.org/2000/svg">
<path d="M12.1875 16.25C12.1875 9.51903 17.644 4.0625 24.375 4.0625C31.106 4.0625 36.5625 9.51903 36.5625 16.25V26.4062C36.5625 33.1372 31.106 38.5938 24.375 38.5938C17.644 38.5938 12.1875 33.1372 12.1875 26.4062V16.25Z" stroke="#1C274C" stroke-width="1.57087"/>
<path opacity="0.5" d="M20.3125 13.2031C20.3125 13.2031 21.2727 12.1875 24.375 12.1875C27.4773 12.1875 28.4375 13.2031 28.4375 13.2031" stroke="#1C274C" stroke-width="1.57087" stroke-linecap="round"/>
<path opacity="0.5" d="M20.3125 19.2969C20.3125 19.2969 21.2727 18.2812 24.375 18.2812C27.4773 18.2812 28.4375 19.2969 28.4375 19.2969" stroke="#1C274C" stroke-width="1.57087" stroke-linecap="round"/>
<path opacity="0.5" d="M42.6562 22.3438V26.4062C42.6562 36.5027 34.4715 44.6875 24.375 44.6875C14.2785 44.6875 6.09375 36.5027 6.09375 26.4062V22.3438" stroke="#1C274C" stroke-width="1.57087" stroke-linecap="round"/>
</svg>
