<svg width="30" height="30" viewBox="0 0 30 30" fill="none" xmlns="http://www.w3.org/2000/svg">
<path d="M24.8751 2.88399C24.674 2.372 23.952 2.372 23.7509 2.88399L23.2129 4.25309C23.1515 4.4094 23.0282 4.53314 22.8725 4.59478L21.5084 5.13475C20.9983 5.33667 20.9983 6.06126 21.5084 6.26318L22.8725 6.80315C23.0282 6.86479 23.1515 6.98853 23.2129 7.14484L23.7509 8.51394C23.952 9.02593 24.674 9.02593 24.8751 8.51394L25.4131 7.14484C25.4745 6.98853 25.5978 6.86479 25.7535 6.80315L27.1176 6.26318C27.6277 6.06126 27.6277 5.33667 27.1176 5.13475L25.7535 4.59478C25.5978 4.53314 25.4745 4.4094 25.4131 4.25309L24.8751 2.88399Z" stroke="#1C274C"/>
<path d="M20.0409 10.1621C19.8398 9.65011 19.1179 9.65011 18.9167 10.1621L18.7205 10.6613C18.6591 10.8176 18.5358 10.9413 18.3801 11.003L17.8828 11.1998C17.3727 11.4018 17.3727 12.1263 17.8828 12.3283L18.3801 12.5251C18.5358 12.5868 18.6591 12.7105 18.7205 12.8668L18.9167 13.366C19.1179 13.878 19.8398 13.878 20.0409 13.366L20.2371 12.8668C20.2985 12.7105 20.4218 12.5868 20.5775 12.5251L21.0749 12.3283C21.585 12.1263 21.585 11.4018 21.0749 11.1998L20.5775 11.003C20.4218 10.9413 20.2985 10.8176 20.2371 10.6613L20.0409 10.1621Z" stroke="#1C274C"/>
<path opacity="0.5" d="M26.334 14.8211L25.6921 14.4332V14.4332L26.334 14.8211ZM15.1789 3.66595L14.7911 3.02404V3.02404L15.1789 3.66595ZM26.75 15C26.75 21.4893 21.4893 26.75 15 26.75V28.25C22.3178 28.25 28.25 22.3178 28.25 15H26.75ZM15 26.75C8.51065 26.75 3.25 21.4893 3.25 15H1.75C1.75 22.3178 7.68223 28.25 15 28.25V26.75ZM3.25 15C3.25 8.51065 8.51065 3.25 15 3.25V1.75C7.68223 1.75 1.75 7.68223 1.75 15H3.25ZM19.375 18C15.3019 18 12 14.6981 12 10.625H10.5C10.5 15.5265 14.4735 19.5 19.375 19.5V18ZM25.6921 14.4332C24.3994 16.5725 22.0536 18 19.375 18V19.5C22.6003 19.5 25.4229 17.7791 26.976 15.2089L25.6921 14.4332ZM12 10.625C12 7.94644 13.4275 5.60057 15.5668 4.30786L14.7911 3.02404C12.2209 4.57706 10.5 7.3997 10.5 10.625H12ZM15 3.25C14.9769 3.25 14.941 3.24527 14.9001 3.22781C14.8593 3.21046 14.8257 3.18573 14.8007 3.15971C14.7534 3.11048 14.7487 3.07119 14.7487 3.07119C14.7485 3.06937 14.7481 3.0709 14.7493 3.06804C14.7521 3.06137 14.764 3.04042 14.7911 3.02404L15.5668 4.30786C16.1194 3.97393 16.3012 3.35896 16.2352 2.87043C16.1669 2.3646 15.7745 1.75 15 1.75V3.25ZM26.976 15.2089C26.9596 15.236 26.9386 15.2479 26.932 15.2507C26.9291 15.2519 26.9306 15.2515 26.9288 15.2513C26.9288 15.2513 26.8895 15.2466 26.8403 15.1993C26.8143 15.1743 26.7895 15.1407 26.7722 15.0999C26.7547 15.059 26.75 15.0231 26.75 15H28.25C28.25 14.2255 27.6354 13.8331 27.1296 13.7648C26.641 13.6988 26.0261 13.8806 25.6921 14.4332L26.976 15.2089Z" fill="#1C274C"/>
</svg>
