<svg width="28" height="28" viewBox="0 0 28 28" fill="none" xmlns="http://www.w3.org/2000/svg">
<path d="M22.1667 0H5.83333C2.61683 0 0 2.85473 0 6.36364V21.6364C0 25.1453 2.61683 28 5.83333 28H22.1667C25.3832 28 28 25.1453 28 21.6364V6.36364C28 2.85473 25.3832 0 22.1667 0ZM25.6667 7.63636H21.1237L24.7007 3.73418C25.298 4.41891 25.6667 5.34545 25.6667 6.36364V7.63636ZM22.477 2.56073L17.8418 7.61727C17.8418 7.61727 17.8313 7.63 17.8255 7.63636H13.832L18.4987 2.54545H22.1667C22.2717 2.54545 22.3743 2.55182 22.477 2.56073ZM15.1993 2.54545L10.808 7.336C10.7252 7.42636 10.6563 7.52818 10.6038 7.63636H6.54033L11.207 2.54545H15.1993ZM5.83333 2.54545H7.90767L3.241 7.63636H2.33333V6.36364C2.33333 4.25855 3.90367 2.54545 5.83333 2.54545ZM22.1667 25.4545H5.83333C3.90367 25.4545 2.33333 23.7415 2.33333 21.6364V10.1818H25.6667V21.6364C25.6667 23.7415 24.0963 25.4545 22.1667 25.4545ZM17.5548 18.8364L12.1485 21.9927C11.4228 22.4675 10.5 21.8973 10.5 20.9745V14.6605C10.5 13.7378 11.4228 13.1676 12.1485 13.6424L17.5548 16.7987C18.2595 17.2595 18.2595 18.3744 17.5548 18.8351V18.8364Z" fill="#1C274C"/>
</svg>
