<svg width="40" height="40" viewBox="0 0 40 40" fill="none" xmlns="http://www.w3.org/2000/svg">
<g clip-path="url(#clip0_3329_9347)">
<path d="M38.3333 0H36.6667C32.0717 0 28.3333 3.73833 28.3333 8.33333V23.7683C26.7467 22.4567 24.7133 21.6667 22.5 21.6667C17.4467 21.6667 13.3333 25.7783 13.3333 30.8333C13.3333 35.8883 17.4467 40 22.5 40C27.5533 40 31.6667 35.8883 31.6667 30.8333V8.33333C31.6667 5.57667 33.91 3.33333 36.6667 3.33333H38.3333C39.255 3.33333 40 2.58667 40 1.66667C40 0.746667 39.255 0 38.3333 0ZM22.5 36.6667C19.2833 36.6667 16.6667 34.05 16.6667 30.8333C16.6667 27.6167 19.2833 25 22.5 25C25.7167 25 28.3333 27.6167 28.3333 30.8333C28.3333 34.05 25.7167 36.6667 22.5 36.6667ZM0 1.66667C0 0.746667 0.745 0 1.66667 0H20C20.9217 0 21.6667 0.746667 21.6667 1.66667C21.6667 2.58667 20.9217 3.33333 20 3.33333H1.66667C0.745 3.33333 0 2.58667 0 1.66667ZM0 11.6667C0 10.7467 0.745 10 1.66667 10H20C20.9217 10 21.6667 10.7467 21.6667 11.6667C21.6667 12.5867 20.9217 13.3333 20 13.3333H1.66667C0.745 13.3333 0 12.5867 0 11.6667ZM13.3333 21.6667C13.3333 22.5867 12.5883 23.3333 11.6667 23.3333H1.66667C0.745 23.3333 0 22.5867 0 21.6667C0 20.7467 0.745 20 1.66667 20H11.6667C12.5883 20 13.3333 20.7467 13.3333 21.6667Z" fill="black"/>
</g>
<defs>
<clipPath id="clip0_3329_9347">
<rect width="40" height="40" fill="white"/>
</clipPath>
</defs>
</svg>
