<svg width="148" height="131" viewBox="0 0 148 131" fill="none" xmlns="http://www.w3.org/2000/svg">
<mask id="mask0_3289_11897" style="mask-type:luminance" maskUnits="userSpaceOnUse" x="9" y="14" width="129" height="116">
<path fill-rule="evenodd" clip-rule="evenodd" d="M9.65637 14.541H137.935V129.66H9.65637V14.541Z" fill="url(#paint0_linear_3289_11897)"/>
</mask>
<g mask="url(#mask0_3289_11897)">
<path fill-rule="evenodd" clip-rule="evenodd" d="M23.4421 15.1676H124.149C131.31 15.1676 137.218 21.0757 137.218 28.2371V115.785C137.218 122.946 131.31 128.854 124.149 128.854H23.4421C16.2807 128.854 10.3726 122.946 10.3726 115.785V28.2371C10.3726 21.0757 16.2807 15.1676 23.4421 15.1676Z" fill="white"/>
</g>
<mask id="mask1_3289_11897" style="mask-type:luminance" maskUnits="userSpaceOnUse" x="8" y="13" width="132" height="118">
<path fill-rule="evenodd" clip-rule="evenodd" d="M8.49268 13.6458H139.009V130.466H8.49268V13.6458Z" fill="url(#paint1_linear_3289_11897)"/>
</mask>
<g mask="url(#mask1_3289_11897)">
<path d="M24.9638 13.6458H122.627C127.103 13.6458 131.221 15.2571 134.264 17.8531L134.354 17.9426C137.308 20.5386 139.098 24.0297 139.098 27.879V116.322C139.098 120.261 137.218 123.752 134.264 126.348C131.31 128.944 127.192 130.555 122.627 130.555H24.9638C20.4879 130.555 16.3702 128.944 13.4161 126.348C10.462 123.752 8.58215 120.261 8.58215 116.322V27.879C8.58215 23.9402 10.462 20.4491 13.4161 17.8531C16.3702 15.2571 20.4879 13.6458 25.0533 13.6458H24.9638ZM122.627 16.7789H24.9638C21.4726 16.7789 18.25 18.0321 15.9226 20.0015C13.5951 21.9709 12.1628 24.7459 12.1628 27.7895V116.232C12.1628 119.276 13.5951 122.051 15.9226 124.02C18.25 125.99 21.4726 127.243 24.9638 127.243H122.627C126.118 127.243 129.341 125.99 131.668 124.02C133.996 122.051 135.428 119.276 135.428 116.232V27.7895C135.428 24.7459 133.996 22.0604 131.758 20.0015L131.668 19.912C129.341 17.9426 126.118 16.6893 122.627 16.6893V16.7789Z" fill="white"/>
</g>
<path d="M42.0616 120.977C41.5245 120.977 41.1664 120.887 40.8083 120.619C40.5398 120.44 40.2712 120.082 40.0027 119.634L35.1687 108.982C34.9897 108.534 34.9002 108.086 34.9897 107.728C35.0792 107.37 35.2583 107.102 35.5268 106.833C35.7954 106.654 36.1534 106.565 36.601 106.565C37.1381 106.565 37.5857 106.654 37.8543 106.923C38.1228 107.191 38.3914 107.549 38.5704 107.997L42.6882 117.486H41.5245L45.6423 107.997C45.8213 107.549 46.0898 107.191 46.3584 106.923C46.6269 106.654 47.0745 106.565 47.5221 106.565C47.9697 106.565 48.2383 106.654 48.5963 106.833C48.8649 107.012 49.0439 107.37 49.1334 107.728C49.2229 108.086 49.1334 108.534 48.9544 108.982L44.1205 119.634C43.9414 120.082 43.6729 120.44 43.4043 120.619C43.1358 120.798 42.6882 120.977 42.1511 120.977H42.0616ZM52.6246 120.977C51.998 120.977 51.5504 120.798 51.2818 120.529C50.9238 120.171 50.8343 119.724 50.8343 119.097V108.355C50.8343 107.728 51.0133 107.281 51.2818 106.923C51.6399 106.565 52.0875 106.475 52.6246 106.475C53.2512 106.475 53.6988 106.654 53.9674 106.923C54.2359 107.281 54.4149 107.728 54.4149 108.355V119.097C54.4149 119.724 54.2359 120.171 53.9674 120.529C53.6988 120.887 53.1617 120.977 52.6246 120.977ZM58.9803 120.798C58.3537 120.798 57.9061 120.619 57.548 120.35C57.19 119.992 57.1005 119.545 57.1005 118.918V108.624C57.1005 107.997 57.2795 107.549 57.548 107.191C57.9061 106.833 58.3537 106.744 58.9803 106.744H62.9191C65.336 106.744 67.3054 107.37 68.6482 108.624C69.9909 109.877 70.6176 111.578 70.6176 113.816C70.6176 114.979 70.4385 115.964 70.0805 116.77C69.7224 117.665 69.2748 118.381 68.5587 119.007C67.932 119.634 67.1264 120.082 66.1417 120.35C65.157 120.619 64.0828 120.798 62.8296 120.798H58.8908H58.9803ZM60.7707 117.844H62.6505C63.3667 117.844 63.9933 117.754 64.4409 117.575C64.978 117.396 65.4256 117.128 65.6941 116.77C66.0522 116.412 66.3207 116.053 66.4103 115.516C66.5893 114.979 66.6788 114.442 66.6788 113.726C66.6788 112.294 66.3207 111.309 65.6941 110.682C64.978 110.056 63.9933 109.698 62.561 109.698H60.6811V117.844H60.7707ZM74.7354 120.798C74.1087 120.798 73.6611 120.619 73.3031 120.35C72.945 119.992 72.8555 119.545 72.8555 118.918V108.624C72.8555 107.997 73.0345 107.549 73.3031 107.191C73.6611 106.833 74.1087 106.744 74.7354 106.744H81.5387C81.9862 106.744 82.3443 106.833 82.6129 107.102C82.8814 107.37 82.9709 107.728 82.9709 108.176C82.9709 108.624 82.8814 108.982 82.6129 109.25C82.3443 109.519 81.9862 109.608 81.5387 109.608H76.3467V112.294H81.0911C81.5387 112.294 81.8967 112.383 82.1653 112.652C82.4338 112.92 82.5234 113.278 82.5234 113.726C82.5234 114.174 82.4338 114.532 82.1653 114.8C81.8967 115.069 81.5387 115.158 81.0911 115.158H76.3467V118.023H81.5387C81.9862 118.023 82.3443 118.112 82.6129 118.381C82.8814 118.649 82.9709 119.008 82.9709 119.455C82.9709 119.903 82.8814 120.261 82.6129 120.529C82.3443 120.798 81.9862 120.887 81.5387 120.887H74.7354V120.798ZM91.9227 120.977C90.4904 120.977 89.2371 120.708 88.1629 120.082C87.0887 119.455 86.2831 118.649 85.6565 117.486C85.0298 116.411 84.7613 115.158 84.7613 113.636C84.7613 112.562 84.9403 111.578 85.2984 110.682C85.6565 109.787 86.104 108.982 86.7307 108.355C87.3573 107.728 88.1629 107.191 88.9686 106.923C89.8638 106.565 90.8485 106.386 91.9227 106.386C93.3549 106.386 94.6082 106.654 95.6824 107.281C96.7566 107.907 97.5622 108.713 98.1889 109.787C98.8155 110.861 99.084 112.115 99.084 113.636C99.084 114.711 98.905 115.695 98.5469 116.591C98.1889 117.486 97.7413 118.291 97.1147 118.918C96.488 119.545 95.6824 120.082 94.8767 120.44C93.9816 120.798 92.9969 120.977 91.9227 120.977ZM91.9227 117.933C92.6388 117.933 93.2654 117.754 93.713 117.396C94.2501 117.038 94.6082 116.591 94.8767 115.964C95.1453 115.337 95.2348 114.621 95.2348 113.726C95.2348 112.383 94.9662 111.399 94.3396 110.682C93.713 109.966 92.9074 109.608 91.8331 109.608C91.117 109.608 90.5799 109.787 90.0428 110.056C89.5057 110.414 89.1476 110.861 88.8791 111.488C88.6105 112.115 88.521 112.831 88.521 113.726C88.521 115.069 88.7896 116.053 89.4162 116.859C90.0428 117.575 90.8485 117.933 91.9227 117.933ZM106.514 120.977C105.977 120.977 105.44 120.977 104.813 120.887C104.276 120.798 103.649 120.708 103.202 120.529C102.665 120.35 102.217 120.171 101.77 119.992C101.411 119.813 101.143 119.545 101.053 119.276C100.874 119.008 100.874 118.649 100.874 118.381C100.874 118.023 101.053 117.754 101.232 117.486C101.411 117.217 101.68 117.038 101.949 116.949C102.217 116.859 102.575 116.949 103.023 117.038C103.56 117.307 104.097 117.486 104.724 117.575C105.35 117.665 105.977 117.754 106.514 117.754C107.409 117.754 108.036 117.665 108.394 117.396C108.752 117.128 108.931 116.859 108.931 116.501C108.931 116.232 108.841 115.964 108.573 115.785C108.304 115.606 107.857 115.427 107.23 115.337L104.903 114.8C103.649 114.532 102.665 114.084 102.038 113.368C101.411 112.741 101.053 111.846 101.053 110.772C101.053 110.056 101.232 109.429 101.501 108.892C101.77 108.355 102.217 107.818 102.754 107.46C103.291 107.102 103.918 106.744 104.634 106.565C105.35 106.386 106.156 106.207 107.051 106.207C107.767 106.207 108.483 106.296 109.199 106.475C109.916 106.654 110.542 106.833 111.079 107.191C111.348 107.37 111.616 107.549 111.706 107.818C111.795 108.086 111.885 108.355 111.885 108.713C111.885 108.982 111.795 109.25 111.616 109.519C111.437 109.787 111.169 109.877 110.9 109.966C110.632 110.056 110.274 109.966 109.826 109.787C109.468 109.608 109.02 109.519 108.483 109.429C108.036 109.34 107.499 109.34 107.051 109.34C106.514 109.34 106.156 109.429 105.798 109.519C105.44 109.608 105.171 109.787 104.992 109.966C104.813 110.145 104.724 110.414 104.724 110.682C104.724 110.951 104.813 111.22 105.082 111.399C105.35 111.578 105.708 111.757 106.335 111.846L108.662 112.383C109.916 112.652 110.9 113.099 111.527 113.726C112.154 114.353 112.512 115.158 112.512 116.232C112.512 116.949 112.333 117.575 112.064 118.112C111.795 118.649 111.348 119.187 110.9 119.545C110.363 119.903 109.737 120.261 109.02 120.44C108.304 120.619 107.499 120.798 106.514 120.798V120.977Z" stroke="black" stroke-width="1.87127" stroke-miterlimit="2.61313" stroke-linecap="round" stroke-linejoin="round"/>
<path d="M42.0616 120.977C41.5245 120.977 41.1664 120.887 40.8083 120.619C40.5398 120.44 40.2712 120.082 40.0027 119.634L35.1687 108.982C34.9897 108.534 34.9002 108.086 34.9897 107.728C35.0792 107.37 35.2583 107.102 35.5268 106.833C35.7954 106.654 36.1534 106.565 36.601 106.565C37.1381 106.565 37.5857 106.654 37.8543 106.923C38.1228 107.191 38.3914 107.549 38.5704 107.997L42.6882 117.486H41.5245L45.6423 107.997C45.8213 107.549 46.0898 107.191 46.3584 106.923C46.6269 106.654 47.0745 106.565 47.5221 106.565C47.9697 106.565 48.2383 106.654 48.5963 106.833C48.8649 107.012 49.0439 107.37 49.1334 107.728C49.2229 108.086 49.1334 108.534 48.9544 108.982L44.1205 119.634C43.9414 120.082 43.6729 120.44 43.4043 120.619C43.1358 120.798 42.6882 120.977 42.1511 120.977H42.0616ZM52.6246 120.977C51.998 120.977 51.5504 120.798 51.2818 120.529C50.9238 120.171 50.8343 119.724 50.8343 119.097V108.355C50.8343 107.728 51.0133 107.281 51.2818 106.923C51.6399 106.565 52.0875 106.475 52.6246 106.475C53.2512 106.475 53.6988 106.654 53.9674 106.923C54.2359 107.281 54.4149 107.728 54.4149 108.355V119.097C54.4149 119.724 54.2359 120.171 53.9674 120.529C53.6988 120.887 53.1617 120.977 52.6246 120.977ZM58.9803 120.798C58.3537 120.798 57.9061 120.619 57.548 120.35C57.19 119.992 57.1005 119.545 57.1005 118.918V108.624C57.1005 107.997 57.2795 107.549 57.548 107.191C57.9061 106.833 58.3537 106.744 58.9803 106.744H62.9191C65.336 106.744 67.3054 107.37 68.6482 108.624C69.9909 109.877 70.6176 111.578 70.6176 113.816C70.6176 114.979 70.4385 115.964 70.0805 116.77C69.7224 117.665 69.2748 118.381 68.5587 119.007C67.932 119.634 67.1264 120.082 66.1417 120.35C65.157 120.619 64.0828 120.798 62.8296 120.798H58.8908H58.9803ZM60.7707 117.844H62.6505C63.3667 117.844 63.9933 117.754 64.4409 117.575C64.978 117.396 65.4256 117.128 65.6941 116.77C66.0522 116.411 66.3207 116.053 66.4103 115.516C66.5893 114.979 66.6788 114.442 66.6788 113.726C66.6788 112.294 66.3207 111.309 65.6941 110.682C64.978 110.056 63.9933 109.698 62.561 109.698H60.6811V117.844H60.7707ZM74.7354 120.798C74.1087 120.798 73.6611 120.619 73.3031 120.35C72.945 119.992 72.8555 119.545 72.8555 118.918V108.624C72.8555 107.997 73.0345 107.549 73.3031 107.191C73.6611 106.833 74.1087 106.744 74.7354 106.744H81.5387C81.9862 106.744 82.3443 106.833 82.6129 107.102C82.8814 107.37 82.9709 107.728 82.9709 108.176C82.9709 108.624 82.8814 108.982 82.6129 109.25C82.3443 109.519 81.9862 109.608 81.5387 109.608H76.3467V112.294H81.0911C81.5387 112.294 81.8967 112.383 82.1653 112.652C82.4338 112.92 82.5234 113.278 82.5234 113.726C82.5234 114.174 82.4338 114.532 82.1653 114.8C81.8967 115.069 81.5387 115.158 81.0911 115.158H76.3467V118.023H81.5387C81.9862 118.023 82.3443 118.112 82.6129 118.381C82.8814 118.649 82.9709 119.008 82.9709 119.455C82.9709 119.903 82.8814 120.261 82.6129 120.529C82.3443 120.798 81.9862 120.887 81.5387 120.887H74.7354V120.798ZM91.9227 120.977C90.4904 120.977 89.2371 120.708 88.1629 120.082C87.0887 119.455 86.2831 118.649 85.6565 117.486C85.0298 116.411 84.7613 115.158 84.7613 113.636C84.7613 112.562 84.9403 111.578 85.2984 110.682C85.6565 109.787 86.104 108.982 86.7307 108.355C87.3573 107.728 88.1629 107.191 88.9686 106.923C89.8638 106.565 90.8484 106.386 91.9227 106.386C93.3549 106.386 94.6082 106.654 95.6824 107.281C96.7566 107.907 97.5622 108.713 98.1889 109.787C98.8155 110.861 99.084 112.115 99.084 113.636C99.084 114.711 98.905 115.695 98.5469 116.591C98.1889 117.486 97.7413 118.291 97.1147 118.918C96.488 119.545 95.6824 120.082 94.8767 120.44C93.9816 120.798 92.9969 120.977 91.9227 120.977ZM91.9227 117.933C92.6388 117.933 93.2654 117.754 93.713 117.396C94.2501 117.038 94.6082 116.591 94.8767 115.964C95.1453 115.337 95.2348 114.621 95.2348 113.726C95.2348 112.383 94.9662 111.399 94.3396 110.682C93.713 109.966 92.9074 109.608 91.8331 109.608C91.117 109.608 90.5799 109.787 90.0428 110.056C89.5057 110.414 89.1476 110.861 88.8791 111.488C88.6105 112.115 88.521 112.831 88.521 113.726C88.521 115.069 88.7896 116.053 89.4162 116.859C90.0428 117.575 90.8484 117.933 91.9227 117.933ZM106.514 120.977C105.977 120.977 105.44 120.977 104.813 120.887C104.276 120.798 103.649 120.708 103.202 120.529C102.665 120.35 102.217 120.171 101.77 119.992C101.411 119.813 101.143 119.545 101.053 119.276C100.874 119.008 100.874 118.649 100.874 118.381C100.874 118.023 101.053 117.754 101.232 117.486C101.411 117.217 101.68 117.038 101.949 116.949C102.217 116.859 102.575 116.949 103.023 117.038C103.56 117.307 104.097 117.486 104.724 117.575C105.35 117.665 105.977 117.754 106.514 117.754C107.409 117.754 108.036 117.665 108.394 117.396C108.752 117.128 108.931 116.859 108.931 116.501C108.931 116.232 108.841 115.964 108.573 115.785C108.304 115.606 107.857 115.427 107.23 115.337L104.903 114.8C103.649 114.532 102.665 114.084 102.038 113.368C101.411 112.741 101.053 111.846 101.053 110.772C101.053 110.056 101.232 109.429 101.501 108.892C101.77 108.355 102.217 107.818 102.754 107.46C103.291 107.102 103.918 106.744 104.634 106.565C105.35 106.386 106.156 106.207 107.051 106.207C107.767 106.207 108.483 106.296 109.199 106.475C109.916 106.654 110.542 106.833 111.079 107.191C111.348 107.37 111.616 107.549 111.706 107.818C111.795 108.086 111.885 108.355 111.885 108.713C111.885 108.982 111.795 109.25 111.616 109.519C111.437 109.787 111.169 109.877 110.9 109.966C110.632 110.056 110.274 109.966 109.826 109.787C109.468 109.608 109.02 109.519 108.483 109.429C108.036 109.34 107.499 109.34 107.051 109.34C106.514 109.34 106.156 109.429 105.798 109.519C105.44 109.608 105.171 109.787 104.992 109.966C104.813 110.145 104.724 110.414 104.724 110.682C104.724 110.951 104.813 111.22 105.082 111.399C105.35 111.578 105.708 111.757 106.335 111.846L108.662 112.383C109.916 112.652 110.9 113.099 111.527 113.726C112.154 114.353 112.512 115.158 112.512 116.232C112.512 116.949 112.333 117.575 112.064 118.112C111.795 118.649 111.348 119.187 110.9 119.545C110.363 119.903 109.737 120.261 109.02 120.44C108.304 120.619 107.499 120.798 106.514 120.798V120.977Z" fill="white"/>
<path fill-rule="evenodd" clip-rule="evenodd" d="M2.13692 44.3502C-1.0857 51.8696 0.257057 60.4633 3.83775 66.3714L4.28533 66.9085L4.73292 67.7142L5.1805 68.2513L6.43375 69.9521C7.06037 69.9521 6.88133 69.7731 6.88133 70.3997L8.58216 72.1005C9.2983 72.1005 9.11926 71.9215 9.11926 72.5481C12.0733 74.8755 13.1475 75.7707 17.3548 77.1135C23.084 78.9933 24.3372 78.1877 28.3655 78.0982C32.3042 95.1064 51.4609 96.5387 59.4279 85.5281L61.0393 83.2902C62.4715 88.5717 69.3644 91.7048 74.5564 92.5999C76.6153 92.958 77.6895 92.5104 79.4798 92.2419C81.7177 91.8838 81.3597 92.1524 83.3291 93.3161C93.355 99.4033 108.394 95.8226 114.929 85.17C116.182 83.1111 117.972 79.7095 118.241 76.8449C123.88 78.1877 129.609 80.5151 137.397 75.7707C140.083 74.1594 141.873 72.4586 143.664 69.9521C144.917 68.2513 147.423 64.223 146.797 61.2689C148.229 51.7801 143.753 44.1711 136.234 40.2324C132.743 38.3525 131.847 38.8896 128.356 37.8154C127.282 35.0404 127.551 27.1629 118.778 24.1193C109.558 20.8967 104.903 27.5209 102.575 28.6847C101.143 21.7918 94.6082 18.5692 87.5364 18.4797C86.9097 16.5103 86.3726 15.5256 85.2089 13.8248L82.2548 9.61748C80.375 8.18521 78.7637 6.21583 76.1677 4.78355C73.8402 3.44079 71.4233 2.27707 68.2902 1.47141C51.9085 -2.82541 33.2889 7.82714 32.3937 29.8484C26.4856 29.5798 21.6517 27.1629 12.7895 32.1758C4.82244 36.6517 3.21113 43.0074 1.95788 44.4397L2.13692 44.3502Z" fill="white"/>
<path fill-rule="evenodd" clip-rule="evenodd" d="M84.8508 68.0722C84.5822 66.0133 86.0145 65.4762 87.8049 65.4762C89.6847 65.4762 91.5646 65.2972 91.8331 67.2666C92.3702 71.0263 86.1935 69.7731 86.1935 69.7731C85.5669 69.594 85.0298 68.8779 84.8508 68.0722ZM74.5563 68.0722C74.4668 67.1771 74.7353 66.4609 75.2724 66.0133C75.8991 65.3867 76.5257 65.4762 77.5104 65.4762C79.4797 65.4762 81.1806 65.2972 81.5386 67.2666C81.8967 69.415 80.4644 69.8626 78.4951 69.8626C76.6152 69.8626 74.8249 69.9521 74.5563 68.0722ZM43.0462 68.0722C42.6882 65.8343 44.4785 65.4762 46.0003 65.4762C47.9697 65.4762 49.6705 65.2972 49.9391 67.2666C50.1181 68.1618 49.76 68.8779 49.2229 69.3255C48.5963 69.9521 47.9697 69.8626 46.985 69.8626C45.0156 69.8626 43.3148 70.0416 42.9567 68.0722H43.0462ZM63.9038 67.8932C63.7247 65.8343 65.157 65.4762 67.0369 65.4762C69.0062 65.4762 70.7071 65.3867 70.8861 67.4456C71.0651 69.6835 69.3643 69.9521 67.6635 69.8626C65.7836 69.8626 64.0828 69.8626 63.9038 67.8932ZM60.5916 68.2513C60.0545 70.1311 58.5327 69.8626 56.5633 69.8626C54.6835 69.8626 53.1617 69.1464 53.7883 66.998C54.2359 65.2077 55.9367 65.4762 57.9061 65.4762C58.8908 65.4762 59.5174 65.4762 60.0545 66.1029C60.5916 66.64 60.8602 67.4456 60.5916 68.2513ZM42.2406 32.2653H93.3549C93.713 32.4444 93.534 32.1758 93.6235 32.892V47.8413C93.6235 50.0793 93.892 62.5222 93.534 63.5069C90.4008 63.8649 42.4196 63.5964 42.0615 63.4173C41.793 62.2536 41.8825 33.8767 41.972 32.6234C42.0616 31.4597 41.972 32.3549 42.2406 32.0863V32.2653ZM44.21 26.4467C45.1051 25.9096 48.5963 26.0887 49.2229 26.7153C50.2971 27.7 50.1181 29.8484 48.7753 30.475C47.7907 30.9226 44.4785 30.7436 43.7624 30.2064C42.4196 29.2218 42.7777 27.1629 44.21 26.4467ZM89.5952 26.1782C91.2065 26.1782 92.1912 27.7 91.6541 29.3113C91.0275 30.8331 89.5952 30.654 87.8049 30.654C86.0145 30.654 84.7613 30.296 84.8508 28.3266C84.9403 25.9096 87.4468 26.2677 89.6847 26.2677L89.5952 26.1782ZM64.7989 30.296L64.3513 29.9379C64.0828 29.2218 63.7247 28.8637 63.9038 27.879C64.0828 27.1629 64.5304 26.5362 65.0675 26.3572C66.0522 25.9096 69.3643 25.9991 70.0804 26.6258C71.1546 27.5209 71.1546 29.5798 69.7224 30.3855C68.6482 30.9226 65.7836 30.654 64.7989 30.3855V30.296ZM56.0262 30.5645C54.4149 30.5645 53.3407 29.5798 53.6988 27.7895C54.0569 26.0887 55.5786 26.1782 57.369 26.1782C59.2489 26.1782 60.5021 26.3572 60.6811 28.1476C60.9497 31.0121 57.9956 30.5645 56.0262 30.5645ZM75.72 26.4467C76.7047 25.9991 80.0168 25.9991 80.733 26.7153C81.9862 27.7895 81.6282 29.9379 80.2854 30.475C79.2112 30.9226 76.0781 30.8331 75.2724 30.2064C74.2878 29.4008 74.0192 27.3419 75.6305 26.5362L75.72 26.4467ZM37.3171 28.4161V65.6553C37.3171 72.3691 38.7494 72.19 44.6575 72.19H93.3549C95.8614 72.19 97.2937 71.832 98.0993 69.8626C98.8155 68.2513 98.4574 58.852 98.4574 56.3455V28.4161C98.4574 26.8943 98.0098 25.7306 97.2042 24.9249C96.1299 23.8507 95.0557 23.9402 93.2654 23.9402H41.3454C38.7494 23.9402 37.3171 25.6411 37.3171 28.3266V28.4161Z" fill="#FF0066"/>
<path fill-rule="evenodd" clip-rule="evenodd" d="M61.2183 60.3738L70.6176 53.7495C72.2289 52.6753 73.7507 51.5116 75.362 50.3478C76.1677 49.8107 76.8838 49.2736 77.6894 48.647C78.3161 48.1994 79.6588 47.3938 80.0169 46.6776C78.4951 46.1405 62.2925 35.846 61.1288 35.488V60.2842L61.2183 60.3738ZM58.4432 60.4633H60.1441V35.5775L58.4432 35.488V60.4633Z" fill="#FF0066"/>
<path d="M39.018 81.1417C38.0333 81.1417 37.2277 80.3361 37.2277 79.3514C37.2277 78.3667 38.0333 77.561 39.018 77.561H96.9356C97.9203 77.561 98.726 78.3667 98.726 79.3514C98.726 80.3361 97.9203 81.1417 96.9356 81.1417H39.018Z" fill="#FF0066"/>
<path d="M39.018 81.1417C38.0333 81.1417 37.2277 80.3361 37.2277 79.3514C37.2277 78.3667 38.0333 77.561 39.018 77.561H77.3314C78.3161 77.561 79.1217 78.3667 79.1217 79.3514C79.1217 80.3361 78.3161 81.1417 77.3314 81.1417H39.018Z" fill="#FF0066"/>
<path fill-rule="evenodd" clip-rule="evenodd" d="M78.0476 75.3231C80.375 75.3231 82.3444 77.203 82.3444 79.62C82.3444 81.9474 80.4645 83.9168 78.0476 83.9168C75.7201 83.9168 73.7507 82.0369 73.7507 79.62C73.7507 77.2925 75.6306 75.3231 78.0476 75.3231Z" fill="#FF0066"/>
<defs>
<linearGradient id="paint0_linear_3289_11897" x1="72.9451" y1="187.757" x2="72.9451" y2="39.5163" gradientUnits="userSpaceOnUse">
<stop stop-color="white"/>
<stop offset="1" stop-color="white" stop-opacity="0"/>
</linearGradient>
<linearGradient id="paint1_linear_3289_11897" x1="72.8556" y1="190.89" x2="72.8556" y2="38.6211" gradientUnits="userSpaceOnUse">
<stop stop-color="white"/>
<stop offset="1" stop-color="white" stop-opacity="0"/>
</linearGradient>
</defs>
</svg>
