<svg width="89" height="85" viewBox="0 0 89 85" fill="none" xmlns="http://www.w3.org/2000/svg">
<rect x="17" width="55" height="55" rx="27.5" fill="white"/>
<path opacity="0.75" d="M29.636 42.3641C32.2721 45.0001 36.5147 45.0001 45 45.0001C53.4853 45.0001 57.7279 45.0001 60.364 42.3641C63 39.7281 63 35.4853 63 27C63 18.5147 63 14.2721 60.364 11.636C57.7279 9 53.4853 9 45 9C36.5147 9 32.2721 9 29.636 11.636C27 14.2721 27 18.5148 27 27.0001C27 35.4854 27 39.7281 29.636 42.3641Z" fill="#8E93A6"/>
<path d="M36.0006 36.4487C35.2551 36.4487 34.6506 37.0531 34.6506 37.7987C34.6506 38.5443 35.2551 39.1487 36.0006 39.1487H54.0006C54.7462 39.1487 55.3506 38.5443 55.3506 37.7987C55.3506 37.0531 54.7462 36.4487 54.0006 36.4487H36.0006Z" fill="#1C274D"/>
<path d="M37.3762 26.8156C37.3499 26.3596 37.3494 25.7478 37.3494 24.8537V9.12372C39.4298 9 41.9386 9 44.9994 9C48.0602 9 50.5689 9 52.6494 9.12372V24.8537C52.6494 25.7478 52.6488 26.3596 52.6225 26.8156C52.5953 27.2881 52.5455 27.4335 52.5331 27.4613C52.2683 28.0576 51.6149 28.3792 50.9809 28.2252C50.9512 28.218 50.8057 28.1688 50.4147 27.9021C50.0374 27.6447 49.5523 27.2719 48.8438 26.7264L48.7232 26.6335C48.0569 26.1197 47.5375 25.7193 46.9718 25.4735C45.7137 24.9269 44.2851 24.9269 43.0269 25.4735C42.4612 25.7193 41.9419 26.1197 41.2755 26.6334L41.1549 26.7264C40.4465 27.2719 39.9614 27.6447 39.584 27.9021C39.1931 28.1688 39.0475 28.218 39.0179 28.2252C38.3838 28.3792 37.7304 28.0576 37.4656 27.4613C37.4532 27.4335 37.4034 27.2881 37.3762 26.8156Z" fill="#1C274D"/>
<path d="M17.0819 80L20.1619 71.442C20.3672 70.914 20.6459 70.5107 20.9979 70.232C21.3499 69.9387 21.9219 69.792 22.7139 69.792C23.4179 69.792 23.9532 69.924 24.3199 70.188C24.7012 70.452 24.9946 70.87 25.1999 71.442L28.3459 80H25.9039L24.9579 77.36H19.7439L18.8199 80H17.0819ZM20.0959 76.414H24.5399L23.1539 72.388C23.0952 72.1973 23.0146 72.0287 22.9119 71.882C22.8239 71.7353 22.6259 71.662 22.3179 71.662C21.9952 71.662 21.7826 71.7427 21.6799 71.904C21.5772 72.0507 21.4966 72.212 21.4379 72.388L20.0959 76.414ZM32.0412 80H30.6332C30.4132 80 30.2445 79.9413 30.1272 79.824C30.0099 79.7067 29.9512 79.4867 29.9512 79.164V71.662C30.3032 71.5593 30.7945 71.4493 31.4252 71.332C32.0559 71.2147 32.8112 71.156 33.6912 71.156C34.5565 71.156 35.2385 71.2147 35.7372 71.332C36.2359 71.4347 36.6025 71.596 36.8372 71.816C37.0865 72.0213 37.2405 72.278 37.2992 72.586C37.3725 72.8793 37.4092 73.224 37.4092 73.62H35.4292L35.4072 73.312C35.4072 72.96 35.3119 72.7107 35.1212 72.564C34.9452 72.4027 34.7325 72.3 34.4832 72.256C34.2339 72.212 33.9845 72.19 33.7352 72.19C33.3539 72.19 33.0092 72.2267 32.7012 72.3C32.4079 72.3733 32.1879 72.4687 32.0412 72.586V80ZM43.6596 80.132C42.4716 80.132 41.511 80.0147 40.7776 79.78C40.0443 79.5453 39.5163 79.1127 39.1936 78.482C38.871 77.8513 38.7096 76.9273 38.7096 75.71C38.7096 74.4487 38.871 73.488 39.1936 72.828C39.5163 72.1533 40.0443 71.6987 40.7776 71.464C41.511 71.2147 42.4716 71.09 43.6596 71.09C44.041 71.09 44.4003 71.1047 44.7376 71.134C45.0896 71.1633 45.493 71.2147 45.9476 71.288C46.197 71.3173 46.395 71.376 46.5416 71.464C46.703 71.552 46.8203 71.684 46.8936 71.86C46.967 72.0213 47.0036 72.2633 47.0036 72.586C46.8276 72.5127 46.571 72.4467 46.2336 72.388C45.8963 72.3293 45.537 72.2853 45.1556 72.256C44.7743 72.2267 44.437 72.212 44.1436 72.212C43.3076 72.212 42.6403 72.322 42.1416 72.542C41.6576 72.7473 41.313 73.092 41.1076 73.576C40.917 74.06 40.8216 74.7273 40.8216 75.578C40.8216 76.4287 40.917 77.1033 41.1076 77.602C41.313 78.1007 41.6576 78.4527 42.1416 78.658C42.6256 78.8633 43.293 78.966 44.1436 78.966C44.5396 78.966 44.921 78.9513 45.2876 78.922C45.6543 78.878 45.9843 78.8267 46.2776 78.768C46.5856 78.6947 46.8276 78.6287 47.0036 78.57V79.164C47.0036 79.428 46.857 79.6333 46.5636 79.78C46.2703 79.912 45.8743 80 45.3756 80.044C44.8916 80.1027 44.3196 80.132 43.6596 80.132ZM49.65 80C49.298 80 49.0706 79.9487 48.968 79.846C48.88 79.7433 48.836 79.5307 48.836 79.208V68.912H50.904V71.508C51.08 71.4493 51.3073 71.4053 51.586 71.376C51.8793 71.332 52.1873 71.2953 52.51 71.266C52.8473 71.2367 53.1553 71.222 53.434 71.222C54.358 71.222 55.0913 71.3027 55.634 71.464C56.1766 71.6253 56.58 71.8673 56.844 72.19C57.1226 72.498 57.306 72.8867 57.394 73.356C57.482 73.8253 57.526 74.3827 57.526 75.028V78.988C57.526 79.2813 57.4966 79.5013 57.438 79.648C57.394 79.7947 57.306 79.89 57.174 79.934C57.042 79.978 56.844 80 56.58 80H55.502V74.632C55.502 73.972 55.414 73.4733 55.238 73.136C55.062 72.7987 54.7906 72.5713 54.424 72.454C54.072 72.322 53.6246 72.256 53.082 72.256C52.8766 72.256 52.6273 72.2707 52.334 72.3C52.0553 72.3147 51.784 72.344 51.52 72.388C51.2706 72.4173 51.0653 72.4687 50.904 72.542V80H49.65ZM61.8165 80.088C61.0392 80.088 60.5112 79.9047 60.2325 79.538C59.9538 79.1567 59.8145 78.592 59.8145 77.844L59.8365 71.222H61.8825V77.734C61.8825 78.2913 61.9485 78.6727 62.0805 78.878C62.2272 79.0833 62.4692 79.186 62.8065 79.186C62.9385 79.186 63.0852 79.1713 63.2465 79.142C63.4078 79.1127 63.5105 79.0907 63.5545 79.076V79.912C63.4958 79.9267 63.4005 79.9487 63.2685 79.978C63.1365 80.0073 62.9532 80.0293 62.7185 80.044C62.4838 80.0733 62.1832 80.088 61.8165 80.088ZM60.8925 70.012C60.5552 70.012 60.2985 69.968 60.1225 69.88C59.9612 69.7773 59.8805 69.594 59.8805 69.33C59.8805 69.066 59.9612 68.89 60.1225 68.802C60.2838 68.6993 60.5405 68.648 60.8925 68.648C61.2298 68.648 61.4718 68.6993 61.6185 68.802C61.7798 68.89 61.8605 69.066 61.8605 69.33C61.8605 69.594 61.7798 69.7773 61.6185 69.88C61.4718 69.968 61.2298 70.012 60.8925 70.012ZM67.7464 80C67.497 80 67.2844 79.9707 67.1084 79.912C66.9324 79.8533 66.7784 79.7433 66.6464 79.582C66.529 79.406 66.4117 79.1713 66.2944 78.878L63.6104 71.222H65.7444L67.5704 76.986C67.673 77.3233 67.7904 77.5507 67.9224 77.668C68.0544 77.7853 68.3037 77.844 68.6704 77.844C68.9784 76.832 69.2717 75.82 69.5504 74.808C69.8437 73.796 70.1444 72.7913 70.4524 71.794C70.4964 71.618 70.5697 71.4787 70.6724 71.376C70.7897 71.2733 70.9657 71.222 71.2004 71.222H71.9924L69.0444 80H67.7464Z" fill="white"/>
</svg>
