<svg width="70" height="85" viewBox="0 0 70 85" fill="none" xmlns="http://www.w3.org/2000/svg">
<rect x="7.5" width="55" height="55" rx="27.5" fill="#1BC469"/>
<path d="M36.6499 32.192C36.6499 28.7696 36.6499 27.0584 37.7373 25.9952C38.8246 24.932 40.5747 24.932 44.0749 24.932C47.5751 24.932 49.3252 24.932 50.4125 25.9952C51.4999 27.0584 51.4999 28.7696 51.4999 32.192V35.822C51.4999 39.2444 51.4999 40.9556 50.4125 42.0188C49.3252 43.082 47.5751 43.082 44.0749 43.082C40.5747 43.082 38.8246 43.082 37.7373 42.0188C36.6499 40.9556 36.6499 39.2444 36.6499 35.822V32.192Z" fill="white"/>
<path d="M18.5 20.9727C18.5 24.3951 18.5 26.1063 19.5874 27.1695C20.6747 28.2327 22.4248 28.2327 25.925 28.2327C29.4252 28.2327 31.1753 28.2327 32.2626 27.1695C33.35 26.1063 33.35 24.3951 33.35 20.9727V17.3427C33.35 13.9203 33.35 12.2091 32.2626 11.1459C31.1753 10.0827 29.4252 10.0827 25.925 10.0827C22.4248 10.0827 20.6747 10.0827 19.5874 11.1459C18.5 12.2091 18.5 13.9203 18.5 17.3427V20.9727Z" fill="white"/>
<path d="M36.8333 16.2247C36.8333 18.0186 36.8333 18.9155 37.1158 19.623C37.4926 20.5664 38.2154 21.3159 39.125 21.7066C39.8073 21.9997 40.6722 21.9997 42.402 21.9997H46.1145C47.8443 21.9997 48.7092 21.9997 49.3915 21.7066C50.3011 21.3159 51.0239 20.5664 51.4007 19.623C51.6833 18.9155 51.6833 18.0186 51.6833 16.2247C51.6833 14.4308 51.6833 13.5339 51.4007 12.8264C51.0239 11.883 50.3011 11.1335 49.3915 10.7428C48.7092 10.4497 47.8443 10.4497 46.1145 10.4497H42.402C40.6722 10.4497 39.8073 10.4497 39.125 10.7428C38.2154 11.1335 37.4926 11.883 37.1158 12.8264C36.8333 13.5339 36.8333 14.4308 36.8333 16.2247Z" fill="white"/>
<path d="M18.5 37.3081C18.5 39.1019 18.5 39.9989 18.7826 40.7064C19.1594 41.6497 19.8821 42.3992 20.7918 42.79C21.474 43.0831 22.3389 43.0831 24.0688 43.0831H27.7812C29.5111 43.0831 30.376 43.0831 31.0582 42.79C31.9679 42.3992 32.6906 41.6497 33.0674 40.7064C33.35 39.9989 33.35 39.1019 33.35 37.3081C33.35 35.5142 33.35 34.6172 33.0674 33.9097C32.6906 32.9664 31.9679 32.2169 31.0582 31.8261C30.376 31.5331 29.5111 31.5331 27.7812 31.5331H24.0688C22.3389 31.5331 21.474 31.5331 20.7918 31.8261C19.8821 32.2169 19.1594 32.9664 18.7826 33.9097C18.5 34.6172 18.5 35.5142 18.5 37.3081Z" fill="white"/>
<path d="M13.4731 75.46C13.4731 76.5267 13.3531 77.3667 13.1131 77.98C12.8865 78.5933 12.5465 79.0467 12.0931 79.34C11.6531 79.6333 11.0998 79.8267 10.4331 79.92C9.76646 80 8.99979 80.04 8.13313 80.04C7.67979 80.04 7.22646 80.0333 6.77313 80.02C6.31979 80.02 5.87313 80.02 5.43313 80.02C5.00646 80.02 4.61313 80.0133 4.25313 80C3.90646 80 3.61313 80 3.37313 80V72.08C3.37313 71.6533 3.43979 71.34 3.57313 71.14C3.70646 70.94 4.01979 70.8267 4.51313 70.8C4.75313 70.7867 5.05313 70.78 5.41313 70.78C5.78646 70.78 6.17313 70.78 6.57313 70.78C6.98646 70.7667 7.37979 70.76 7.75313 70.76C8.13979 70.76 8.47979 70.7667 8.77313 70.78C9.57313 70.8067 10.2665 70.8733 10.8531 70.98C11.4398 71.0733 11.9265 71.28 12.3131 71.6C12.7131 71.9067 13.0065 72.3667 13.1931 72.98C13.3798 73.5933 13.4731 74.42 13.4731 75.46ZM5.43313 78.9C5.52646 78.9 5.68646 78.9067 5.91313 78.92C6.13979 78.92 6.38646 78.92 6.65313 78.92C6.91979 78.92 7.17979 78.9267 7.43313 78.94C7.68646 78.94 7.88646 78.94 8.03313 78.94C8.65979 78.94 9.17979 78.8933 9.59313 78.8C10.0198 78.7067 10.3665 78.54 10.6331 78.3C10.8998 78.06 11.0865 77.7133 11.1931 77.26C11.3131 76.7933 11.3731 76.2 11.3731 75.48C11.3731 74.48 11.2665 73.72 11.0531 73.2C10.8531 72.68 10.5131 72.3267 10.0331 72.14C9.56646 71.9533 8.91313 71.86 8.07313 71.86C7.89979 71.86 7.65313 71.86 7.33313 71.86C7.02646 71.86 6.71979 71.8667 6.41313 71.88C6.10646 71.88 5.85979 71.8933 5.67313 71.92C5.59313 71.9733 5.53313 72.0467 5.49313 72.14C5.45313 72.22 5.43313 72.38 5.43313 72.62V78.9ZM19.3769 80.12C18.5635 80.12 17.8769 80.0667 17.3169 79.96C16.7702 79.8533 16.3302 79.6533 15.9969 79.36C15.6769 79.0667 15.4502 78.66 15.3169 78.14C15.1835 77.62 15.1169 76.9467 15.1169 76.12C15.1169 75.1333 15.2435 74.3333 15.4969 73.72C15.7502 73.1067 16.1969 72.66 16.8369 72.38C17.4902 72.0867 18.3969 71.94 19.5569 71.94C20.4635 71.94 21.1835 72.0533 21.7169 72.28C22.2635 72.4933 22.6569 72.8333 22.8969 73.3C23.1369 73.7667 23.2569 74.36 23.2569 75.08V76.36H17.6369C17.6369 76.1467 17.6835 75.9733 17.7769 75.84C17.8702 75.7067 18.0435 75.64 18.2969 75.64H21.5769L21.5569 75.12C21.5435 74.3733 21.3835 73.8267 21.0769 73.48C20.7835 73.1333 20.2502 72.96 19.4769 72.96C18.8369 72.96 18.3369 73.06 17.9769 73.26C17.6169 73.46 17.3635 73.7867 17.2169 74.24C17.0702 74.68 16.9969 75.2933 16.9969 76.08C16.9969 76.8933 17.0769 77.5133 17.2369 77.94C17.4102 78.3533 17.6902 78.6333 18.0769 78.78C18.4769 78.9267 19.0302 79 19.7369 79C19.9902 79 20.2835 78.9933 20.6169 78.98C20.9635 78.9667 21.3102 78.9467 21.6569 78.92C22.0169 78.8933 22.3369 78.86 22.6169 78.82C22.8969 78.78 23.0835 78.74 23.1769 78.7V78.98C23.1769 79.1267 23.1435 79.2733 23.0769 79.42C23.0102 79.5667 22.8702 79.6867 22.6569 79.78C22.3769 79.9133 21.9635 80 21.4169 80.04C20.8835 80.0933 20.2035 80.12 19.3769 80.12ZM28.0863 80.08C27.8329 80.08 27.5329 80.0733 27.1863 80.06C26.8396 80.0467 26.4863 80.02 26.1263 79.98C25.7796 79.9267 25.4663 79.8533 25.1863 79.76C25.0129 79.72 24.8729 79.6667 24.7663 79.6C24.6729 79.5333 24.5996 79.42 24.5463 79.26C24.5063 79.0867 24.4863 78.8267 24.4863 78.48C24.8196 78.6267 25.1929 78.7467 25.6063 78.84C26.0196 78.92 26.4263 78.9733 26.8263 79C27.2396 79.0267 27.5929 79.04 27.8863 79.04C28.2463 79.04 28.5996 79.0267 28.9463 79C29.3063 78.9733 29.6329 78.9133 29.9263 78.82C30.2329 78.7267 30.4729 78.58 30.6463 78.38C30.8329 78.18 30.9263 77.9067 30.9263 77.56C30.9263 77.0933 30.8063 76.7933 30.5663 76.66C30.3263 76.5267 29.9929 76.46 29.5663 76.46H27.4663C26.9463 76.46 26.4596 76.4267 26.0063 76.36C25.5663 76.2933 25.2063 76.12 24.9263 75.84C24.6596 75.56 24.5263 75.0867 24.5263 74.42C24.5263 73.6867 24.7063 73.14 25.0663 72.78C25.4263 72.42 25.9329 72.1867 26.5863 72.08C27.2529 71.9733 28.0329 71.92 28.9263 71.92C29.2596 71.92 29.6463 71.9267 30.0863 71.94C30.5396 71.9533 30.9596 71.9933 31.3463 72.06C31.6663 72.0867 31.9196 72.14 32.1063 72.22C32.3063 72.2867 32.4529 72.3867 32.5463 72.52C32.6396 72.64 32.6863 72.8267 32.6863 73.08V73.54C32.5663 73.3933 32.3596 73.2867 32.0663 73.22C31.7729 73.14 31.4263 73.08 31.0263 73.04C30.6396 73 30.2329 72.98 29.8063 72.98C29.3929 72.9667 29.0063 72.96 28.6463 72.96C28.2596 72.96 27.8863 72.9867 27.5263 73.04C27.1796 73.08 26.8996 73.1933 26.6863 73.38C26.4729 73.5667 26.3663 73.8733 26.3663 74.3C26.3663 74.6333 26.4329 74.8733 26.5663 75.02C26.6996 75.1667 26.8863 75.26 27.1263 75.3C27.3663 75.34 27.6396 75.36 27.9463 75.36H30.1463C30.6796 75.36 31.1463 75.4067 31.5463 75.5C31.9463 75.5933 32.2596 75.7933 32.4863 76.1C32.7129 76.4067 32.8263 76.8867 32.8263 77.54C32.8263 78.2867 32.6196 78.84 32.2063 79.2C31.7929 79.56 31.2329 79.8 30.5263 79.92C29.8196 80.0267 29.0063 80.08 28.0863 80.08ZM36.7608 80.06C36.2274 80.06 35.8074 80 35.5008 79.88C35.2074 79.76 34.9941 79.5467 34.8608 79.24C34.7274 78.9333 34.6608 78.52 34.6608 78V73.04H33.8608V72.02H34.6608V70.7C34.6608 70.46 34.6808 70.2867 34.7208 70.18C34.7608 70.06 34.8274 69.9867 34.9208 69.96C35.0274 69.92 35.1808 69.9 35.3808 69.9H36.5408C36.5408 69.9267 36.5408 69.9867 36.5408 70.08C36.5408 70.16 36.5408 70.28 36.5408 70.44V72.02H38.4208V73.04H36.5408V77.82C36.5408 78.34 36.5941 78.7133 36.7008 78.94C36.8074 79.1533 37.0608 79.26 37.4608 79.26C37.5941 79.26 37.7408 79.2467 37.9008 79.22C38.0741 79.1933 38.1941 79.1667 38.2608 79.14V79.92C38.1808 79.9333 38.0074 79.96 37.7408 80C37.4741 80.04 37.1474 80.06 36.7608 80.06ZM39.9877 82.14L40.0077 73.64C40.0077 73.2933 40.001 72.9867 39.9877 72.72C39.9877 72.4533 39.9743 72.28 39.9477 72.2C40.0543 72.1733 40.2543 72.1467 40.5477 72.12C40.8543 72.0933 41.201 72.0733 41.5877 72.06C41.9743 72.0333 42.3677 72.0133 42.7677 72C43.181 71.9733 43.5477 71.96 43.8677 71.96C45.001 71.96 45.881 72.1 46.5077 72.38C47.1477 72.66 47.5943 73.1067 47.8477 73.72C48.1143 74.32 48.2343 75.1133 48.2077 76.1C48.1677 77.0733 48.0343 77.8533 47.8077 78.44C47.581 79.0133 47.2077 79.4333 46.6877 79.7C46.181 79.9533 45.4743 80.08 44.5677 80.08C44.021 80.08 43.5343 80.0267 43.1077 79.92C42.6943 79.8133 42.361 79.6333 42.1077 79.38C41.8543 79.1133 41.681 78.76 41.5877 78.32L41.8877 78.12V82.14H39.9877ZM44.1277 79C44.8877 79 45.4343 78.7667 45.7677 78.3C46.1143 77.8333 46.2877 77.0533 46.2877 75.96C46.3143 74.8667 46.1543 74.1 45.8077 73.66C45.461 73.22 44.8277 73 43.9077 73C43.721 73 43.4877 73.0067 43.2077 73.02C42.941 73.0333 42.6877 73.0533 42.4477 73.08C42.2077 73.0933 42.021 73.1133 41.8877 73.14V76.78C41.8877 77.38 41.981 77.84 42.1677 78.16C42.3543 78.48 42.6143 78.7 42.9477 78.82C43.281 78.94 43.6743 79 44.1277 79ZM54.1034 80.12C53.2901 80.12 52.6034 80.0667 52.0434 79.96C51.4968 79.8533 51.0568 79.6533 50.7234 79.36C50.4034 79.0667 50.1768 78.66 50.0434 78.14C49.9101 77.62 49.8434 76.9467 49.8434 76.12C49.8434 75.1333 49.9701 74.3333 50.2234 73.72C50.4768 73.1067 50.9234 72.66 51.5634 72.38C52.2168 72.0867 53.1234 71.94 54.2834 71.94C55.1901 71.94 55.9101 72.0533 56.4434 72.28C56.9901 72.4933 57.3834 72.8333 57.6234 73.3C57.8634 73.7667 57.9834 74.36 57.9834 75.08V76.36H52.3634C52.3634 76.1467 52.4101 75.9733 52.5034 75.84C52.5968 75.7067 52.7701 75.64 53.0234 75.64H56.3034L56.2834 75.12C56.2701 74.3733 56.1101 73.8267 55.8034 73.48C55.5101 73.1333 54.9768 72.96 54.2034 72.96C53.5634 72.96 53.0634 73.06 52.7034 73.26C52.3434 73.46 52.0901 73.7867 51.9434 74.24C51.7968 74.68 51.7234 75.2933 51.7234 76.08C51.7234 76.8933 51.8034 77.5133 51.9634 77.94C52.1368 78.3533 52.4168 78.6333 52.8034 78.78C53.2034 78.9267 53.7568 79 54.4634 79C54.7168 79 55.0101 78.9933 55.3434 78.98C55.6901 78.9667 56.0368 78.9467 56.3834 78.92C56.7434 78.8933 57.0634 78.86 57.3434 78.82C57.6234 78.78 57.8101 78.74 57.9034 78.7V78.98C57.9034 79.1267 57.8701 79.2733 57.8034 79.42C57.7368 79.5667 57.5968 79.6867 57.3834 79.78C57.1034 79.9133 56.6901 80 56.1434 80.04C55.6101 80.0933 54.9301 80.12 54.1034 80.12ZM59.7528 80L59.7328 70.6C59.7328 70.32 59.7728 70.1333 59.8528 70.04C59.9461 69.9333 60.1395 69.88 60.4328 69.88H61.6328V76L65.0328 72.44C65.2061 72.28 65.3795 72.1667 65.5528 72.1C65.7395 72.02 65.9995 71.98 66.3328 71.98C66.5861 71.98 66.8195 71.9867 67.0328 72C67.2461 72 67.4395 72.0067 67.6128 72.02C67.5728 72.06 67.4861 72.1267 67.3528 72.22C67.2328 72.3133 67.0995 72.42 66.9528 72.54C66.8061 72.6467 66.6728 72.7533 66.5528 72.86L63.9728 75.32L67.4528 79.18C67.5995 79.34 67.7461 79.4867 67.8928 79.62C68.0395 79.7533 68.1795 79.88 68.3128 80C67.9795 80.0133 67.6395 80.02 67.2928 80.02C66.9595 80.02 66.6595 80.02 66.3928 80.02C66.0861 80.02 65.8528 79.9867 65.6928 79.92C65.5461 79.84 65.3861 79.7133 65.2128 79.54L62.6728 76.68L61.6328 77.56V80H59.7528Z" fill="#1BC469"/>
</svg>
