<svg width="118" height="88" viewBox="0 0 118 88" fill="none" xmlns="http://www.w3.org/2000/svg">
<path d="M118 77.2773H0V77.3363H118V77.2773Z" fill="#EBEBEB"/>
<path d="M106.177 81.0759H98.36V81.1349H106.177V81.0759Z" fill="#EBEBEB"/>
<path d="M78.168 81.7164H76.1165V81.7754H78.168V81.7164Z" fill="#EBEBEB"/>
<path d="M98.1237 78.8844H93.5944V78.9434H98.1237V78.8844Z" fill="#EBEBEB"/>
<path d="M22.5736 79.2809H12.3801V79.3399H22.5736V79.2809Z" fill="#EBEBEB"/>
<path d="M26.1699 79.2809H24.6753V79.3399H26.1699V79.2809Z" fill="#EBEBEB"/>
<path d="M53.1349 80.2775H31.0274V80.3365H53.1349V80.2775Z" fill="#EBEBEB"/>
<path d="M55.9352 66.7522H10.3638C9.62109 66.7522 9.01669 66.1478 9.01669 65.4051V1.34709C9.01669 0.604396 9.62109 0 10.3638 0H55.9352C56.6776 0 57.282 0.604396 57.282 1.34709V65.4051C57.282 66.1478 56.6776 66.7522 55.9352 66.7522ZM10.3638 0.0592359C9.65342 0.0592359 9.07569 0.636964 9.07569 1.34732V65.4053C9.07569 66.1157 9.65342 66.6934 10.3638 66.6934H55.9352C56.6453 66.6934 57.223 66.1157 57.223 65.4053V1.34709C57.223 0.636964 56.6453 0.059 55.9352 0.059L10.3638 0.0592359Z" fill="#EBEBEB"/>
<path d="M106.981 66.7522H61.41C60.6673 66.7522 60.0631 66.1478 60.0631 65.4051V1.34709C60.0631 0.604396 60.6675 0 61.41 0H106.981C107.724 0 108.328 0.604396 108.328 1.34709V65.4051C108.328 66.1478 107.724 66.7522 106.981 66.7522ZM61.41 0.0592359C60.6998 0.0592359 60.1221 0.636964 60.1221 1.34732V65.4053C60.1221 66.1157 60.6998 66.6934 61.41 66.6934H106.981C107.691 66.6934 108.269 66.1157 108.269 65.4053V1.34709C108.269 0.636964 107.691 0.059 106.981 0.059L61.41 0.0592359Z" fill="#EBEBEB"/>
<path d="M57.1924 28.0663H23.6839V77.1942H57.1924V28.0663Z" fill="#F0F0F0"/>
<path d="M56.0076 29.6128H24.8681V38.6863H56.0076V29.6128Z" fill="#E0E0E0"/>
<path d="M26.637 31.0817H24.8681V38.6863H26.637V31.0817Z" fill="#EBEBEB"/>
<path d="M35.1906 31.0817H33.4216V38.6863H35.1906V31.0817Z" fill="#EBEBEB"/>
<path d="M44.9003 30.8952L43.1569 31.1956L44.4482 38.69L46.1916 38.3896L44.9003 30.8952Z" fill="#EBEBEB"/>
<path d="M28.8289 32.0837H27.0601V38.686H28.8289V32.0837Z" fill="#EBEBEB"/>
<path d="M32.8946 32.0837H31.1258V38.686H32.8946V32.0837Z" fill="#EBEBEB"/>
<path d="M43.1577 32.0837H41.3889V38.686H43.1577V32.0837Z" fill="#EBEBEB"/>
<path d="M37.5137 31.8581L35.7867 32.2419L37.2188 38.6871L38.9457 38.3033L37.5137 31.8581Z" fill="#EBEBEB"/>
<path d="M30.3589 30.7041H29.4744V38.6861H30.3589V30.7041Z" fill="#EBEBEB"/>
<path d="M40.8804 30.7041H39.9958V38.6861H40.8804V30.7041Z" fill="#EBEBEB"/>
<path d="M24.8683 49.1964L56.0078 49.1964V40.1229H24.8683V49.1964Z" fill="#E0E0E0"/>
<path d="M54.2389 49.1964H56.0078V41.592H54.2389V49.1964Z" fill="#EBEBEB"/>
<path d="M45.6852 49.1964H47.4543V41.592H45.6852V49.1964Z" fill="#EBEBEB"/>
<path d="M34.6808 48.8958L36.424 49.1962L37.7152 41.7018L35.9721 41.4015L34.6808 48.8958Z" fill="#EBEBEB"/>
<path d="M52.0471 49.1963H53.8162V42.5939H52.0471V49.1963Z" fill="#EBEBEB"/>
<path d="M47.981 49.1963H49.7501V42.5939H47.981V49.1963Z" fill="#EBEBEB"/>
<path d="M37.7182 49.1963H39.4873V42.5939H37.7182V49.1963Z" fill="#EBEBEB"/>
<path d="M41.9303 48.8121L43.657 49.1957L45.0891 42.7505L43.3624 42.3669L41.9303 48.8121Z" fill="#EBEBEB"/>
<path d="M50.5176 49.1963H51.4021V41.2143H50.5176V49.1963Z" fill="#EBEBEB"/>
<path d="M39.9958 49.1963H40.8803V41.2143H39.9958V49.1963Z" fill="#EBEBEB"/>
<path d="M26.637 41.5917H24.8681V49.1961H26.637V41.5917Z" fill="#EBEBEB"/>
<path d="M28.8289 42.594H27.0601V49.1964H28.8289V42.594Z" fill="#EBEBEB"/>
<path d="M32.8946 42.594H31.1258V49.1964H32.8946V42.594Z" fill="#EBEBEB"/>
<path d="M30.3589 41.2144H29.4744V49.1964H30.3589V41.2144Z" fill="#EBEBEB"/>
<path d="M56.0076 50.6331H24.8681V59.7066H56.0076V50.6331Z" fill="#E0E0E0"/>
<path d="M44.5103 52.102H42.7412V59.7066H44.5103V52.102Z" fill="#EBEBEB"/>
<path d="M54.2193 51.9163L52.4759 52.2167L53.7672 59.7111L55.5106 59.4107L54.2193 51.9163Z" fill="#EBEBEB"/>
<path d="M38.1488 53.104H36.3798V59.7064H38.1488V53.104Z" fill="#EBEBEB"/>
<path d="M42.2144 53.104H40.4456V59.7064H42.2144V53.104Z" fill="#EBEBEB"/>
<path d="M52.4776 53.104H50.7085V59.7064H52.4776V53.104Z" fill="#EBEBEB"/>
<path d="M46.8335 52.8782L45.1068 53.2619L46.5388 59.7071L48.2655 59.3234L46.8335 52.8782Z" fill="#EBEBEB"/>
<path d="M39.6785 51.7244H38.794V59.7064H39.6785V51.7244Z" fill="#EBEBEB"/>
<path d="M50.2 51.7244H49.3155V59.7064H50.2V51.7244Z" fill="#EBEBEB"/>
<path d="M33.8675 51.9155L32.1241 52.2159L33.4154 59.7102L35.1588 59.4099L33.8675 51.9155Z" fill="#EBEBEB"/>
<path d="M32.1266 53.104H30.3576V59.7064H32.1266V53.104Z" fill="#EBEBEB"/>
<path d="M26.4822 52.8782L24.7555 53.2618L26.1875 59.707L27.9143 59.3234L26.4822 52.8782Z" fill="#EBEBEB"/>
<path d="M29.8488 51.7244H28.9642V59.7064H29.8488V51.7244Z" fill="#EBEBEB"/>
<path d="M17.9031 77.3231H23.6839L23.6839 28.0663H17.9031L17.9031 77.3231Z" fill="#E0E0E0"/>
<path d="M76.8029 76.0373H71.8913L74.4734 55.0081C74.5826 54.1179 75.3928 53.3962 76.283 53.3962H77.9709H97.7139L94.5723 76.0373H76.8029Z" fill="#F5F5F5"/>
<path d="M92.3806 76.0373H97.2922L99.8743 55.0081C99.9835 54.1179 99.3506 53.3962 98.4604 53.3962H96.7725C95.8823 53.3962 95.0721 54.1179 94.9629 55.0081L92.3806 76.0373Z" fill="#F0F0F0"/>
<path d="M90.5713 76.0125L91.4613 65.8412C91.5009 65.3869 91.8521 65.0218 92.3045 64.964L92.6706 64.9172C93.2773 64.8398 93.7481 64.3499 93.8015 63.7405L93.9638 61.886C94.0304 61.1259 93.4312 60.4722 92.6682 60.4722H100.877C101.639 60.4722 102.239 61.1259 102.172 61.886L102.01 63.7405C101.956 64.3499 101.486 64.8398 100.879 64.9172L100.513 64.964C100.06 65.0218 99.7095 65.3869 99.6698 65.8412L98.7799 76.0125C98.715 76.754 98.0941 77.323 97.3497 77.323H89.1414C89.8855 77.323 90.5064 76.754 90.5713 76.0125Z" fill="#E6E6E6"/>
<path d="M67.9825 63.2947C67.8428 61.6975 66.5054 60.4719 64.902 60.4719H68.8736H72.0478C73.6512 60.4719 74.9886 61.6975 75.1283 63.2947L75.8337 71.3577H68.6877L67.9825 63.2947Z" fill="#E6E6E6"/>
<path d="M61.7276 60.472H64.9018C66.5052 60.472 67.8426 61.6975 67.9823 63.2948L68.6877 71.3575H85.7073L86.4127 63.2945C86.5524 61.6973 87.8898 60.4717 89.4932 60.4717H92.6674C93.4304 60.4717 94.0296 61.1255 93.9631 61.8856L93.8007 63.7401C93.7473 64.3495 93.2765 64.8394 92.6698 64.9168L92.3037 64.9635C91.8513 65.0214 91.5004 65.3864 91.4605 65.8407L90.5706 76.0121C90.5057 76.7536 89.8847 77.3226 89.1404 77.3226H65.2544C64.51 77.3226 63.8891 76.7536 63.8242 76.0121L62.9342 65.8407C62.8946 65.3864 62.5434 65.0214 62.0913 64.9635L61.7252 64.9168C61.1185 64.8394 60.6476 64.3495 60.5943 63.7401L60.4319 61.8856C60.3654 61.1259 60.9646 60.472 61.7276 60.472Z" fill="#F0F0F0"/>
<path d="M24.1095 25.6119C24.1095 25.6119 23.848 23.8884 25.1052 22.7832C26.3621 21.678 26.2516 21.0208 25.8924 20.9351C25.5333 20.8494 25.2017 21.9544 24.6492 22.2583C24.6492 22.2583 24.6317 20.6835 25.1929 20.1034C25.7542 19.5233 26.0487 18.0287 25.5146 18.0023C24.9805 17.9761 24.9253 18.8901 24.8149 19.5382C24.7044 20.1863 24.1092 21.0979 24.1092 21.0979C24.1092 21.0979 23.9931 19.6888 23.6304 19.1087C23.2677 18.5286 24.2348 17.2023 23.8617 16.6222C23.4888 16.0421 22.8256 17.1471 22.8809 18.3903C22.9361 19.6335 23.7649 20.9596 23.5716 22.2581C23.5716 22.2581 23.2061 21.3464 22.8778 21.2636C22.5495 21.1808 22.2179 20.5778 21.997 20.3543C21.7759 20.1308 21.4998 20.9044 21.997 21.6228C22.4943 22.3412 23.7651 24.2629 23.5719 25.816L24.1095 25.6119Z" fill="#E6E6E6"/>
<path d="M24.8609 24.8279L25.2725 27.4112C25.3997 28.2088 24.7833 28.9312 23.9754 28.9312H23.5362C22.7284 28.9312 22.112 28.2088 22.2392 27.4112L22.6508 24.8279H24.8609Z" fill="#E6E6E6"/>
<path d="M49.5732 28.4241H50.8551V22.9133H49.5732V28.4241Z" fill="#EBEBEB"/>
<path d="M43.3748 28.4241H44.6567V22.9133H43.3748V28.4241Z" fill="#EBEBEB"/>
<path d="M35.3993 28.2071L36.6626 28.4248L37.5984 22.9938L36.335 22.7762L35.3993 28.2071Z" fill="#EBEBEB"/>
<path d="M47.9847 28.4242H49.2667V23.6395H47.9847V28.4242Z" fill="#EBEBEB"/>
<path d="M45.0383 28.4242H46.3203V23.6395H45.0383V28.4242Z" fill="#EBEBEB"/>
<path d="M37.6009 28.4242H38.8828V23.6395H37.6009V28.4242Z" fill="#EBEBEB"/>
<path d="M40.6525 28.146L41.9039 28.424L42.9417 23.7532L41.6903 23.4752L40.6525 28.146Z" fill="#EBEBEB"/>
<path d="M46.8762 28.424H47.5172V22.6394H46.8762V28.424Z" fill="#EBEBEB"/>
<path d="M39.2512 28.424H39.8922V22.6394H39.2512V28.424Z" fill="#EBEBEB"/>
<path d="M34.6792 24.05H28.433V28.3622H34.6792V24.05Z" fill="#EBEBEB"/>
<path d="M56.1046 25.8163H50.8718V29.0358H56.1046V25.8163Z" fill="#EBEBEB"/>
<path d="M54.8811 22.9864H52.2646V26.2057H54.8811V22.9864Z" fill="#EBEBEB"/>
<path d="M98.6038 18.7268H92.3805V44.6597H98.6038V18.7268Z" fill="#E0E0E0"/>
<path d="M74.6624 44.7279H97.936V18.7266L74.6624 18.7266V44.7279Z" fill="#E0E0E0"/>
<path d="M73.9116 44.7279H98.0591V18.7266L73.9116 18.7266V44.7279Z" fill="#F0F0F0"/>
<path d="M74.9431 43.5333H97.0667V19.5559L74.9431 19.5559V43.5333Z" fill="white"/>
<path d="M74.943 43.5333H75.3534V19.5559H74.943V43.5333Z" fill="#E0E0E0"/>
<path d="M75.2847 36.7983V37.4449H97.1244V36.7983H75.2847Z" fill="#E0E0E0"/>
<path d="M74.943 36.7984H97.4135V35.7128H74.943V36.7984Z" fill="#F0F0F0"/>
<path d="M58.9999 87.9358C84.2712 87.9358 104.758 86.7394 104.758 85.2635C104.758 83.7877 84.2712 82.5913 58.9999 82.5913C33.7286 82.5913 13.2421 83.7877 13.2421 85.2635C13.2421 86.7394 33.7286 87.9358 58.9999 87.9358Z" fill="#F5F5F5"/>
<path d="M75.9813 76.2696H33.7562C32.8027 76.2696 32.0296 75.4967 32.0296 74.543V24.8244C32.0296 23.8709 32.8025 23.0978 33.7562 23.0978H75.9811C76.9345 23.0978 77.7076 23.8707 77.7076 24.8244V74.543C77.7079 75.4964 76.9347 76.2696 75.9813 76.2696Z" fill="#407BFF"/>
<path opacity="0.6" d="M75.9813 76.2696H33.7562C32.8027 76.2696 32.0296 75.4967 32.0296 74.543V24.8244C32.0296 23.8709 32.8025 23.0978 33.7562 23.0978H75.9811C76.9345 23.0978 77.7076 23.8707 77.7076 24.8244V74.543C77.7079 75.4964 76.9347 76.2696 75.9813 76.2696Z" fill="white"/>
<path d="M70.3076 47.4821H39.4301V52.7692H70.3076V47.4821Z" fill="white"/>
<g opacity="0.4">
<path d="M42.1912 50.64V50.7785H41.1198V49.2634H42.1587V49.4019H41.28V49.941H42.0635V50.0771H41.28V50.64H42.1912Z" fill="#263238"/>
<path d="M42.4078 50.125H42.9749V50.2591H42.4078V50.125Z" fill="#263238"/>
<path d="M45.1978 50.1184V50.7785H45.0441V50.1335C45.0441 49.8933 44.9228 49.7701 44.7173 49.7701C44.4836 49.7701 44.3364 49.9216 44.3364 50.1812V50.7785H44.1827V50.1335C44.1827 49.8933 44.0614 49.7701 43.8538 49.7701C43.6222 49.7701 43.4729 49.9216 43.4729 50.1812V50.7785H43.3192V49.64H43.4665V49.8479C43.5465 49.7115 43.6937 49.6315 43.8842 49.6315C44.0725 49.6315 44.2196 49.7115 44.2889 49.8718C44.3713 49.7248 44.5337 49.6315 44.7392 49.6315C45.0161 49.6315 45.1978 49.7918 45.1978 50.1184Z" fill="#263238"/>
<path d="M46.4745 50.0728V50.7784H46.3273V50.601C46.2581 50.7178 46.1239 50.7893 45.9355 50.7893C45.678 50.7893 45.5199 50.655 45.5199 50.4582C45.5199 50.2828 45.6325 50.1358 45.9594 50.1358H46.3207V50.0664C46.3207 49.8717 46.2102 49.7658 45.9983 49.7658C45.851 49.7658 45.7125 49.8177 45.6195 49.8998L45.5504 49.7851C45.6651 49.6879 45.8338 49.6317 46.0134 49.6317C46.3079 49.6315 46.4745 49.7785 46.4745 50.0728ZM46.3209 50.4365V50.2503H45.9638C45.7429 50.2503 45.6717 50.3369 45.6717 50.4537C45.6717 50.5859 45.7776 50.668 45.9596 50.668C46.1326 50.668 46.2603 50.5859 46.3209 50.4365Z" fill="#263238"/>
<path d="M46.8579 49.2809C46.8579 49.2226 46.9077 49.1728 46.9704 49.1728C47.0332 49.1728 47.083 49.2205 47.083 49.2788C47.083 49.3415 47.0353 49.3913 46.9704 49.3913C46.9077 49.3911 46.8579 49.3413 46.8579 49.2809ZM46.8923 49.6401H47.046V50.7785H46.8923V49.6401Z" fill="#263238"/>
<path d="M47.4745 49.1725H47.6281V50.7785H47.4745V49.1725Z" fill="#263238"/>
</g>
<path d="M70.3076 54.7044H39.4301V59.9915H70.3076V54.7044Z" fill="white"/>
<g opacity="0.4">
<path d="M42.3061 57.0131C42.3061 57.3358 42.0725 57.5305 41.6871 57.5305H41.2802V58.0086H41.12V56.4937H41.6871C42.0725 56.4939 42.3061 56.6886 42.3061 57.0131ZM42.1459 57.0131C42.1459 56.771 41.9858 56.6325 41.6828 56.6325H41.2802V57.3898H41.6828C41.9858 57.3898 42.1459 57.2513 42.1459 57.0131Z" fill="#263238"/>
<path d="M43.4682 57.3034V58.0088H43.3209V57.8313C43.2515 57.9482 43.1175 58.0197 42.9292 58.0197C42.6717 58.0197 42.5136 57.8856 42.5136 57.6886C42.5136 57.5134 42.6262 57.3662 42.953 57.3662H43.3143V57.2968C43.3143 57.1021 43.2039 56.9961 42.992 56.9961C42.8449 56.9961 42.7064 57.0483 42.6132 57.1302L42.544 57.0157C42.6587 56.9183 42.8275 56.8621 43.0071 56.8621C43.3013 56.8619 43.4682 57.0091 43.4682 57.3034ZM43.3146 57.6669V57.4809H42.9575C42.7366 57.4809 42.6653 57.5673 42.6653 57.6841C42.6653 57.816 42.7713 57.8984 42.9532 57.8984C43.1262 57.8984 43.2539 57.816 43.3146 57.6669Z" fill="#263238"/>
<path d="M43.7281 57.879L43.7972 57.7577C43.8881 57.8292 44.0419 57.8854 44.2019 57.8854C44.4184 57.8854 44.5071 57.8115 44.5071 57.6992C44.5071 57.4028 43.7691 57.6364 43.7691 57.1863C43.7691 57.0001 43.9294 56.8616 44.2194 56.8616C44.3664 56.8616 44.5267 56.9027 44.622 56.9676L44.555 57.091C44.4554 57.0219 44.3365 56.9938 44.2196 56.9938C44.0139 56.9938 43.9232 57.0738 43.9232 57.1821C43.9232 57.4894 44.6612 57.2576 44.6612 57.6949C44.6612 57.892 44.4882 58.0197 44.1916 58.0197C44.003 58.0197 43.821 57.959 43.7281 57.879Z" fill="#263238"/>
<path d="M44.7865 57.879L44.8559 57.7577C44.9468 57.8292 45.1006 57.8854 45.2607 57.8854C45.4771 57.8854 45.566 57.8115 45.566 57.6992C45.566 57.4028 44.8281 57.6364 44.8281 57.1863C44.8281 57.0001 44.9883 56.8616 45.2784 56.8616C45.4256 56.8616 45.5856 56.9027 45.681 56.9676L45.6139 57.091C45.5144 57.0219 45.3954 56.9938 45.2786 56.9938C45.0728 56.9938 44.9822 57.0738 44.9822 57.1821C44.9822 57.4894 45.7201 57.2576 45.7201 57.6949C45.7201 57.892 45.5472 58.0197 45.2505 58.0197C45.0615 58.0197 44.8795 57.959 44.7865 57.879Z" fill="#263238"/>
<path d="M47.6521 56.8706L47.2214 58.0088H47.0765L46.7171 57.0761L46.3579 58.0088H46.213L45.7844 56.8706H45.9314L46.2885 57.8379L46.6543 56.8706H46.7865L47.1499 57.8379L47.5115 56.8706H47.6521Z" fill="#263238"/>
<path d="M47.7365 57.4395C47.7365 57.1018 47.9832 56.8618 48.3166 56.8618C48.6501 56.8618 48.8946 57.1021 48.8946 57.4395C48.8946 57.7773 48.6501 58.0196 48.3166 58.0196C47.9834 58.0196 47.7365 57.7773 47.7365 57.4395ZM48.7388 57.4395C48.7388 57.1733 48.5592 56.9959 48.3169 56.9959C48.0745 56.9959 47.8928 57.1733 47.8928 57.4395C47.8928 57.7058 48.0747 57.8832 48.3169 57.8832C48.559 57.8832 48.7388 57.7058 48.7388 57.4395Z" fill="#263238"/>
<path d="M49.7819 56.8618V57.0112C49.7689 57.0112 49.7559 57.0091 49.7451 57.0091C49.5069 57.0091 49.362 57.1606 49.362 57.4287V58.0088H49.2084V56.8705H49.3557V57.0933C49.4269 56.9416 49.5721 56.8618 49.7819 56.8618Z" fill="#263238"/>
<path d="M51.087 56.4028V58.0088H50.9397V57.7837C50.8467 57.9373 50.6888 58.0197 50.5005 58.0197C50.1758 58.0197 49.9334 57.7837 49.9334 57.4396C49.9334 57.0955 50.1758 56.8619 50.5005 56.8619C50.6822 56.8619 50.8382 56.9397 50.9333 57.087V56.4031H51.087V56.4028ZM50.9357 57.4396C50.9357 57.1734 50.754 56.9959 50.5135 56.9959C50.2711 56.9959 50.0894 57.1734 50.0894 57.4396C50.0894 57.7058 50.2711 57.8833 50.5135 57.8833C50.7537 57.8833 50.9357 57.7058 50.9357 57.4396Z" fill="#263238"/>
</g>
<path opacity="0.2" d="M70.3076 65.3841H39.4301V70.6712H70.3076V65.3841Z" fill="black"/>
<g opacity="0.5">
<path d="M46.9393 62.9542H46.4352L46.3266 63.1959H46.227L46.6407 62.2908H46.7351L47.1488 63.1959H47.0481L46.9393 62.9542ZM46.9046 62.8766L46.6875 62.3904L46.4703 62.8766H46.9046Z" fill="black"/>
<path d="M47.2804 62.2368H47.3722V63.1959H47.2804V62.2368Z" fill="black"/>
<path d="M47.971 62.5108V62.6C47.9632 62.6 47.9555 62.5986 47.9491 62.5986C47.8068 62.5986 47.7202 62.6892 47.7202 62.8497V63.1961H47.6284V62.516H47.7162V62.6491C47.7591 62.5587 47.8455 62.5108 47.971 62.5108Z" fill="black"/>
<path d="M48.7222 62.8844H48.1534C48.1638 63.0267 48.2724 63.1211 48.4211 63.1211C48.5039 63.1211 48.5775 63.0913 48.6292 63.0319L48.6809 63.0913C48.6203 63.1638 48.5259 63.2025 48.4185 63.2025C48.2065 63.2025 48.0616 63.0578 48.0616 62.856C48.0616 62.6545 48.2025 62.5108 48.3939 62.5108C48.5853 62.5108 48.7236 62.6517 48.7236 62.856C48.7236 62.8636 48.7222 62.874 48.7222 62.8844ZM48.1534 62.8159H48.6356C48.624 62.6828 48.527 62.5896 48.3939 62.5896C48.262 62.5896 48.165 62.6828 48.1534 62.8159Z" fill="black"/>
<path d="M49.4054 62.7744V63.1959H49.3176V63.0899C49.2763 63.1598 49.196 63.2025 49.0835 63.2025C48.9296 63.2025 48.8352 63.1222 48.8352 63.0047C48.8352 62.8999 48.9025 62.8121 49.0976 62.8121H49.3136V62.7708C49.3136 62.6545 49.2477 62.591 49.121 62.591C49.033 62.591 48.9504 62.6219 48.8947 62.6713L48.8534 62.6026C48.9218 62.5445 49.0228 62.5108 49.13 62.5108C49.3058 62.5108 49.4054 62.5986 49.4054 62.7744ZM49.3136 62.9917V62.8804H49.1002C48.9683 62.8804 48.9256 62.9323 48.9256 63.0021C48.9256 63.0809 48.9891 63.13 49.0976 63.13C49.201 63.13 49.2772 63.0809 49.3136 62.9917Z" fill="black"/>
<path d="M50.2785 62.2368V63.1959H50.1907V63.0616C50.135 63.1534 50.0406 63.2025 49.9282 63.2025C49.7345 63.2025 49.5896 63.0616 49.5896 62.856C49.5896 62.6505 49.7345 62.5108 49.9282 62.5108C50.0368 62.5108 50.1298 62.5573 50.1869 62.6451V62.2368H50.2785ZM50.1881 62.856C50.1881 62.697 50.0795 62.591 49.936 62.591C49.7911 62.591 49.6826 62.697 49.6826 62.856C49.6826 63.0151 49.7911 63.1211 49.936 63.1211C50.0795 63.1211 50.1881 63.0151 50.1881 62.856Z" fill="black"/>
<path d="M51.1067 62.516L50.7668 63.2775C50.7099 63.4106 50.6375 63.4533 50.5405 63.4533C50.4772 63.4533 50.4164 63.4328 50.3751 63.3913L50.4178 63.3228C50.4513 63.3566 50.4926 63.3745 50.5419 63.3745C50.6026 63.3745 50.6441 63.3462 50.6828 63.2608L50.7125 63.1949L50.4086 62.5162H50.5042L50.7602 63.0942L51.016 62.5162H51.1067V62.516Z" fill="black"/>
<path d="M52.0886 62.7744V63.1959H52.0006V63.0899C51.9593 63.1598 51.8791 63.2025 51.7665 63.2025C51.6126 63.2025 51.5182 63.1222 51.5182 63.0047C51.5182 62.8999 51.5855 62.8121 51.7807 62.8121H51.9966V62.7708C51.9966 62.6545 51.9307 62.591 51.804 62.591C51.716 62.591 51.6334 62.6219 51.5779 62.6713L51.5366 62.6026C51.6051 62.5445 51.7061 62.5108 51.8132 62.5108C51.989 62.5108 52.0886 62.5986 52.0886 62.7744ZM51.9968 62.9917V62.8804H51.7835C51.6516 62.8804 51.6088 62.9323 51.6088 63.0021C51.6088 63.0809 51.6723 63.13 51.7809 63.13C51.8843 63.13 51.9605 63.0809 51.9968 62.9917Z" fill="black"/>
<path d="M53.7996 62.8015V63.1959H53.7078V62.8105C53.7078 62.6673 53.6354 62.5934 53.5126 62.5934C53.3729 62.5934 53.2851 62.684 53.2851 62.8391V63.1959H53.1933V62.8105C53.1933 62.6673 53.1209 62.5934 52.9967 62.5934C52.8584 62.5934 52.7692 62.684 52.7692 62.8391V63.1959H52.6774V62.5158H52.7652V62.6399C52.8131 62.5585 52.9009 62.5106 53.0147 62.5106C53.1272 62.5106 53.215 62.5585 53.2563 62.654C53.3054 62.566 53.4024 62.5106 53.5251 62.5106C53.691 62.5108 53.7996 62.6064 53.7996 62.8015Z" fill="black"/>
<path d="M54.6445 62.8844H54.0758C54.0859 63.0267 54.1947 63.1211 54.3434 63.1211C54.426 63.1211 54.4999 63.0913 54.5516 63.0319L54.6032 63.0913C54.5426 63.1638 54.4482 63.2025 54.3408 63.2025C54.1289 63.2025 53.984 63.0578 53.984 62.856C53.984 62.6545 54.1249 62.5108 54.3163 62.5108C54.5077 62.5108 54.646 62.6517 54.646 62.856C54.6457 62.8636 54.6445 62.874 54.6445 62.8844ZM54.0758 62.8159H54.5579C54.5464 62.6828 54.4494 62.5896 54.3163 62.5896C54.1843 62.5896 54.0873 62.6828 54.0758 62.8159Z" fill="black"/>
<path d="M55.956 62.8015V63.1959H55.8642V62.8105C55.8642 62.6673 55.7918 62.5934 55.669 62.5934C55.5293 62.5934 55.4415 62.684 55.4415 62.8391V63.1959H55.3497V62.8105C55.3497 62.6673 55.2773 62.5934 55.1531 62.5934C55.0148 62.5934 54.9256 62.684 54.9256 62.8391V63.1959H54.8338V62.5158H54.9216V62.6399C54.9695 62.5585 55.0573 62.5106 55.1711 62.5106C55.2836 62.5106 55.3714 62.5585 55.4127 62.654C55.4618 62.566 55.5588 62.5106 55.6815 62.5106C55.8475 62.5108 55.956 62.6064 55.956 62.8015Z" fill="black"/>
<path d="M56.8957 62.856C56.8957 63.0616 56.751 63.2025 56.557 63.2025C56.4445 63.2025 56.3501 63.1534 56.2946 63.0616V63.1959H56.2068V62.2368H56.2986V62.6451C56.3555 62.5573 56.4487 62.5108 56.5573 62.5108C56.7508 62.5108 56.8957 62.6505 56.8957 62.856ZM56.8039 62.856C56.8039 62.697 56.6939 62.591 56.5504 62.591C56.4055 62.591 56.297 62.697 56.297 62.856C56.297 63.0151 56.4055 63.1211 56.5504 63.1211C56.6939 63.1211 56.8039 63.0151 56.8039 62.856Z" fill="black"/>
<path d="M57.6759 62.8844H57.1071C57.1175 63.0267 57.2261 63.1211 57.3748 63.1211C57.4576 63.1211 57.5312 63.0913 57.5829 63.0319L57.6346 63.0913C57.5739 63.1638 57.4795 63.2025 57.3722 63.2025C57.1602 63.2025 57.0153 63.0578 57.0153 62.856C57.0153 62.6545 57.1562 62.5108 57.3476 62.5108C57.539 62.5108 57.6773 62.6517 57.6773 62.856C57.6771 62.8636 57.6759 62.874 57.6759 62.8844ZM57.1071 62.8159H57.5893C57.5777 62.6828 57.4807 62.5896 57.3476 62.5896C57.2157 62.5896 57.1187 62.6828 57.1071 62.8159Z" fill="black"/>
<path d="M58.2076 62.5108V62.6C58.1998 62.6 58.192 62.5986 58.1856 62.5986C58.0435 62.5986 57.9567 62.6892 57.9567 62.8497V63.1961H57.8649V62.516H57.9529V62.6491C57.9956 62.5587 58.082 62.5108 58.2076 62.5108Z" fill="black"/>
<path d="M58.8024 62.5225C58.8024 62.4293 58.7262 62.3647 58.5942 62.3647C58.4845 62.3647 58.4042 62.4008 58.3474 62.4694L58.2789 62.4175C58.3488 62.3323 58.4562 62.2832 58.6008 62.2832C58.7818 62.2832 58.8982 62.3698 58.8982 62.5081C58.8982 62.729 58.6617 62.7394 58.6617 62.9244H58.5659C58.5659 62.7111 58.8024 62.6917 58.8024 62.5225ZM58.5466 63.1352C58.5466 63.0979 58.5763 63.0693 58.6138 63.0693C58.6528 63.0693 58.6823 63.0979 58.6823 63.1352C58.6823 63.1713 58.6525 63.2025 58.6138 63.2025C58.5763 63.2025 58.5466 63.1713 58.5466 63.1352Z" fill="black"/>
<path d="M59.4419 62.291H59.6515V63.0255H60.1051V63.1961H59.4419V62.291Z" fill="black"/>
<path d="M60.152 62.8483C60.152 62.6387 60.3136 62.49 60.5348 62.49C60.7559 62.49 60.9161 62.6387 60.9161 62.8483C60.9161 63.0578 60.7559 63.2065 60.5348 63.2065C60.3134 63.2063 60.152 63.0578 60.152 62.8483ZM60.7118 62.8483C60.7118 62.7279 60.6355 62.6557 60.5345 62.6557C60.4338 62.6557 60.3561 62.7281 60.3561 62.8483C60.3561 62.9686 60.4338 63.0408 60.5345 63.0408C60.6355 63.0408 60.7118 62.9686 60.7118 62.8483Z" fill="black"/>
<path d="M61.7687 62.5004V63.0796C61.7687 63.3382 61.6292 63.4572 61.3784 63.4572C61.2464 63.4572 61.1185 63.4248 61.0371 63.3616L61.1173 63.2169C61.1768 63.2646 61.2738 63.2957 61.3628 63.2957C61.5051 63.2957 61.5672 63.2311 61.5672 63.1055V63.0758C61.5141 63.1341 61.4378 63.1624 61.3474 63.1624C61.1549 63.1624 60.9996 63.0293 60.9996 62.8263C60.9996 62.6234 61.1546 62.49 61.3474 62.49C61.4444 62.49 61.5247 62.5226 61.5775 62.5896V62.5004H61.7687ZM61.5695 62.8263C61.5695 62.7241 61.4933 62.6555 61.3873 62.6555C61.2814 62.6555 61.2037 62.7241 61.2037 62.8263C61.2037 62.9285 61.2814 62.997 61.3873 62.997C61.4933 62.997 61.5695 62.9285 61.5695 62.8263Z" fill="black"/>
<path d="M62.2982 62.291C62.2982 62.2278 62.3484 62.1785 62.4235 62.1785C62.4985 62.1785 62.5488 62.225 62.5488 62.2873C62.5488 62.3543 62.4985 62.4034 62.4235 62.4034C62.3487 62.4034 62.2982 62.3543 62.2982 62.291ZM62.3227 62.5004H62.5242V63.1959H62.3227V62.5004Z" fill="black"/>
<path d="M63.4232 62.7978V63.1961H63.2217V62.8289C63.2217 62.7164 63.17 62.6649 63.0808 62.6649C62.9838 62.6649 62.9142 62.7244 62.9142 62.8523V63.1961H62.7126V62.5007H62.9052V62.5823C62.9595 62.5228 63.0409 62.4903 63.1353 62.4903C63.2991 62.49 63.4232 62.5858 63.4232 62.7978Z" fill="black"/>
</g>
<path d="M70.3076 65.0605H39.4301V70.3476H70.3076V65.0605Z" fill="#407BFF"/>
<path d="M50.882 68.5255L50.4916 67.9697C50.4553 67.9723 50.4166 67.9746 50.3779 67.9746H49.9307V68.5255H49.672V66.7156H50.3779C50.8485 66.7156 51.1328 66.9535 51.1328 67.3464C51.1328 67.6258 50.9882 67.8274 50.7347 67.918L51.1638 68.5255H50.882ZM50.8742 67.3462C50.8742 67.0875 50.701 66.9402 50.3701 66.9402H49.9307V67.7547H50.3701C50.701 67.7549 50.8742 67.6048 50.8742 67.3462Z" fill="white"/>
<path d="M52.7503 67.9229H51.6385C51.6696 68.1634 51.8634 68.3237 52.135 68.3237C52.2953 68.3237 52.4298 68.2691 52.5305 68.1582L52.6677 68.3185C52.5435 68.4634 52.3547 68.5408 52.1272 68.5408C51.685 68.5408 51.3902 68.2488 51.3902 67.8401C51.3902 67.4342 51.6824 67.142 52.0781 67.142C52.4737 67.142 52.7555 67.4264 52.7555 67.8479C52.7552 67.8684 52.7526 67.8996 52.7503 67.9229ZM51.6382 67.7445H52.5173C52.4916 67.5142 52.3182 67.3516 52.0779 67.3516C51.84 67.3516 51.6642 67.5118 51.6382 67.7445Z" fill="white"/>
<path d="M54.411 67.155V68.3392C54.411 68.8228 54.1653 69.0425 53.6999 69.0425C53.4491 69.0425 53.1958 68.9727 53.046 68.8381L53.1649 68.6467C53.2916 68.7553 53.4906 68.8252 53.6924 68.8252C54.0157 68.8252 54.163 68.6753 54.163 68.365V68.2564C54.044 68.3987 53.8656 68.4683 53.669 68.4683C53.2735 68.4683 52.9735 68.1993 52.9735 67.804C52.9735 67.4084 53.2735 67.142 53.669 67.142C53.8734 67.142 54.0593 67.2168 54.1757 67.3669V67.155H54.411ZM54.1677 67.804C54.1677 67.5375 53.9711 67.3591 53.6971 67.3591C53.4205 67.3591 53.2239 67.5375 53.2239 67.804C53.2239 68.0676 53.4205 68.2514 53.6971 68.2514C53.9713 68.2512 54.1677 68.0676 54.1677 67.804Z" fill="white"/>
<path d="M54.8414 66.7309C54.8414 66.6405 54.9139 66.5681 55.0094 66.5681C55.105 66.5681 55.1775 66.6379 55.1775 66.726C55.1775 66.8192 55.1076 66.8914 55.0094 66.8914C54.9139 66.8914 54.8414 66.8215 54.8414 66.7309ZM54.8853 67.155H55.1336V68.5255H54.8853V67.155Z" fill="white"/>
<path d="M55.4342 68.3806L55.5376 68.184C55.6539 68.2668 55.8401 68.3263 56.0185 68.3263C56.2486 68.3263 56.3445 68.2565 56.3445 68.1401C56.3445 67.8324 55.4783 68.0988 55.4783 67.5534C55.4783 67.3077 55.698 67.1423 56.0497 67.1423C56.2281 67.1423 56.4297 67.1888 56.5486 67.2662L56.4426 67.4628C56.3185 67.3826 56.1814 67.3542 56.0471 67.3542C55.83 67.3542 55.7238 67.4345 55.7238 67.543C55.7238 67.8661 56.5927 67.6025 56.5927 68.1352C56.5927 68.3834 56.3652 68.5411 56.0006 68.5411C55.7729 68.5408 55.548 68.471 55.4342 68.3806Z" fill="white"/>
<path d="M57.6739 68.4452C57.5988 68.5099 57.4851 68.5408 57.3739 68.5408C57.0973 68.5408 56.9397 68.3881 56.9397 68.1118V67.3594H56.707V67.1552H56.9397V66.8553H57.1879V67.1552H57.5809V67.3594H57.1879V68.1016C57.1879 68.2491 57.2656 68.3319 57.4025 68.3319C57.4749 68.3319 57.5445 68.3086 57.5965 68.2673L57.6739 68.4452Z" fill="white"/>
<path d="M59.1616 67.9229H58.0496C58.0808 68.1634 58.2745 68.3237 58.5462 68.3237C58.7064 68.3237 58.8409 68.2691 58.9417 68.1582L59.0788 68.3185C58.9547 68.4634 58.7659 68.5408 58.5384 68.5408C58.0961 68.5408 57.8016 68.2488 57.8016 67.8401C57.8016 67.4342 58.0937 67.142 58.4895 67.142C58.8851 67.142 59.1668 67.4264 59.1668 67.8479C59.1666 67.8684 59.164 67.8996 59.1616 67.9229ZM58.0496 67.7445H58.9287C58.903 67.5142 58.7295 67.3516 58.4893 67.3516C58.2514 67.3516 58.0756 67.5118 58.0496 67.7445Z" fill="white"/>
<path d="M60.2486 67.142V67.3825C60.2281 67.3799 60.2099 67.3799 60.1917 67.3799C59.9255 67.3799 59.7599 67.5427 59.7599 67.8427V68.5254H59.5116V67.155H59.7495V67.3853C59.8375 67.2248 60.0081 67.142 60.2486 67.142Z" fill="white"/>
<g opacity="0.6">
<path d="M49.4637 28.9468L49.5685 28.7259C49.7158 28.8591 49.9676 28.9553 50.2225 28.9553C50.5649 28.9553 50.7122 28.8222 50.7122 28.6497C50.7122 28.1657 49.5121 28.4715 49.5121 27.7355C49.5121 27.4298 49.7498 27.1695 50.2706 27.1695C50.5026 27.1695 50.7433 27.2318 50.9076 27.3451L50.8141 27.5717C50.6416 27.4612 50.4462 27.4102 50.2706 27.4102C49.9339 27.4102 49.7897 27.5518 49.7897 27.7244C49.7897 28.2084 50.9897 27.9056 50.9897 28.633C50.9897 28.9358 50.7464 29.1963 50.2227 29.1963C49.9195 29.1961 49.6223 29.0941 49.4637 28.9468Z" fill="#263238"/>
<path d="M51.3162 27.2092C51.3162 27.1101 51.3953 27.0308 51.5 27.0308C51.6048 27.0308 51.6841 27.1072 51.6841 27.2035C51.6841 27.3055 51.6077 27.3848 51.5 27.3848C51.3953 27.3845 51.3162 27.3081 51.3162 27.2092ZM51.3643 27.6732H51.636V29.1734H51.3643V27.6732Z" fill="#263238"/>
<path d="M53.5893 27.6732V28.9695C53.5893 29.4989 53.3205 29.7396 52.8109 29.7396C52.5362 29.7396 52.2589 29.6631 52.0947 29.5159L52.225 29.3063C52.3637 29.4253 52.5816 29.5017 52.8024 29.5017C53.1562 29.5017 53.3176 29.3377 53.3176 28.9979V28.8789C53.1876 29.0347 52.9922 29.1111 52.777 29.1111C52.3439 29.1111 52.0156 28.8166 52.0156 28.3835C52.0156 27.9505 52.3439 27.659 52.777 27.659C53.0005 27.659 53.2044 27.7412 53.3318 27.9052V27.6732H53.5893ZM53.3233 28.3838C53.3233 28.0923 53.1083 27.8969 52.8081 27.8969C52.5053 27.8969 52.2901 28.0923 52.2901 28.3838C52.2901 28.6724 52.5053 28.8735 52.8081 28.8735C53.1083 28.8732 53.3233 28.6724 53.3233 28.3838Z" fill="#263238"/>
<path d="M55.532 28.3102V29.1734H55.2604V28.3413C55.2604 28.0468 55.1133 27.9026 54.8556 27.9026C54.5668 27.9026 54.3801 28.0753 54.3801 28.4008V29.1734H54.1085V27.6732H54.369V27.8997C54.4795 27.7471 54.6718 27.659 54.9094 27.659C55.2745 27.659 55.532 27.8686 55.532 28.3102Z" fill="#263238"/>
<path d="M58.1969 27.6732V29.1734H57.9395V28.9469C57.829 29.1026 57.6423 29.1902 57.4299 29.1902C57.0422 29.1902 56.7845 28.978 56.7845 28.5362V27.6729H57.0561V28.5051C57.0561 28.7996 57.2034 28.9466 57.4609 28.9466C57.7438 28.9466 57.9251 28.7711 57.9251 28.4484V27.6729L58.1969 27.6732Z" fill="#263238"/>
<path d="M60.2699 28.4234C60.2699 28.8848 59.9501 29.1904 59.5114 29.1904C59.2992 29.1904 59.1123 29.1083 58.9877 28.9471V29.7226H58.716V27.6734H58.9766V27.9111C59.0984 27.744 59.2907 27.6593 59.5116 27.6593C59.9498 27.659 60.2699 27.9649 60.2699 28.4234ZM59.9952 28.4234C59.9952 28.1065 59.7773 27.8969 59.4887 27.8969C59.2029 27.8969 58.9848 28.1065 58.9848 28.4234C58.9848 28.7432 59.2027 28.9528 59.4887 28.9528C59.7773 28.9526 59.9952 28.7432 59.9952 28.4234Z" fill="#263238"/>
</g>
<path d="M70.3076 40.2598H39.4301V45.5469H70.3076V40.2598Z" fill="white"/>
<g opacity="0.4">
<path d="M41.12 42.0413H41.2802V43.4177H42.1287V43.5562H41.1202V42.0413H41.12Z" fill="#263238"/>
<path d="M43.2257 42.8508V43.5562H43.0785V43.3787C43.0093 43.4955 42.875 43.567 42.6867 43.567C42.4292 43.567 42.2711 43.433 42.2711 43.2359C42.2711 43.0608 42.3837 42.9136 42.7106 42.9136H43.0719V42.8444C43.0719 42.6497 42.9614 42.5435 42.7495 42.5435C42.6022 42.5435 42.4637 42.5957 42.3707 42.6778L42.3013 42.5631C42.416 42.4656 42.5848 42.4095 42.7644 42.4095C43.0591 42.409 43.2257 42.5562 43.2257 42.8508ZM43.0721 43.2145V43.0282H42.715C42.4941 43.0282 42.4229 43.1149 42.4229 43.2317C42.4229 43.3636 42.5288 43.4457 42.7108 43.4457C42.8838 43.4457 43.0114 43.3634 43.0721 43.2145Z" fill="#263238"/>
<path d="M43.4854 43.4264L43.5548 43.3051C43.6457 43.3766 43.7996 43.4327 43.9596 43.4327C44.176 43.4327 44.2649 43.3591 44.2649 43.2465C44.2649 42.9501 43.527 43.1838 43.527 42.7337C43.527 42.5475 43.6872 42.409 43.9773 42.409C44.1243 42.409 44.2845 42.4503 44.3796 42.5149L44.3126 42.6384C44.213 42.569 44.0941 42.5409 43.9773 42.5409C43.7715 42.5409 43.6809 42.6209 43.6809 42.7292C43.6809 43.0365 44.4188 42.805 44.4188 43.2423C44.4188 43.4391 44.2458 43.5668 43.9492 43.5668C43.7604 43.567 43.5784 43.5064 43.4854 43.4264Z" fill="#263238"/>
<path d="M45.3017 43.487C45.2411 43.5411 45.1502 43.567 45.0615 43.567C44.8472 43.567 44.7282 43.4457 44.7282 43.2359V42.5478H44.5248V42.418H44.7282V42.169H44.8819V42.418H45.2281V42.5478H44.8819V43.2274C44.8819 43.3615 44.951 43.4351 45.0787 43.4351C45.1415 43.4351 45.2043 43.4158 45.2474 43.3768L45.3017 43.487Z" fill="#263238"/>
<path d="M47.4466 42.0413V43.5562H47.3144L46.3407 42.3269V43.5562H46.1805V42.0413H46.3126L47.2887 43.2706V42.0413H47.4466Z" fill="#263238"/>
<path d="M48.7665 42.8508V43.5562H48.6195V43.3787C48.5501 43.4955 48.4161 43.567 48.2278 43.567C47.9703 43.567 47.8122 43.433 47.8122 43.2359C47.8122 43.0608 47.9247 42.9136 48.2516 42.9136H48.6129V42.8444C48.6129 42.6497 48.5025 42.5435 48.2905 42.5435C48.1433 42.5435 48.005 42.5957 47.9118 42.6778L47.8426 42.5631C47.9573 42.4656 48.126 42.4095 48.3056 42.4095C48.5999 42.409 48.7665 42.5562 48.7665 42.8508ZM48.6129 43.2145V43.0282H48.2558C48.0349 43.0282 47.9637 43.1149 47.9637 43.2317C47.9637 43.3636 48.0696 43.4457 48.2516 43.4457C48.4246 43.4457 48.5523 43.3634 48.6129 43.2145Z" fill="#263238"/>
<path d="M51.0629 42.8961V43.5562H50.9093V42.9115C50.9093 42.671 50.788 42.5478 50.5824 42.5478C50.3488 42.5478 50.2015 42.6995 50.2015 42.9589V43.5562H50.0479V42.9115C50.0479 42.671 49.9266 42.5478 49.7189 42.5478C49.4874 42.5478 49.338 42.6995 49.338 42.9589V43.5562H49.1844V42.418H49.3314V42.6257C49.4114 42.4895 49.5587 42.4092 49.7491 42.4092C49.9374 42.4092 50.0845 42.4895 50.1538 42.6497C50.2362 42.5025 50.3986 42.4092 50.6041 42.4092C50.8812 42.409 51.0629 42.5692 51.0629 42.8961Z" fill="#263238"/>
<path d="M52.4763 43.0346H51.524C51.5415 43.2728 51.7232 43.4309 51.972 43.4309C52.1105 43.4309 52.2339 43.3811 52.3205 43.2815L52.4071 43.3811C52.3054 43.5022 52.1473 43.5671 51.968 43.5671C51.613 43.5671 51.3706 43.3247 51.3706 42.9872C51.3706 42.6495 51.6064 42.4092 51.9269 42.4092C52.2471 42.4092 52.4787 42.6452 52.4787 42.9872C52.4787 42.9999 52.4763 43.0174 52.4763 43.0346ZM51.524 42.9197H52.3314C52.3118 42.6969 52.1497 42.5412 51.9267 42.5412C51.706 42.5412 51.5436 42.6969 51.524 42.9197Z" fill="#263238"/>
</g>
<path d="M70.3076 33.0374H39.4301V38.3246H70.3076V33.0374Z" fill="white"/>
<g opacity="0.4">
<path d="M41.28 34.9573V35.5525H42.0635V35.691H41.28V36.3339H41.1198V34.819H42.1587V34.9575L41.28 34.9573Z" fill="#263238"/>
<path d="M42.4013 34.8362C42.4013 34.7777 42.4511 34.7281 42.5139 34.7281C42.5767 34.7281 42.6265 34.7758 42.6265 34.8343C42.6265 34.8971 42.5788 34.9469 42.5139 34.9469C42.4509 34.9464 42.4013 34.8967 42.4013 34.8362ZM42.4358 35.1954H42.5894V36.3339H42.4358V35.1954Z" fill="#263238"/>
<path d="M43.5914 35.1866V35.336C43.5784 35.336 43.5654 35.3339 43.5545 35.3339C43.3164 35.3339 43.1715 35.4854 43.1715 35.7538V36.3338H43.0179V35.1954H43.1651V35.4184C43.2364 35.2669 43.3816 35.1866 43.5914 35.1866Z" fill="#263238"/>
<path d="M43.7191 36.2038L43.7883 36.0825C43.8792 36.154 44.033 36.2102 44.193 36.2102C44.4094 36.2102 44.4982 36.1368 44.4982 36.0242C44.4982 35.7278 43.7602 35.9614 43.7602 35.5114C43.7602 35.3254 43.9205 35.1866 44.2105 35.1866C44.3578 35.1866 44.5178 35.2277 44.6131 35.2926L44.5461 35.416C44.4465 35.3469 44.3276 35.3186 44.2107 35.3186C44.0049 35.3186 43.9143 35.3986 43.9143 35.5069C43.9143 35.8142 44.6523 35.5827 44.6523 36.0197C44.6523 36.2168 44.4793 36.3445 44.1826 36.3445C43.9943 36.3447 43.8124 36.284 43.7191 36.2038Z" fill="#263238"/>
<path d="M45.5352 36.2645C45.4746 36.3185 45.3837 36.3445 45.295 36.3445C45.0807 36.3445 44.9617 36.2232 44.9617 36.0134V35.3252H44.7583V35.1954H44.9617V34.9464H45.1154V35.1954H45.4616V35.3252H45.1154V36.0047C45.1154 36.139 45.1848 36.2123 45.3124 36.2123C45.3752 36.2123 45.438 36.1928 45.4812 36.1541L45.5352 36.2645Z" fill="#263238"/>
<path d="M47.6801 34.8188V36.3336H47.5479L46.5742 35.1043V36.3336H46.414V34.8188H46.5461L47.5222 36.0481V34.8188H47.6801Z" fill="#263238"/>
<path d="M49.0006 35.6282V36.3338H48.8534V36.1564C48.784 36.2732 48.6499 36.3447 48.4616 36.3447C48.2041 36.3447 48.046 36.2104 48.046 36.0136C48.046 35.8383 48.1586 35.6912 48.4855 35.6912H48.8468V35.6218C48.8468 35.4271 48.7363 35.3209 48.5244 35.3209C48.3771 35.3209 48.2386 35.3729 48.1456 35.4552L48.0765 35.3405C48.1912 35.2431 48.3599 35.1869 48.5395 35.1869C48.8338 35.1867 49.0006 35.3339 49.0006 35.6282ZM48.8468 35.9919V35.8057H48.4897C48.2688 35.8057 48.1975 35.8923 48.1975 36.0091C48.1975 36.141 48.3035 36.2234 48.4855 36.2234C48.6587 36.2234 48.7864 36.141 48.8468 35.9919Z" fill="#263238"/>
<path d="M51.2964 35.6737V36.3338H51.1427V35.6889C51.1427 35.4486 51.0214 35.3254 50.8159 35.3254C50.5822 35.3254 50.435 35.4769 50.435 35.7365V36.3338H50.2813V35.6889C50.2813 35.4486 50.16 35.3254 49.9524 35.3254C49.7208 35.3254 49.5715 35.4769 49.5715 35.7365V36.3338H49.4178V35.1954H49.5651V35.4031C49.6451 35.2666 49.7924 35.1866 49.9828 35.1866C50.1711 35.1866 50.3182 35.2666 50.3875 35.4269C50.4699 35.2796 50.6323 35.1866 50.8378 35.1866C51.1147 35.1866 51.2964 35.3469 51.2964 35.6737Z" fill="#263238"/>
<path d="M52.7102 35.8123H51.7579C51.7754 36.0504 51.9571 36.2083 52.2059 36.2083C52.3444 36.2083 52.4678 36.1585 52.5544 36.0589L52.641 36.1585C52.5393 36.2796 52.3812 36.3447 52.2018 36.3447C51.8469 36.3447 51.6045 36.1023 51.6045 35.7646C51.6045 35.4269 51.8403 35.1866 52.1608 35.1866C52.481 35.1866 52.7125 35.4226 52.7125 35.7646C52.7123 35.7776 52.7102 35.7948 52.7102 35.8123ZM51.7579 35.6973H52.5653C52.5457 35.4746 52.3836 35.3186 52.1605 35.3186C51.9396 35.3188 51.7773 35.4746 51.7579 35.6973Z" fill="#263238"/>
</g>
<path d="M32.2004 68.5812C32.2004 68.5812 30.6381 67.2787 29.2986 68.5812C27.959 69.8837 27.7004 77.953 27.7004 77.953" stroke="#407BFF" stroke-width="0.9446" stroke-miterlimit="10"/>
<path d="M27.5895 79.511C27.5895 79.511 28.5103 70.0413 25.043 66.0616" stroke="#407BFF" stroke-width="0.9446" stroke-miterlimit="10"/>
<path d="M27.9193 78.513C27.9193 78.513 27.2101 67.7325 29.8106 65.3406" stroke="#407BFF" stroke-width="0.9446" stroke-miterlimit="10"/>
<path d="M27.5892 78.513C27.5892 78.513 27.5288 71.3893 25.5962 70.2818C23.6636 69.1744 22.6786 72.7862 22.6786 72.7862" stroke="#407BFF" stroke-width="0.9446" stroke-miterlimit="10"/>
<path d="M28.3527 78.513C28.3527 78.513 28.0374 73.0442 29.5348 71.0896C31.032 69.1351 32.6082 71.9269 32.6082 71.9269" stroke="#407BFF" stroke-width="0.9446" stroke-miterlimit="10"/>
<path d="M27.8311 79.2456C27.8311 79.2456 28.7994 66.4558 27.197 64.2886" stroke="#407BFF" stroke-width="0.9446" stroke-miterlimit="10"/>
<path d="M23.9415 71.3197C23.9415 71.3197 24.9051 71.6749 24.6186 72.5136C24.3321 73.3524 21.2851 74.7325 21.2851 74.7325C21.2851 74.7325 20.009 73.5629 21.181 71.6605C22.353 69.7583 23.9155 70.7196 23.9415 71.3197Z" fill="#407BFF"/>
<path opacity="0.2" d="M23.9415 71.3197C23.9415 71.3197 24.9051 71.6749 24.6186 72.5136C24.3321 73.3524 21.2851 74.7325 21.2851 74.7325C21.2851 74.7325 20.009 73.5629 21.181 71.6605C22.353 69.7583 23.9155 70.7196 23.9415 71.3197Z" fill="black"/>
<path d="M28.1305 69.7232C28.1305 69.7232 27.1044 69.6802 27.0461 70.5645C26.9878 71.4488 29.269 73.8954 29.269 73.8954C29.269 73.8954 30.8969 73.3068 30.5472 71.1C30.1977 68.8934 28.3856 69.1792 28.1305 69.7232Z" fill="#407BFF"/>
<path opacity="0.2" d="M28.1305 69.7232C28.1305 69.7232 27.1044 69.6802 27.0461 70.5645C26.9878 71.4488 29.269 73.8954 29.269 73.8954C29.269 73.8954 30.8969 73.3068 30.5472 71.1C30.1977 68.8934 28.3856 69.1792 28.1305 69.7232Z" fill="black"/>
<path d="M28.9993 65.49C28.9993 65.49 28.3151 65.4166 28.3704 64.9999C28.4253 64.5831 31.0298 63.5107 32.5662 65.2448C32.5662 65.2448 31.5823 66.9348 30.1602 66.957C28.738 66.9792 28.9993 65.49 28.9993 65.49Z" fill="#407BFF"/>
<path opacity="0.2" d="M28.9993 65.49C28.9993 65.49 28.3151 65.4166 28.3704 64.9999C28.4253 64.5831 31.0298 63.5107 32.5662 65.2448C32.5662 65.2448 31.5823 66.9348 30.1602 66.957C28.738 66.9792 28.9993 65.49 28.9993 65.49Z" fill="black"/>
<path d="M27.7246 64.478C27.7246 64.478 28.3441 64.7775 28.5176 64.3947C28.6913 64.0119 27.0482 61.7244 24.827 62.3835C24.827 62.3835 24.7682 64.3383 25.9636 65.1091C27.1587 65.8801 27.7246 64.478 27.7246 64.478Z" fill="#407BFF"/>
<path opacity="0.2" d="M27.7246 64.478C27.7246 64.478 28.3441 64.7775 28.5176 64.3947C28.6913 64.0119 27.0482 61.7244 24.827 62.3835C24.827 62.3835 24.7682 64.3383 25.9636 65.1091C27.1587 65.8801 27.7246 64.478 27.7246 64.478Z" fill="black"/>
<path d="M30.9636 70.9824C30.9636 70.9824 30.4914 70.6013 31.0009 70.4151C31.5104 70.2291 34.0106 70.282 34.0366 72.7586C34.0366 72.7586 31.1248 73.2424 30.7642 72.2991C30.4041 71.3558 30.9636 70.9824 30.9636 70.9824Z" fill="#407BFF"/>
<path opacity="0.2" d="M30.9636 70.9824C30.9636 70.9824 30.4914 70.6013 31.0009 70.4151C31.5104 70.2291 34.0106 70.282 34.0366 72.7586C34.0366 72.7586 31.1248 73.2424 30.7642 72.2991C30.4041 71.3558 30.9636 70.9824 30.9636 70.9824Z" fill="black"/>
<path d="M25.0258 65.4279C25.0258 65.4279 25.4981 65.0468 24.9885 64.8606C24.479 64.6744 21.9788 64.7272 21.9529 67.2038C21.9529 67.2038 24.8646 67.6879 25.2253 66.7443C25.5854 65.8013 25.0258 65.4279 25.0258 65.4279Z" fill="#407BFF"/>
<path opacity="0.2" d="M25.0258 65.4279C25.0258 65.4279 25.4981 65.0468 24.9885 64.8606C24.479 64.6744 21.9788 64.7272 21.9529 67.2038C21.9529 67.2038 24.8646 67.6879 25.2253 66.7443C25.5854 65.8013 25.0258 65.4279 25.0258 65.4279Z" fill="black"/>
<path d="M26.5651 67.4229C26.5651 67.4229 26.6067 66.9594 26.2326 67.1411C25.8585 67.3228 24.5551 68.7289 25.9062 70.0632C25.9062 70.0632 27.7248 68.7164 27.397 68.015C27.069 67.3134 26.5651 67.4229 26.5651 67.4229Z" fill="#407BFF"/>
<path opacity="0.2" d="M26.5651 67.4229C26.5651 67.4229 26.6067 66.9594 26.2326 67.1411C25.8585 67.3228 24.5551 68.7289 25.9062 70.0632C25.9062 70.0632 27.7248 68.7164 27.397 68.015C27.069 67.3134 26.5651 67.4229 26.5651 67.4229Z" fill="black"/>
<path d="M31.3856 68.0835C31.3856 68.0835 31.1034 67.7136 31.5168 67.6679C31.9301 67.6221 33.7827 68.1165 33.3513 69.9656C33.3513 69.9656 31.0944 69.7959 30.9979 69.0277C30.9009 68.2595 31.3856 68.0835 31.3856 68.0835Z" fill="#407BFF"/>
<path opacity="0.2" d="M31.3856 68.0835C31.3856 68.0835 31.1034 67.7136 31.5168 67.6679C31.9301 67.6221 33.7827 68.1165 33.3513 69.9656C33.3513 69.9656 31.0944 69.7959 30.9979 69.0277C30.9009 68.2595 31.3856 68.0835 31.3856 68.0835Z" fill="black"/>
<path d="M24.1096 85.378H31.4055L32.3752 78.2833H23.1398L24.1096 85.378Z" fill="#263238"/>
<path opacity="0.2" d="M24.1096 85.378H31.4055L32.3752 78.2833H23.1398L24.1096 85.378Z" fill="white"/>
<path d="M33.2899 77.7082V78.3822C33.2899 78.8332 32.9243 79.199 32.4731 79.199H22.951C22.5 79.199 22.1342 78.8334 22.1342 78.3822V77.7082H33.2899Z" fill="#263238"/>
<path d="M94.0746 10.4676H87.2947C86.1417 10.4676 85.2071 11.4024 85.2071 12.5552V18.4557C85.2071 19.6086 86.1419 20.5434 87.2947 20.5434H89.2743L88.7957 22.4063L90.6783 20.5434H94.0746C95.2274 20.5434 96.1622 19.6088 96.1622 18.4557V12.5552C96.1622 11.4024 95.2277 10.4676 94.0746 10.4676Z" fill="#407BFF"/>
<path opacity="0.7" d="M94.0746 10.4676H87.2947C86.1417 10.4676 85.2071 11.4024 85.2071 12.5552V18.4557C85.2071 19.6086 86.1419 20.5434 87.2947 20.5434H89.2743L88.7957 22.4063L90.6783 20.5434H94.0746C95.2274 20.5434 96.1622 19.6088 96.1622 18.4557V12.5552C96.1622 11.4024 95.2277 10.4676 94.0746 10.4676Z" fill="white"/>
<path d="M93.0631 17.8597C94.3772 16.5456 94.3772 14.4151 93.0631 13.101C91.7491 11.787 89.6185 11.787 88.3045 13.101C86.9904 14.4151 86.9904 16.5456 88.3045 17.8597C89.6185 19.1737 91.749 19.1737 93.0631 17.8597Z" fill="#407BFF"/>
<path d="M90.3315 16.983C90.2406 16.983 90.1545 16.9431 90.0957 16.874L88.7756 15.3185C88.6651 15.1882 88.6812 14.9933 88.8112 14.8826C88.9412 14.7724 89.1364 14.788 89.2471 14.9183L90.3315 16.196L92.1223 14.0861C92.2329 13.9556 92.4281 13.94 92.5582 14.0505C92.6884 14.1609 92.7045 14.3561 92.5938 14.4864L90.5673 16.8742C90.5085 16.9431 90.4224 16.983 90.3315 16.983Z" fill="white"/>
<path d="M92.9002 46.8708C92.9002 46.8708 88.7903 46.3535 82.5656 48.06C82.5656 48.06 81.5635 36.9354 81.6829 35.4073C81.8023 33.8792 91.2935 34.3267 91.2935 34.3267C91.2935 34.3267 91.5385 38.7791 92.1493 41.4655C92.76 44.1516 93.2132 46.3542 92.9002 46.8708Z" fill="#407BFF"/>
<path opacity="0.2" d="M92.9002 46.8708C92.9002 46.8708 88.7903 46.3535 82.5656 48.06C82.5656 48.06 81.5635 36.9354 81.6829 35.4073C81.8023 33.8792 91.2935 34.3267 91.2935 34.3267C91.2935 34.3267 91.5385 38.7791 92.1493 41.4655C92.76 44.1516 93.2132 46.3542 92.9002 46.8708Z" fill="black"/>
<path d="M79.5625 83.7019L81.2381 84.1763L81.6369 81.5685L81.8517 80.1737L80.1761 79.6994L79.8905 81.5685L79.5625 83.7019Z" fill="#E4897B"/>
<path d="M89.1957 83.8388L90.9233 84.0677L90.9398 81.5684L90.9516 80.0156L89.2217 79.789L89.2099 81.5684L89.1957 83.8388Z" fill="#E4897B"/>
<path opacity="0.2" d="M89.2216 79.789L89.2098 81.5684H90.9397L90.9515 80.0156L89.2216 79.789Z" fill="black"/>
<path opacity="0.2" d="M79.8902 81.5685H81.6366L81.8514 80.1737L80.1758 79.6994L79.8902 81.5685Z" fill="black"/>
<path d="M72.1237 36.3105L70.4604 35.8189L70.7641 37.7185C70.7641 37.7185 72.2745 38.0675 72.4215 37.2816L72.1237 36.3105Z" fill="#E4897B"/>
<path d="M68.8 36.26L69.6156 37.8046L70.764 37.7182L70.4602 35.8189L68.8 36.26Z" fill="#E4897B"/>
<path d="M74.4202 36.7959L71.6885 36.1844L71.4402 37.5112L73.9203 38.1161L74.4202 36.7959Z" fill="#E4897B"/>
<path d="M82.6883 35.5987C82.6883 35.5987 82.6293 35.6695 82.5278 35.7899C82.1832 36.1935 81.3407 37.1681 80.4769 38.0083C79.7689 38.6927 79.0515 39.2898 78.5842 39.4101C77.2461 39.7547 72.3821 38.3222 72.3821 38.3222L72.8848 36.3492C72.8848 36.3492 77.416 36.951 77.7677 36.951C78.0343 36.951 80.7908 32.9579 81.4587 32.6299L82.6883 35.5987Z" fill="#407BFF"/>
<path opacity="0.2" d="M82.5274 35.7899C82.1828 36.1935 81.3403 37.1681 80.4766 38.0083C80.6512 36.6253 81.1586 35.3557 81.8265 34.5533C81.8973 34.4683 81.9681 34.3975 82.0389 34.3456L82.5274 35.7899Z" fill="black"/>
<path d="M79.5829 83.4404L81.4857 83.3892C81.557 83.3873 81.6205 83.435 81.6384 83.5037L82.0382 85.036C82.0797 85.1948 81.9631 85.3497 81.7987 85.3513C81.1119 85.3582 80.1186 85.3449 79.2558 85.3681C78.2469 85.3952 77.6056 85.3457 76.4226 85.3775C75.7073 85.3969 75.4828 84.6823 75.78 84.6091C77.1325 84.2756 78.0165 84.3415 79.1684 83.5867C79.2933 83.5049 79.4325 83.4444 79.5829 83.4404Z" fill="#263238"/>
<path d="M79.4198 83.6847C79.4182 83.6854 79.4163 83.6859 79.4144 83.6863C79.1359 83.7496 78.6389 83.8315 78.4416 83.6682C78.3821 83.6188 78.3538 83.5525 78.3571 83.4704C78.3593 83.4216 78.3814 83.3831 78.4213 83.3592C78.6295 83.2342 79.342 83.5709 79.4224 83.6094C79.4382 83.617 79.4477 83.6337 79.4458 83.6509C79.4444 83.6663 79.434 83.6793 79.4198 83.6847ZM78.4789 83.423C78.4735 83.4251 78.4685 83.4272 78.464 83.4298C78.4478 83.4395 78.4404 83.4527 78.4395 83.4744C78.4374 83.5301 78.4551 83.5728 78.494 83.6052C78.6047 83.6967 78.8919 83.7057 79.2745 83.6316C78.9936 83.5079 78.6087 83.3741 78.4789 83.423Z" fill="#407BFF"/>
<path d="M79.4197 83.6847C79.41 83.6885 79.3992 83.6885 79.3893 83.6842C79.1757 83.596 78.7455 83.2321 78.7703 83.0352C78.7762 82.989 78.8068 82.9312 78.9199 82.9163C79.0039 82.9054 79.0815 82.9271 79.1514 82.9805C79.3796 83.1556 79.4433 83.6215 79.4459 83.6413C79.4478 83.6559 79.4419 83.6701 79.4301 83.679C79.4268 83.6814 79.4233 83.6833 79.4197 83.6847ZM78.8892 83.0074C78.8554 83.0201 78.8531 83.0388 78.8521 83.0461C78.8373 83.1643 79.1311 83.4513 79.3503 83.574C79.323 83.4381 79.251 83.1603 79.1011 83.0454C79.049 83.0053 78.9933 82.9897 78.931 82.9977C78.9135 83.0001 78.8998 83.0034 78.8892 83.0074Z" fill="#407BFF"/>
<path d="M89.2649 83.4404L91.1678 83.3892C91.2391 83.3873 91.3025 83.435 91.3205 83.5037L91.7203 85.036C91.7618 85.1948 91.6452 85.3497 91.4807 85.3513C90.794 85.3582 89.8006 85.3449 88.9378 85.3681C87.9289 85.3952 87.2877 85.3457 86.1046 85.3775C85.3893 85.3969 85.1649 84.6823 85.462 84.6091C86.8145 84.2756 87.6986 84.3415 88.8505 83.5867C88.9751 83.5049 89.1146 83.4444 89.2649 83.4404Z" fill="#263238"/>
<path d="M89.102 83.6847C89.1004 83.6854 89.0985 83.6859 89.0966 83.6863C88.8179 83.7496 88.3211 83.8315 88.1238 83.6682C88.0643 83.6188 88.036 83.5525 88.0393 83.4704C88.0414 83.4216 88.0636 83.3831 88.1035 83.3592C88.3117 83.2342 89.0242 83.5709 89.1046 83.6094C89.1204 83.617 89.1299 83.6337 89.128 83.6509C89.1266 83.6663 89.1162 83.6793 89.102 83.6847ZM88.1611 83.423C88.1557 83.4251 88.1507 83.4272 88.1462 83.4298C88.1299 83.4395 88.1226 83.4527 88.1219 83.4744C88.1198 83.5301 88.1375 83.5728 88.1764 83.6052C88.2871 83.6967 88.5743 83.7057 88.9569 83.6316C88.6758 83.5079 88.2909 83.3741 88.1611 83.423Z" fill="#407BFF"/>
<path d="M89.1019 83.6847C89.0922 83.6885 89.0814 83.6885 89.0715 83.6842C88.8579 83.596 88.4277 83.2321 88.4524 83.0352C88.4583 82.989 88.489 82.9312 88.6021 82.9163C88.6861 82.9054 88.764 82.9271 88.8336 82.9805C89.0618 83.1556 89.1255 83.6215 89.1281 83.6413C89.13 83.6559 89.1241 83.6701 89.1123 83.679C89.109 83.6814 89.1055 83.6833 89.1019 83.6847ZM88.5714 83.0074C88.5376 83.0201 88.5353 83.0388 88.5343 83.0461C88.5195 83.1643 88.8133 83.4513 89.0325 83.574C89.0051 83.4381 88.9332 83.1603 88.7833 83.0454C88.7312 83.0053 88.6755 82.9897 88.6134 82.9977C88.5955 83.0001 88.582 83.0034 88.5714 83.0074Z" fill="#407BFF"/>
<path d="M92.7595 45.856C93.6747 49.8245 92.1041 81.0353 92.1041 81.0353H89.0687L87.7709 55.0246L82.9908 81.0353L79.7467 80.7991C81.8674 60.6501 83.7422 48.6205 83.7422 48.6205L83.7377 47.1004L92.7595 45.856Z" fill="#263238"/>
<path opacity="0.4" d="M79.7462 80.7991L82.9912 81.0351L86.753 60.5597L87.7702 55.0255L89.0682 81.0351H92.1031C92.1031 81.0351 93.6749 49.8241 92.7592 45.8569L83.7369 47.1007L83.7416 48.6205C83.7416 48.6205 81.8678 60.6494 79.7462 80.7991Z" fill="white"/>
<path d="M91.1244 31.161C91.0147 33.1047 91.098 35.0434 91.2688 36.8488C91.3946 38.1695 91.5704 39.4181 91.7569 40.5448C92.1932 43.1859 92.6888 45.1652 92.7594 45.856C91.4373 46.0389 86.4547 46.7266 83.7376 47.1004C80.4478 37.9016 81.6868 32.5475 81.6868 32.5475C81.6868 32.5475 82.6274 32.1456 83.756 31.8395C83.9044 31.7982 84.0564 31.7609 84.2112 31.7252C85.2131 31.493 86.8868 31.3 88.047 31.1959C88.291 31.1742 88.539 31.1586 88.7811 31.1473C90.0135 31.0911 91.1244 31.161 91.1244 31.161Z" fill="#263238"/>
<path d="M86.2956 27.0215C86.3617 28.285 86.496 30.654 87.5457 31.2546C87.5457 31.2546 86.8923 32.4995 85.4784 32.626C84.4091 32.7218 84.4801 31.6671 84.4801 31.6671C85.0987 31.2048 84.9502 30.4239 84.4794 29.5434L86.2956 27.0215Z" fill="#E4897B"/>
<path opacity="0.2" d="M85.5553 28.0503L84.4801 29.542C84.5924 29.7502 84.6927 29.9647 84.7635 30.1795C85.2608 29.9807 85.8277 29.2458 85.7469 28.6948C85.7068 28.4198 85.6306 28.1647 85.5553 28.0503Z" fill="black"/>
<path d="M81.6941 24.4809C81.4879 25.1358 81.6009 26.4815 82.5161 26.0439C83.4313 25.6064 82.0486 23.3552 81.6941 24.4809Z" fill="#263238"/>
<path d="M86.4137 25.366C86.5142 27.0494 86.6591 28.0304 85.9169 28.9831C84.8006 30.4161 82.6382 29.8816 82.0349 28.2574C81.4919 26.7954 81.4187 24.2882 82.9785 23.4395C84.5153 22.6034 86.3131 23.6826 86.4137 25.366Z" fill="#E4897B"/>
<path d="M85.2335 24.4508V22.5701C85.2335 22.5701 87.2352 22.4214 87.1462 23.4459C88.255 23.9958 87.7308 25.7207 86.2417 26.5665C85.4256 25.9133 85.5188 24.3401 85.5188 24.3401C85.4308 24.3791 85.334 24.4156 85.2335 24.4508Z" fill="#263238"/>
<path d="M87.228 26.6805C87.1469 27.127 86.8658 27.4926 86.5545 27.6974C86.086 28.0056 85.6763 27.6269 85.6596 27.0947C85.6445 26.6156 85.8701 25.8781 86.411 25.7832C86.9437 25.69 87.321 26.17 87.228 26.6805Z" fill="#E4897B"/>
<path d="M83.9277 26.1174C83.9442 26.2536 83.8854 26.3721 83.7962 26.382C83.707 26.3919 83.6213 26.2897 83.6046 26.1535C83.5881 26.0174 83.6468 25.8989 83.736 25.889C83.8252 25.8791 83.9112 25.9812 83.9277 26.1174Z" fill="#263238"/>
<path d="M82.3852 26.2897C82.4017 26.4259 82.343 26.5443 82.2537 26.5542C82.1645 26.5642 82.0789 26.462 82.0621 26.3258C82.0456 26.1896 82.1044 26.0712 82.1936 26.0612C82.2828 26.0513 82.3684 26.1535 82.3852 26.2897Z" fill="#263238"/>
<path d="M82.8838 26.3027C82.8838 26.3027 82.6577 27.0942 82.3575 27.4999C82.6216 27.6859 83.0195 27.537 83.0195 27.537L82.8838 26.3027Z" fill="#DE5753"/>
<path d="M83.8143 27.9759C83.7593 27.9899 83.7005 28.0005 83.638 28.0076C83.6158 28.0099 83.5957 27.9941 83.5932 27.9722C83.5903 27.95 83.6068 27.9301 83.6283 27.9278C84.2278 27.8601 84.4562 27.4121 84.4586 27.4076C84.4682 27.3878 84.4928 27.38 84.5126 27.3897C84.5327 27.3996 84.5409 27.4239 84.531 27.4437C84.522 27.4617 84.325 27.8483 83.8143 27.9759Z" fill="#263238"/>
<path d="M84.343 25.5673C84.3159 25.5742 84.2857 25.5666 84.2647 25.5447C84.0143 25.2846 83.7216 25.3346 83.7186 25.3351C83.6747 25.3431 83.6324 25.3141 83.6239 25.2707C83.6154 25.227 83.6444 25.185 83.6879 25.177C83.7032 25.1741 84.0702 25.1111 84.3808 25.434C84.4117 25.4663 84.411 25.517 84.3789 25.5477C84.3685 25.5576 84.356 25.564 84.343 25.5673Z" fill="#263238"/>
<path d="M81.6559 25.8347C81.6411 25.8385 81.625 25.838 81.6094 25.8326C81.5672 25.8177 81.5448 25.7717 81.5594 25.7299C81.705 25.3096 82.0649 25.2216 82.0805 25.2154C82.1237 25.2051 82.1676 25.2317 82.1784 25.2747C82.1893 25.3176 82.1633 25.3608 82.1204 25.3717C82.1053 25.3747 81.8287 25.4462 81.7119 25.7835C81.7029 25.8099 81.6812 25.8283 81.6559 25.8347Z" fill="#263238"/>
<path d="M86.1221 25.1494C86.1221 25.1494 84.9487 24.7191 84.4033 24.0345C84.4033 24.0345 83.3323 24.3146 83.1128 24.7503C83.1128 24.7503 82.7414 24.439 83.0196 24.0345C83.0196 24.0345 82.2181 24.2037 82.0591 24.7503C82.0591 24.7503 81.6591 24.6132 81.6829 24.0345C81.6829 24.0345 81.3256 24.169 81.2128 24.7503C81.2128 24.7503 80.3264 22.9064 83.2502 22.3773C83.2502 22.3773 83.0194 22.2801 82.5653 22.2605C82.5653 22.2605 84.6048 21.4375 86.2231 22.1913C87.8415 22.9454 87.5458 24.3925 86.1221 25.1494Z" fill="#263238"/>
<path d="M93.4568 47.4436L90.6272 47.8212C90.6272 47.8212 89.459 39.6579 88.9445 37.0218V31.3908L90.4242 31.0014L91.5641 31.3908C91.8379 32.3042 92.0786 33.503 92.2886 34.8364C92.4279 35.7191 92.553 36.6631 92.6639 37.6189C92.8173 38.9216 92.9447 40.2479 93.0533 41.4893C93.2232 43.4929 93.3365 45.2676 93.3978 46.3485C93.438 47.0376 93.4568 47.4436 93.4568 47.4436Z" fill="#407BFF"/>
<path d="M88.9449 37.0211C88.9449 37.0211 89.1799 33.0497 90.4248 31.0007C90.4248 31.0007 90.3937 30.4145 90.1447 30.3211C89.8957 30.2276 88.9449 30.7879 88.9449 30.7879C88.9449 30.7879 88.3521 30.3834 88.2215 30.57C88.091 30.7567 87.776 32.0198 88.9449 37.0211Z" fill="#407BFF"/>
<path opacity="0.7" d="M88.9449 37.0211C88.9449 37.0211 89.1799 33.0497 90.4248 31.0007C90.4248 31.0007 90.3937 30.4145 90.1447 30.3211C89.8957 30.2276 88.9449 30.7879 88.9449 30.7879C88.9449 30.7879 88.3521 30.3834 88.2215 30.57C88.091 30.7567 87.776 32.0198 88.9449 37.0211Z" fill="white"/>
<path d="M82.5049 48.5365L82.8282 48.7701C82.8282 48.7701 82.361 46.1378 82.5498 39.4826C82.5592 39.1616 82.571 38.8524 82.5828 38.5574C82.8235 32.9265 83.6967 31.9022 83.7534 31.8409L82.9368 32.1194L81.4571 32.6291C81.0205 37.4341 82.5049 48.5365 82.5049 48.5365Z" fill="#407BFF"/>
<path d="M82.6333 37.5886C82.6333 37.5886 81.8161 33.7291 82.0591 32.3985C82.302 31.0679 83.1735 31.6591 83.1735 31.6591C83.1735 31.6591 83.9743 31.013 84.2119 31.725C84.2119 31.725 83.1129 32.4993 82.6333 37.5886Z" fill="#407BFF"/>
<path opacity="0.7" d="M82.6333 37.5886C82.6333 37.5886 81.8161 33.7291 82.0591 32.3985C82.302 31.0679 83.1735 31.6591 83.1735 31.6591C83.1735 31.6591 83.9743 31.013 84.2119 31.725C84.2119 31.725 83.1129 32.4993 82.6333 37.5886Z" fill="white"/>
<path opacity="0.2" d="M92.664 37.6189C91.4557 36.9416 91.2952 35.1739 91.2952 35.1739C91.3683 35.1456 91.8167 34.9922 92.2887 34.8365C92.428 35.7191 92.5531 36.6631 92.664 37.6189Z" fill="black"/>
<path opacity="0.2" d="M86.7532 60.5598L87.7704 55.0256L87.5745 52.0968C87.5745 52.0968 86.1797 57.1755 86.7532 60.5598Z" fill="black"/>
<path opacity="0.2" d="M93.3978 46.3485C92.6379 46.2966 91.9795 46.247 91.9795 46.247L91.8355 43.1578C91.8355 43.1578 92.0809 42.9525 92.6308 43.0115C92.6308 43.0115 92.8786 42.4073 93.0533 41.4893C93.2232 43.4929 93.3365 45.2676 93.3978 46.3485Z" fill="black"/>
<path d="M93.657 41.4862L92.1773 43.8623L93.3476 44.5351L94.7379 42.3941L93.657 41.4862Z" fill="#E4897B"/>
<path d="M91.5049 31.3611C92.5012 31.4706 96.7337 37.2803 96.9203 39.0319C97.107 40.7832 94.4341 43.8064 94.4341 43.8064L92.6478 42.7555C92.6478 42.7555 94.4617 39.9683 94.5552 39.2244C94.6486 38.4806 91.2401 35.431 91.2401 35.431C91.2401 35.431 90.8679 34.5351 90.8207 33.2456C90.7733 31.9561 91.5049 31.3611 91.5049 31.3611Z" fill="#407BFF"/>
<path d="M91.8342 43.1583C91.8342 43.1583 93.3575 43.4852 93.9695 44.4419C93.9695 44.4419 93.3337 46.4361 92.8787 46.6532C92.4239 46.8703 91.2937 46.8703 91.2937 46.8703C91.2937 46.8703 91.2213 44.6522 91.8342 43.1583Z" fill="#407BFF"/>
</svg>
