<svg width="24" height="24" viewBox="0 0 24 24" fill="none" xmlns="http://www.w3.org/2000/svg">
<g clip-path="url(#clip0_3263_26739)">
<path d="M15.5 16C15.224 16 15 16.224 15 16.5V17H1V4.5C1 2.57 2.57 1 4.5 1H12.5C12.776 1 13 0.776 13 0.5C13 0.224 12.776 0 12.5 0H4.5C2.019 0 0 2.019 0 4.5V19.5C0 21.981 2.019 24 4.5 24H11.5C13.981 24 16 21.981 16 19.5V16.5C16 16.224 15.776 16 15.5 16ZM11.5 23H4.5C2.57 23 1 21.43 1 19.5V18H15V19.5C15 21.43 13.43 23 11.5 23ZM15.354 7.377L14.208 8.523L15.354 9.669C15.549 9.864 15.549 10.181 15.354 10.376C15.256 10.474 15.128 10.522 15 10.522C14.872 10.522 14.744 10.473 14.646 10.376L13.5 9.23L12.354 10.376C12.256 10.474 12.128 10.522 12 10.522C11.872 10.522 11.744 10.473 11.646 10.376C11.451 10.181 11.451 9.864 11.646 9.669L12.792 8.523L11.646 7.377C11.451 7.182 11.451 6.865 11.646 6.67C11.841 6.475 12.158 6.475 12.353 6.67L13.499 7.816L14.645 6.67C14.84 6.475 15.157 6.475 15.352 6.67C15.547 6.865 15.547 7.182 15.352 7.377H15.354ZM21.373 7.377L20.227 8.523L21.373 9.669C21.568 9.864 21.568 10.181 21.373 10.376C21.275 10.474 21.147 10.522 21.019 10.522C20.891 10.522 20.763 10.473 20.665 10.376L19.519 9.23L18.373 10.376C18.275 10.474 18.147 10.522 18.019 10.522C17.891 10.522 17.763 10.473 17.665 10.376C17.47 10.181 17.47 9.864 17.665 9.669L18.811 8.523L17.665 7.377C17.47 7.182 17.47 6.865 17.665 6.67C17.86 6.475 18.177 6.475 18.372 6.67L19.518 7.816L20.664 6.67C20.859 6.475 21.176 6.475 21.371 6.67C21.566 6.865 21.566 7.182 21.371 7.377H21.373ZM9.375 7.377L8.229 8.523L9.375 9.669C9.57 9.864 9.57 10.181 9.375 10.376C9.277 10.474 9.149 10.522 9.021 10.522C8.893 10.522 8.765 10.473 8.667 10.376L7.521 9.23L6.375 10.376C6.277 10.474 6.149 10.522 6.021 10.522C5.893 10.522 5.765 10.473 5.667 10.376C5.472 10.181 5.472 9.864 5.667 9.669L6.813 8.523L5.667 7.377C5.472 7.182 5.472 6.865 5.667 6.67C5.862 6.475 6.179 6.475 6.374 6.67L7.52 7.816L8.666 6.67C8.861 6.475 9.178 6.475 9.373 6.67C9.568 6.865 9.568 7.182 9.373 7.377H9.375ZM20.501 3H6.5C4.57 3 3 4.57 3 6.5V10.5C3 12.43 4.57 14 6.5 14H20.5C22.43 14 24 12.43 24 10.5V6.5C24 4.57 22.431 3 20.501 3ZM23.001 10.5C23.001 11.878 21.88 13 20.501 13H6.5C5.121 13 4 11.878 4 10.5V6.5C4 5.122 5.121 4 6.5 4H20.5C21.879 4 23 5.122 23 6.5L23.001 10.5Z" fill="black"/>
<path d="M9.5 20C9.5 20.276 9.276 20.5 9 20.5H7C6.724 20.5 6.5 20.276 6.5 20C6.5 19.724 6.724 19.5 7 19.5H9C9.276 19.5 9.5 19.724 9.5 20Z" fill="black"/>
</g>
<defs>
<clipPath id="clip0_3263_26739">
<rect width="24" height="24" fill="white"/>
</clipPath>
</defs>
</svg>
