<svg width="40" height="40" viewBox="0 0 40 40" fill="none" xmlns="http://www.w3.org/2000/svg">
<g clip-path="url(#clip0_3329_9341)">
<path d="M27.5 12.0383V7.96333C27.5 6.97667 28.56 6.35333 29.4217 6.83167L33.09 8.87C33.9767 9.36333 33.9767 10.6383 33.09 11.1317L29.4217 13.17C28.56 13.6483 27.5 13.025 27.5 12.0383ZM20 10C20 4.485 24.485 0 30 0C35.515 0 40 4.485 40 10C40 15.515 35.515 20 30 20C24.485 20 20 15.515 20 10ZM23.3333 10C23.3333 13.6767 26.3233 16.6667 30 16.6667C33.6767 16.6667 36.6667 13.6767 36.6667 10C36.6667 6.32333 33.6767 3.33333 30 3.33333C26.3233 3.33333 23.3333 6.32333 23.3333 10ZM17.5 14.1667C17.5 11.865 15.635 10 13.3333 10C11.0317 10 9.16667 11.865 9.16667 14.1667C9.16667 16.4683 11.0317 18.3333 13.3333 18.3333C15.635 18.3333 17.5 16.4683 17.5 14.1667ZM38.3333 20C37.4117 20 36.6667 20.7467 36.6667 21.6667V25C36.6667 27.7567 34.4233 30 31.6667 30H8.33333C5.57667 30 3.33333 27.7567 3.33333 25V11.6667C3.33333 8.91 5.57667 6.66667 8.33333 6.66667H16.6667C17.5883 6.66667 18.3333 5.92 18.3333 5C18.3333 4.08 17.5883 3.33333 16.6667 3.33333H8.33333C3.73833 3.33333 0 7.07167 0 11.6667V25C0 29.595 3.73833 33.3333 8.33333 33.3333H18.3333V36.6667H11.6667C10.745 36.6667 10 37.4117 10 38.3333C10 39.255 10.745 40 11.6667 40H28.3333C29.255 40 30 39.255 30 38.3333C30 37.4117 29.255 36.6667 28.3333 36.6667H21.6667V33.3333H31.6667C36.2617 33.3333 40 29.595 40 25V21.6667C40 20.7467 39.255 20 38.3333 20ZM13.3333 20C10.3983 20 7.76167 21.7733 6.77167 24.415C6.45 25.2767 6.885 26.2367 7.74833 26.56C8.60333 26.8783 9.57 26.4483 9.89333 25.5833C10.3983 24.2367 11.78 23.3317 13.3317 23.3317C14.8833 23.3317 16.2667 24.2367 16.77 25.5833C17.0917 26.455 18.075 26.88 18.915 26.56C19.7783 26.2367 20.2133 25.275 19.8917 24.415C18.9017 21.7733 16.265 20 13.33 20H13.3333Z" fill="#1C274C"/>
</g>
<defs>
<clipPath id="clip0_3329_9341">
<rect width="40" height="40" fill="white"/>
</clipPath>
</defs>
</svg>
