<svg width="35" height="35" viewBox="0 0 35 35" fill="none" xmlns="http://www.w3.org/2000/svg">
<path opacity="0.5" d="M5.83301 32.082H29.1663" stroke="#1C274C" stroke-width="1.5" stroke-linecap="round"/>
<path d="M21.3344 4.26171L20.2531 5.34307L10.3116 15.2845C9.63828 15.9579 9.3016 16.2946 9.01206 16.6658C8.6705 17.1037 8.37767 17.5775 8.13874 18.0788C7.9362 18.5038 7.78563 18.9555 7.4845 19.8589L6.20845 23.6871L5.89653 24.6228C5.74834 25.0674 5.86405 25.5575 6.19541 25.8889C6.52678 26.2203 7.01692 26.336 7.46149 26.1878L8.39725 25.8759L12.2254 24.5998C13.1288 24.2987 13.5805 24.1481 14.0055 23.9456C14.5068 23.7066 14.9806 23.4138 15.4185 23.0723C15.7898 22.7827 16.1264 22.446 16.7998 21.7727L26.7412 11.8312L27.8226 10.7499C29.6143 8.95821 29.6143 6.05336 27.8226 4.26171C26.0309 2.47006 23.1261 2.47006 21.3344 4.26171Z" stroke="#1C274C" stroke-width="1.5"/>
<path opacity="0.5" d="M20.2536 5.34375C20.2536 5.34375 20.3888 7.64164 22.4163 9.66919C24.4439 11.6967 26.7418 11.8319 26.7418 11.8319M8.39778 25.8765L6.20898 23.6877" stroke="#1C274C" stroke-width="1.5"/>
</svg>
