<svg width="24" height="24" viewBox="0 0 24 24" fill="none" xmlns="http://www.w3.org/2000/svg">
<path d="M17.5 11C13.916 11 11 13.916 11 17.5C11 21.084 13.916 24 17.5 24C21.084 24 24 21.084 24 17.5C24 13.916 21.084 11 17.5 11ZM17.5 23C14.467 23 12 20.533 12 17.5C12 14.467 14.467 12 17.5 12C20.533 12 23 14.467 23 17.5C23 20.533 20.533 23 17.5 23ZM18.5 15C18.5 15.552 18.052 16 17.5 16C16.948 16 16.5 15.552 16.5 15C16.5 14.448 16.948 14 17.5 14C18.052 14 18.5 14.448 18.5 15ZM18 17.5V20.5C18 20.776 17.776 21 17.5 21C17.224 21 17 20.776 17 20.5V17.5C17 17.224 17.224 17 17.5 17C17.776 17 18 17.224 18 17.5ZM11 23.5C11 23.776 10.776 24 10.5 24H4.5C2.019 24 0 21.981 0 19.5V4.5C0 2.019 2.019 0 4.5 0H13.5C15.981 0 18 2.019 18 4.5V8.5C18 8.776 17.776 9 17.5 9C17.224 9 17 8.776 17 8.5V4.5C17 2.57 15.43 1 13.5 1H4.5C2.57 1 1 2.57 1 4.5V19.5C1 21.43 2.57 23 4.5 23H10.5C10.776 23 11 23.224 11 23.5ZM13.5 6H4.5C4.224 6 4 5.776 4 5.5C4 5.224 4.224 5 4.5 5H13.5C13.776 5 14 5.224 14 5.5C14 5.776 13.776 6 13.5 6ZM11.5 11H4.5C4.224 11 4 10.776 4 10.5C4 10.224 4.224 10 4.5 10H11.5C11.776 10 12 10.224 12 10.5C12 10.776 11.776 11 11.5 11ZM7.5 15C7.776 15 8 15.224 8 15.5C8 15.776 7.776 16 7.5 16H4.5C4.224 16 4 15.776 4 15.5C4 15.224 4.224 15 4.5 15H7.5Z" fill="black"/>
</svg>
