<svg width="47" height="53" viewBox="0 0 47 53" fill="none" xmlns="http://www.w3.org/2000/svg">
<path opacity="0.7" d="M0 21.9768C0 13.6276 0 9.45295 0.985735 8.04851C1.97147 6.64407 5.89673 5.30045 13.7473 2.61318L13.7473 2.61318L15.2429 2.1012C19.3352 0.700402 21.3814 0 23.5 0C25.6186 0 27.6648 0.700402 31.7571 2.10121L33.2527 2.61318C41.1033 5.30044 45.0285 6.64407 46.0143 8.04851C47 9.45295 47 13.6276 47 21.9768V26.0885C47 40.8102 35.9316 47.9543 28.9871 50.9879C27.1033 51.8108 26.1614 52.2222 23.5 52.2222C20.8386 52.2222 19.8967 51.8108 18.0129 50.9879C11.0684 47.9543 0 40.8102 0 26.0885V21.9768Z" fill="#ED1C24"/>
<path d="M23.5 13.7084C24.5816 13.7084 25.4583 14.5851 25.4583 15.6667V26.1111C25.4583 27.1927 24.5816 28.0695 23.5 28.0695C22.4184 28.0695 21.5417 27.1927 21.5417 26.1111V15.6667C21.5417 14.5851 22.4184 13.7084 23.5 13.7084Z" fill="white"/>
<path d="M23.5 36.5556C24.9421 36.5556 26.1111 35.3865 26.1111 33.9445C26.1111 32.5024 24.9421 31.3334 23.5 31.3334C22.0579 31.3334 20.8889 32.5024 20.8889 33.9445C20.8889 35.3865 22.0579 36.5556 23.5 36.5556Z" fill="white"/>
</svg>
