<svg width="20" height="33" viewBox="0 0 20 33" fill="none" xmlns="http://www.w3.org/2000/svg">
<path d="M1.29388 1.0736C1.02349 1.34344 0.808981 1.66394 0.662619 2.01678C0.516256 2.36962 0.440918 2.74786 0.440918 3.12985C0.440918 3.51184 0.516256 3.89009 0.662619 4.24292C0.808981 4.59576 1.02349 4.91627 1.29388 5.1861L12.6105 16.5028L1.29388 27.8194C0.748529 28.3648 0.442153 29.1044 0.442153 29.8757C0.442153 30.6469 0.748529 31.3866 1.29388 31.9319C1.83923 32.4773 2.57889 32.7837 3.35013 32.7837C4.12137 32.7837 4.86103 32.4773 5.40638 31.9319L18.7939 18.5444C19.0643 18.2746 19.2788 17.9541 19.4251 17.6013C19.5715 17.2484 19.6468 16.8702 19.6468 16.4882C19.6468 16.1062 19.5715 15.728 19.4251 15.3751C19.2788 15.0223 19.0643 14.7018 18.7939 14.4319L5.40638 1.04444C4.29805 -0.0638971 2.43138 -0.0638964 1.29388 1.0736Z" fill="white"/>
</svg>
