<svg width="148" height="131" viewBox="0 0 148 131" fill="none" xmlns="http://www.w3.org/2000/svg">
<mask id="mask0_3289_6387" style="mask-type:luminance" maskUnits="userSpaceOnUse" x="9" y="14" width="129" height="116">
<path fill-rule="evenodd" clip-rule="evenodd" d="M9.69226 14.4139H137.911V129.489H9.69226V14.4139Z" fill="url(#paint0_linear_3289_6387)"/>
</mask>
<g mask="url(#mask0_3289_6387)">
<path fill-rule="evenodd" clip-rule="evenodd" d="M23.5148 15.1771H124.174C131.382 15.1771 137.233 21.0284 137.233 28.2365V115.751C137.233 122.959 131.382 128.811 124.174 128.811H23.5148C16.3067 128.811 10.4554 122.959 10.4554 115.751V28.2365C10.4554 21.0284 16.3067 15.1771 23.5148 15.1771Z" fill="white"/>
</g>
<mask id="mask1_3289_6387" style="mask-type:luminance" maskUnits="userSpaceOnUse" x="8" y="13" width="132" height="118">
<path fill-rule="evenodd" clip-rule="evenodd" d="M8.58984 13.5659H139.099V130.422H8.58984V13.5659Z" fill="url(#paint1_linear_3289_6387)"/>
</mask>
<g mask="url(#mask1_3289_6387)">
<path d="M25.0412 13.5659H122.647C127.142 13.5659 131.297 15.1771 134.265 17.7212L134.35 17.806C137.233 20.35 139.099 23.9116 139.099 27.7277V116.175C139.099 120.076 137.233 123.638 134.265 126.182C131.297 128.726 127.142 130.337 122.647 130.337H25.0412C20.5468 130.337 16.3915 128.726 13.4235 126.182C10.4555 123.638 8.58984 120.076 8.58984 116.175V27.7277C8.58984 23.8268 10.4555 20.2652 13.4235 17.7212C16.3915 15.1771 20.5468 13.5659 25.0412 13.5659ZM122.647 16.7036H25.0412C21.4796 16.7036 18.342 17.9756 15.9675 19.926C13.6779 21.9612 12.2363 24.6749 12.2363 27.7277V116.175C12.2363 119.228 13.6779 122.026 15.9675 123.977C18.2572 126.012 21.4796 127.199 25.0412 127.199H122.647C126.209 127.199 129.347 125.927 131.721 123.977C134.011 121.942 135.452 119.228 135.452 116.175V27.7277C135.452 24.7597 134.011 21.9612 131.806 20.0108L131.721 19.926C129.431 17.8908 126.209 16.7036 122.647 16.7036Z" fill="white"/>
</g>
<path d="M36.9982 120.924C36.4894 120.924 35.8958 120.924 35.3022 120.839C34.7086 120.754 34.1998 120.67 33.691 120.5C33.1822 120.33 32.6733 120.161 32.2493 119.991C31.9101 119.822 31.6557 119.567 31.4861 119.313C31.3165 119.058 31.3165 118.719 31.3165 118.38C31.3165 118.041 31.4861 117.786 31.6557 117.532C31.8253 117.278 32.0797 117.108 32.4189 117.023C32.7581 116.938 33.0974 116.938 33.4366 117.193C33.9454 117.447 34.539 117.617 35.1326 117.786C35.811 117.956 36.4046 117.956 36.9134 117.956C37.7614 117.956 38.4398 117.871 38.779 117.617C39.1182 117.362 39.2878 117.108 39.2878 116.769C39.2878 116.43 39.203 116.175 38.9486 116.006C38.6942 115.836 38.2702 115.666 37.6766 115.497L35.3022 114.988C34.0302 114.734 33.0973 114.225 32.4189 113.546C31.8253 112.868 31.4861 112.02 31.4861 111.002C31.4861 110.324 31.6557 109.646 31.9101 109.137C32.1645 108.543 32.5885 108.119 33.0973 107.695C33.6062 107.271 34.2846 107.017 34.963 106.762C35.7262 106.508 36.4894 106.423 37.4222 106.423C38.1006 106.423 38.779 106.508 39.5422 106.677C40.2206 106.847 40.899 107.102 41.4079 107.356C41.7471 107.526 41.9167 107.695 42.0863 108.034C42.2559 108.289 42.2559 108.628 42.2559 108.882C42.2559 109.222 42.0863 109.476 41.9167 109.646C41.7471 109.9 41.4927 109.985 41.1535 110.07C40.8142 110.154 40.475 110.07 40.051 109.9C39.627 109.73 39.203 109.561 38.779 109.476C38.2702 109.391 37.8462 109.306 37.3374 109.306C36.8286 109.306 36.4046 109.391 36.0654 109.476C35.7262 109.561 35.4718 109.73 35.3022 109.985C35.1326 110.239 35.0478 110.409 35.0478 110.748C35.0478 111.002 35.1326 111.257 35.387 111.426C35.6414 111.596 36.0654 111.766 36.659 111.935L38.9486 112.444C40.2206 112.698 41.2383 113.207 41.8319 113.801C42.5103 114.479 42.7647 115.242 42.7647 116.345C42.7647 117.023 42.5951 117.702 42.3407 118.21C42.0863 118.804 41.6623 119.228 41.1535 119.652C40.6446 120.076 39.9662 120.33 39.2878 120.585C38.5246 120.839 37.7614 120.924 36.8286 120.924H36.9982ZM49.6336 120.924C49.0399 120.924 48.6159 120.754 48.2767 120.415C47.9375 120.076 47.7679 119.652 47.7679 119.058V109.646H44.6303C44.1215 109.646 43.7823 109.476 43.5279 109.222C43.2735 108.967 43.1039 108.628 43.1039 108.119C43.1039 107.61 43.2735 107.271 43.5279 107.017C43.7823 106.762 44.2063 106.677 44.6303 106.677H54.6368C55.1456 106.677 55.4848 106.762 55.7392 107.017C55.9936 107.271 56.1632 107.61 56.1632 108.119C56.1632 108.628 55.9936 108.967 55.7392 109.222C55.4848 109.476 55.0608 109.646 54.6368 109.646H51.4992V119.058C51.4992 119.652 51.3296 120.076 51.0752 120.415C50.736 120.754 50.312 120.924 49.7184 120.924H49.6336ZM63.3713 120.924C61.9297 120.924 60.6577 120.585 59.6401 119.991C58.5377 119.398 57.6897 118.55 57.096 117.447C56.5024 116.345 56.248 115.073 56.248 113.631C56.248 112.529 56.4176 111.511 56.7568 110.663C57.096 109.73 57.6049 108.967 58.1985 108.374C58.7921 107.695 59.5553 107.271 60.4881 106.932C61.3361 106.593 62.3537 106.423 63.3713 106.423C64.8129 106.423 66.085 106.762 67.1026 107.356C68.205 107.95 69.053 108.798 69.6466 109.9C70.2402 111.002 70.5794 112.274 70.5794 113.716C70.5794 114.818 70.4098 115.836 70.0706 116.684C69.7314 117.617 69.2226 118.38 68.629 118.974C68.0354 119.652 67.2722 120.076 66.3394 120.415C65.4914 120.754 64.4737 120.924 63.4561 120.924H63.3713ZM63.3713 117.871C64.0497 117.871 64.6433 117.702 65.1521 117.362C65.661 117.023 66.0002 116.514 66.2546 115.921C66.509 115.327 66.6786 114.564 66.6786 113.631C66.6786 112.274 66.4242 111.257 65.8306 110.578C65.2369 109.815 64.3889 109.476 63.3713 109.476C62.6929 109.476 62.0993 109.646 61.5905 109.985C61.0817 110.324 60.7425 110.748 60.4033 111.426C60.1489 112.02 59.9793 112.783 59.9793 113.716C59.9793 115.073 60.2337 116.09 60.8273 116.769C61.4209 117.532 62.2689 117.871 63.2865 117.871H63.3713ZM74.5651 120.924C73.9715 120.924 73.5474 120.754 73.2082 120.415C72.869 120.076 72.6994 119.652 72.6994 119.058V108.458C72.6994 107.865 72.869 107.356 73.2082 107.102C73.5474 106.762 73.9715 106.593 74.5651 106.593H79.4835C81.0947 106.593 82.282 107.017 83.2148 107.78C84.0628 108.543 84.4868 109.646 84.4868 111.002C84.4868 111.935 84.3172 112.698 83.8932 113.292C83.4692 113.97 82.9604 114.479 82.1972 114.818C81.434 115.158 80.5859 115.327 79.4835 115.327L79.6531 114.988H80.5859C81.1795 114.988 81.6884 115.158 82.1124 115.412C82.5364 115.666 82.9604 116.09 83.2148 116.684L84.2324 118.465C84.4868 118.889 84.5716 119.228 84.5716 119.567C84.5716 119.906 84.402 120.246 84.1476 120.5C83.8932 120.754 83.4692 120.839 82.9604 120.839C82.4516 120.839 82.0276 120.754 81.6884 120.5C81.3491 120.246 81.0947 119.991 80.8403 119.482L79.0595 116.175C78.8899 115.921 78.7203 115.666 78.4659 115.582C78.2115 115.497 77.9571 115.412 77.6179 115.412H76.5155V118.974C76.5155 119.567 76.3459 119.991 76.0915 120.33C75.7523 120.67 75.3283 120.839 74.7347 120.839L74.5651 120.924ZM76.4307 112.868H78.8899C79.5683 112.868 80.1619 112.698 80.5011 112.444C80.8403 112.19 81.0947 111.766 81.0947 111.172C81.0947 110.578 80.9251 110.154 80.5011 109.9C80.1619 109.646 79.5683 109.476 78.8899 109.476H76.4307V112.868ZM88.7268 120.924C88.1332 120.924 87.7092 120.754 87.37 120.415C87.0308 120.076 86.8612 119.652 86.8612 119.058V108.374C86.8612 107.78 87.0308 107.271 87.37 106.932C87.7092 106.593 88.1332 106.423 88.7268 106.423C89.3204 106.423 89.7444 106.593 90.0837 106.932C90.4229 107.271 90.5925 107.695 90.5925 108.374V119.058C90.5925 119.652 90.4229 120.161 90.1685 120.415C89.8293 120.754 89.4052 120.924 88.8116 120.924H88.7268ZM95.0869 120.754C94.4933 120.754 93.9845 120.585 93.6453 120.246C93.3061 119.906 93.1365 119.482 93.1365 118.804V108.458C93.1365 107.865 93.3061 107.356 93.6453 107.017C93.9845 106.677 94.4085 106.508 95.0869 106.508H101.871C102.38 106.508 102.719 106.593 102.973 106.847C103.228 107.102 103.313 107.441 103.313 107.865C103.313 108.289 103.228 108.713 102.973 108.967C102.719 109.222 102.38 109.306 101.871 109.306H96.6981V112.02H101.447C101.956 112.02 102.295 112.105 102.549 112.359C102.804 112.614 102.889 112.953 102.889 113.462C102.889 113.97 102.804 114.31 102.549 114.564C102.295 114.818 101.956 114.903 101.447 114.903H96.6981V117.786H101.871C102.38 117.786 102.719 117.871 102.973 118.126C103.228 118.38 103.313 118.719 103.313 119.143C103.313 119.652 103.228 119.991 102.973 120.246C102.719 120.5 102.38 120.585 101.871 120.585H95.0869V120.754ZM110.521 121.009C110.012 121.009 109.418 121.009 108.825 120.924C108.231 120.839 107.722 120.754 107.213 120.585C106.705 120.415 106.196 120.246 105.772 120.076C105.433 119.906 105.178 119.652 105.009 119.398C104.839 119.143 104.839 118.804 104.839 118.465C104.839 118.126 105.009 117.871 105.178 117.617C105.348 117.362 105.602 117.193 105.941 117.108C106.281 117.023 106.62 117.023 106.959 117.278C107.468 117.532 108.061 117.702 108.655 117.871C109.333 118.041 109.927 118.041 110.436 118.041C111.284 118.041 111.962 117.956 112.302 117.702C112.641 117.447 112.81 117.193 112.81 116.854C112.81 116.514 112.726 116.26 112.471 116.09C112.217 115.921 111.793 115.751 111.199 115.582L108.825 115.073C107.553 114.818 106.62 114.31 105.941 113.631C105.348 112.953 105.009 112.105 105.009 111.087C105.009 110.409 105.178 109.73 105.433 109.222C105.687 108.628 106.111 108.204 106.62 107.78C107.129 107.356 107.807 107.102 108.485 106.847C109.249 106.593 110.012 106.508 110.945 106.508C111.623 106.508 112.302 106.593 113.065 106.762C113.743 106.932 114.422 107.186 114.93 107.441C115.27 107.61 115.439 107.78 115.609 108.119C115.778 108.374 115.778 108.713 115.778 108.967C115.778 109.306 115.609 109.561 115.439 109.73C115.27 109.985 115.015 110.07 114.676 110.154C114.337 110.239 113.998 110.154 113.574 109.985C113.15 109.815 112.726 109.646 112.302 109.561C111.793 109.476 111.369 109.391 110.86 109.391C110.351 109.391 109.927 109.476 109.588 109.561C109.249 109.646 108.994 109.815 108.825 110.07C108.655 110.324 108.57 110.494 108.57 110.833C108.57 111.087 108.655 111.342 108.909 111.511C109.164 111.681 109.588 111.85 110.182 112.02L112.471 112.529C113.743 112.783 114.761 113.292 115.354 113.886C116.033 114.564 116.287 115.327 116.287 116.43C116.287 117.108 116.118 117.786 115.863 118.295C115.609 118.889 115.185 119.313 114.676 119.737C114.167 120.161 113.489 120.415 112.81 120.67C112.047 120.924 111.284 121.009 110.351 121.009H110.521Z" stroke="black" stroke-width="1.86132" stroke-miterlimit="2.61313" stroke-linecap="round" stroke-linejoin="round"/>
<path d="M36.9982 120.924C36.4894 120.924 35.8958 120.924 35.3022 120.839C34.7086 120.754 34.1998 120.67 33.691 120.5C33.1822 120.33 32.6733 120.161 32.2493 119.991C31.9101 119.822 31.6557 119.567 31.4861 119.313C31.3165 119.058 31.3165 118.719 31.3165 118.38C31.3165 118.041 31.4861 117.786 31.6557 117.532C31.8253 117.278 32.0797 117.108 32.4189 117.023C32.7581 116.938 33.0974 116.938 33.4366 117.193C33.9454 117.447 34.539 117.617 35.1326 117.786C35.811 117.956 36.4046 117.956 36.9134 117.956C37.7614 117.956 38.4398 117.871 38.779 117.617C39.1182 117.362 39.2878 117.108 39.2878 116.769C39.2878 116.43 39.203 116.175 38.9486 116.006C38.6942 115.836 38.2702 115.666 37.6766 115.497L35.3022 114.988C34.0302 114.734 33.0973 114.225 32.4189 113.546C31.8253 112.868 31.4861 112.02 31.4861 111.002C31.4861 110.324 31.6557 109.646 31.9101 109.137C32.1645 108.543 32.5885 108.119 33.0973 107.695C33.6062 107.271 34.2846 107.017 34.963 106.762C35.7262 106.508 36.4894 106.423 37.4222 106.423C38.1006 106.423 38.779 106.508 39.5422 106.677C40.2206 106.847 40.899 107.102 41.4079 107.356C41.7471 107.526 41.9167 107.695 42.0863 108.034C42.2559 108.289 42.2559 108.628 42.2559 108.882C42.2559 109.222 42.0863 109.476 41.9167 109.646C41.7471 109.9 41.4927 109.985 41.1535 110.07C40.8142 110.154 40.475 110.07 40.051 109.9C39.627 109.73 39.203 109.561 38.779 109.476C38.2702 109.391 37.8462 109.306 37.3374 109.306C36.8286 109.306 36.4046 109.391 36.0654 109.476C35.7262 109.561 35.4718 109.73 35.3022 109.985C35.1326 110.239 35.0478 110.409 35.0478 110.748C35.0478 111.002 35.1326 111.257 35.387 111.426C35.6414 111.596 36.0654 111.766 36.659 111.935L38.9486 112.444C40.2206 112.698 41.2383 113.207 41.8319 113.801C42.5103 114.479 42.7647 115.242 42.7647 116.345C42.7647 117.023 42.5951 117.702 42.3407 118.21C42.0863 118.804 41.6623 119.228 41.1535 119.652C40.6446 120.076 39.9662 120.33 39.2878 120.585C38.5246 120.839 37.7614 120.924 36.8286 120.924H36.9982ZM49.6336 120.924C49.0399 120.924 48.6159 120.754 48.2767 120.415C47.9375 120.076 47.7679 119.652 47.7679 119.058V109.646H44.6303C44.1215 109.646 43.7823 109.476 43.5279 109.222C43.2735 108.967 43.1039 108.628 43.1039 108.119C43.1039 107.61 43.2735 107.271 43.5279 107.017C43.7823 106.762 44.2063 106.677 44.6303 106.677H54.6368C55.1456 106.677 55.4848 106.762 55.7392 107.017C55.9936 107.271 56.1632 107.61 56.1632 108.119C56.1632 108.628 55.9936 108.967 55.7392 109.222C55.4848 109.476 55.0608 109.646 54.6368 109.646H51.4992V119.058C51.4992 119.652 51.3296 120.076 51.0752 120.415C50.736 120.754 50.312 120.924 49.7184 120.924H49.6336ZM63.3713 120.924C61.9297 120.924 60.6577 120.585 59.6401 119.991C58.5377 119.398 57.6897 118.55 57.096 117.447C56.5024 116.345 56.248 115.073 56.248 113.631C56.248 112.529 56.4176 111.511 56.7568 110.663C57.096 109.73 57.6049 108.967 58.1985 108.374C58.7921 107.695 59.5553 107.271 60.4881 106.932C61.3361 106.593 62.3537 106.423 63.3713 106.423C64.8129 106.423 66.085 106.762 67.1026 107.356C68.205 107.95 69.053 108.798 69.6466 109.9C70.2402 111.002 70.5794 112.274 70.5794 113.716C70.5794 114.818 70.4098 115.836 70.0706 116.684C69.7314 117.617 69.2226 118.38 68.629 118.974C68.0354 119.652 67.2722 120.076 66.3394 120.415C65.4914 120.754 64.4737 120.924 63.4561 120.924H63.3713ZM63.3713 117.871C64.0497 117.871 64.6433 117.702 65.1521 117.362C65.661 117.023 66.0002 116.514 66.2546 115.921C66.509 115.327 66.6786 114.564 66.6786 113.631C66.6786 112.274 66.4242 111.257 65.8306 110.578C65.2369 109.815 64.3889 109.476 63.3713 109.476C62.6929 109.476 62.0993 109.646 61.5905 109.985C61.0817 110.324 60.7425 110.748 60.4033 111.426C60.1489 112.02 59.9793 112.783 59.9793 113.716C59.9793 115.073 60.2337 116.09 60.8273 116.769C61.4209 117.532 62.2689 117.871 63.2865 117.871H63.3713ZM74.5651 120.924C73.9715 120.924 73.5475 120.754 73.2082 120.415C72.869 120.076 72.6994 119.652 72.6994 119.058V108.458C72.6994 107.865 72.869 107.356 73.2082 107.102C73.5475 106.762 73.9715 106.593 74.5651 106.593H79.4835C81.0947 106.593 82.282 107.017 83.2148 107.78C84.0628 108.543 84.4868 109.646 84.4868 111.002C84.4868 111.935 84.3172 112.698 83.8932 113.292C83.4692 113.97 82.9604 114.479 82.1972 114.818C81.434 115.158 80.5859 115.327 79.4835 115.327L79.6531 114.988H80.5859C81.1795 114.988 81.6884 115.158 82.1124 115.412C82.5364 115.666 82.9604 116.09 83.2148 116.684L84.2324 118.465C84.4868 118.889 84.5716 119.228 84.5716 119.567C84.5716 119.906 84.402 120.246 84.1476 120.5C83.8932 120.754 83.4692 120.839 82.9604 120.839C82.4516 120.839 82.0276 120.754 81.6884 120.5C81.3491 120.246 81.0947 119.991 80.8403 119.482L79.0595 116.175C78.8899 115.921 78.7203 115.666 78.4659 115.582C78.2115 115.497 77.9571 115.412 77.6179 115.412H76.5155V118.974C76.5155 119.567 76.3459 119.991 76.0915 120.33C75.7523 120.67 75.3283 120.839 74.7347 120.839L74.5651 120.924ZM76.4307 112.868H78.8899C79.5683 112.868 80.1619 112.698 80.5011 112.444C80.8403 112.19 81.0947 111.766 81.0947 111.172C81.0947 110.578 80.9251 110.154 80.5011 109.9C80.1619 109.646 79.5683 109.476 78.8899 109.476H76.4307V112.868ZM88.7268 120.924C88.1332 120.924 87.7092 120.754 87.37 120.415C87.0308 120.076 86.8612 119.652 86.8612 119.058V108.374C86.8612 107.78 87.0308 107.271 87.37 106.932C87.7092 106.593 88.1332 106.423 88.7268 106.423C89.3204 106.423 89.7444 106.593 90.0837 106.932C90.4229 107.271 90.5925 107.695 90.5925 108.374V119.058C90.5925 119.652 90.4229 120.161 90.1685 120.415C89.8293 120.754 89.4052 120.924 88.8116 120.924H88.7268ZM95.0869 120.754C94.4933 120.754 93.9845 120.585 93.6453 120.246C93.3061 119.906 93.1365 119.482 93.1365 118.804V108.458C93.1365 107.865 93.3061 107.356 93.6453 107.017C93.9845 106.677 94.4085 106.508 95.0869 106.508H101.871C102.38 106.508 102.719 106.593 102.973 106.847C103.228 107.102 103.313 107.441 103.313 107.865C103.313 108.289 103.228 108.713 102.973 108.967C102.719 109.222 102.38 109.306 101.871 109.306H96.6981V112.02H101.447C101.956 112.02 102.295 112.105 102.549 112.359C102.804 112.614 102.889 112.953 102.889 113.462C102.889 113.97 102.804 114.31 102.549 114.564C102.295 114.818 101.956 114.903 101.447 114.903H96.6981V117.786H101.871C102.38 117.786 102.719 117.871 102.973 118.126C103.228 118.38 103.313 118.719 103.313 119.143C103.313 119.652 103.228 119.991 102.973 120.246C102.719 120.5 102.38 120.585 101.871 120.585H95.0869V120.754ZM110.521 121.009C110.012 121.009 109.418 121.009 108.825 120.924C108.231 120.839 107.722 120.754 107.213 120.585C106.705 120.415 106.196 120.246 105.772 120.076C105.433 119.906 105.178 119.652 105.009 119.398C104.839 119.143 104.839 118.804 104.839 118.465C104.839 118.126 105.009 117.871 105.178 117.617C105.348 117.362 105.602 117.193 105.941 117.108C106.281 117.023 106.62 117.023 106.959 117.278C107.468 117.532 108.061 117.702 108.655 117.871C109.333 118.041 109.927 118.041 110.436 118.041C111.284 118.041 111.962 117.956 112.302 117.702C112.641 117.447 112.81 117.193 112.81 116.854C112.81 116.514 112.726 116.26 112.471 116.09C112.217 115.921 111.793 115.751 111.199 115.582L108.825 115.073C107.553 114.818 106.62 114.31 105.941 113.631C105.348 112.953 105.009 112.105 105.009 111.087C105.009 110.409 105.178 109.73 105.433 109.222C105.687 108.628 106.111 108.204 106.62 107.78C107.129 107.356 107.807 107.102 108.485 106.847C109.249 106.593 110.012 106.508 110.945 106.508C111.623 106.508 112.302 106.593 113.065 106.762C113.743 106.932 114.422 107.186 114.93 107.441C115.27 107.61 115.439 107.78 115.609 108.119C115.778 108.374 115.778 108.713 115.778 108.967C115.778 109.306 115.609 109.561 115.439 109.73C115.27 109.985 115.015 110.07 114.676 110.154C114.337 110.239 113.998 110.154 113.574 109.985C113.15 109.815 112.726 109.646 112.302 109.561C111.793 109.476 111.369 109.391 110.86 109.391C110.351 109.391 109.927 109.476 109.588 109.561C109.249 109.646 108.994 109.815 108.825 110.07C108.655 110.324 108.57 110.494 108.57 110.833C108.57 111.087 108.655 111.342 108.909 111.511C109.164 111.681 109.588 111.85 110.182 112.02L112.471 112.529C113.743 112.783 114.761 113.292 115.354 113.886C116.033 114.564 116.287 115.327 116.287 116.43C116.287 117.108 116.118 117.786 115.863 118.295C115.609 118.889 115.185 119.313 114.676 119.737C114.167 120.161 113.489 120.415 112.81 120.67C112.047 120.924 111.284 121.009 110.351 121.009H110.521Z" fill="white"/>
<path fill-rule="evenodd" clip-rule="evenodd" d="M2.22982 44.2639C-0.99262 51.7264 0.364197 60.3761 3.92584 66.2274L4.34985 66.7362L4.77385 67.4994L5.19786 68.0082L6.46987 69.7043C7.06348 69.7043 6.89388 69.5346 6.89388 70.2131L8.5899 71.9091C9.26831 71.9091 9.0987 71.7395 9.0987 72.4179C12.0667 74.7075 13.1692 75.6403 17.3244 76.9971C23.0909 78.8628 24.2781 78.0996 28.3485 78.0147C32.3342 95.0598 51.4992 96.5014 59.4705 85.4772L61.0817 83.1876C62.5234 88.4453 69.3922 91.6677 74.5651 92.5157C76.6003 92.8549 77.7027 92.4309 79.4836 92.1765C81.6884 91.8373 81.434 92.0917 83.2996 93.1941C93.3061 99.2998 108.316 95.7382 114.93 85.0532C116.202 83.018 117.983 79.5412 118.238 76.7427C123.919 78.0996 129.601 80.3892 137.403 75.7251C140.116 74.1139 141.812 72.4179 143.678 69.9587C144.95 68.2626 147.409 64.1922 146.816 61.3089C148.257 51.8112 143.763 44.2639 136.215 40.2783C132.739 38.4127 131.806 39.0063 128.414 37.9039C127.311 35.1054 127.566 27.2189 118.831 24.1661C109.588 20.9436 104.924 27.5581 102.634 28.7453C101.193 21.8765 94.663 18.654 87.6245 18.5692C87.0309 16.534 86.4373 15.6012 85.25 13.9052L82.3668 9.6651C80.5012 8.30829 78.8052 6.27306 76.2611 4.83144C73.8867 3.47463 71.5123 2.28741 68.3746 1.5242C52.008 -2.80065 33.3518 7.88428 32.5038 29.8478C26.6525 29.5934 21.7341 27.2189 12.9148 32.2222C4.94345 36.7166 3.41703 43.0767 2.06022 44.4335L2.22982 44.2639Z" fill="white"/>
<path fill-rule="evenodd" clip-rule="evenodd" d="M70.4098 76.1491C69.7314 71.909 68.9682 67.5842 68.205 63.3441C67.6114 60.1217 65.661 54.1856 67.2722 51.896C70.749 46.9775 74.9891 43.0767 83.13 41.2111L88.7269 64.1921C84.1476 65.7186 81.858 66.6514 78.2115 69.1954C74.8195 71.5698 73.2083 74.1987 70.4098 76.2339V76.1491ZM44.7151 47.9951C51.6688 46.6383 59.8097 49.776 63.1169 52.6592C65.237 54.5248 65.4066 60.6305 66.085 64.1073C66.8482 68.2626 67.6962 72.5026 68.205 76.6579C61.3361 73.6051 57.3505 70.637 47.0047 71.4002C46.4959 67.245 44.1215 50.624 44.7151 47.9103V47.9951ZM63.7954 80.1347C55.2304 79.3715 55.0608 77.0819 41.2383 78.6083C40.8143 77.0819 39.1183 59.5281 40.0511 58.1713C40.8143 60.8001 41.4927 70.7218 41.8319 74.6227C42.3407 80.1347 45.4783 74.1139 59.3857 78.3539L63.2018 79.7955C63.2866 79.8803 63.4562 79.9651 63.4562 79.9651C63.541 80.0499 63.6258 80.1347 63.7106 80.1347H63.7954ZM90.9317 49.2672C91.8645 50.2 96.359 66.4818 96.6134 68.8562C92.2037 70.2978 89.2357 70.9762 85.0804 72.8419C81.434 74.5379 78.4659 76.9123 75.3283 78.3539C77.8723 74.9619 86.098 70.0434 91.6949 68.6866C95.8502 67.669 95.511 68.941 93.1365 59.7825C92.6277 57.6625 90.3381 50.5392 90.8469 49.1824L90.9317 49.2672ZM78.2115 71.9938C79.3988 70.9762 80.5012 70.2978 81.9428 69.4498C85.5892 67.3298 87.5397 67.245 91.2709 65.8034C91.2709 60.9697 85.7588 45.7055 86.522 43.4159C87.6245 44.9423 92.2037 63.3441 92.4581 66.3122C88.8965 67.245 85.7588 68.517 82.7908 70.1282C79.738 71.7394 77.7875 73.6899 75.1587 75.1315L78.2115 71.9938ZM44.3759 74.7075C43.6127 72.0786 42.8495 60.9697 42.4255 56.7297C42.2559 55.1184 41.5775 52.5744 42.3407 51.1328C43.8671 54.016 43.6127 69.5346 45.2239 73.5203C45.3087 73.5203 45.4783 73.6051 45.4783 73.6051L46.4111 73.7747C51.2448 73.8595 54.3824 72.7571 61.7601 76.0643C62.0145 76.1491 62.6081 76.4883 62.8625 76.5731C63.6258 77.0819 63.2017 76.7427 63.6258 77.1667C61.0817 76.8275 57.8593 75.4707 54.552 74.9619C51.3296 74.4531 47.8528 74.1987 44.4607 74.7075H44.3759ZM40.0511 55.7968C36.4046 56.4753 37.1678 56.5601 37.507 60.5457C39.7967 87.3428 36.0654 80.1347 48.4464 80.3891C53.8736 80.4739 58.5377 81.0676 63.6258 82.594C65.661 83.1876 68.7138 84.714 70.749 84.2052C72.9539 83.6964 80.6708 76.6579 90.5925 72.9267C94.8325 71.3154 99.0726 71.909 99.0726 69.365C99.1574 67.5842 94.8326 53.7616 93.8997 50.2848C92.6277 45.6207 93.4757 47.2319 89.9141 46.6383L88.3029 40.6174L85.5044 40.9567C84.9108 38.667 85.7588 37.6494 79.6532 39.5998C69.5618 42.8223 66.7634 49.6064 64.5586 51.1328C61.1665 47.1471 50.5664 43.5007 42.3407 45.9599V48.504C41.1535 48.7584 40.3055 48.928 39.5423 49.4368L40.1359 55.6272L40.0511 55.7968Z" fill="#FF0066"/>
<path fill-rule="evenodd" clip-rule="evenodd" d="M59.0466 43.9248C59.8946 42.1439 56.8418 36.8863 55.9089 34.851C53.7889 30.1022 53.1953 26.9645 50.9905 27.3038C50.1425 29.2542 53.1953 34.2574 54.1281 36.3775C56.2482 41.1263 56.757 44.1792 59.0466 43.84V43.9248ZM48.1073 37.6495C46.7504 36.2079 44.5456 32.731 42.256 33.2398C41.832 34.7662 42.7648 35.5295 43.7824 36.4623C45.9872 38.5823 50.9057 44.7728 52.3473 43.5856C53.7889 42.3983 49.1249 38.6671 48.1073 37.5647V37.6495ZM74.0564 39.7695C75.8372 40.1087 76.0916 38.8367 76.6852 37.3951C78.1268 33.7486 81.4341 28.8302 80.3317 26.7949C78.3812 26.8797 78.5508 27.8126 77.7876 29.4238L74.65 36.3775C74.4804 36.7167 73.8868 37.9887 73.8868 38.0735C73.378 39.9391 74.1412 39.8543 74.1412 39.8543L74.0564 39.7695ZM61.0818 32.9854C60.573 34.7662 62.1842 43.5008 63.117 45.3664C64.9827 45.0272 64.9827 44.8576 64.7283 42.9919C64.5587 41.6351 64.2194 40.1935 63.965 38.8367C63.2018 34.5966 63.541 32.4766 61.0818 33.0702V32.9854ZM60.0642 19.5869C57.4354 19.5021 58.7074 22.3005 59.1314 24.6749C59.4706 26.7101 59.725 29.2542 60.573 30.7806C63.3714 30.3566 61.9298 27.5582 60.997 22.1309C60.573 19.5869 60.3186 20.1805 60.2338 19.8413C60.2338 19.6717 60.0642 19.6717 60.0642 19.5869ZM68.6291 42.3983C69.7315 41.5503 69.6467 41.6351 69.7315 39.7695C69.9859 36.9711 70.6643 32.307 69.4771 31.1198C67.8659 31.3742 68.0355 31.7134 67.8659 33.3246C67.6963 34.5118 67.6963 35.6991 67.6963 36.8015C67.3571 41.3807 66.7635 41.6351 68.6291 42.3135V42.3983ZM68.7139 30.187C71.2579 30.1022 70.5795 29.1694 70.7491 26.6253C70.9187 24.4205 71.5123 23.6573 70.0707 22.5549C67.5267 23.0637 68.3747 29.339 68.7139 30.187ZM50.5665 23.1485C49.8033 21.6221 49.9729 20.9437 48.4465 20.4349C46.92 21.5373 47.4288 21.7917 48.3617 23.7421C49.1249 25.4381 48.9553 25.8621 50.3969 26.4557C52.0929 25.3533 51.4993 25.0141 50.6513 23.1485H50.5665ZM57.4354 12.5484C57.0962 14.0748 57.605 16.7884 58.2834 18.3996C60.4882 18.3148 60.3186 17.806 59.8946 15.4316C59.5554 13.3116 59.6402 12.0396 57.4354 12.4636V12.5484ZM70.8339 16.7884C69.3075 16.8732 69.3075 17.1276 69.0531 18.4844C68.8835 19.6717 68.7139 21.0285 69.6467 21.6221C71.5971 22.8093 71.7667 18.3996 70.8339 16.7884ZM56.4178 54.6097C56.9266 56.2209 56.5026 58.2561 55.2305 57.5777C54.3825 57.0689 55.4849 56.3905 55.6545 56.1361C56.2482 55.5425 56.1634 55.0337 56.333 54.6097H56.4178ZM52.4321 63.5138C51.9233 62.8354 51.5841 61.9026 51.5841 60.885C51.5841 59.9522 51.7537 59.1889 52.0929 58.5105C52.3473 58.0017 52.9409 57.0689 53.4497 56.8145C53.3649 58.4257 54.7217 59.4433 56.2482 59.1889C57.8594 58.8497 58.1986 57.3233 58.2834 55.9665C59.301 56.3057 60.4034 57.0689 61.0818 58.2561C62.8626 61.4786 60.7426 65.4642 57.0962 65.8034C55.3153 65.973 53.5345 65.0402 52.5169 63.5986L52.4321 63.5138ZM57.3506 67.245C58.3682 67.1602 59.3858 66.7362 60.149 66.3122C63.4562 64.1922 64.1347 60.037 62.0146 56.9841C61.1666 55.7969 59.3858 54.5249 58.029 54.3553C57.605 52.8289 56.5026 51.9809 55.4849 51.5569C54.8065 51.3024 53.9585 51.6417 54.1281 52.5745C54.2977 53.2529 54.8913 52.9985 54.9761 54.4401C52.1777 55.2033 50.3969 57.4929 50.1425 60.037C49.9729 61.5634 50.3121 63.0898 51.0753 64.3618C52.4321 66.4818 54.8065 67.6691 57.3506 67.4146V67.245Z" fill="#FF0066"/>
<path fill-rule="evenodd" clip-rule="evenodd" d="M54.9761 63.4289C55.8241 65.2097 58.8769 64.7009 59.1313 62.6657L54.9761 63.4289ZM53.6193 60.3761C53.6193 60.3761 53.3648 60.4609 53.28 60.8001C53.1952 61.3937 53.8737 61.9873 54.4673 61.5633C55.1457 61.0545 54.3825 59.7825 53.6193 60.3761ZM58.7921 59.4433C58.4529 59.6977 58.3681 60.1217 58.6225 60.4609C58.7921 60.7153 59.3009 60.8849 59.6401 60.6305C60.3185 60.1217 59.6401 58.8497 58.7921 59.4433ZM80.0772 56.984C79.9924 56.984 79.8228 57.0688 79.8228 57.0688C79.738 57.0688 79.6532 57.0688 79.5684 56.984C79.314 56.8992 79.2292 56.7296 79.1444 56.4752C78.9748 55.9664 78.8052 55.4576 78.7204 55.0336C78.6356 54.7792 78.5508 53.9312 78.8052 53.7616C78.9748 53.6768 79.3988 54.1008 79.5684 54.2704C79.9076 54.6944 80.586 55.7968 80.586 56.2208C80.586 56.56 80.4164 56.8144 80.162 56.984H80.0772ZM69.7315 54.6944L74.1411 65.1249C74.2259 65.3793 74.5651 65.3793 74.6499 65.0401C74.7347 64.7857 74.7347 64.5313 74.8195 64.2769C74.8195 64.1921 74.8195 64.1073 74.9043 64.0225L74.9891 63.6833C75.1587 63.2593 75.3283 62.8353 75.5827 62.4113C75.6675 62.3265 75.6675 62.2417 75.7523 62.2417C75.8371 62.1569 75.8371 62.0721 75.9219 62.0721C76.5155 61.4785 77.618 61.3937 78.2964 61.3937H78.6356C78.8052 61.3937 78.89 61.4785 79.0596 61.4785H79.1444C79.314 61.5633 79.2292 61.4785 79.3988 61.4785C79.5684 61.3937 79.4836 61.1393 79.5684 60.9697C79.6532 60.6305 79.738 60.2065 79.9076 59.8673C80.162 59.2737 80.586 58.7649 81.0948 58.3409C81.3492 58.1713 81.858 57.7473 82.1972 57.6625C82.282 57.6625 82.282 57.5776 82.3668 57.5776C82.4516 57.5776 82.5364 57.4928 82.6212 57.4928C82.8756 57.3232 82.706 56.8992 82.3668 57.0688C82.1124 57.1536 81.7732 57.3232 81.5188 57.4928C81.434 57.5777 80.9252 57.8321 80.8404 58.0017L80.586 57.3232C80.6708 57.2384 80.7556 57.2384 80.8404 57.0688C80.9252 56.984 81.01 56.8992 81.01 56.7296C81.0948 56.4752 81.0948 56.136 81.01 55.8816C80.7556 55.2032 80.4164 54.6096 79.9924 54.016C79.8228 53.7616 79.6532 53.592 79.3988 53.4224C78.9748 53.0832 78.466 53.168 78.2964 53.592C78.042 54.1856 78.2116 55.2032 78.3812 55.7968C78.5508 56.3056 78.7204 56.984 79.1444 57.3232C79.1444 57.3232 79.2292 57.3232 79.2292 57.408C79.3988 57.4928 79.6532 57.5776 79.9076 57.5776H80.162L80.5012 58.4257C80.3316 58.5105 79.9924 59.0193 79.9076 59.1889C79.9076 59.2737 79.8228 59.2737 79.8228 59.3585C79.6532 59.5281 79.5684 59.7825 79.4836 60.0369C79.3988 60.2913 79.1444 60.9697 79.2292 61.1393C78.5508 60.9697 77.9572 60.9697 77.2787 61.1393C77.1091 61.1393 76.9395 61.2241 76.8547 61.2241C76.7699 61.2241 76.6851 61.3089 76.6003 61.3089H76.5155C76.2611 61.3937 76.2611 61.3937 76.0067 61.6481C75.4979 62.0721 75.1587 62.5809 74.9043 63.1745C74.7347 63.4289 74.7347 63.5985 74.6499 63.8529C74.6499 63.9377 74.6499 63.9377 74.5651 64.0225C74.5651 64.1073 74.5651 64.1073 74.4803 64.1921L70.4947 54.6944L80.5012 50.4544L84.7412 60.4609L75.4131 64.4465C75.0739 64.6161 75.3283 65.0401 75.5827 64.9553L85.1652 60.8849C85.3348 60.8001 85.3348 60.7153 85.3348 60.5457L80.9252 50.1152C80.8404 49.9456 80.7556 49.9456 80.586 49.9456L70.1555 54.3552C69.9859 54.44 69.9859 54.5248 69.9859 54.6944H69.7315Z" fill="#FF0066"/>
<path fill-rule="evenodd" clip-rule="evenodd" d="M70.4099 53.592L79.3988 49.776C79.738 49.6064 79.4836 49.4368 79.9924 49.0128C80.586 48.5888 81.434 48.928 81.6036 49.6912C81.6884 50.1152 81.5188 50.2 81.434 50.3696V50.624L85.2501 59.6129C85.3349 59.6977 85.3349 59.7825 85.4197 59.7825C85.5893 59.8673 85.7589 59.8673 86.0133 60.1217C86.1829 60.3761 86.2677 60.7153 86.1829 60.9697L86.0981 61.1393C85.8437 61.5633 85.3349 61.7329 84.9109 61.5633C84.9109 61.5633 84.8261 61.5633 84.8261 61.4785C84.8261 61.4785 84.7413 61.4785 84.7413 61.3937H84.4869L75.498 65.2098C75.2436 65.2946 75.3284 65.3794 75.2436 65.549C75.1588 65.7186 75.074 65.8034 74.9892 65.8882C74.8196 65.973 74.6499 66.0578 74.4803 66.0578C74.2259 66.0578 73.9715 65.973 73.8019 65.8882C73.5475 65.7186 73.4627 65.549 73.3779 65.2098C73.3779 65.0402 73.3779 64.8706 73.4627 64.701C73.5475 64.5314 73.6323 64.4466 73.5475 64.277L69.7315 55.2881C69.5619 54.9489 69.3075 55.2033 68.9683 54.6945C68.8835 54.5249 68.7987 54.3553 68.7987 54.1857V53.8465C68.8835 53.6769 68.9683 53.5072 69.1379 53.3376C69.4771 53.0832 69.8163 53.0832 70.2403 53.168C70.3251 53.168 70.3251 53.168 70.3251 53.2528H70.5795L70.4099 53.592ZM68.9683 53.0832L69.1379 52.9984C69.3075 52.9136 69.5619 52.9136 69.7315 52.9136C69.8163 52.9136 69.9011 52.9136 69.9859 52.9984C70.0707 52.9984 70.1555 53.0832 70.2403 53.0832L79.1444 49.352C79.2292 49.352 79.2292 49.1824 79.2292 49.0976C79.3988 48.7584 79.6532 48.5888 79.9924 48.4192C80.6708 48.1648 81.5188 48.504 81.858 49.1824L81.9428 49.352C82.0276 49.5216 82.0276 49.776 82.0276 49.9456C82.0276 50.0304 82.0276 50.1152 81.9428 50.2C81.9428 50.2848 81.858 50.3696 81.858 50.4544L85.5893 59.3585C85.5893 59.4433 85.7589 59.4433 85.8437 59.4433C86.1829 59.6129 86.3525 59.8673 86.5221 60.2065C86.6917 60.5457 86.6069 61.0545 86.5221 61.3089C86.3525 61.6481 86.0981 61.9025 85.8437 62.0722L85.6741 62.157C85.4197 62.2418 85.0805 62.2418 84.7413 62.157C84.6565 62.157 84.5717 62.0722 84.4869 62.0722L75.5828 65.8034C75.498 65.8034 75.498 66.0578 75.3284 66.3122C75.1588 66.4818 74.9892 66.6514 74.8196 66.7362L74.65 66.821C74.4804 66.9058 74.3107 66.9058 74.1411 66.9058C73.5475 66.9058 73.1235 66.5666 72.8691 66.1426L72.7843 65.973C72.6995 65.7186 72.6995 65.3794 72.7843 65.125C72.7843 65.0402 72.8691 64.9554 72.8691 64.8706L69.1379 55.9665C69.1379 55.8817 68.9683 55.8817 68.8835 55.8817C68.5443 55.7121 68.3747 55.4577 68.2051 55.1185C67.9507 54.4401 68.2899 53.592 68.9683 53.2528V53.0832Z" fill="#FF0066"/>
<path fill-rule="evenodd" clip-rule="evenodd" d="M74.8196 57.0689C74.5652 57.1537 74.226 57.1537 74.0564 56.9841C73.802 56.8145 73.7172 56.3905 73.802 56.1361C74.0564 55.6273 74.9044 55.4577 75.1588 56.1361C75.3284 56.4753 75.1588 56.8993 74.8196 57.0689ZM73.4628 54.6945L73.802 55.3729L73.4628 55.7121L73.2932 56.1361C73.2932 56.2209 73.2084 56.4753 73.2932 56.6449L72.6147 56.9841C72.3603 57.0689 72.5299 57.5777 72.8692 57.4081L73.5476 57.1537L73.8868 57.4929L73.6324 58.0865C73.6324 58.1713 73.5476 58.2561 73.6324 58.4257C73.7172 58.5953 73.802 58.5953 73.9716 58.5105C74.0564 58.4257 74.1412 58.2561 74.226 58.0865C74.3108 58.0017 74.3956 57.7473 74.3956 57.6625H74.8196C74.9044 57.8321 75.074 58.4257 75.1588 58.4257C75.3284 58.5105 75.5828 58.4257 75.5828 58.2561C75.5828 58.0865 75.3284 57.5777 75.2436 57.4081L75.5828 57.0689C75.6676 57.0689 76.0916 57.2385 76.2612 57.3233C76.346 57.4081 76.4308 57.4081 76.5156 57.3233C76.6852 57.2385 76.77 56.9841 76.4308 56.8145C76.2612 56.7297 75.8372 56.5601 75.7524 56.5601V56.1361C75.922 56.0513 76.4308 55.8817 76.5156 55.7969C76.6852 55.6273 76.5156 55.4577 76.346 55.3729C76.2612 55.3729 75.6676 55.6273 75.498 55.7121C75.4132 55.5425 75.2436 55.4577 75.1588 55.3729C75.2436 55.2881 75.3284 54.8641 75.4132 54.7793C75.498 54.6945 75.498 54.6097 75.4132 54.5249C75.3284 54.4401 75.2436 54.3553 75.1588 54.3553C74.9892 54.4401 74.9044 54.6945 74.8196 54.8641C74.8196 54.9489 74.7348 55.1185 74.7348 55.2033H74.226L73.9716 54.5249C73.802 54.1857 73.378 54.3553 73.4628 54.6945ZM78.2964 16.534C78.9748 19.1629 80.6708 20.2653 83.3845 20.0957C80.7556 20.7741 79.6532 22.4701 79.8228 25.1837C79.1444 22.5549 77.4484 21.4525 74.7348 21.6221C77.3636 20.9437 78.466 19.2477 78.2964 16.534ZM69.9011 5.50989C70.5795 8.13872 72.2755 9.24113 74.9892 9.07153C72.3603 9.74994 71.2579 11.446 71.4275 14.1596C70.7491 11.5308 69.0531 10.4283 66.3395 10.598C68.9683 9.91954 70.0707 8.22352 69.9011 5.50989ZM51.3297 11.87C52.0081 14.4988 53.7041 15.6012 56.4177 15.4316C53.7889 16.11 52.6865 17.806 52.8561 20.5197C52.1777 17.8908 50.4817 16.7884 47.768 16.958C50.3969 16.2796 51.4993 14.5836 51.3297 11.87ZM38.9487 21.2829C39.6271 23.9117 41.3232 25.0141 44.0368 24.8445C41.408 25.5229 40.3055 27.219 40.4751 29.9326C39.7967 27.3038 38.1007 26.2013 35.3871 26.3709C38.0159 25.6925 39.1183 23.9965 38.9487 21.2829Z" fill="#FF0066"/>
<defs>
<linearGradient id="paint0_linear_3289_6387" x1="73.0386" y1="187.663" x2="73.0386" y2="39.5151" gradientUnits="userSpaceOnUse">
<stop stop-color="white"/>
<stop offset="1" stop-color="white" stop-opacity="0"/>
</linearGradient>
<linearGradient id="paint1_linear_3289_6387" x1="72.9538" y1="190.8" x2="72.9538" y2="38.5822" gradientUnits="userSpaceOnUse">
<stop stop-color="white"/>
<stop offset="1" stop-color="white" stop-opacity="0"/>
</linearGradient>
</defs>
</svg>
