<svg width="47" height="47" viewBox="0 0 47 47" fill="none" xmlns="http://www.w3.org/2000/svg">
<rect width="47" height="47" rx="15" fill="black" fill-opacity="0.15"/>
<path opacity="0.5" fill-rule="evenodd" clip-rule="evenodd" d="M26.9212 8.71478C26.3652 8.48621 25.6603 8.48621 24.2505 8.48621C22.8407 8.48621 22.1358 8.48621 21.5798 8.71478C20.8384 9.01954 20.2494 9.60411 19.9424 10.3399C19.8022 10.6757 19.7473 11.0663 19.7258 11.6361C19.6943 12.4734 19.2616 13.2485 18.5305 13.6674C17.7993 14.0863 16.9067 14.0707 16.1602 13.6791C15.6523 13.4127 15.284 13.2646 14.9209 13.2171C14.1253 13.1132 13.3207 13.3271 12.684 13.8119C12.2066 14.1755 11.8541 14.7814 11.1492 15.993C10.4443 17.2047 10.0919 17.8106 10.0133 18.4027C9.90861 19.1923 10.1242 19.9908 10.6127 20.6227C10.8357 20.911 11.149 21.1535 11.6354 21.4567C12.3504 21.9026 12.8104 22.6621 12.8104 23.5001C12.8103 24.3381 12.3503 25.0975 11.6354 25.5433C11.149 25.8466 10.8355 26.089 10.6126 26.3774C10.1241 27.0093 9.90846 27.8078 10.0132 28.5974C10.0918 29.1895 10.4442 29.7954 11.1491 31.007C11.854 32.2187 12.2064 32.8246 12.6839 33.1882C13.3205 33.673 14.1251 33.8869 14.9207 33.783C15.2839 33.7355 15.6521 33.5874 16.16 33.321C16.9065 32.9294 17.7992 32.9138 18.5304 33.3328C19.2616 33.7517 19.6943 34.5268 19.7258 35.3642C19.7473 35.9339 19.8022 36.3245 19.9424 36.6603C20.2494 37.3961 20.8384 37.9807 21.5798 38.2854C22.1358 38.514 22.8407 38.514 24.2505 38.514C25.6603 38.514 26.3652 38.514 26.9212 38.2854C27.6626 37.9807 28.2516 37.3961 28.5587 36.6603C28.6988 36.3244 28.7537 35.9338 28.7752 35.364C28.8067 34.5268 29.2393 33.7517 29.9705 33.3327C30.7017 32.9137 31.5944 32.9293 32.3409 33.3209C32.8487 33.5873 33.217 33.7354 33.5801 33.7829C34.3757 33.8868 35.1803 33.6729 35.817 33.1881C36.2944 32.8244 36.6469 32.2186 37.3518 31.0069C38.0567 29.7953 38.4091 29.1894 38.4877 28.5973C38.5924 27.8077 38.3768 27.0092 37.8883 26.3773C37.6653 26.0889 37.3519 25.8465 36.8655 25.5432C36.1506 25.0974 35.6906 24.3379 35.6907 23.5C35.6907 22.6621 36.1507 21.9027 36.8655 21.457C37.352 21.1536 37.6654 20.9112 37.8884 20.6228C38.3769 19.9909 38.5925 19.1924 38.4878 18.4028C38.4092 17.8107 38.0568 17.2048 37.3519 15.9932C36.647 14.7815 36.2946 14.1756 35.8171 13.812C35.1805 13.3272 34.3759 13.1133 33.5803 13.2172C33.2171 13.2647 32.8489 13.4128 32.341 13.6792C31.5945 14.0708 30.7018 14.0864 29.9706 13.6674C29.2394 13.2485 28.8067 12.4734 28.7752 11.636C28.7537 11.0663 28.6988 10.6757 28.5587 10.3399C28.2516 9.60411 27.6626 9.01954 26.9212 8.71478Z" fill="white"/>
<path d="M28.7888 23.5C28.7888 25.9876 26.7569 28.0042 24.2504 28.0042C21.7439 28.0042 19.7119 25.9876 19.7119 23.5C19.7119 21.0124 21.7439 18.9958 24.2504 18.9958C26.7569 18.9958 28.7888 21.0124 28.7888 23.5Z" fill="white"/>
</svg>
