<svg width="44" height="44" viewBox="0 0 44 44" fill="none" xmlns="http://www.w3.org/2000/svg">
<circle cx="21.7031" cy="21.7032" r="5.33203" stroke="#1C274C" stroke-width="1.57087"/>
<path opacity="0.5" d="M24.8409 4.20027C24.1876 3.92969 23.3595 3.92969 21.7032 3.92969C20.0469 3.92969 19.2188 3.92969 18.5656 4.20027C17.6946 4.56105 17.0025 5.25306 16.6418 6.12405C16.4771 6.52166 16.4126 6.98406 16.3874 7.65854C16.3503 8.64974 15.842 9.56723 14.983 10.0632C14.124 10.5591 13.0753 10.5406 12.1983 10.0771C11.6016 9.76169 11.1689 9.5863 10.7422 9.53013C9.80755 9.40707 8.86225 9.66036 8.11431 10.2343C7.55335 10.6647 7.13928 11.3819 6.31114 12.8163C5.483 14.2507 5.06894 14.9679 4.97664 15.6689C4.85359 16.6036 5.10688 17.5489 5.6808 18.2968C5.94275 18.6382 6.31091 18.9252 6.8823 19.2842C7.72229 19.812 8.26277 20.7111 8.26271 21.7032C8.26266 22.6951 7.72221 23.5941 6.88229 24.1218C6.31081 24.4809 5.94261 24.7679 5.68062 25.1093C5.10671 25.8573 4.85341 26.8026 4.97647 27.7373C5.06876 28.4383 5.48283 29.1555 6.31097 30.5898C7.13911 32.0242 7.55318 32.7414 8.11413 33.1718C8.86208 33.7458 9.80737 33.9991 10.7421 33.876C11.1687 33.8198 11.6014 33.6445 12.1981 33.3291C13.0751 32.8656 14.1239 32.847 14.9829 33.343C15.842 33.839 16.3503 34.7565 16.3874 35.7478C16.4126 36.4222 16.4771 36.8846 16.6418 37.2822C17.0025 38.1532 17.6946 38.8452 18.5656 39.206C19.2188 39.4766 20.0469 39.4766 21.7032 39.4766C23.3595 39.4766 24.1876 39.4766 24.8409 39.206C25.7119 38.8452 26.4039 38.1532 26.7647 37.2822C26.9294 36.8846 26.9938 36.4222 27.019 35.7477C27.0561 34.7565 27.5644 33.839 28.4233 33.343C29.2824 32.847 30.3312 32.8655 31.2082 33.329C31.8049 33.6444 32.2375 33.8197 32.6642 33.8759C33.5989 33.9989 34.5442 33.7456 35.2921 33.1717C35.8531 32.7413 36.2672 32.0241 37.0953 30.5897C37.9234 29.1553 38.3375 28.4382 38.4298 27.7371C38.5528 26.8024 38.2996 25.8571 37.7256 25.1092C37.4637 24.7678 37.0955 24.4808 36.524 24.1217C35.6841 23.594 35.1437 22.6949 35.1437 21.703C35.1438 20.7111 35.6842 19.8122 36.524 19.2845C37.0956 18.9254 37.4638 18.6384 37.7258 18.2969C38.2997 17.549 38.553 16.6037 38.43 15.669C38.3377 14.968 37.9236 14.2508 37.0955 12.8164C36.2673 11.382 35.8533 10.6648 35.2923 10.2344C34.5444 9.66049 33.5991 9.40719 32.6644 9.53025C32.2377 9.58642 31.8051 9.76179 31.2084 10.0772C30.3314 10.5407 29.2826 10.5592 28.4235 10.0632C27.5645 9.56725 27.0561 8.64971 27.019 7.65845C26.9938 6.98401 26.9294 6.52164 26.7647 6.12405C26.4039 5.25306 25.7119 4.56105 24.8409 4.20027Z" stroke="#1C274C" stroke-width="1.57087"/>
</svg>
