<svg width="92" height="78" viewBox="0 0 92 78" fill="none" xmlns="http://www.w3.org/2000/svg">
<path d="M45.9999 77.9358C71.2712 77.9358 91.7577 76.7394 91.7577 75.2635C91.7577 73.7877 71.2712 72.5913 45.9999 72.5913C20.7286 72.5913 0.242096 73.7877 0.242096 75.2635C0.242096 76.7394 20.7286 77.9358 45.9999 77.9358Z" fill="#F5F5F5"/>
<path d="M62.9813 66.2696H20.7562C19.8027 66.2696 19.0296 65.4967 19.0296 64.543V14.8244C19.0296 13.8709 19.8025 13.0978 20.7562 13.0978H62.9811C63.9345 13.0978 64.7076 13.8707 64.7076 14.8244V64.543C64.7079 65.4964 63.9347 66.2696 62.9813 66.2696Z" fill="#407BFF"/>
<path opacity="0.6" d="M62.9813 66.2696H20.7562C19.8027 66.2696 19.0296 65.4967 19.0296 64.543V14.8244C19.0296 13.8709 19.8025 13.0978 20.7562 13.0978H62.9811C63.9345 13.0978 64.7076 13.8707 64.7076 14.8244V64.543C64.7079 65.4964 63.9347 66.2696 62.9813 66.2696Z" fill="white"/>
<path d="M57.3076 37.4821H26.4301V42.7692H57.3076V37.4821Z" fill="white"/>
<g opacity="0.4">
<path d="M29.1912 40.64V40.7785H28.1198V39.2634H29.1587V39.4019H28.28V39.941H29.0635V40.0771H28.28V40.64H29.1912Z" fill="#263238"/>
<path d="M29.4078 40.125H29.9749V40.2591H29.4078V40.125Z" fill="#263238"/>
<path d="M32.1978 40.1184V40.7785H32.0441V40.1335C32.0441 39.8933 31.9228 39.7701 31.7173 39.7701C31.4836 39.7701 31.3364 39.9216 31.3364 40.1812V40.7785H31.1827V40.1335C31.1827 39.8933 31.0614 39.7701 30.8538 39.7701C30.6222 39.7701 30.4729 39.9216 30.4729 40.1812V40.7785H30.3192V39.64H30.4665V39.8479C30.5465 39.7115 30.6937 39.6315 30.8842 39.6315C31.0725 39.6315 31.2196 39.7115 31.2889 39.8718C31.3713 39.7248 31.5337 39.6315 31.7392 39.6315C32.0161 39.6315 32.1978 39.7918 32.1978 40.1184Z" fill="#263238"/>
<path d="M33.4745 40.0728V40.7784H33.3273V40.601C33.2581 40.7178 33.1239 40.7893 32.9355 40.7893C32.678 40.7893 32.5199 40.655 32.5199 40.4582C32.5199 40.2828 32.6325 40.1358 32.9594 40.1358H33.3207V40.0664C33.3207 39.8717 33.2102 39.7658 32.9983 39.7658C32.851 39.7658 32.7125 39.8177 32.6195 39.8998L32.5504 39.7851C32.6651 39.6879 32.8338 39.6317 33.0134 39.6317C33.3079 39.6315 33.4745 39.7785 33.4745 40.0728ZM33.3209 40.4365V40.2503H32.9638C32.7429 40.2503 32.6717 40.3369 32.6717 40.4537C32.6717 40.5859 32.7776 40.668 32.9596 40.668C33.1326 40.668 33.2603 40.5859 33.3209 40.4365Z" fill="#263238"/>
<path d="M33.8579 39.2809C33.8579 39.2226 33.9077 39.1728 33.9704 39.1728C34.0332 39.1728 34.083 39.2205 34.083 39.2788C34.083 39.3415 34.0353 39.3913 33.9704 39.3913C33.9077 39.3911 33.8579 39.3413 33.8579 39.2809ZM33.8923 39.6401H34.046V40.7785H33.8923V39.6401Z" fill="#263238"/>
<path d="M34.4745 39.1725H34.6281V40.7785H34.4745V39.1725Z" fill="#263238"/>
</g>
<path d="M57.3076 44.7044H26.4301V49.9915H57.3076V44.7044Z" fill="white"/>
<g opacity="0.4">
<path d="M29.3061 47.0131C29.3061 47.3358 29.0725 47.5305 28.6871 47.5305H28.2802V48.0086H28.12V46.4937H28.6871C29.0725 46.4939 29.3061 46.6886 29.3061 47.0131ZM29.1459 47.0131C29.1459 46.771 28.9858 46.6325 28.6828 46.6325H28.2802V47.3898H28.6828C28.9858 47.3898 29.1459 47.2513 29.1459 47.0131Z" fill="#263238"/>
<path d="M30.4682 47.3034V48.0088H30.3209V47.8313C30.2515 47.9482 30.1175 48.0197 29.9292 48.0197C29.6717 48.0197 29.5136 47.8856 29.5136 47.6886C29.5136 47.5134 29.6262 47.3662 29.953 47.3662H30.3143V47.2968C30.3143 47.1021 30.2039 46.9961 29.992 46.9961C29.8449 46.9961 29.7064 47.0483 29.6132 47.1302L29.544 47.0157C29.6587 46.9183 29.8275 46.8621 30.0071 46.8621C30.3013 46.8619 30.4682 47.0091 30.4682 47.3034ZM30.3146 47.6669V47.4809H29.9575C29.7366 47.4809 29.6653 47.5673 29.6653 47.6841C29.6653 47.816 29.7713 47.8984 29.9532 47.8984C30.1262 47.8984 30.2539 47.816 30.3146 47.6669Z" fill="#263238"/>
<path d="M30.7281 47.879L30.7972 47.7577C30.8881 47.8292 31.0419 47.8854 31.2019 47.8854C31.4184 47.8854 31.5071 47.8115 31.5071 47.6992C31.5071 47.4028 30.7691 47.6364 30.7691 47.1863C30.7691 47.0001 30.9294 46.8616 31.2194 46.8616C31.3664 46.8616 31.5267 46.9027 31.622 46.9676L31.555 47.091C31.4554 47.0219 31.3365 46.9938 31.2196 46.9938C31.0139 46.9938 30.9232 47.0738 30.9232 47.1821C30.9232 47.4894 31.6612 47.2576 31.6612 47.6949C31.6612 47.892 31.4882 48.0197 31.1916 48.0197C31.003 48.0197 30.821 47.959 30.7281 47.879Z" fill="#263238"/>
<path d="M31.7865 47.879L31.8559 47.7577C31.9468 47.8292 32.1006 47.8854 32.2607 47.8854C32.4771 47.8854 32.566 47.8115 32.566 47.6992C32.566 47.4028 31.8281 47.6364 31.8281 47.1863C31.8281 47.0001 31.9883 46.8616 32.2784 46.8616C32.4256 46.8616 32.5856 46.9027 32.681 46.9676L32.6139 47.091C32.5144 47.0219 32.3954 46.9938 32.2786 46.9938C32.0728 46.9938 31.9822 47.0738 31.9822 47.1821C31.9822 47.4894 32.7201 47.2576 32.7201 47.6949C32.7201 47.892 32.5472 48.0197 32.2505 48.0197C32.0615 48.0197 31.8795 47.959 31.7865 47.879Z" fill="#263238"/>
<path d="M34.6521 46.8706L34.2214 48.0088H34.0765L33.7171 47.0761L33.3579 48.0088H33.213L32.7844 46.8706H32.9314L33.2885 47.8379L33.6543 46.8706H33.7865L34.1499 47.8379L34.5115 46.8706H34.6521Z" fill="#263238"/>
<path d="M34.7365 47.4395C34.7365 47.1018 34.9832 46.8618 35.3166 46.8618C35.6501 46.8618 35.8946 47.1021 35.8946 47.4395C35.8946 47.7773 35.6501 48.0196 35.3166 48.0196C34.9834 48.0196 34.7365 47.7773 34.7365 47.4395ZM35.7388 47.4395C35.7388 47.1733 35.5592 46.9959 35.3169 46.9959C35.0745 46.9959 34.8928 47.1733 34.8928 47.4395C34.8928 47.7058 35.0747 47.8832 35.3169 47.8832C35.559 47.8832 35.7388 47.7058 35.7388 47.4395Z" fill="#263238"/>
<path d="M36.7819 46.8618V47.0112C36.7689 47.0112 36.7559 47.0091 36.7451 47.0091C36.5069 47.0091 36.362 47.1606 36.362 47.4287V48.0088H36.2084V46.8705H36.3557V47.0933C36.4269 46.9416 36.5721 46.8618 36.7819 46.8618Z" fill="#263238"/>
<path d="M38.087 46.4028V48.0088H37.9397V47.7837C37.8467 47.9373 37.6888 48.0197 37.5005 48.0197C37.1758 48.0197 36.9334 47.7837 36.9334 47.4396C36.9334 47.0955 37.1758 46.8619 37.5005 46.8619C37.6822 46.8619 37.8382 46.9397 37.9333 47.087V46.4031H38.087V46.4028ZM37.9357 47.4396C37.9357 47.1734 37.754 46.9959 37.5135 46.9959C37.2711 46.9959 37.0894 47.1734 37.0894 47.4396C37.0894 47.7058 37.2711 47.8833 37.5135 47.8833C37.7537 47.8833 37.9357 47.7058 37.9357 47.4396Z" fill="#263238"/>
</g>
<path opacity="0.2" d="M57.3076 55.3841H26.4301V60.6712H57.3076V55.3841Z" fill="black"/>
<g opacity="0.5">
<path d="M33.9393 52.9542H33.4352L33.3266 53.1959H33.227L33.6407 52.2908H33.7351L34.1488 53.1959H34.0481L33.9393 52.9542ZM33.9046 52.8766L33.6875 52.3904L33.4703 52.8766H33.9046Z" fill="black"/>
<path d="M34.2804 52.2368H34.3722V53.1959H34.2804V52.2368Z" fill="black"/>
<path d="M34.971 52.5108V52.6C34.9632 52.6 34.9555 52.5986 34.9491 52.5986C34.8068 52.5986 34.7202 52.6892 34.7202 52.8497V53.1961H34.6284V52.516H34.7162V52.6491C34.7591 52.5587 34.8455 52.5108 34.971 52.5108Z" fill="black"/>
<path d="M35.7222 52.8844H35.1534C35.1638 53.0267 35.2724 53.1211 35.4211 53.1211C35.5039 53.1211 35.5775 53.0913 35.6292 53.0319L35.6809 53.0913C35.6203 53.1638 35.5259 53.2025 35.4185 53.2025C35.2065 53.2025 35.0616 53.0578 35.0616 52.856C35.0616 52.6545 35.2025 52.5108 35.3939 52.5108C35.5853 52.5108 35.7236 52.6517 35.7236 52.856C35.7236 52.8636 35.7222 52.874 35.7222 52.8844ZM35.1534 52.8159H35.6356C35.624 52.6828 35.527 52.5896 35.3939 52.5896C35.262 52.5896 35.165 52.6828 35.1534 52.8159Z" fill="black"/>
<path d="M36.4054 52.7744V53.1959H36.3176V53.0899C36.2763 53.1598 36.196 53.2025 36.0835 53.2025C35.9296 53.2025 35.8352 53.1222 35.8352 53.0047C35.8352 52.8999 35.9025 52.8121 36.0976 52.8121H36.3136V52.7708C36.3136 52.6545 36.2477 52.591 36.121 52.591C36.033 52.591 35.9504 52.6219 35.8947 52.6713L35.8534 52.6026C35.9218 52.5445 36.0228 52.5108 36.13 52.5108C36.3058 52.5108 36.4054 52.5986 36.4054 52.7744ZM36.3136 52.9917V52.8804H36.1002C35.9683 52.8804 35.9256 52.9323 35.9256 53.0021C35.9256 53.0809 35.9891 53.13 36.0976 53.13C36.201 53.13 36.2772 53.0809 36.3136 52.9917Z" fill="black"/>
<path d="M37.2785 52.2368V53.1959H37.1907V53.0616C37.135 53.1534 37.0406 53.2025 36.9282 53.2025C36.7345 53.2025 36.5896 53.0616 36.5896 52.856C36.5896 52.6505 36.7345 52.5108 36.9282 52.5108C37.0368 52.5108 37.1298 52.5573 37.1869 52.6451V52.2368H37.2785ZM37.1881 52.856C37.1881 52.697 37.0795 52.591 36.936 52.591C36.7911 52.591 36.6826 52.697 36.6826 52.856C36.6826 53.0151 36.7911 53.1211 36.936 53.1211C37.0795 53.1211 37.1881 53.0151 37.1881 52.856Z" fill="black"/>
<path d="M38.1067 52.516L37.7668 53.2775C37.7099 53.4106 37.6375 53.4533 37.5405 53.4533C37.4772 53.4533 37.4164 53.4328 37.3751 53.3913L37.4178 53.3228C37.4513 53.3566 37.4926 53.3745 37.5419 53.3745C37.6026 53.3745 37.6441 53.3462 37.6828 53.2608L37.7125 53.1949L37.4086 52.5162H37.5042L37.7602 53.0942L38.016 52.5162H38.1067V52.516Z" fill="black"/>
<path d="M39.0886 52.7744V53.1959H39.0006V53.0899C38.9593 53.1598 38.8791 53.2025 38.7665 53.2025C38.6126 53.2025 38.5182 53.1222 38.5182 53.0047C38.5182 52.8999 38.5855 52.8121 38.7807 52.8121H38.9966V52.7708C38.9966 52.6545 38.9307 52.591 38.804 52.591C38.716 52.591 38.6334 52.6219 38.5779 52.6713L38.5366 52.6026C38.6051 52.5445 38.7061 52.5108 38.8132 52.5108C38.989 52.5108 39.0886 52.5986 39.0886 52.7744ZM38.9968 52.9917V52.8804H38.7835C38.6516 52.8804 38.6088 52.9323 38.6088 53.0021C38.6088 53.0809 38.6723 53.13 38.7809 53.13C38.8843 53.13 38.9605 53.0809 38.9968 52.9917Z" fill="black"/>
<path d="M40.7996 52.8015V53.1959H40.7078V52.8105C40.7078 52.6673 40.6354 52.5934 40.5126 52.5934C40.3729 52.5934 40.2851 52.684 40.2851 52.8391V53.1959H40.1933V52.8105C40.1933 52.6673 40.1209 52.5934 39.9967 52.5934C39.8584 52.5934 39.7692 52.684 39.7692 52.8391V53.1959H39.6774V52.5158H39.7652V52.6399C39.8131 52.5585 39.9009 52.5106 40.0147 52.5106C40.1272 52.5106 40.215 52.5585 40.2563 52.654C40.3054 52.566 40.4024 52.5106 40.5251 52.5106C40.691 52.5108 40.7996 52.6064 40.7996 52.8015Z" fill="black"/>
<path d="M41.6445 52.8844H41.0758C41.0859 53.0267 41.1947 53.1211 41.3434 53.1211C41.426 53.1211 41.4999 53.0913 41.5516 53.0319L41.6032 53.0913C41.5426 53.1638 41.4482 53.2025 41.3408 53.2025C41.1289 53.2025 40.984 53.0578 40.984 52.856C40.984 52.6545 41.1249 52.5108 41.3163 52.5108C41.5077 52.5108 41.646 52.6517 41.646 52.856C41.6457 52.8636 41.6445 52.874 41.6445 52.8844ZM41.0758 52.8159H41.5579C41.5464 52.6828 41.4494 52.5896 41.3163 52.5896C41.1843 52.5896 41.0873 52.6828 41.0758 52.8159Z" fill="black"/>
<path d="M42.956 52.8015V53.1959H42.8642V52.8105C42.8642 52.6673 42.7918 52.5934 42.669 52.5934C42.5293 52.5934 42.4415 52.684 42.4415 52.8391V53.1959H42.3497V52.8105C42.3497 52.6673 42.2773 52.5934 42.1531 52.5934C42.0148 52.5934 41.9256 52.684 41.9256 52.8391V53.1959H41.8338V52.5158H41.9216V52.6399C41.9695 52.5585 42.0573 52.5106 42.1711 52.5106C42.2836 52.5106 42.3714 52.5585 42.4127 52.654C42.4618 52.566 42.5588 52.5106 42.6815 52.5106C42.8475 52.5108 42.956 52.6064 42.956 52.8015Z" fill="black"/>
<path d="M43.8957 52.856C43.8957 53.0616 43.751 53.2025 43.557 53.2025C43.4445 53.2025 43.3501 53.1534 43.2946 53.0616V53.1959H43.2068V52.2368H43.2986V52.6451C43.3555 52.5573 43.4487 52.5108 43.5573 52.5108C43.7508 52.5108 43.8957 52.6505 43.8957 52.856ZM43.8039 52.856C43.8039 52.697 43.6939 52.591 43.5504 52.591C43.4055 52.591 43.297 52.697 43.297 52.856C43.297 53.0151 43.4055 53.1211 43.5504 53.1211C43.6939 53.1211 43.8039 53.0151 43.8039 52.856Z" fill="black"/>
<path d="M44.6759 52.8844H44.1071C44.1175 53.0267 44.2261 53.1211 44.3748 53.1211C44.4576 53.1211 44.5312 53.0913 44.5829 53.0319L44.6346 53.0913C44.5739 53.1638 44.4795 53.2025 44.3722 53.2025C44.1602 53.2025 44.0153 53.0578 44.0153 52.856C44.0153 52.6545 44.1562 52.5108 44.3476 52.5108C44.539 52.5108 44.6773 52.6517 44.6773 52.856C44.6771 52.8636 44.6759 52.874 44.6759 52.8844ZM44.1071 52.8159H44.5893C44.5777 52.6828 44.4807 52.5896 44.3476 52.5896C44.2157 52.5896 44.1187 52.6828 44.1071 52.8159Z" fill="black"/>
<path d="M45.2076 52.5108V52.6C45.1998 52.6 45.192 52.5986 45.1856 52.5986C45.0435 52.5986 44.9567 52.6892 44.9567 52.8497V53.1961H44.8649V52.516H44.9529V52.6491C44.9956 52.5587 45.082 52.5108 45.2076 52.5108Z" fill="black"/>
<path d="M45.8024 52.5225C45.8024 52.4293 45.7262 52.3647 45.5942 52.3647C45.4845 52.3647 45.4042 52.4008 45.3474 52.4694L45.2789 52.4175C45.3488 52.3323 45.4562 52.2832 45.6008 52.2832C45.7818 52.2832 45.8982 52.3698 45.8982 52.5081C45.8982 52.729 45.6617 52.7394 45.6617 52.9244H45.5659C45.5659 52.7111 45.8024 52.6917 45.8024 52.5225ZM45.5466 53.1352C45.5466 53.0979 45.5763 53.0693 45.6138 53.0693C45.6528 53.0693 45.6823 53.0979 45.6823 53.1352C45.6823 53.1713 45.6525 53.2025 45.6138 53.2025C45.5763 53.2025 45.5466 53.1713 45.5466 53.1352Z" fill="black"/>
<path d="M46.4419 52.291H46.6515V53.0255H47.1051V53.1961H46.4419V52.291Z" fill="black"/>
<path d="M47.152 52.8483C47.152 52.6387 47.3136 52.49 47.5348 52.49C47.7559 52.49 47.9161 52.6387 47.9161 52.8483C47.9161 53.0578 47.7559 53.2065 47.5348 53.2065C47.3134 53.2063 47.152 53.0578 47.152 52.8483ZM47.7118 52.8483C47.7118 52.7279 47.6355 52.6557 47.5345 52.6557C47.4338 52.6557 47.3561 52.7281 47.3561 52.8483C47.3561 52.9686 47.4338 53.0408 47.5345 53.0408C47.6355 53.0408 47.7118 52.9686 47.7118 52.8483Z" fill="black"/>
<path d="M48.7687 52.5004V53.0796C48.7687 53.3382 48.6292 53.4572 48.3784 53.4572C48.2464 53.4572 48.1185 53.4248 48.0371 53.3616L48.1173 53.2169C48.1768 53.2646 48.2738 53.2957 48.3628 53.2957C48.5051 53.2957 48.5672 53.2311 48.5672 53.1055V53.0758C48.5141 53.1341 48.4378 53.1624 48.3474 53.1624C48.1549 53.1624 47.9996 53.0293 47.9996 52.8263C47.9996 52.6234 48.1546 52.49 48.3474 52.49C48.4444 52.49 48.5247 52.5226 48.5775 52.5896V52.5004H48.7687ZM48.5695 52.8263C48.5695 52.7241 48.4933 52.6555 48.3873 52.6555C48.2814 52.6555 48.2037 52.7241 48.2037 52.8263C48.2037 52.9285 48.2814 52.997 48.3873 52.997C48.4933 52.997 48.5695 52.9285 48.5695 52.8263Z" fill="black"/>
<path d="M49.2982 52.291C49.2982 52.2278 49.3484 52.1785 49.4235 52.1785C49.4985 52.1785 49.5488 52.225 49.5488 52.2873C49.5488 52.3543 49.4985 52.4034 49.4235 52.4034C49.3487 52.4034 49.2982 52.3543 49.2982 52.291ZM49.3227 52.5004H49.5242V53.1959H49.3227V52.5004Z" fill="black"/>
<path d="M50.4232 52.7978V53.1961H50.2217V52.8289C50.2217 52.7164 50.17 52.6649 50.0808 52.6649C49.9838 52.6649 49.9142 52.7244 49.9142 52.8523V53.1961H49.7126V52.5007H49.9052V52.5823C49.9595 52.5228 50.0409 52.4903 50.1353 52.4903C50.2991 52.49 50.4232 52.5858 50.4232 52.7978Z" fill="black"/>
</g>
<path d="M57.3076 55.0605H26.4301V60.3476H57.3076V55.0605Z" fill="#407BFF"/>
<path d="M37.882 58.5255L37.4916 57.9697C37.4553 57.9723 37.4166 57.9746 37.3779 57.9746H36.9307V58.5255H36.672V56.7156H37.3779C37.8485 56.7156 38.1328 56.9535 38.1328 57.3464C38.1328 57.6258 37.9882 57.8274 37.7347 57.918L38.1638 58.5255H37.882ZM37.8742 57.3462C37.8742 57.0875 37.701 56.9402 37.3701 56.9402H36.9307V57.7547H37.3701C37.701 57.7549 37.8742 57.6048 37.8742 57.3462Z" fill="white"/>
<path d="M39.7503 57.9229H38.6385C38.6696 58.1634 38.8634 58.3237 39.135 58.3237C39.2953 58.3237 39.4298 58.2691 39.5305 58.1582L39.6677 58.3185C39.5435 58.4634 39.3547 58.5408 39.1272 58.5408C38.685 58.5408 38.3902 58.2488 38.3902 57.8401C38.3902 57.4342 38.6824 57.142 39.0781 57.142C39.4737 57.142 39.7555 57.4264 39.7555 57.8479C39.7552 57.8684 39.7526 57.8996 39.7503 57.9229ZM38.6382 57.7445H39.5173C39.4916 57.5142 39.3182 57.3516 39.0779 57.3516C38.84 57.3516 38.6642 57.5118 38.6382 57.7445Z" fill="white"/>
<path d="M41.411 57.155V58.3392C41.411 58.8228 41.1653 59.0425 40.6999 59.0425C40.4491 59.0425 40.1958 58.9727 40.046 58.8381L40.1649 58.6467C40.2916 58.7553 40.4906 58.8252 40.6924 58.8252C41.0157 58.8252 41.163 58.6753 41.163 58.365V58.2564C41.044 58.3987 40.8656 58.4683 40.669 58.4683C40.2735 58.4683 39.9735 58.1993 39.9735 57.804C39.9735 57.4084 40.2735 57.142 40.669 57.142C40.8734 57.142 41.0593 57.2168 41.1757 57.3669V57.155H41.411ZM41.1677 57.804C41.1677 57.5375 40.9711 57.3591 40.6971 57.3591C40.4205 57.3591 40.2239 57.5375 40.2239 57.804C40.2239 58.0676 40.4205 58.2514 40.6971 58.2514C40.9713 58.2512 41.1677 58.0676 41.1677 57.804Z" fill="white"/>
<path d="M41.8414 56.7309C41.8414 56.6405 41.9139 56.5681 42.0094 56.5681C42.105 56.5681 42.1775 56.6379 42.1775 56.726C42.1775 56.8192 42.1076 56.8914 42.0094 56.8914C41.9139 56.8914 41.8414 56.8215 41.8414 56.7309ZM41.8853 57.155H42.1336V58.5255H41.8853V57.155Z" fill="white"/>
<path d="M42.4342 58.3806L42.5376 58.184C42.6539 58.2668 42.8401 58.3263 43.0185 58.3263C43.2486 58.3263 43.3445 58.2565 43.3445 58.1401C43.3445 57.8324 42.4783 58.0988 42.4783 57.5534C42.4783 57.3077 42.698 57.1423 43.0497 57.1423C43.2281 57.1423 43.4297 57.1888 43.5486 57.2662L43.4426 57.4628C43.3185 57.3826 43.1814 57.3542 43.0471 57.3542C42.83 57.3542 42.7238 57.4345 42.7238 57.543C42.7238 57.8661 43.5927 57.6025 43.5927 58.1352C43.5927 58.3834 43.3652 58.5411 43.0006 58.5411C42.7729 58.5408 42.548 58.471 42.4342 58.3806Z" fill="white"/>
<path d="M44.6739 58.4452C44.5988 58.5099 44.4851 58.5408 44.3739 58.5408C44.0973 58.5408 43.9397 58.3881 43.9397 58.1118V57.3594H43.707V57.1552H43.9397V56.8553H44.1879V57.1552H44.5809V57.3594H44.1879V58.1016C44.1879 58.2491 44.2656 58.3319 44.4025 58.3319C44.4749 58.3319 44.5445 58.3086 44.5965 58.2673L44.6739 58.4452Z" fill="white"/>
<path d="M46.1616 57.9229H45.0496C45.0808 58.1634 45.2745 58.3237 45.5462 58.3237C45.7064 58.3237 45.8409 58.2691 45.9417 58.1582L46.0788 58.3185C45.9547 58.4634 45.7659 58.5408 45.5384 58.5408C45.0961 58.5408 44.8016 58.2488 44.8016 57.8401C44.8016 57.4342 45.0937 57.142 45.4895 57.142C45.8851 57.142 46.1668 57.4264 46.1668 57.8479C46.1666 57.8684 46.164 57.8996 46.1616 57.9229ZM45.0496 57.7445H45.9287C45.903 57.5142 45.7295 57.3516 45.4893 57.3516C45.2514 57.3516 45.0756 57.5118 45.0496 57.7445Z" fill="white"/>
<path d="M47.2486 57.142V57.3825C47.2281 57.3799 47.2099 57.3799 47.1917 57.3799C46.9255 57.3799 46.7599 57.5427 46.7599 57.8427V58.5254H46.5116V57.155H46.7495V57.3853C46.8375 57.2248 47.0081 57.142 47.2486 57.142Z" fill="white"/>
<g opacity="0.6">
<path d="M36.4637 18.9468L36.5685 18.7259C36.7158 18.8591 36.9676 18.9553 37.2225 18.9553C37.5649 18.9553 37.7122 18.8222 37.7122 18.6497C37.7122 18.1657 36.5121 18.4715 36.5121 17.7355C36.5121 17.4298 36.7498 17.1695 37.2706 17.1695C37.5026 17.1695 37.7433 17.2318 37.9076 17.3451L37.8141 17.5717C37.6416 17.4612 37.4462 17.4102 37.2706 17.4102C36.9339 17.4102 36.7897 17.5518 36.7897 17.7244C36.7897 18.2084 37.9897 17.9056 37.9897 18.633C37.9897 18.9358 37.7464 19.1963 37.2227 19.1963C36.9195 19.1961 36.6223 19.0941 36.4637 18.9468Z" fill="#263238"/>
<path d="M38.3162 17.2092C38.3162 17.1101 38.3953 17.0308 38.5 17.0308C38.6048 17.0308 38.6841 17.1072 38.6841 17.2035C38.6841 17.3055 38.6077 17.3848 38.5 17.3848C38.3953 17.3845 38.3162 17.3081 38.3162 17.2092ZM38.3643 17.6732H38.636V19.1734H38.3643V17.6732Z" fill="#263238"/>
<path d="M40.5893 17.6732V18.9695C40.5893 19.4989 40.3205 19.7396 39.8109 19.7396C39.5362 19.7396 39.2589 19.6631 39.0947 19.5159L39.225 19.3063C39.3637 19.4253 39.5816 19.5017 39.8024 19.5017C40.1562 19.5017 40.3176 19.3377 40.3176 18.9979V18.8789C40.1876 19.0347 39.9922 19.1111 39.777 19.1111C39.3439 19.1111 39.0156 18.8166 39.0156 18.3835C39.0156 17.9505 39.3439 17.659 39.777 17.659C40.0005 17.659 40.2044 17.7412 40.3318 17.9052V17.6732H40.5893ZM40.3233 18.3838C40.3233 18.0923 40.1083 17.8969 39.8081 17.8969C39.5053 17.8969 39.2901 18.0923 39.2901 18.3838C39.2901 18.6724 39.5053 18.8735 39.8081 18.8735C40.1083 18.8732 40.3233 18.6724 40.3233 18.3838Z" fill="#263238"/>
<path d="M42.532 18.3102V19.1734H42.2604V18.3413C42.2604 18.0468 42.1133 17.9026 41.8556 17.9026C41.5668 17.9026 41.3801 18.0753 41.3801 18.4008V19.1734H41.1085V17.6732H41.369V17.8997C41.4795 17.7471 41.6718 17.659 41.9094 17.659C42.2745 17.659 42.532 17.8686 42.532 18.3102Z" fill="#263238"/>
<path d="M45.1969 17.6732V19.1734H44.9395V18.9469C44.829 19.1026 44.6423 19.1902 44.4299 19.1902C44.0422 19.1902 43.7845 18.978 43.7845 18.5362V17.6729H44.0561V18.5051C44.0561 18.7996 44.2034 18.9466 44.4609 18.9466C44.7438 18.9466 44.9251 18.7711 44.9251 18.4484V17.6729L45.1969 17.6732Z" fill="#263238"/>
<path d="M47.2699 18.4234C47.2699 18.8848 46.9501 19.1904 46.5114 19.1904C46.2992 19.1904 46.1123 19.1083 45.9877 18.9471V19.7226H45.716V17.6734H45.9766V17.9111C46.0984 17.744 46.2907 17.6593 46.5116 17.6593C46.9498 17.659 47.2699 17.9649 47.2699 18.4234ZM46.9952 18.4234C46.9952 18.1065 46.7773 17.8969 46.4887 17.8969C46.2029 17.8969 45.9848 18.1065 45.9848 18.4234C45.9848 18.7432 46.2027 18.9528 46.4887 18.9528C46.7773 18.9526 46.9952 18.7432 46.9952 18.4234Z" fill="#263238"/>
</g>
<path d="M57.3076 30.2598H26.4301V35.5469H57.3076V30.2598Z" fill="white"/>
<g opacity="0.4">
<path d="M28.12 32.0413H28.2802V33.4177H29.1287V33.5562H28.1202V32.0413H28.12Z" fill="#263238"/>
<path d="M30.2257 32.8508V33.5562H30.0785V33.3787C30.0093 33.4955 29.875 33.567 29.6867 33.567C29.4292 33.567 29.2711 33.433 29.2711 33.2359C29.2711 33.0608 29.3837 32.9136 29.7106 32.9136H30.0719V32.8444C30.0719 32.6497 29.9614 32.5435 29.7495 32.5435C29.6022 32.5435 29.4637 32.5957 29.3707 32.6778L29.3013 32.5631C29.416 32.4656 29.5848 32.4095 29.7644 32.4095C30.0591 32.409 30.2257 32.5562 30.2257 32.8508ZM30.0721 33.2145V33.0282H29.715C29.4941 33.0282 29.4229 33.1149 29.4229 33.2317C29.4229 33.3636 29.5288 33.4457 29.7108 33.4457C29.8838 33.4457 30.0114 33.3634 30.0721 33.2145Z" fill="#263238"/>
<path d="M30.4854 33.4264L30.5548 33.3051C30.6457 33.3766 30.7996 33.4327 30.9596 33.4327C31.176 33.4327 31.2649 33.3591 31.2649 33.2465C31.2649 32.9501 30.527 33.1838 30.527 32.7337C30.527 32.5475 30.6872 32.409 30.9773 32.409C31.1243 32.409 31.2845 32.4503 31.3796 32.5149L31.3126 32.6384C31.213 32.569 31.0941 32.5409 30.9773 32.5409C30.7715 32.5409 30.6809 32.6209 30.6809 32.7292C30.6809 33.0365 31.4188 32.805 31.4188 33.2423C31.4188 33.4391 31.2458 33.5668 30.9492 33.5668C30.7604 33.567 30.5784 33.5064 30.4854 33.4264Z" fill="#263238"/>
<path d="M32.3017 33.487C32.2411 33.5411 32.1502 33.567 32.0615 33.567C31.8472 33.567 31.7282 33.4457 31.7282 33.2359V32.5478H31.5248V32.418H31.7282V32.169H31.8819V32.418H32.2281V32.5478H31.8819V33.2274C31.8819 33.3615 31.951 33.4351 32.0787 33.4351C32.1415 33.4351 32.2043 33.4158 32.2474 33.3768L32.3017 33.487Z" fill="#263238"/>
<path d="M34.4466 32.0413V33.5562H34.3144L33.3407 32.3269V33.5562H33.1805V32.0413H33.3126L34.2887 33.2706V32.0413H34.4466Z" fill="#263238"/>
<path d="M35.7665 32.8508V33.5562H35.6195V33.3787C35.5501 33.4955 35.4161 33.567 35.2278 33.567C34.9703 33.567 34.8122 33.433 34.8122 33.2359C34.8122 33.0608 34.9247 32.9136 35.2516 32.9136H35.6129V32.8444C35.6129 32.6497 35.5025 32.5435 35.2905 32.5435C35.1433 32.5435 35.005 32.5957 34.9118 32.6778L34.8426 32.5631C34.9573 32.4656 35.126 32.4095 35.3056 32.4095C35.5999 32.409 35.7665 32.5562 35.7665 32.8508ZM35.6129 33.2145V33.0282H35.2558C35.0349 33.0282 34.9637 33.1149 34.9637 33.2317C34.9637 33.3636 35.0696 33.4457 35.2516 33.4457C35.4246 33.4457 35.5523 33.3634 35.6129 33.2145Z" fill="#263238"/>
<path d="M38.0629 32.8961V33.5562H37.9093V32.9115C37.9093 32.671 37.788 32.5478 37.5824 32.5478C37.3488 32.5478 37.2015 32.6995 37.2015 32.9589V33.5562H37.0479V32.9115C37.0479 32.671 36.9266 32.5478 36.7189 32.5478C36.4874 32.5478 36.338 32.6995 36.338 32.9589V33.5562H36.1844V32.418H36.3314V32.6257C36.4114 32.4895 36.5587 32.4092 36.7491 32.4092C36.9374 32.4092 37.0845 32.4895 37.1538 32.6497C37.2362 32.5025 37.3986 32.4092 37.6041 32.4092C37.8812 32.409 38.0629 32.5692 38.0629 32.8961Z" fill="#263238"/>
<path d="M39.4763 33.0346H38.524C38.5415 33.2728 38.7232 33.4309 38.972 33.4309C39.1105 33.4309 39.2339 33.3811 39.3205 33.2815L39.4071 33.3811C39.3054 33.5022 39.1473 33.5671 38.968 33.5671C38.613 33.5671 38.3706 33.3247 38.3706 32.9872C38.3706 32.6495 38.6064 32.4092 38.9269 32.4092C39.2471 32.4092 39.4787 32.6452 39.4787 32.9872C39.4787 32.9999 39.4763 33.0174 39.4763 33.0346ZM38.524 32.9197H39.3314C39.3118 32.6969 39.1497 32.5412 38.9267 32.5412C38.706 32.5412 38.5436 32.6969 38.524 32.9197Z" fill="#263238"/>
</g>
<path d="M57.3076 23.0374H26.4301V28.3246H57.3076V23.0374Z" fill="white"/>
<g opacity="0.4">
<path d="M28.28 24.9573V25.5525H29.0635V25.691H28.28V26.3339H28.1198V24.819H29.1587V24.9575L28.28 24.9573Z" fill="#263238"/>
<path d="M29.4013 24.8362C29.4013 24.7777 29.4511 24.7281 29.5139 24.7281C29.5767 24.7281 29.6265 24.7758 29.6265 24.8343C29.6265 24.8971 29.5788 24.9469 29.5139 24.9469C29.4509 24.9464 29.4013 24.8967 29.4013 24.8362ZM29.4358 25.1954H29.5894V26.3339H29.4358V25.1954Z" fill="#263238"/>
<path d="M30.5914 25.1866V25.336C30.5784 25.336 30.5654 25.3339 30.5545 25.3339C30.3164 25.3339 30.1715 25.4854 30.1715 25.7538V26.3338H30.0179V25.1954H30.1651V25.4184C30.2364 25.2669 30.3816 25.1866 30.5914 25.1866Z" fill="#263238"/>
<path d="M30.7191 26.2038L30.7883 26.0825C30.8792 26.154 31.033 26.2102 31.193 26.2102C31.4094 26.2102 31.4982 26.1368 31.4982 26.0242C31.4982 25.7278 30.7602 25.9614 30.7602 25.5114C30.7602 25.3254 30.9205 25.1866 31.2105 25.1866C31.3578 25.1866 31.5178 25.2277 31.6131 25.2926L31.5461 25.416C31.4465 25.3469 31.3276 25.3186 31.2107 25.3186C31.0049 25.3186 30.9143 25.3986 30.9143 25.5069C30.9143 25.8142 31.6523 25.5827 31.6523 26.0197C31.6523 26.2168 31.4793 26.3445 31.1826 26.3445C30.9943 26.3447 30.8124 26.284 30.7191 26.2038Z" fill="#263238"/>
<path d="M32.5352 26.2645C32.4746 26.3185 32.3837 26.3445 32.295 26.3445C32.0807 26.3445 31.9617 26.2232 31.9617 26.0134V25.3252H31.7583V25.1954H31.9617V24.9464H32.1154V25.1954H32.4616V25.3252H32.1154V26.0047C32.1154 26.139 32.1848 26.2123 32.3124 26.2123C32.3752 26.2123 32.438 26.1928 32.4812 26.1541L32.5352 26.2645Z" fill="#263238"/>
<path d="M34.6801 24.8188V26.3336H34.5479L33.5742 25.1043V26.3336H33.414V24.8188H33.5461L34.5222 26.0481V24.8188H34.6801Z" fill="#263238"/>
<path d="M36.0006 25.6282V26.3338H35.8534V26.1564C35.784 26.2732 35.6499 26.3447 35.4616 26.3447C35.2041 26.3447 35.046 26.2104 35.046 26.0136C35.046 25.8383 35.1586 25.6912 35.4855 25.6912H35.8468V25.6218C35.8468 25.4271 35.7363 25.3209 35.5244 25.3209C35.3771 25.3209 35.2386 25.3729 35.1456 25.4552L35.0765 25.3405C35.1912 25.2431 35.3599 25.1869 35.5395 25.1869C35.8338 25.1867 36.0006 25.3339 36.0006 25.6282ZM35.8468 25.9919V25.8057H35.4897C35.2688 25.8057 35.1975 25.8923 35.1975 26.0091C35.1975 26.141 35.3035 26.2234 35.4855 26.2234C35.6587 26.2234 35.7864 26.141 35.8468 25.9919Z" fill="#263238"/>
<path d="M38.2964 25.6737V26.3338H38.1427V25.6889C38.1427 25.4486 38.0214 25.3254 37.8159 25.3254C37.5822 25.3254 37.435 25.4769 37.435 25.7365V26.3338H37.2813V25.6889C37.2813 25.4486 37.16 25.3254 36.9524 25.3254C36.7208 25.3254 36.5715 25.4769 36.5715 25.7365V26.3338H36.4178V25.1954H36.5651V25.4031C36.6451 25.2666 36.7924 25.1866 36.9828 25.1866C37.1711 25.1866 37.3182 25.2666 37.3875 25.4269C37.4699 25.2796 37.6323 25.1866 37.8378 25.1866C38.1147 25.1866 38.2964 25.3469 38.2964 25.6737Z" fill="#263238"/>
<path d="M39.7102 25.8123H38.7579C38.7754 26.0504 38.9571 26.2083 39.2059 26.2083C39.3444 26.2083 39.4678 26.1585 39.5544 26.0589L39.641 26.1585C39.5393 26.2796 39.3812 26.3447 39.2018 26.3447C38.8469 26.3447 38.6045 26.1023 38.6045 25.7646C38.6045 25.4269 38.8403 25.1866 39.1608 25.1866C39.481 25.1866 39.7125 25.4226 39.7125 25.7646C39.7123 25.7776 39.7102 25.7948 39.7102 25.8123ZM38.7579 25.6973H39.5653C39.5457 25.4746 39.3836 25.3186 39.1605 25.3186C38.9396 25.3188 38.7773 25.4746 38.7579 25.6973Z" fill="#263238"/>
</g>
<path d="M19.2004 58.5812C19.2004 58.5812 17.6381 57.2787 16.2986 58.5812C14.959 59.8837 14.7004 67.953 14.7004 67.953" stroke="#407BFF" stroke-width="0.9446" stroke-miterlimit="10"/>
<path d="M14.5895 69.511C14.5895 69.511 15.5103 60.0413 12.043 56.0616" stroke="#407BFF" stroke-width="0.9446" stroke-miterlimit="10"/>
<path d="M14.9193 68.513C14.9193 68.513 14.2101 57.7325 16.8106 55.3406" stroke="#407BFF" stroke-width="0.9446" stroke-miterlimit="10"/>
<path d="M14.5892 68.513C14.5892 68.513 14.5288 61.3893 12.5962 60.2818C10.6636 59.1744 9.67856 62.7862 9.67856 62.7862" stroke="#407BFF" stroke-width="0.9446" stroke-miterlimit="10"/>
<path d="M15.3527 68.513C15.3527 68.513 15.0374 63.0442 16.5348 61.0896C18.032 59.1351 19.6082 61.9269 19.6082 61.9269" stroke="#407BFF" stroke-width="0.9446" stroke-miterlimit="10"/>
<path d="M14.8311 69.2456C14.8311 69.2456 15.7994 56.4558 14.197 54.2886" stroke="#407BFF" stroke-width="0.9446" stroke-miterlimit="10"/>
<path d="M10.9415 61.3197C10.9415 61.3197 11.9051 61.6749 11.6186 62.5136C11.3321 63.3524 8.28507 64.7325 8.28507 64.7325C8.28507 64.7325 7.00901 63.5629 8.18099 61.6605C9.35297 59.7583 10.9155 60.7196 10.9415 61.3197Z" fill="#407BFF"/>
<path opacity="0.2" d="M10.9415 61.3197C10.9415 61.3197 11.9051 61.6749 11.6186 62.5136C11.3321 63.3524 8.28507 64.7325 8.28507 64.7325C8.28507 64.7325 7.00901 63.5629 8.18099 61.6605C9.35297 59.7583 10.9155 60.7196 10.9415 61.3197Z" fill="black"/>
<path d="M15.1305 59.7232C15.1305 59.7232 14.1044 59.6802 14.0461 60.5645C13.9878 61.4488 16.269 63.8954 16.269 63.8954C16.269 63.8954 17.8969 63.3068 17.5472 61.1C17.1977 58.8934 15.3856 59.1792 15.1305 59.7232Z" fill="#407BFF"/>
<path opacity="0.2" d="M15.1305 59.7232C15.1305 59.7232 14.1044 59.6802 14.0461 60.5645C13.9878 61.4488 16.269 63.8954 16.269 63.8954C16.269 63.8954 17.8969 63.3068 17.5472 61.1C17.1977 58.8934 15.3856 59.1792 15.1305 59.7232Z" fill="black"/>
<path d="M15.9993 55.49C15.9993 55.49 15.3151 55.4166 15.3704 54.9999C15.4253 54.5831 18.0298 53.5107 19.5662 55.2448C19.5662 55.2448 18.5823 56.9348 17.1602 56.957C15.738 56.9792 15.9993 55.49 15.9993 55.49Z" fill="#407BFF"/>
<path opacity="0.2" d="M15.9993 55.49C15.9993 55.49 15.3151 55.4166 15.3704 54.9999C15.4253 54.5831 18.0298 53.5107 19.5662 55.2448C19.5662 55.2448 18.5823 56.9348 17.1602 56.957C15.738 56.9792 15.9993 55.49 15.9993 55.49Z" fill="black"/>
<path d="M14.7246 54.478C14.7246 54.478 15.3441 54.7775 15.5176 54.3947C15.6913 54.0119 14.0482 51.7244 11.827 52.3835C11.827 52.3835 11.7682 54.3383 12.9636 55.1091C14.1587 55.8801 14.7246 54.478 14.7246 54.478Z" fill="#407BFF"/>
<path opacity="0.2" d="M14.7246 54.478C14.7246 54.478 15.3441 54.7775 15.5176 54.3947C15.6913 54.0119 14.0482 51.7244 11.827 52.3835C11.827 52.3835 11.7682 54.3383 12.9636 55.1091C14.1587 55.8801 14.7246 54.478 14.7246 54.478Z" fill="black"/>
<path d="M17.9636 60.9824C17.9636 60.9824 17.4914 60.6013 18.0009 60.4151C18.5104 60.2291 21.0106 60.282 21.0366 62.7586C21.0366 62.7586 18.1248 63.2424 17.7642 62.2991C17.4041 61.3558 17.9636 60.9824 17.9636 60.9824Z" fill="#407BFF"/>
<path opacity="0.2" d="M17.9636 60.9824C17.9636 60.9824 17.4914 60.6013 18.0009 60.4151C18.5104 60.2291 21.0106 60.282 21.0366 62.7586C21.0366 62.7586 18.1248 63.2424 17.7642 62.2991C17.4041 61.3558 17.9636 60.9824 17.9636 60.9824Z" fill="black"/>
<path d="M12.0258 55.4279C12.0258 55.4279 12.4981 55.0468 11.9885 54.8606C11.479 54.6744 8.97884 54.7272 8.95288 57.2038C8.95288 57.2038 11.8646 57.6879 12.2253 56.7443C12.5854 55.8013 12.0258 55.4279 12.0258 55.4279Z" fill="#407BFF"/>
<path opacity="0.2" d="M12.0258 55.4279C12.0258 55.4279 12.4981 55.0468 11.9885 54.8606C11.479 54.6744 8.97884 54.7272 8.95288 57.2038C8.95288 57.2038 11.8646 57.6879 12.2253 56.7443C12.5854 55.8013 12.0258 55.4279 12.0258 55.4279Z" fill="black"/>
<path d="M13.5651 57.4229C13.5651 57.4229 13.6067 56.9594 13.2326 57.1411C12.8585 57.3228 11.5551 58.7289 12.9062 60.0632C12.9062 60.0632 14.7248 58.7164 14.397 58.015C14.069 57.3134 13.5651 57.4229 13.5651 57.4229Z" fill="#407BFF"/>
<path opacity="0.2" d="M13.5651 57.4229C13.5651 57.4229 13.6067 56.9594 13.2326 57.1411C12.8585 57.3228 11.5551 58.7289 12.9062 60.0632C12.9062 60.0632 14.7248 58.7164 14.397 58.015C14.069 57.3134 13.5651 57.4229 13.5651 57.4229Z" fill="black"/>
<path d="M18.3856 58.0835C18.3856 58.0835 18.1034 57.7136 18.5168 57.6679C18.9301 57.6221 20.7827 58.1165 20.3513 59.9656C20.3513 59.9656 18.0944 59.7959 17.9979 59.0277C17.9009 58.2595 18.3856 58.0835 18.3856 58.0835Z" fill="#407BFF"/>
<path opacity="0.2" d="M18.3856 58.0835C18.3856 58.0835 18.1034 57.7136 18.5168 57.6679C18.9301 57.6221 20.7827 58.1165 20.3513 59.9656C20.3513 59.9656 18.0944 59.7959 17.9979 59.0277C17.9009 58.2595 18.3856 58.0835 18.3856 58.0835Z" fill="black"/>
<path d="M11.1096 75.378H18.4055L19.3752 68.2833H10.1398L11.1096 75.378Z" fill="#263238"/>
<path opacity="0.2" d="M11.1096 75.378H18.4055L19.3752 68.2833H10.1398L11.1096 75.378Z" fill="white"/>
<path d="M20.2899 67.7082V68.3822C20.2899 68.8332 19.9243 69.199 19.4731 69.199H9.95095C9.49995 69.199 9.13416 68.8334 9.13416 68.3822V67.7082H20.2899Z" fill="#263238"/>
<path d="M81.0746 0.46756H74.2947C73.1417 0.46756 72.2071 1.40236 72.2071 2.55522V8.45569C72.2071 9.60856 73.1419 10.5434 74.2947 10.5434H76.2743L75.7957 12.4063L77.6783 10.5434H81.0746C82.2274 10.5434 83.1622 9.60879 83.1622 8.45569V2.55522C83.1622 1.40236 82.2277 0.46756 81.0746 0.46756Z" fill="#407BFF"/>
<path opacity="0.7" d="M81.0746 0.46756H74.2947C73.1417 0.46756 72.2071 1.40236 72.2071 2.55522V8.45569C72.2071 9.60856 73.1419 10.5434 74.2947 10.5434H76.2743L75.7957 12.4063L77.6783 10.5434H81.0746C82.2274 10.5434 83.1622 9.60879 83.1622 8.45569V2.55522C83.1622 1.40236 82.2277 0.46756 81.0746 0.46756Z" fill="white"/>
<path d="M80.0631 7.85966C81.3772 6.5456 81.3772 4.41509 80.0631 3.10103C78.7491 1.78697 76.6185 1.78698 75.3045 3.10103C73.9904 4.41509 73.9904 6.5456 75.3045 7.85966C76.6185 9.17372 78.749 9.17372 80.0631 7.85966Z" fill="#407BFF"/>
<path d="M77.3315 6.98303C77.2406 6.98303 77.1545 6.94314 77.0957 6.87399L75.7756 5.31852C75.6651 5.18824 75.6812 4.99331 75.8112 4.88262C75.9412 4.77241 76.1364 4.78799 76.2471 4.91826L77.3315 6.19597L79.1223 4.08612C79.2329 3.95562 79.4281 3.94004 79.5582 4.05049C79.6884 4.16094 79.7045 4.35611 79.5938 4.48638L77.5673 6.87423C77.5085 6.94314 77.4224 6.98303 77.3315 6.98303Z" fill="white"/>
<path d="M79.9002 36.8708C79.9002 36.8708 75.7903 36.3535 69.5656 38.06C69.5656 38.06 68.5635 26.9354 68.6829 25.4073C68.8023 23.8792 78.2935 24.3267 78.2935 24.3267C78.2935 24.3267 78.5385 28.7791 79.1493 31.4655C79.76 34.1516 80.2132 36.3542 79.9002 36.8708Z" fill="#407BFF"/>
<path opacity="0.2" d="M79.9002 36.8708C79.9002 36.8708 75.7903 36.3535 69.5656 38.06C69.5656 38.06 68.5635 26.9354 68.6829 25.4073C68.8023 23.8792 78.2935 24.3267 78.2935 24.3267C78.2935 24.3267 78.5385 28.7791 79.1493 31.4655C79.76 34.1516 80.2132 36.3542 79.9002 36.8708Z" fill="black"/>
<path d="M66.5625 73.7019L68.2381 74.1763L68.6369 71.5685L68.8517 70.1737L67.1761 69.6994L66.8905 71.5685L66.5625 73.7019Z" fill="#E4897B"/>
<path d="M76.1957 73.8388L77.9233 74.0677L77.9398 71.5684L77.9516 70.0156L76.2217 69.789L76.2099 71.5684L76.1957 73.8388Z" fill="#E4897B"/>
<path opacity="0.2" d="M76.2216 69.789L76.2098 71.5684H77.9397L77.9515 70.0156L76.2216 69.789Z" fill="black"/>
<path opacity="0.2" d="M66.8902 71.5685H68.6366L68.8514 70.1737L67.1758 69.6994L66.8902 71.5685Z" fill="black"/>
<path d="M59.1237 26.3105L57.4604 25.8189L57.7641 27.7185C57.7641 27.7185 59.2745 28.0675 59.4215 27.2816L59.1237 26.3105Z" fill="#E4897B"/>
<path d="M55.8 26.26L56.6156 27.8046L57.764 27.7182L57.4602 25.8189L55.8 26.26Z" fill="#E4897B"/>
<path d="M61.4202 26.7959L58.6885 26.1844L58.4402 27.5112L60.9203 28.1161L61.4202 26.7959Z" fill="#E4897B"/>
<path d="M69.6883 25.5987C69.6883 25.5987 69.6293 25.6695 69.5278 25.7899C69.1832 26.1935 68.3407 27.1681 67.4769 28.0083C66.7689 28.6927 66.0515 29.2898 65.5842 29.4101C64.2461 29.7547 59.3821 28.3222 59.3821 28.3222L59.8848 26.3492C59.8848 26.3492 64.416 26.951 64.7677 26.951C65.0343 26.951 67.7908 22.9579 68.4587 22.6299L69.6883 25.5987Z" fill="#407BFF"/>
<path opacity="0.2" d="M69.5274 25.7899C69.1828 26.1935 68.3403 27.1681 67.4766 28.0083C67.6512 26.6253 68.1586 25.3557 68.8265 24.5533C68.8973 24.4683 68.9681 24.3975 69.0389 24.3456L69.5274 25.7899Z" fill="black"/>
<path d="M66.5829 73.4404L68.4857 73.3892C68.557 73.3873 68.6205 73.435 68.6384 73.5037L69.0382 75.036C69.0797 75.1948 68.9631 75.3497 68.7987 75.3513C68.1119 75.3582 67.1186 75.3449 66.2558 75.3681C65.2469 75.3952 64.6056 75.3457 63.4226 75.3775C62.7073 75.3969 62.4828 74.6823 62.78 74.6091C64.1325 74.2756 65.0165 74.3415 66.1684 73.5867C66.2933 73.5049 66.4325 73.4444 66.5829 73.4404Z" fill="#263238"/>
<path d="M66.4198 73.6847C66.4182 73.6854 66.4163 73.6859 66.4144 73.6863C66.1359 73.7496 65.6389 73.8315 65.4416 73.6682C65.3821 73.6188 65.3538 73.5525 65.3571 73.4704C65.3593 73.4216 65.3814 73.3831 65.4213 73.3592C65.6295 73.2342 66.342 73.5709 66.4224 73.6094C66.4382 73.617 66.4477 73.6337 66.4458 73.6509C66.4444 73.6663 66.434 73.6793 66.4198 73.6847ZM65.4789 73.423C65.4735 73.4251 65.4685 73.4272 65.464 73.4298C65.4478 73.4395 65.4404 73.4527 65.4395 73.4744C65.4374 73.5301 65.4551 73.5728 65.494 73.6052C65.6047 73.6967 65.8919 73.7057 66.2745 73.6316C65.9936 73.5079 65.6087 73.3741 65.4789 73.423Z" fill="#407BFF"/>
<path d="M66.4197 73.6847C66.41 73.6885 66.3992 73.6885 66.3893 73.6842C66.1757 73.596 65.7455 73.2321 65.7703 73.0352C65.7762 72.989 65.8068 72.9312 65.9199 72.9163C66.0039 72.9054 66.0815 72.9271 66.1514 72.9805C66.3796 73.1556 66.4433 73.6215 66.4459 73.6413C66.4478 73.6559 66.4419 73.6701 66.4301 73.679C66.4268 73.6814 66.4233 73.6833 66.4197 73.6847ZM65.8892 73.0074C65.8554 73.0201 65.8531 73.0388 65.8521 73.0461C65.8373 73.1643 66.1311 73.4513 66.3503 73.574C66.323 73.4381 66.251 73.1603 66.1011 73.0454C66.049 73.0053 65.9933 72.9897 65.931 72.9977C65.9135 73.0001 65.8998 73.0034 65.8892 73.0074Z" fill="#407BFF"/>
<path d="M76.2649 73.4404L78.1678 73.3892C78.2391 73.3873 78.3025 73.435 78.3205 73.5037L78.7203 75.036C78.7618 75.1948 78.6452 75.3497 78.4807 75.3513C77.794 75.3582 76.8006 75.3449 75.9378 75.3681C74.9289 75.3952 74.2877 75.3457 73.1046 75.3775C72.3893 75.3969 72.1649 74.6823 72.462 74.6091C73.8145 74.2756 74.6986 74.3415 75.8505 73.5867C75.9751 73.5049 76.1146 73.4444 76.2649 73.4404Z" fill="#263238"/>
<path d="M76.102 73.6847C76.1004 73.6854 76.0985 73.6859 76.0966 73.6863C75.8179 73.7496 75.3211 73.8315 75.1238 73.6682C75.0643 73.6188 75.036 73.5525 75.0393 73.4704C75.0414 73.4216 75.0636 73.3831 75.1035 73.3592C75.3117 73.2342 76.0242 73.5709 76.1046 73.6094C76.1204 73.617 76.1299 73.6337 76.128 73.6509C76.1266 73.6663 76.1162 73.6793 76.102 73.6847ZM75.1611 73.423C75.1557 73.4251 75.1507 73.4272 75.1462 73.4298C75.1299 73.4395 75.1226 73.4527 75.1219 73.4744C75.1198 73.5301 75.1375 73.5728 75.1764 73.6052C75.2871 73.6967 75.5743 73.7057 75.9569 73.6316C75.6758 73.5079 75.2909 73.3741 75.1611 73.423Z" fill="#407BFF"/>
<path d="M76.1019 73.6847C76.0922 73.6885 76.0814 73.6885 76.0715 73.6842C75.8579 73.596 75.4277 73.2321 75.4524 73.0352C75.4583 72.989 75.489 72.9312 75.6021 72.9163C75.6861 72.9054 75.764 72.9271 75.8336 72.9805C76.0618 73.1556 76.1255 73.6215 76.1281 73.6413C76.13 73.6559 76.1241 73.6701 76.1123 73.679C76.109 73.6814 76.1055 73.6833 76.1019 73.6847ZM75.5714 73.0074C75.5376 73.0201 75.5353 73.0388 75.5343 73.0461C75.5195 73.1643 75.8133 73.4513 76.0325 73.574C76.0051 73.4381 75.9332 73.1603 75.7833 73.0454C75.7312 73.0053 75.6755 72.9897 75.6134 72.9977C75.5955 73.0001 75.582 73.0034 75.5714 73.0074Z" fill="#407BFF"/>
<path d="M79.7595 35.856C80.6747 39.8245 79.1041 71.0353 79.1041 71.0353H76.0687L74.7709 45.0246L69.9908 71.0353L66.7467 70.7991C68.8674 50.6501 70.7422 38.6205 70.7422 38.6205L70.7377 37.1004L79.7595 35.856Z" fill="#263238"/>
<path opacity="0.4" d="M66.7462 70.7991L69.9912 71.0351L73.753 50.5597L74.7702 45.0255L76.0682 71.0351H79.1031C79.1031 71.0351 80.6749 39.8241 79.7592 35.8569L70.7369 37.1007L70.7416 38.6205C70.7416 38.6205 68.8678 50.6494 66.7462 70.7991Z" fill="white"/>
<path d="M78.1244 21.161C78.0147 23.1047 78.098 25.0434 78.2688 26.8488C78.3946 28.1695 78.5704 29.4181 78.7569 30.5448C79.1932 33.1859 79.6888 35.1652 79.7594 35.856C78.4373 36.0389 73.4547 36.7266 70.7376 37.1004C67.4478 27.9016 68.6868 22.5475 68.6868 22.5475C68.6868 22.5475 69.6274 22.1456 70.756 21.8395C70.9044 21.7982 71.0564 21.7609 71.2112 21.7252C72.2131 21.493 73.8868 21.3 75.047 21.1959C75.291 21.1742 75.539 21.1586 75.7811 21.1473C77.0135 21.0911 78.1244 21.161 78.1244 21.161Z" fill="#263238"/>
<path d="M73.2956 17.0215C73.3617 18.285 73.496 20.654 74.5457 21.2546C74.5457 21.2546 73.8923 22.4995 72.4784 22.626C71.4091 22.7218 71.4801 21.6671 71.4801 21.6671C72.0987 21.2048 71.9502 20.4239 71.4794 19.5434L73.2956 17.0215Z" fill="#E4897B"/>
<path opacity="0.2" d="M72.5553 18.0503L71.4801 19.542C71.5924 19.7502 71.6927 19.9647 71.7635 20.1795C72.2608 19.9807 72.8277 19.2458 72.7469 18.6948C72.7068 18.4198 72.6306 18.1647 72.5553 18.0503Z" fill="black"/>
<path d="M68.6941 14.4809C68.4879 15.1358 68.6009 16.4815 69.5161 16.0439C70.4313 15.6064 69.0486 13.3552 68.6941 14.4809Z" fill="#263238"/>
<path d="M73.4137 15.366C73.5142 17.0494 73.6591 18.0304 72.9169 18.9831C71.8006 20.4161 69.6382 19.8816 69.0349 18.2574C68.4919 16.7954 68.4187 14.2882 69.9785 13.4395C71.5153 12.6034 73.3131 13.6826 73.4137 15.366Z" fill="#E4897B"/>
<path d="M72.2335 14.4508V12.5701C72.2335 12.5701 74.2352 12.4214 74.1462 13.4459C75.255 13.9958 74.7308 15.7207 73.2417 16.5665C72.4256 15.9133 72.5188 14.3401 72.5188 14.3401C72.4308 14.3791 72.334 14.4156 72.2335 14.4508Z" fill="#263238"/>
<path d="M74.228 16.6805C74.1469 17.127 73.8658 17.4926 73.5545 17.6974C73.086 18.0056 72.6763 17.6269 72.6596 17.0947C72.6445 16.6156 72.8701 15.8781 73.411 15.7832C73.9437 15.69 74.321 16.17 74.228 16.6805Z" fill="#E4897B"/>
<path d="M70.9277 16.1174C70.9442 16.2536 70.8854 16.3721 70.7962 16.382C70.707 16.3919 70.6213 16.2897 70.6046 16.1535C70.5881 16.0174 70.6468 15.8989 70.736 15.889C70.8252 15.8791 70.9112 15.9812 70.9277 16.1174Z" fill="#263238"/>
<path d="M69.3852 16.2897C69.4017 16.4259 69.343 16.5443 69.2537 16.5542C69.1645 16.5642 69.0789 16.462 69.0621 16.3258C69.0456 16.1896 69.1044 16.0712 69.1936 16.0612C69.2828 16.0513 69.3684 16.1535 69.3852 16.2897Z" fill="#263238"/>
<path d="M69.8838 16.3027C69.8838 16.3027 69.6577 17.0942 69.3575 17.4999C69.6216 17.6859 70.0195 17.537 70.0195 17.537L69.8838 16.3027Z" fill="#DE5753"/>
<path d="M70.8143 17.9759C70.7593 17.9899 70.7005 18.0005 70.638 18.0076C70.6158 18.0099 70.5957 17.9941 70.5932 17.9722C70.5903 17.95 70.6068 17.9301 70.6283 17.9278C71.2278 17.8601 71.4562 17.4121 71.4586 17.4076C71.4682 17.3878 71.4928 17.38 71.5126 17.3897C71.5327 17.3996 71.5409 17.4239 71.531 17.4437C71.522 17.4617 71.325 17.8483 70.8143 17.9759Z" fill="#263238"/>
<path d="M71.343 15.5673C71.3159 15.5742 71.2857 15.5666 71.2647 15.5447C71.0143 15.2846 70.7216 15.3346 70.7186 15.3351C70.6747 15.3431 70.6324 15.3141 70.6239 15.2707C70.6154 15.227 70.6444 15.185 70.6879 15.177C70.7032 15.1741 71.0702 15.1111 71.3808 15.434C71.4117 15.4663 71.411 15.517 71.3789 15.5477C71.3685 15.5576 71.356 15.564 71.343 15.5673Z" fill="#263238"/>
<path d="M68.6559 15.8347C68.6411 15.8385 68.625 15.838 68.6094 15.8326C68.5672 15.8177 68.5448 15.7717 68.5594 15.7299C68.705 15.3096 69.0649 15.2216 69.0805 15.2154C69.1237 15.2051 69.1676 15.2317 69.1784 15.2747C69.1893 15.3176 69.1633 15.3608 69.1204 15.3717C69.1053 15.3747 68.8287 15.4462 68.7119 15.7835C68.7029 15.8099 68.6812 15.8283 68.6559 15.8347Z" fill="#263238"/>
<path d="M73.1221 15.1494C73.1221 15.1494 71.9487 14.7191 71.4033 14.0345C71.4033 14.0345 70.3323 14.3146 70.1128 14.7503C70.1128 14.7503 69.7414 14.439 70.0196 14.0345C70.0196 14.0345 69.2181 14.2037 69.0591 14.7503C69.0591 14.7503 68.6591 14.6132 68.6829 14.0345C68.6829 14.0345 68.3256 14.169 68.2128 14.7503C68.2128 14.7503 67.3264 12.9064 70.2502 12.3773C70.2502 12.3773 70.0194 12.2801 69.5653 12.2605C69.5653 12.2605 71.6048 11.4375 73.2231 12.1913C74.8415 12.9454 74.5458 14.3925 73.1221 15.1494Z" fill="#263238"/>
<path d="M80.4568 37.4436L77.6272 37.8212C77.6272 37.8212 76.459 29.6579 75.9445 27.0218V21.3908L77.4242 21.0014L78.5641 21.3908C78.8379 22.3042 79.0786 23.503 79.2886 24.8364C79.4279 25.7191 79.553 26.6631 79.6639 27.6189C79.8173 28.9216 79.9447 30.2479 80.0533 31.4893C80.2232 33.4929 80.3365 35.2676 80.3978 36.3485C80.438 37.0376 80.4568 37.4436 80.4568 37.4436Z" fill="#407BFF"/>
<path d="M75.9449 27.0211C75.9449 27.0211 76.1799 23.0497 77.4248 21.0007C77.4248 21.0007 77.3937 20.4145 77.1447 20.3211C76.8957 20.2276 75.9449 20.7879 75.9449 20.7879C75.9449 20.7879 75.3521 20.3834 75.2215 20.57C75.091 20.7567 74.776 22.0198 75.9449 27.0211Z" fill="#407BFF"/>
<path opacity="0.7" d="M75.9449 27.0211C75.9449 27.0211 76.1799 23.0497 77.4248 21.0007C77.4248 21.0007 77.3937 20.4145 77.1447 20.3211C76.8957 20.2276 75.9449 20.7879 75.9449 20.7879C75.9449 20.7879 75.3521 20.3834 75.2215 20.57C75.091 20.7567 74.776 22.0198 75.9449 27.0211Z" fill="white"/>
<path d="M69.5049 38.5365L69.8282 38.7701C69.8282 38.7701 69.361 36.1378 69.5498 29.4826C69.5592 29.1616 69.571 28.8524 69.5828 28.5574C69.8235 22.9265 70.6967 21.9022 70.7534 21.8409L69.9368 22.1194L68.4571 22.6291C68.0205 27.4341 69.5049 38.5365 69.5049 38.5365Z" fill="#407BFF"/>
<path d="M69.6333 27.5886C69.6333 27.5886 68.8161 23.7291 69.0591 22.3985C69.302 21.0679 70.1735 21.6591 70.1735 21.6591C70.1735 21.6591 70.9743 21.013 71.2119 21.725C71.2119 21.725 70.1129 22.4993 69.6333 27.5886Z" fill="#407BFF"/>
<path opacity="0.7" d="M69.6333 27.5886C69.6333 27.5886 68.8161 23.7291 69.0591 22.3985C69.302 21.0679 70.1735 21.6591 70.1735 21.6591C70.1735 21.6591 70.9743 21.013 71.2119 21.725C71.2119 21.725 70.1129 22.4993 69.6333 27.5886Z" fill="white"/>
<path opacity="0.2" d="M79.664 27.6189C78.4557 26.9416 78.2952 25.1739 78.2952 25.1739C78.3683 25.1456 78.8167 24.9922 79.2887 24.8365C79.428 25.7191 79.5531 26.6631 79.664 27.6189Z" fill="black"/>
<path opacity="0.2" d="M73.7532 50.5598L74.7704 45.0256L74.5745 42.0968C74.5745 42.0968 73.1797 47.1755 73.7532 50.5598Z" fill="black"/>
<path opacity="0.2" d="M80.3978 36.3485C79.6379 36.2966 78.9795 36.247 78.9795 36.247L78.8355 33.1578C78.8355 33.1578 79.0809 32.9525 79.6308 33.0115C79.6308 33.0115 79.8786 32.4073 80.0533 31.4893C80.2232 33.4929 80.3365 35.2676 80.3978 36.3485Z" fill="black"/>
<path d="M80.657 31.4862L79.1773 33.8623L80.3476 34.5351L81.7379 32.3941L80.657 31.4862Z" fill="#E4897B"/>
<path d="M78.5049 21.3611C79.5012 21.4706 83.7337 27.2803 83.9203 29.0319C84.107 30.7832 81.4341 33.8064 81.4341 33.8064L79.6478 32.7555C79.6478 32.7555 81.4617 29.9683 81.5552 29.2244C81.6486 28.4806 78.2401 25.431 78.2401 25.431C78.2401 25.431 77.8679 24.5351 77.8207 23.2456C77.7733 21.9561 78.5049 21.3611 78.5049 21.3611Z" fill="#407BFF"/>
<path d="M78.8342 33.1583C78.8342 33.1583 80.3575 33.4852 80.9695 34.4419C80.9695 34.4419 80.3337 36.4361 79.8787 36.6532C79.4239 36.8703 78.2937 36.8703 78.2937 36.8703C78.2937 36.8703 78.2213 34.6522 78.8342 33.1583Z" fill="#407BFF"/>
</svg>
