<svg width="156" height="129" viewBox="0 0 156 129" fill="none" xmlns="http://www.w3.org/2000/svg">
<path d="M38.9503 127.968C38.4094 127.968 37.7785 127.968 37.1475 127.878C36.5166 127.788 35.9758 127.698 35.4349 127.517C34.8941 127.337 34.3533 127.157 33.9026 126.977C33.5421 126.796 33.2717 126.526 33.0914 126.256C32.9111 125.985 32.9111 125.625 32.9111 125.264C32.9111 124.903 33.0914 124.633 33.2717 124.363C33.4519 124.092 33.7224 123.912 34.0829 123.822C34.4434 123.732 34.804 123.732 35.1645 124.002C35.7054 124.273 36.3363 124.453 36.9673 124.633C37.6883 124.813 38.3193 124.813 38.8601 124.813C39.7615 124.813 40.4826 124.723 40.8431 124.453C41.2037 124.182 41.3839 123.912 41.3839 123.551C41.3839 123.191 41.2938 122.92 41.0234 122.74C40.753 122.56 40.3023 122.38 39.6713 122.199L37.1475 121.659C35.7955 121.388 34.804 120.847 34.0829 120.126C33.4519 119.405 33.0914 118.504 33.0914 117.422C33.0914 116.701 33.2717 115.98 33.5421 115.439C33.8125 114.808 34.2632 114.358 34.804 113.907C35.3448 113.456 36.0659 113.186 36.787 112.915C37.5982 112.645 38.4094 112.555 39.4009 112.555C40.122 112.555 40.8431 112.645 41.6543 112.825C42.3754 113.005 43.0965 113.276 43.6373 113.546C43.9979 113.727 44.1781 113.907 44.3584 114.267C44.5387 114.538 44.5387 114.898 44.5387 115.169C44.5387 115.529 44.3584 115.8 44.1781 115.98C43.9979 116.25 43.7275 116.341 43.3669 116.431C43.0064 116.521 42.6458 116.431 42.1952 116.25C41.7445 116.07 41.2938 115.89 40.8431 115.8C40.3023 115.71 39.8516 115.619 39.3108 115.619C38.77 115.619 38.3193 115.71 37.9588 115.8C37.5982 115.89 37.3278 116.07 37.1475 116.341C36.9673 116.611 36.8771 116.791 36.8771 117.152C36.8771 117.422 36.9673 117.693 37.2377 117.873C37.5081 118.053 37.9588 118.233 38.5897 118.414L41.0234 118.954C42.3754 119.225 43.4571 119.766 44.088 120.397C44.8091 121.118 45.0795 121.929 45.0795 123.101C45.0795 123.822 44.8992 124.543 44.6288 125.084C44.3584 125.715 43.9077 126.165 43.3669 126.616C42.8261 127.067 42.105 127.337 41.3839 127.608C40.5727 127.878 39.7615 127.968 38.77 127.968H38.9503ZM52.3805 127.968C51.7496 127.968 51.2989 127.788 50.9384 127.427C50.5778 127.067 50.3975 126.616 50.3975 125.985V115.98H47.0625C46.5217 115.98 46.1611 115.8 45.8907 115.529C45.6203 115.259 45.4401 114.898 45.4401 114.358C45.4401 113.817 45.6203 113.456 45.8907 113.186C46.1611 112.915 46.6118 112.825 47.0625 112.825H57.6986C58.2394 112.825 58.5999 113.005 58.8703 113.186C59.1407 113.456 59.321 113.817 59.321 114.358C59.321 114.898 59.1407 115.259 58.8703 115.529C58.5999 115.8 58.1492 115.98 57.6986 115.98H54.3635V125.985C54.3635 126.616 54.1833 127.067 53.9128 127.427C53.5523 127.788 53.1016 127.968 52.4707 127.968H52.3805ZM66.9826 127.968C65.4503 127.968 64.0982 127.608 63.0166 126.977C61.8448 126.346 60.9435 125.444 60.3125 124.273C59.6816 123.101 59.4112 121.749 59.4112 120.216C59.4112 119.045 59.5914 117.963 59.952 117.062C60.3125 116.07 60.8533 115.259 61.4843 114.628C62.1152 113.907 62.9265 113.456 63.918 113.096C64.8193 112.735 65.901 112.555 66.9826 112.555C68.5149 112.555 69.8669 112.915 70.9486 113.546C72.1204 114.177 73.0217 115.079 73.6527 116.25C74.2836 117.422 74.6442 118.774 74.6442 120.307C74.6442 121.478 74.4639 122.56 74.1033 123.461C73.7428 124.453 73.202 125.264 72.571 125.895C71.9401 126.616 71.1289 127.067 70.1374 127.427C69.236 127.788 68.1544 127.968 67.0727 127.968H66.9826ZM66.9826 124.723C67.7037 124.723 68.3346 124.543 68.8754 124.182C69.4163 123.822 69.7768 123.281 70.0472 122.65C70.3176 122.019 70.4979 121.208 70.4979 120.216C70.4979 118.774 70.2275 117.693 69.5965 116.971C68.9656 116.16 68.0642 115.8 66.9826 115.8C66.2615 115.8 65.6305 115.98 65.0897 116.341C64.5489 116.701 64.1884 117.152 63.8278 117.873C63.5574 118.504 63.3771 119.315 63.3771 120.307C63.3771 121.749 63.6476 122.83 64.2785 123.551C64.9095 124.363 65.8108 124.723 66.8925 124.723H66.9826ZM78.8806 127.968C78.2496 127.968 77.7989 127.788 77.4384 127.427C77.0778 127.067 76.8976 126.616 76.8976 125.985V114.718C76.8976 114.087 77.0778 113.546 77.4384 113.276C77.7989 112.915 78.2496 112.735 78.8806 112.735H84.1084C85.821 112.735 87.0829 113.186 88.0744 113.997C88.9758 114.808 89.4265 115.98 89.4265 117.422C89.4265 118.414 89.2462 119.225 88.7955 119.856C88.3448 120.577 87.804 121.118 86.9928 121.478C86.1816 121.839 85.2802 122.019 84.1084 122.019L84.2887 121.659H85.2802C85.9112 121.659 86.452 121.839 86.9027 122.109C87.3534 122.38 87.804 122.83 88.0744 123.461L89.1561 125.354C89.4265 125.805 89.5166 126.165 89.5166 126.526C89.5166 126.886 89.3363 127.247 89.0659 127.517C88.7955 127.788 88.3448 127.878 87.804 127.878C87.2632 127.878 86.8125 127.788 86.452 127.517C86.0914 127.247 85.821 126.977 85.5506 126.436L83.6578 122.92C83.4775 122.65 83.2972 122.38 83.0268 122.29C82.7564 122.199 82.486 122.109 82.1255 122.109H80.9537V125.895C80.9537 126.526 80.7734 126.977 80.503 127.337C80.1425 127.698 79.6918 127.878 79.0608 127.878L78.8806 127.968ZM80.8635 119.405H83.4775C84.1986 119.405 84.8295 119.225 85.1901 118.954C85.5506 118.684 85.821 118.233 85.821 117.602C85.821 116.971 85.6408 116.521 85.1901 116.25C84.8295 115.98 84.1986 115.8 83.4775 115.8H80.8635V119.405ZM93.9333 127.968C93.3023 127.968 92.8517 127.788 92.4911 127.427C92.1306 127.067 91.9503 126.616 91.9503 125.985V114.628C91.9503 113.997 92.1306 113.456 92.4911 113.096C92.8517 112.735 93.3023 112.555 93.9333 112.555C94.5642 112.555 95.0149 112.735 95.3755 113.096C95.736 113.456 95.9163 113.907 95.9163 114.628V125.985C95.9163 126.616 95.736 127.157 95.4656 127.427C95.1051 127.788 94.6544 127.968 94.0234 127.968H93.9333ZM100.693 127.788C100.063 127.788 99.5217 127.608 99.1612 127.247C98.8006 126.886 98.6204 126.436 98.6204 125.715V114.718C98.6204 114.087 98.8006 113.546 99.1612 113.186C99.5217 112.825 99.9724 112.645 100.693 112.645H107.904C108.445 112.645 108.806 112.735 109.076 113.005C109.347 113.276 109.437 113.636 109.437 114.087C109.437 114.538 109.347 114.988 109.076 115.259C108.806 115.529 108.445 115.619 107.904 115.619H102.406V118.504H107.454C107.995 118.504 108.355 118.594 108.625 118.864C108.896 119.135 108.986 119.495 108.986 120.036C108.986 120.487 108.896 120.937 108.625 121.208C108.355 121.478 107.995 121.568 107.454 121.568H102.406V124.633H107.904C108.445 124.633 108.806 124.723 109.076 124.994C109.347 125.264 109.437 125.625 109.437 126.075C109.437 126.616 109.347 126.977 109.076 127.247C108.806 127.517 108.445 127.608 107.904 127.608H100.693V127.788ZM117.098 128.058C116.557 128.058 115.927 128.058 115.296 127.968C114.665 127.878 114.124 127.788 113.583 127.608C113.042 127.427 112.501 127.247 112.051 127.067C111.69 126.886 111.42 126.616 111.239 126.346C111.059 126.075 111.059 125.715 111.059 125.354C111.059 124.994 111.239 124.723 111.42 124.453C111.6 124.182 111.87 124.002 112.231 123.912C112.591 123.822 112.952 123.822 113.313 124.092C113.853 124.363 114.484 124.543 115.115 124.723C115.836 124.903 116.467 124.903 117.008 124.903C117.91 124.903 118.631 124.813 118.991 124.543C119.352 124.273 119.532 124.002 119.532 123.642C119.532 123.281 119.442 123.011 119.171 122.83C118.901 122.65 118.45 122.47 117.819 122.29L115.296 121.749C113.944 121.478 112.952 120.937 112.231 120.216C111.6 119.495 111.239 118.594 111.239 117.512C111.239 116.791 111.42 116.07 111.69 115.529C111.961 114.898 112.411 114.448 112.952 113.997C113.493 113.546 114.214 113.276 114.935 113.005C115.746 112.735 116.557 112.645 117.549 112.645C118.27 112.645 118.991 112.735 119.802 112.915C120.523 113.096 121.245 113.366 121.785 113.636C122.146 113.817 122.326 113.997 122.506 114.358C122.687 114.628 122.687 114.988 122.687 115.259C122.687 115.619 122.506 115.89 122.326 116.07C122.146 116.341 121.875 116.431 121.515 116.521C121.154 116.611 120.794 116.521 120.343 116.341C119.892 116.16 119.442 115.98 118.991 115.89C118.45 115.8 118 115.71 117.459 115.71C116.918 115.71 116.467 115.8 116.107 115.89C115.746 115.98 115.476 116.16 115.296 116.431C115.115 116.701 115.025 116.881 115.025 117.242C115.025 117.512 115.115 117.783 115.386 117.963C115.656 118.143 116.107 118.324 116.738 118.504L119.171 119.045C120.523 119.315 121.605 119.856 122.236 120.487C122.957 121.208 123.228 122.019 123.228 123.191C123.228 123.912 123.047 124.633 122.777 125.174C122.506 125.805 122.056 126.255 121.515 126.706C120.974 127.157 120.253 127.427 119.532 127.698C118.721 127.968 117.909 128.058 116.918 128.058H117.098Z" stroke="white" stroke-width="1.86153" stroke-miterlimit="2.61313" stroke-linecap="round" stroke-linejoin="round"/>
<path d="M38.9503 127.968C38.4094 127.968 37.7785 127.968 37.1475 127.878C36.5166 127.788 35.9758 127.698 35.4349 127.517C34.8941 127.337 34.3533 127.157 33.9026 126.977C33.5421 126.796 33.2717 126.526 33.0914 126.256C32.9111 125.985 32.9111 125.625 32.9111 125.264C32.9111 124.903 33.0914 124.633 33.2717 124.363C33.4519 124.092 33.7224 123.912 34.0829 123.822C34.4434 123.732 34.804 123.732 35.1645 124.002C35.7054 124.273 36.3363 124.453 36.9673 124.633C37.6883 124.813 38.3193 124.813 38.8601 124.813C39.7615 124.813 40.4826 124.723 40.8431 124.453C41.2037 124.182 41.3839 123.912 41.3839 123.551C41.3839 123.191 41.2938 122.92 41.0234 122.74C40.753 122.56 40.3023 122.38 39.6713 122.199L37.1475 121.659C35.7955 121.388 34.804 120.847 34.0829 120.126C33.4519 119.405 33.0914 118.504 33.0914 117.422C33.0914 116.701 33.2717 115.98 33.5421 115.439C33.8125 114.808 34.2632 114.358 34.804 113.907C35.3448 113.456 36.0659 113.186 36.787 112.915C37.5982 112.645 38.4094 112.555 39.4009 112.555C40.122 112.555 40.8431 112.645 41.6543 112.825C42.3754 113.005 43.0965 113.276 43.6373 113.546C43.9979 113.727 44.1781 113.907 44.3584 114.267C44.5387 114.538 44.5387 114.898 44.5387 115.169C44.5387 115.529 44.3584 115.8 44.1781 115.98C43.9979 116.25 43.7275 116.341 43.3669 116.431C43.0064 116.521 42.6458 116.431 42.1952 116.25C41.7445 116.07 41.2938 115.89 40.8431 115.8C40.3023 115.71 39.8516 115.619 39.3108 115.619C38.77 115.619 38.3193 115.71 37.9588 115.8C37.5982 115.89 37.3278 116.07 37.1475 116.341C36.9673 116.611 36.8771 116.791 36.8771 117.152C36.8771 117.422 36.9673 117.693 37.2377 117.873C37.5081 118.053 37.9588 118.233 38.5897 118.414L41.0234 118.954C42.3754 119.225 43.4571 119.766 44.088 120.397C44.8091 121.118 45.0795 121.929 45.0795 123.101C45.0795 123.822 44.8992 124.543 44.6288 125.084C44.3584 125.715 43.9077 126.165 43.3669 126.616C42.8261 127.067 42.105 127.337 41.3839 127.608C40.5727 127.878 39.7615 127.968 38.77 127.968H38.9503ZM52.3805 127.968C51.7496 127.968 51.2989 127.788 50.9384 127.427C50.5778 127.067 50.3975 126.616 50.3975 125.985V115.98H47.0625C46.5217 115.98 46.1611 115.8 45.8907 115.529C45.6203 115.259 45.4401 114.898 45.4401 114.358C45.4401 113.817 45.6203 113.456 45.8907 113.186C46.1611 112.915 46.6118 112.825 47.0625 112.825H57.6986C58.2394 112.825 58.5999 113.005 58.8703 113.186C59.1407 113.456 59.321 113.817 59.321 114.358C59.321 114.898 59.1407 115.259 58.8703 115.529C58.5999 115.8 58.1492 115.98 57.6986 115.98H54.3635V125.985C54.3635 126.616 54.1833 127.067 53.9128 127.427C53.5523 127.788 53.1016 127.968 52.4707 127.968H52.3805ZM66.9826 127.968C65.4503 127.968 64.0982 127.608 63.0166 126.977C61.8448 126.346 60.9435 125.444 60.3125 124.273C59.6816 123.101 59.4112 121.749 59.4112 120.216C59.4112 119.045 59.5914 117.963 59.952 117.062C60.3125 116.07 60.8533 115.259 61.4843 114.628C62.1152 113.907 62.9265 113.456 63.918 113.096C64.8193 112.735 65.901 112.555 66.9826 112.555C68.5149 112.555 69.8669 112.915 70.9486 113.546C72.1203 114.177 73.0217 115.079 73.6527 116.25C74.2836 117.422 74.6442 118.774 74.6442 120.307C74.6442 121.478 74.4639 122.56 74.1033 123.461C73.7428 124.453 73.202 125.264 72.571 125.895C71.9401 126.616 71.1289 127.067 70.1374 127.427C69.236 127.788 68.1544 127.968 67.0727 127.968H66.9826ZM66.9826 124.723C67.7037 124.723 68.3346 124.543 68.8754 124.182C69.4163 123.822 69.7768 123.281 70.0472 122.65C70.3176 122.019 70.4979 121.208 70.4979 120.216C70.4979 118.774 70.2275 117.693 69.5965 116.971C68.9656 116.16 68.0642 115.8 66.9826 115.8C66.2615 115.8 65.6305 115.98 65.0897 116.341C64.5489 116.701 64.1884 117.152 63.8278 117.873C63.5574 118.504 63.3771 119.315 63.3771 120.307C63.3771 121.749 63.6476 122.83 64.2785 123.551C64.9095 124.363 65.8108 124.723 66.8925 124.723H66.9826ZM78.8806 127.968C78.2496 127.968 77.7989 127.788 77.4384 127.427C77.0778 127.067 76.8976 126.616 76.8976 125.985V114.718C76.8976 114.087 77.0778 113.546 77.4384 113.276C77.7989 112.915 78.2496 112.735 78.8806 112.735H84.1084C85.821 112.735 87.0829 113.186 88.0744 113.997C88.9758 114.808 89.4265 115.98 89.4265 117.422C89.4265 118.414 89.2462 119.225 88.7955 119.856C88.3448 120.577 87.804 121.118 86.9928 121.478C86.1816 121.839 85.2802 122.019 84.1084 122.019L84.2887 121.659H85.2802C85.9112 121.659 86.452 121.839 86.9027 122.109C87.3534 122.38 87.804 122.83 88.0744 123.461L89.1561 125.354C89.4265 125.805 89.5166 126.165 89.5166 126.526C89.5166 126.886 89.3363 127.247 89.0659 127.517C88.7955 127.788 88.3448 127.878 87.804 127.878C87.2632 127.878 86.8125 127.788 86.452 127.517C86.0914 127.247 85.821 126.977 85.5506 126.436L83.6578 122.92C83.4775 122.65 83.2972 122.38 83.0268 122.29C82.7564 122.199 82.486 122.109 82.1255 122.109H80.9537V125.895C80.9537 126.526 80.7734 126.977 80.503 127.337C80.1425 127.698 79.6918 127.878 79.0608 127.878L78.8806 127.968ZM80.8635 119.405H83.4775C84.1986 119.405 84.8295 119.225 85.1901 118.954C85.5506 118.684 85.821 118.233 85.821 117.602C85.821 116.971 85.6408 116.521 85.1901 116.25C84.8295 115.98 84.1986 115.8 83.4775 115.8H80.8635V119.405ZM93.9333 127.968C93.3023 127.968 92.8517 127.788 92.4911 127.427C92.1306 127.067 91.9503 126.616 91.9503 125.985V114.628C91.9503 113.997 92.1306 113.456 92.4911 113.096C92.8517 112.735 93.3023 112.555 93.9333 112.555C94.5642 112.555 95.0149 112.735 95.3755 113.096C95.736 113.456 95.9163 113.907 95.9163 114.628V125.985C95.9163 126.616 95.736 127.157 95.4656 127.427C95.1051 127.788 94.6544 127.968 94.0234 127.968H93.9333ZM100.693 127.788C100.063 127.788 99.5217 127.608 99.1612 127.247C98.8006 126.886 98.6204 126.436 98.6204 125.715V114.718C98.6204 114.087 98.8006 113.546 99.1612 113.186C99.5217 112.825 99.9724 112.645 100.693 112.645H107.904C108.445 112.645 108.806 112.735 109.076 113.005C109.347 113.276 109.437 113.636 109.437 114.087C109.437 114.538 109.347 114.988 109.076 115.259C108.806 115.529 108.445 115.619 107.904 115.619H102.406V118.504H107.454C107.995 118.504 108.355 118.594 108.625 118.864C108.896 119.135 108.986 119.495 108.986 120.036C108.986 120.487 108.896 120.937 108.625 121.208C108.355 121.478 107.995 121.568 107.454 121.568H102.406V124.633H107.904C108.445 124.633 108.806 124.723 109.076 124.994C109.347 125.264 109.437 125.625 109.437 126.075C109.437 126.616 109.347 126.977 109.076 127.247C108.806 127.517 108.445 127.608 107.904 127.608H100.693V127.788ZM117.098 128.058C116.557 128.058 115.926 128.058 115.296 127.968C114.665 127.878 114.124 127.788 113.583 127.608C113.042 127.427 112.501 127.247 112.051 127.067C111.69 126.886 111.42 126.616 111.239 126.346C111.059 126.075 111.059 125.715 111.059 125.354C111.059 124.994 111.239 124.723 111.42 124.453C111.6 124.182 111.87 124.002 112.231 123.912C112.591 123.822 112.952 123.822 113.313 124.092C113.853 124.363 114.484 124.543 115.115 124.723C115.836 124.903 116.467 124.903 117.008 124.903C117.91 124.903 118.631 124.813 118.991 124.543C119.352 124.273 119.532 124.002 119.532 123.642C119.532 123.281 119.442 123.011 119.171 122.83C118.901 122.65 118.45 122.47 117.819 122.29L115.296 121.749C113.944 121.478 112.952 120.937 112.231 120.216C111.6 119.495 111.239 118.594 111.239 117.512C111.239 116.791 111.42 116.07 111.69 115.529C111.961 114.898 112.411 114.448 112.952 113.997C113.493 113.546 114.214 113.276 114.935 113.005C115.746 112.735 116.557 112.645 117.549 112.645C118.27 112.645 118.991 112.735 119.802 112.915C120.523 113.096 121.245 113.366 121.785 113.636C122.146 113.817 122.326 113.997 122.506 114.358C122.687 114.628 122.687 114.988 122.687 115.259C122.687 115.619 122.506 115.89 122.326 116.07C122.146 116.341 121.875 116.431 121.515 116.521C121.154 116.611 120.794 116.521 120.343 116.341C119.892 116.16 119.442 115.98 118.991 115.89C118.45 115.8 118 115.71 117.459 115.71C116.918 115.71 116.467 115.8 116.107 115.89C115.746 115.98 115.476 116.16 115.296 116.431C115.115 116.701 115.025 116.881 115.025 117.242C115.025 117.512 115.115 117.783 115.386 117.963C115.656 118.143 116.107 118.324 116.738 118.504L119.171 119.045C120.523 119.315 121.605 119.856 122.236 120.487C122.957 121.208 123.228 122.019 123.228 123.191C123.228 123.912 123.047 124.633 122.777 125.174C122.506 125.805 122.056 126.255 121.515 126.706C120.974 127.157 120.253 127.427 119.532 127.698C118.721 127.968 117.91 128.058 116.918 128.058H117.098Z" fill="black"/>
<path fill-rule="evenodd" clip-rule="evenodd" d="M1.99445 46.485C-1.43073 54.417 0.0114529 63.6109 3.79717 69.8303L4.24785 70.3711L4.69853 71.1823L5.14921 71.7231L6.50125 73.5258C7.13221 73.5258 6.95194 73.3456 6.95194 74.0667L8.75466 75.8694C9.47575 75.8694 9.29548 75.6891 9.29548 76.4102C12.4502 78.934 13.622 79.8354 18.0387 81.2775C24.1679 83.2605 25.4298 82.4493 29.7564 82.3592C33.9928 100.477 54.3635 102.009 62.8363 90.2912L64.5489 87.8575C66.0812 93.4459 73.3823 96.8711 78.8806 97.7725C81.0438 98.133 82.2156 97.6823 84.1085 97.4119C86.452 97.0514 86.1816 97.3218 88.1646 98.4935C98.8007 104.983 114.755 101.198 121.785 89.8405C123.137 87.6772 125.03 83.9816 125.301 81.0071C131.34 82.4493 137.379 84.883 145.671 79.9255C148.556 78.2129 150.359 76.4102 152.342 73.7962C153.694 71.9935 156.308 67.667 155.677 64.6023C157.209 54.5071 152.432 46.485 144.41 42.2486C140.714 40.2656 139.722 40.8965 136.117 39.7248C134.945 36.7503 135.216 28.3676 125.932 25.1227C116.107 21.6976 111.149 28.7282 108.716 29.9901C107.183 22.6891 100.243 19.2639 92.7615 19.1737C92.1306 17.0105 91.4996 16.019 90.2377 14.2163L87.1731 9.70945C85.1901 8.26727 83.3874 6.104 80.6833 4.57169C78.1595 3.12951 75.6357 1.8676 72.3006 1.05638C54.9044 -3.54057 35.0744 7.81659 34.173 31.1618C27.9537 30.8914 22.7258 28.3676 13.3516 33.6857C4.8788 38.4629 3.25635 45.2231 1.81418 46.6653L1.99445 46.485Z" fill="#96CFFF"/>
<path fill-rule="evenodd" clip-rule="evenodd" d="M74.4639 80.3762C73.7428 75.8694 72.9316 71.2724 72.1204 66.7656C71.4894 63.3404 69.4163 57.0309 71.1289 54.5972C74.8245 49.3693 79.3313 45.2231 87.9844 43.2401L93.9333 67.667C89.066 69.2894 86.6323 70.2809 82.7565 72.985C79.151 75.5088 77.4384 78.303 74.4639 80.4663V80.3762ZM47.1527 50.451C54.5438 49.0088 63.1969 52.3438 66.7122 55.4085C68.9656 57.3915 69.1459 63.8813 69.867 67.5768C70.6782 71.9935 71.5796 76.5003 72.1204 80.917C64.8194 77.6721 60.583 74.5173 49.5864 75.3285C49.0455 70.9119 46.5217 53.2452 47.1527 50.3608V50.451ZM67.4333 84.6126C58.3296 83.8013 58.1493 81.3677 43.4571 82.9901C43.0064 81.3677 41.2037 62.7095 42.1952 61.2673C43.0064 64.0615 43.7275 74.6075 44.0881 78.7537C44.6289 84.6126 47.9639 78.2129 62.7462 82.7197L66.8024 84.252C66.8925 84.3422 67.0728 84.4323 67.0728 84.4323C67.1629 84.5224 67.253 84.6126 67.3432 84.6126H67.4333ZM96.2769 51.803C97.2684 52.7945 102.046 70.1006 102.316 72.6245C97.6289 74.1568 94.4742 74.8779 90.0575 76.8609C86.1816 78.6636 83.0269 81.1874 79.6918 82.7197C82.3959 79.1143 91.1391 73.8864 97.0881 72.4442C101.505 71.3626 101.144 72.7146 98.6204 62.9799C98.0796 60.7265 95.6459 53.1551 96.1867 51.7129L96.2769 51.803ZM82.7565 75.9595C84.0184 74.8779 85.1901 74.1568 86.7225 73.2554C90.5983 71.002 92.6714 70.9119 96.6374 69.3796C96.6374 64.2418 90.7786 48.0173 91.5898 45.5836C92.7616 47.2061 97.6289 66.7656 97.8993 69.9204C94.1136 70.9119 90.7786 72.2639 87.6238 73.9765C84.3789 75.6891 82.3058 77.7622 79.5116 79.2945L82.7565 75.9595ZM46.7921 78.8439C45.9809 76.0496 45.1697 64.2418 44.719 59.735C44.5387 58.0224 43.8177 55.3183 44.6289 53.786C46.2513 56.8506 45.9809 73.3456 47.6935 77.5819C47.7836 77.5819 47.9639 77.6721 47.9639 77.6721L48.9554 77.8524C54.0932 77.9425 57.4282 76.7707 65.2701 80.286C65.5405 80.3762 66.1714 80.7367 66.4418 80.8268C67.253 81.3677 66.8024 81.0071 67.253 81.4578C64.549 81.0973 61.1238 79.6551 57.6085 79.1143C54.1833 78.5734 50.4877 78.303 46.8823 78.8439H46.7921ZM42.1952 58.7435C38.3193 59.4646 39.1306 59.5547 39.4911 63.7911C41.9248 92.2741 37.9588 84.6126 51.1187 84.883C56.8874 84.9731 61.8449 85.6041 67.253 87.2265C69.4163 87.8575 72.6612 89.4799 74.8245 88.9391C77.168 88.3983 85.3704 80.917 95.9163 76.951C100.423 75.2384 104.93 75.8694 104.93 73.1653C105.02 71.2724 100.423 56.5802 99.4317 52.8846C98.0796 47.9272 98.981 49.6397 95.1953 49.0088L93.4827 42.6091L90.5082 42.9697C89.8772 40.536 90.7786 39.4544 84.2888 41.5275C73.5626 44.9527 70.5881 52.1636 68.2445 53.786C64.6391 49.5496 53.3721 45.6738 44.6289 48.2877V50.9918C43.367 51.2622 42.4656 51.4425 41.6544 51.9833L42.2853 58.5632L42.1952 58.7435Z" fill="#003399"/>
<path fill-rule="evenodd" clip-rule="evenodd" d="M62.3857 46.1245C63.287 44.2316 60.0421 38.6432 59.0506 36.4799C56.7972 31.4323 56.1663 28.0972 53.8227 28.4578C52.9214 30.5309 56.1663 35.8489 57.1578 38.1023C59.4112 43.15 59.952 46.3949 62.3857 46.0343V46.1245ZM50.7581 39.4544C49.3159 37.9221 46.9724 34.2265 44.5387 34.7673C44.088 36.3897 45.0795 37.201 46.1612 38.1925C48.5047 40.4459 53.7326 47.0258 55.2649 45.7639C56.7972 44.502 51.8397 40.536 50.7581 39.3642V39.4544ZM78.3398 41.7078C80.2326 42.0683 80.503 40.7163 81.134 39.184C82.6663 35.3081 86.1816 30.0802 85.0098 27.917C82.9367 28.0071 83.117 28.9986 82.3057 30.7112L78.9707 38.1023C78.7904 38.4629 78.1595 39.8149 78.1595 39.9051C77.6187 41.8881 78.4299 41.7979 78.4299 41.7979L78.3398 41.7078ZM64.5489 34.4969C64.0081 36.3897 65.7207 45.6738 66.7122 47.6568C68.6952 47.2962 68.6952 47.116 68.4248 45.133C68.2445 43.6908 67.884 42.1585 67.6135 40.7163C66.8023 36.2095 67.1629 33.9561 64.5489 34.587V34.4969ZM63.4673 20.2554C60.6731 20.1652 62.0251 23.1397 62.4758 25.6636C62.8363 27.8268 63.1067 30.5309 64.0081 32.1534C66.9826 31.7027 65.4503 28.7282 64.4588 22.9595C64.0081 20.2554 63.7377 20.8863 63.6476 20.5258C63.6476 20.3455 63.4673 20.3455 63.4673 20.2554ZM72.571 44.502C73.7428 43.6006 73.6527 43.6908 73.7428 41.7078C74.0132 38.7333 74.7343 33.7758 73.4724 32.5139C71.7598 32.7843 71.9401 33.1448 71.7598 34.8574C71.5795 36.1193 71.5795 37.3812 71.5795 38.553C71.219 43.4204 70.588 43.6908 72.571 44.4119V44.502ZM72.6612 31.5224C75.3653 31.4323 74.6442 30.4408 74.8244 27.7367C75.0047 25.3931 75.6357 24.5819 74.1034 23.4101C71.3993 23.951 72.3006 30.621 72.6612 31.5224ZM53.372 24.0411C52.5608 22.4187 52.7411 21.6976 51.1186 21.1567C49.4962 22.3285 50.037 22.5989 51.0285 24.6721C51.8397 26.4748 51.6595 26.9255 53.1918 27.5564C54.9945 26.3846 54.3635 26.0241 53.4622 24.0411H53.372ZM60.6731 12.7741C60.3125 14.3965 60.8533 17.2809 61.5744 18.9935C63.918 18.9033 63.7377 18.3625 63.287 15.8387C62.9265 13.5853 63.0166 12.2333 60.6731 12.6839V12.7741ZM74.9146 17.2809C73.2921 17.371 73.2921 17.6414 73.0217 19.0836C72.8414 20.3455 72.6612 21.7877 73.6527 22.4186C75.7258 23.6806 75.9061 18.9935 74.9146 17.2809ZM59.5914 57.4816C60.1323 59.1942 59.6816 61.3575 58.3295 60.6364C57.4282 60.0956 58.5999 59.2843 58.7802 59.1041C59.4112 58.4731 59.321 57.9323 59.5013 57.4816H59.5914ZM55.355 66.9459C54.8142 66.2248 54.4537 65.2333 54.4537 64.1517C54.4537 63.1602 54.6339 62.349 54.9945 61.6279C55.2649 61.0871 55.8959 60.0956 56.4367 59.8251C56.3465 61.5377 57.7887 62.6194 59.4112 62.349C61.1237 61.9884 61.4843 60.366 61.5744 58.9238C62.6561 59.2843 63.8278 60.0956 64.5489 61.3575C66.4418 64.7826 64.1884 69.019 60.3125 69.3796C58.4197 69.5598 56.5268 68.5683 55.4452 67.036L55.355 66.9459ZM60.5829 70.9119C61.6646 70.8218 62.7462 70.3711 63.5574 69.9204C67.0727 67.667 67.7938 63.2503 65.5404 60.0054C64.6391 58.7435 62.7462 57.3915 61.304 57.2112C60.8533 55.5887 59.6816 54.6874 58.5999 54.2367C57.8788 53.9663 56.9775 54.3268 57.1578 55.3183C57.338 56.0394 57.969 55.769 58.0591 57.3013C55.0846 58.1126 53.1918 60.5462 52.9214 63.2503C52.7411 64.8728 53.1016 66.4952 53.9129 67.8473C55.355 70.1007 57.8788 71.3626 60.5829 71.0922V70.9119Z" fill="#003399"/>
<path fill-rule="evenodd" clip-rule="evenodd" d="M58.0592 66.8558C58.9605 68.7486 62.2054 68.2078 62.4758 66.0445L58.0592 66.8558ZM56.617 63.6109C56.617 63.6109 56.3466 63.701 56.2565 64.0615C56.1663 64.6925 56.8874 65.3234 57.5184 64.8728C58.2394 64.3319 57.4282 62.9799 56.617 63.6109ZM62.1153 62.6194C61.7548 62.8898 61.6646 63.3404 61.935 63.701C62.1153 63.9714 62.6561 64.1517 63.0167 63.8813C63.7378 63.3404 63.0167 61.9884 62.1153 62.6194ZM84.7395 60.0054C84.6493 60.0054 84.4691 60.0955 84.4691 60.0955C84.3789 60.0955 84.2888 60.0955 84.1987 60.0054C83.9282 59.9153 83.8381 59.735 83.748 59.4646C83.5677 58.9238 83.3874 58.383 83.2973 57.9323C83.2072 57.6619 83.117 56.7605 83.3874 56.5802C83.5677 56.4901 84.0184 56.9408 84.1987 57.121C84.5592 57.5717 85.2803 58.7435 85.2803 59.1942C85.2803 59.5547 85.1 59.8251 84.8296 60.0054H84.7395ZM73.7429 57.5717L78.4299 68.6585C78.5201 68.9289 78.8806 68.9289 78.9708 68.5683C79.0609 68.2979 79.0609 68.0275 79.151 67.7571C79.151 67.667 79.151 67.5768 79.2412 67.4867L79.3313 67.1262C79.5116 66.6755 79.6918 66.2248 79.9623 65.7741C80.0524 65.684 80.0524 65.5938 80.1425 65.5938C80.2327 65.5037 80.2327 65.4136 80.3228 65.4136C80.9538 64.7826 82.1255 64.6925 82.8466 64.6925H83.2072C83.3874 64.6925 83.4776 64.7826 83.6578 64.7826H83.748C83.9282 64.8728 83.8381 64.7826 84.0184 64.7826C84.1987 64.6925 84.1085 64.4221 84.1987 64.2418C84.2888 63.8813 84.3789 63.4306 84.5592 63.07C84.8296 62.4391 85.2803 61.8983 85.8211 61.4476C86.0915 61.1772 86.6323 60.8166 86.9929 60.7265C87.083 60.7265 87.083 60.6364 87.1731 60.6364C87.2633 60.6364 87.3534 60.5462 87.4436 60.5462C87.714 60.366 87.5337 59.9153 87.1731 60.0955C86.9027 60.1857 86.5422 60.366 86.2718 60.5462C86.1817 60.6364 85.6408 60.9068 85.5507 61.087L85.2803 60.366C85.3704 60.2758 85.4606 60.2758 85.5507 60.0955C85.6408 60.0054 85.731 59.9153 85.731 59.735C85.8211 59.4646 85.8211 59.104 85.731 58.8336C85.4606 58.1125 85.1 57.4816 84.6493 56.8506C84.4691 56.5802 84.2888 56.4 84.0184 56.2197C83.5677 55.8591 83.0269 55.9493 82.8466 56.4C82.5762 57.0309 82.7565 58.1125 82.9367 58.7435C83.117 59.2843 83.2973 60.0054 83.748 60.366C83.748 60.366 83.8381 60.3659 83.8381 60.4561C84.0184 60.5462 84.2888 60.6364 84.5592 60.6364H84.8296L85.1901 61.5377C85.0099 61.6279 84.6493 62.1687 84.5592 62.3489C84.5592 62.4391 84.4691 62.4391 84.4691 62.5292C84.2888 62.7095 84.1987 62.9799 84.1085 63.2503C84.0184 63.5207 83.748 64.2418 83.8381 64.4221C83.117 64.2418 82.4861 64.2418 81.765 64.4221C81.5847 64.4221 81.4044 64.5122 81.3143 64.5122C81.2242 64.5122 81.134 64.6023 81.0439 64.6023H80.9538C80.6833 64.6925 80.6833 64.6925 80.4129 64.9629C79.8721 65.4136 79.5116 65.9544 79.2412 66.5853C79.0609 66.8558 79.0609 67.036 78.9708 67.3064C78.9708 67.3966 78.9708 67.3966 78.8806 67.4867C78.8806 67.5768 78.8806 67.5768 78.7905 67.667L74.5541 57.5717L85.1901 53.0649L89.697 63.701L79.782 67.9374C79.4214 68.1177 79.6918 68.5683 79.9623 68.4782L90.1476 64.1517C90.3279 64.0615 90.3279 63.9714 90.3279 63.7911L85.6408 52.7044C85.5507 52.5241 85.4606 52.5241 85.2803 52.5241L74.1935 57.2112C74.0133 57.3013 74.0133 57.3915 74.0133 57.5717H73.7429Z" fill="#003399"/>
<path fill-rule="evenodd" clip-rule="evenodd" d="M74.4638 56.4L84.0183 52.3439C84.3788 52.1636 84.1084 51.9833 84.6492 51.5326C85.2802 51.0819 86.1815 51.4425 86.3618 52.2537C86.4519 52.7044 86.2717 52.7945 86.1815 52.9748V53.2452L90.2377 62.7996C90.3278 62.8898 90.3278 62.9799 90.4179 62.9799C90.5982 63.07 90.7785 63.07 91.0489 63.3405C91.2292 63.6109 91.3193 63.9714 91.2292 64.2418L91.139 64.4221C90.8686 64.8728 90.3278 65.053 89.8771 64.8728C89.8771 64.8728 89.787 64.8728 89.787 64.7826C89.787 64.7826 89.6968 64.7826 89.6968 64.6925H89.4264L79.872 68.7486C79.6016 68.8388 79.6917 68.9289 79.6016 69.1092C79.5115 69.2894 79.4213 69.3796 79.3312 69.4697C79.1509 69.5598 78.9706 69.65 78.7904 69.65C78.52 69.65 78.2496 69.5598 78.0693 69.4697C77.7989 69.2894 77.7087 69.1092 77.6186 68.7486C77.6186 68.5684 77.6186 68.3881 77.7087 68.2078C77.7989 68.0275 77.889 67.9374 77.7989 67.7571L73.7428 58.2027C73.5625 57.8422 73.2921 58.1126 72.9315 57.5717C72.8414 57.3915 72.7513 57.2112 72.7513 57.0309V56.6704C72.8414 56.4901 72.9315 56.3098 73.1118 56.1296C73.4723 55.8592 73.8329 55.8592 74.2836 55.9493C74.3737 55.9493 74.3737 55.9493 74.3737 56.0394H74.6441L74.4638 56.4ZM72.9315 55.8592L73.1118 55.769C73.2921 55.6789 73.5625 55.6789 73.7428 55.6789C73.8329 55.6789 73.923 55.6789 74.0132 55.769C74.1033 55.769 74.1934 55.8592 74.2836 55.8592L83.7479 51.8932C83.838 51.8932 83.838 51.7129 83.838 51.6228C84.0183 51.2622 84.2887 51.0819 84.6492 50.9017C85.3703 50.6313 86.2717 50.9918 86.6322 51.7129L86.7223 51.8932C86.8125 52.0734 86.8125 52.3439 86.8125 52.5241C86.8125 52.6143 86.8125 52.7044 86.7223 52.7945C86.7223 52.8847 86.6322 52.9748 86.6322 53.0649L90.5982 62.5292C90.5982 62.6194 90.7785 62.6194 90.8686 62.6194C91.2292 62.7996 91.4094 63.0701 91.5897 63.4306C91.77 63.7911 91.6798 64.332 91.5897 64.6024C91.4094 64.9629 91.139 65.2333 90.8686 65.4136L90.6883 65.5037C90.4179 65.5939 90.0574 65.5939 89.6968 65.5037C89.6067 65.5037 89.5166 65.4136 89.4264 65.4136L79.9621 69.3796C79.872 69.3796 79.872 69.65 79.6917 69.9204C79.5115 70.1007 79.3312 70.2809 79.1509 70.3711L78.9706 70.4612C78.7904 70.5513 78.6101 70.5513 78.4298 70.5513C77.7989 70.5513 77.3482 70.1908 77.0778 69.7401L76.9876 69.5599C76.8975 69.2894 76.8975 68.9289 76.9876 68.6585C76.9876 68.5684 77.0778 68.4782 77.0778 68.3881L73.1118 58.9238C73.1118 58.8337 72.9315 58.8337 72.8414 58.8337C72.4808 58.6534 72.3006 58.383 72.1203 58.0224C71.8499 57.3013 72.2104 56.4 72.9315 56.0394V55.8592Z" fill="#003399"/>
<path fill-rule="evenodd" clip-rule="evenodd" d="M79.151 60.0956C78.8806 60.1857 78.52 60.1857 78.3397 60.0054C78.0693 59.8251 77.9792 59.3745 78.0693 59.1041C78.3397 58.5632 79.2411 58.383 79.5115 59.1041C79.6918 59.4646 79.5115 59.9153 79.151 60.0956ZM77.7088 57.5717L78.0693 58.2928L77.7088 58.6534L77.5285 59.1041C77.5285 59.1942 77.4384 59.4646 77.5285 59.6449L76.8074 60.0054C76.537 60.0956 76.7173 60.6364 77.0778 60.4561L77.7989 60.1857L78.1595 60.5462L77.8891 61.1772C77.8891 61.2673 77.7989 61.3575 77.8891 61.5377C77.9792 61.718 78.0693 61.718 78.2496 61.6279C78.3397 61.5377 78.4299 61.3575 78.52 61.1772C78.6102 61.0871 78.7003 60.8166 78.7003 60.7265H79.151C79.2411 60.9068 79.4214 61.5377 79.5115 61.5377C79.6918 61.6279 79.9622 61.5377 79.9622 61.3575C79.9622 61.1772 79.6918 60.6364 79.6017 60.4561L79.9622 60.0956C80.0523 60.0956 80.503 60.2758 80.6833 60.366C80.7734 60.4561 80.8636 60.4561 80.9537 60.366C81.134 60.2758 81.2241 60.0054 80.8636 59.8251C80.6833 59.735 80.2326 59.5547 80.1425 59.5547V59.1041C80.3227 59.0139 80.8636 58.8337 80.9537 58.7435C81.134 58.5632 80.9537 58.383 80.7734 58.2928C80.6833 58.2928 80.0523 58.5632 79.8721 58.6534C79.7819 58.4731 79.6017 58.383 79.5115 58.2928C79.6017 58.2027 79.6918 57.752 79.7819 57.6619C79.8721 57.5717 79.8721 57.4816 79.7819 57.3915C79.6918 57.3013 79.6017 57.2112 79.5115 57.2112C79.3312 57.3013 79.2411 57.5717 79.151 57.752C79.151 57.8422 79.0608 58.0224 79.0608 58.1126H78.52L78.2496 57.3915C78.0693 57.0309 77.6187 57.2112 77.7088 57.5717ZM82.8466 17.0105C83.5676 19.8047 85.3704 20.9765 88.2547 20.7962C85.4605 21.5173 84.2887 23.32 84.469 26.2044C83.7479 23.4102 81.9452 22.2384 79.0608 22.4187C81.8551 21.6976 83.0268 19.8948 82.8466 17.0105ZM73.9231 5.29279C74.6442 8.08701 76.4469 9.25878 79.3312 9.0785C76.537 9.79959 75.3653 11.6023 75.5455 14.4867C74.8244 11.6925 73.0217 10.5207 70.1374 10.701C72.9316 9.97987 74.1033 8.17714 73.9231 5.29279ZM54.1833 12.053C54.9044 14.8472 56.7071 16.019 59.5914 15.8387C56.7972 16.5598 55.6254 18.3625 55.8057 21.2469C55.0846 18.4527 53.2819 17.2809 50.3975 17.4612C53.1918 16.7401 54.3635 14.9374 54.1833 12.053ZM41.0234 22.0581C41.7445 24.8523 43.5472 26.0241 46.4316 25.8438C43.6373 26.5649 42.4656 28.3676 42.6458 31.252C41.9247 28.4578 40.122 27.286 37.2377 27.4663C40.0319 26.7452 41.2037 24.9425 41.0234 22.0581Z" fill="#003399"/>
</svg>
