<svg width="24" height="24" viewBox="0 0 24 24" fill="none" xmlns="http://www.w3.org/2000/svg">
<path d="M23.5009 22.9091H13.1565L16.6803 19.0342C16.6853 19.0287 16.6913 19.0244 16.6963 19.0189C16.7033 19.0113 16.7093 19.0036 16.7153 18.996L22.6357 12.4865C24.4501 10.4902 24.4491 7.24364 22.6337 5.24836L19.2319 1.50873C18.3467 0.535636 17.1694 0 15.9151 0C14.6609 0 13.4826 0.536727 12.6004 1.50764L1.36081 13.7705C-0.453604 15.7658 -0.453604 19.0124 1.36081 21.0076L3.01619 22.8284C3.69435 23.5735 4.63256 24 5.59378 24H23.4999C23.7759 24 24 23.7556 24 23.4545C24 23.1535 23.7769 22.9091 23.5009 22.9091ZM13.3075 2.27673C14.0037 1.512 14.9289 1.09091 15.9141 1.09091C16.8994 1.09091 17.8256 1.512 18.5217 2.27673L21.9235 6.01636C23.3539 7.58727 23.3539 10.1455 21.9235 11.7185L16.3412 17.8571L7.71827 8.376L13.3075 2.27673ZM11.7482 22.9091H5.59478C4.89962 22.9091 4.21847 22.5993 3.72735 22.0604L2.07097 20.2396C0.641647 18.6676 0.641647 16.1105 2.07097 14.5407L7.01311 9.14727L15.6411 18.6305L11.7502 22.9091H11.7482Z" fill="black"/>
</svg>
