<svg width="24" height="24" viewBox="0 0 24 24" fill="none" xmlns="http://www.w3.org/2000/svg">
<path d="M9.3913 19.5259C9.3913 19.8172 9.15757 20.0536 8.86957 20.0536H4.69565C2.10678 20.0536 0 17.9226 0 15.3041V4.74954C0 2.13096 2.10678 0 4.69565 0H19.3043C21.8932 0 24 2.13096 24 4.74954V10.5545C24 10.8458 23.7663 11.0822 23.4783 11.0822C23.1903 11.0822 22.9565 10.8458 22.9565 10.5545V4.74954C22.9565 2.71251 21.3183 1.05545 19.3043 1.05545H4.69565C2.68174 1.05545 1.04348 2.71251 1.04348 4.74954V15.3041C1.04348 17.3411 2.68174 18.9981 4.69565 18.9981H8.86957C9.15757 18.9981 9.3913 19.2346 9.3913 19.5259ZM15.2723 11.0696L10.9544 13.495C10.6863 13.6459 10.3941 13.7209 10.1019 13.7209C9.79617 13.7209 9.49044 13.6386 9.21287 13.4739C8.67026 13.152 8.34783 12.5799 8.34783 11.9446V7.09264C8.34783 6.45726 8.6713 5.8852 9.21287 5.56329C9.75652 5.24138 10.4077 5.23399 10.9544 5.54112L15.2723 7.96655C15.8369 8.28424 16.1739 8.86474 16.1739 9.51807C16.1739 10.1714 15.8369 10.7519 15.2723 11.0696ZM15.1304 9.51807C15.1304 9.25315 14.9937 9.01778 14.7642 8.88902L10.4463 6.46359C10.3367 6.40132 10.2188 6.37071 10.1009 6.37071C9.97774 6.37071 9.85565 6.40448 9.74087 6.47203C9.51756 6.60396 9.39026 6.82983 9.39026 7.09158V11.9435C9.39026 12.2052 9.51756 12.4311 9.74087 12.563C9.96417 12.695 10.2209 12.6981 10.4463 12.5715L14.7642 10.1461C14.9937 10.0173 15.1304 9.78299 15.1304 9.51807Z" fill="#1C274C"/>
<path d="M23.8767 15.254L23.2531 14.162C23.1904 14.0541 23.1071 13.9599 23.0081 13.8849C22.909 13.8098 22.7963 13.7554 22.6763 13.7248C22.5563 13.6942 22.4315 13.688 22.3091 13.7065C22.1868 13.7251 22.0692 13.768 21.9634 13.8328C21.3382 13.2631 20.6063 12.826 19.8112 12.5472C19.811 12.2988 19.7133 12.0606 19.5396 11.8849C19.366 11.7093 19.1305 11.6105 18.8849 11.6102H17.6373C17.3917 11.6105 17.1562 11.7093 16.9825 11.885C16.8089 12.0606 16.7112 12.2988 16.711 12.5473C15.9157 12.826 15.1838 13.2632 14.5585 13.833C14.4528 13.7678 14.3353 13.7246 14.2129 13.7058C14.0905 13.687 13.9656 13.6931 13.8456 13.7237C13.7255 13.7543 13.6127 13.8088 13.5137 13.884C13.4147 13.9592 13.3316 14.0536 13.269 14.1617L12.6455 15.2542C12.5231 15.4695 12.4901 15.725 12.5536 15.9648C12.6171 16.2046 12.772 16.4092 12.9843 16.5338C12.8396 17.3751 12.8397 18.2354 12.9847 19.0767C12.7722 19.2012 12.6172 19.4058 12.5536 19.6457C12.49 19.8856 12.5231 20.1412 12.6455 20.3565L13.2691 21.4485C13.3318 21.5563 13.4151 21.6506 13.5141 21.7256C13.6131 21.8007 13.7259 21.8551 13.8459 21.8857C13.9659 21.9163 14.0907 21.9226 14.2131 21.904C14.3354 21.8855 14.453 21.8425 14.5588 21.7776C15.184 22.3474 15.9159 22.7845 16.711 23.0633C16.7112 23.3117 16.8089 23.5499 16.9826 23.7255C17.1562 23.9012 17.3917 24 17.6373 24.0003H18.8849C19.0089 24 19.1316 23.9746 19.2458 23.9256C19.3599 23.8766 19.4632 23.805 19.5496 23.7149C19.6359 23.6249 19.7035 23.5183 19.7485 23.4014C19.7934 23.2845 19.8147 23.1596 19.8112 23.0342C20.612 22.7728 21.3521 22.3499 21.9869 21.791C22.1999 21.9146 22.4525 21.948 22.6897 21.8839C22.927 21.8197 23.1295 21.6633 23.2532 21.4488L23.8767 20.3563C23.9384 20.2475 23.978 20.1274 23.9931 20.003C24.0082 19.8786 23.9985 19.7523 23.9646 19.6317C23.9307 19.5112 23.8733 19.3986 23.7957 19.3009C23.7182 19.2031 23.6221 19.122 23.513 19.0624C23.6889 18.2297 23.6972 17.3697 23.5375 16.5338C23.75 16.4093 23.905 16.2047 23.9686 15.9648C24.0322 15.7249 23.9991 15.4693 23.8767 15.254ZM22.4958 16.6847C22.6725 17.3732 22.6835 18.0944 22.5281 18.788C22.4596 18.9888 22.4593 19.2069 22.5273 19.4079C22.5953 19.6089 22.7276 19.7811 22.9034 19.8974C22.9158 19.9056 22.9313 19.9147 22.9444 19.9224C22.9487 19.921 22.4364 20.8126 22.4169 20.8487C22.2423 20.7481 22.0404 20.7068 21.8409 20.7309C21.6413 20.755 21.4547 20.8433 21.3085 20.9827C20.7895 21.4916 20.1541 21.8626 19.4588 22.0628C19.2661 22.119 19.0967 22.237 18.9761 22.3991C18.8556 22.5612 18.7904 22.7586 18.7904 22.9614L17.7318 22.9678C17.733 22.7709 17.6729 22.5787 17.56 22.4184C17.4471 22.2581 17.2871 22.1379 17.1028 22.0749C16.4233 21.885 15.7989 21.5329 15.282 21.0482C15.139 20.8829 14.9438 20.7727 14.7295 20.7364C14.5153 20.7 14.2953 20.7399 14.1068 20.849C14.1097 20.8502 13.5653 19.9197 13.581 19.9204C13.7488 19.8224 13.882 19.6738 13.962 19.4953C14.0419 19.3168 14.0645 19.1175 14.0266 18.9253C13.8497 18.2368 13.8386 17.5155 13.9945 16.8218C14.0657 16.6133 14.063 16.3862 13.987 16.1794C13.9109 15.9726 13.7663 15.799 13.5777 15.6881C13.5735 15.6895 14.0858 14.7981 14.1053 14.762C14.2734 14.8582 14.4666 14.8999 14.6589 14.8815C14.8511 14.863 15.0332 14.7853 15.1804 14.6589C15.6837 14.1575 16.2986 13.7856 16.9735 13.5745C17.1791 13.5335 17.3652 13.4243 17.5024 13.2642C17.6396 13.104 17.72 12.9021 17.7309 12.6905C17.714 12.6089 17.8449 12.6639 18.0446 12.6472C18.3471 12.6454 18.7635 12.6429 18.7892 12.6427C18.7903 12.8391 18.8515 13.0304 18.9643 13.1903C19.0771 13.3501 19.2361 13.4708 19.4194 13.5356C20.0989 13.7254 20.7233 14.0775 21.2402 14.5622C21.3834 14.7274 21.5785 14.8374 21.7927 14.8737C22.0069 14.91 22.2269 14.8704 22.4154 14.7614C22.4166 14.7577 22.9236 15.6513 22.9447 15.6864C22.7773 15.7857 22.6442 15.9349 22.5638 16.1136C22.4834 16.2923 22.4597 16.4918 22.4958 16.6847Z" fill="#1C274C"/>
<path d="M18.2609 14.4491C17.6048 14.4491 16.9634 14.6459 16.4178 15.0146C15.8722 15.3833 15.447 15.9074 15.1959 16.5206C14.9448 17.1337 14.8791 17.8085 15.0071 18.4594C15.1351 19.1103 15.4511 19.7082 15.9151 20.1775C16.379 20.6468 16.9702 20.9664 17.6137 21.0959C18.2572 21.2254 18.9243 21.1589 19.5305 20.9049C20.1367 20.6509 20.6548 20.2208 21.0194 19.669C21.3839 19.1172 21.5785 18.4684 21.5785 17.8047C21.5775 16.9151 21.2276 16.0622 20.6057 15.4331C19.9837 14.804 19.1405 14.4501 18.2609 14.4491ZM18.2609 20.1279C17.8067 20.1279 17.3626 19.9916 16.9849 19.7363C16.6072 19.4811 16.3128 19.1182 16.139 18.6938C15.9651 18.2693 15.9197 17.8022 16.0083 17.3515C16.0969 16.9009 16.3157 16.4869 16.6369 16.162C16.9581 15.8371 17.3673 15.6159 17.8128 15.5262C18.2584 15.4366 18.7202 15.4826 19.1399 15.6584C19.5595 15.8343 19.9182 16.132 20.1706 16.5141C20.423 16.8961 20.5577 17.3453 20.5577 17.8047C20.557 18.4207 20.3148 19.0112 19.8843 19.4467C19.4537 19.8822 18.8699 20.1272 18.2609 20.1279Z" fill="#1C274C"/>
</svg>
