<svg width="107" height="31" viewBox="0 0 107 31" fill="none" xmlns="http://www.w3.org/2000/svg">
<rect y="0.838501" width="106.819" height="29.323" rx="14.6615" fill="white"/>
<path d="M16.0448 19.8385C15.5296 19.8385 15.14 19.7254 14.8761 19.4992C14.6247 19.273 14.4048 18.9148 14.2163 18.4247L11.5961 11.1673H13.7073L15.7809 17.4822C15.8689 17.7461 15.982 17.9283 16.1202 18.0289C16.2584 18.1294 16.4092 18.1797 16.5726 18.1797H16.8177L19.2494 11.1673H20.7197L17.4774 19.8385H16.0448ZM23.5346 19.9139C22.8686 19.9139 22.4162 19.7568 22.1774 19.4426C21.9386 19.1159 21.8192 18.6321 21.8192 17.9912L21.8381 12.3172H23.5912V17.8969C23.5912 18.3744 23.6477 18.7012 23.7608 18.8771C23.8865 19.0531 24.0939 19.141 24.3829 19.141C24.496 19.141 24.6217 19.1285 24.7599 19.1033C24.8982 19.0782 24.9861 19.0593 25.0238 19.0468V19.7631C24.9736 19.7757 24.8919 19.7945 24.7788 19.8197C24.6657 19.8448 24.5086 19.8636 24.3075 19.8762C24.1064 19.9013 23.8488 19.9139 23.5346 19.9139ZM22.7429 11.2804C22.4539 11.2804 22.234 11.2427 22.0832 11.1673C21.9449 11.0793 21.8758 10.9222 21.8758 10.696C21.8758 10.4698 21.9449 10.319 22.0832 10.2436C22.2214 10.1556 22.4413 10.1116 22.7429 10.1116C23.032 10.1116 23.2393 10.1556 23.365 10.2436C23.5032 10.319 23.5723 10.4698 23.5723 10.696C23.5723 10.9222 23.5032 11.0793 23.365 11.1673C23.2393 11.2427 23.032 11.2804 22.7429 11.2804ZM30.2735 19.9516C29.507 19.9516 28.8598 19.9013 28.3319 19.8008C27.8167 19.7003 27.402 19.5118 27.0878 19.2353C26.7862 18.9588 26.5726 18.5755 26.4469 18.0854C26.3212 17.5953 26.2584 16.9607 26.2584 16.1815C26.2584 15.2515 26.3778 14.4975 26.6165 13.9194C26.8553 13.3414 27.2763 12.9204 27.8795 12.6565C28.4953 12.38 29.3499 12.2418 30.4432 12.2418C31.2978 12.2418 31.9764 12.3486 32.479 12.5622C32.9943 12.7633 33.365 13.0837 33.5912 13.5236C33.8174 13.9634 33.9305 14.5227 33.9305 15.2013V16.4077H28.6335C28.6335 16.2066 28.6775 16.0433 28.7655 15.9176C28.8535 15.7919 29.0168 15.7291 29.2556 15.7291H32.3471L32.3282 15.239C32.3157 14.5352 32.1649 14.02 31.8758 13.6932C31.5994 13.3665 31.0967 13.2031 30.3678 13.2031C29.7646 13.2031 29.2933 13.2974 28.954 13.4859C28.6147 13.6744 28.3759 13.9823 28.2377 14.4096C28.0995 14.8243 28.0303 15.4024 28.0303 16.1438C28.0303 16.9104 28.1057 17.4948 28.2565 17.8969C28.4199 18.2865 28.6838 18.5504 29.0483 18.6886C29.4253 18.8269 29.9468 18.896 30.6129 18.896C30.8516 18.896 31.1281 18.8897 31.4423 18.8771C31.769 18.8646 32.0958 18.8457 32.4225 18.8206C32.7618 18.7954 33.0634 18.764 33.3273 18.7263C33.5912 18.6886 33.7672 18.6509 33.8551 18.6132V18.8771C33.8551 19.0154 33.8237 19.1536 33.7609 19.2918C33.698 19.4301 33.5661 19.5432 33.365 19.6311C33.1011 19.7568 32.7115 19.8385 32.1963 19.8762C31.6936 19.9265 31.0527 19.9516 30.2735 19.9516ZM38.8028 19.9139C38.1116 19.9139 37.5398 19.8574 37.0874 19.7442C36.6476 19.6186 36.3208 19.3798 36.1072 19.0279C35.9061 18.6635 35.8056 18.1231 35.8056 17.4068V13.1277C35.8056 12.801 35.8433 12.5873 35.9187 12.4868C36.0066 12.3737 36.1826 12.3172 36.4465 12.3172H37.5775V17.4445C37.5775 18.0351 37.6969 18.4247 37.9357 18.6132C38.1745 18.7892 38.5515 18.8771 39.0667 18.8771C39.6197 18.8771 40.0155 18.7829 40.2543 18.5944C40.4931 18.4059 40.6124 18.098 40.6124 17.6707V12.3172H42.3844V17.6895C42.3844 18.1043 42.5038 18.4059 42.7426 18.5944C42.9813 18.7829 43.3709 18.8771 43.9113 18.8771C44.4391 18.8771 44.8224 18.7892 45.0612 18.6132C45.2999 18.4247 45.4193 18.0289 45.4193 17.4256V12.3172H46.4938C46.7954 12.3172 46.9839 12.3674 47.0593 12.468C47.1473 12.5685 47.1913 12.7884 47.1913 13.1277V17.4068C47.1913 18.098 47.0845 18.6258 46.8708 18.9902C46.6572 19.3547 46.3241 19.5997 45.8717 19.7254C45.4319 19.8511 44.8412 19.9139 44.0998 19.9139C43.3458 19.9139 42.73 19.7945 42.2524 19.5557C41.7749 19.317 41.4859 18.896 41.3853 18.2928H41.6304C41.5424 18.7075 41.3853 19.0342 41.1591 19.273C40.9329 19.5118 40.625 19.6814 40.2354 19.7819C39.8584 19.8699 39.3809 19.9139 38.8028 19.9139ZM55.5593 19.8385C55.2702 19.8385 55.0754 19.7945 54.9749 19.7065C54.8869 19.6186 54.843 19.4301 54.843 19.141V12.845C54.9812 12.8073 55.1571 12.757 55.3708 12.6942C55.597 12.6313 55.8546 12.5685 56.1436 12.5057C56.4452 12.4303 56.772 12.3737 57.1239 12.336C57.4883 12.2983 57.8653 12.2795 58.2549 12.2795C58.7073 12.2795 59.0969 12.3172 59.4236 12.3926C59.7504 12.4554 60.0331 12.5811 60.2719 12.7696C60.5107 12.9455 60.7055 13.2031 60.8563 13.5424L60.5547 13.5236C60.6552 13.2848 60.806 13.0837 61.0071 12.9204C61.2081 12.7444 61.4343 12.6125 61.6857 12.5245C61.9496 12.424 62.2198 12.3549 62.4963 12.3172C62.7727 12.2795 63.0304 12.2606 63.2691 12.2606C64.0231 12.2606 64.6138 12.336 65.0411 12.4868C65.4809 12.625 65.7888 12.8638 65.9647 13.2031C66.1532 13.5424 66.2475 14.0074 66.2475 14.5981V19.1976C66.2475 19.4615 66.1972 19.6374 66.0967 19.7254C66.0087 19.8008 65.8328 19.8385 65.5689 19.8385H64.4944C64.4944 18.9588 64.4944 18.0791 64.4944 17.1994C64.4944 16.3197 64.4944 15.4338 64.4944 14.5415C64.4818 14.0011 64.3562 13.6367 64.1174 13.4482C63.8786 13.2597 63.5142 13.1654 63.0241 13.1654C62.7979 13.1654 62.5591 13.1968 62.3077 13.2597C62.069 13.3225 61.8616 13.4105 61.6857 13.5236C61.5223 13.6367 61.4406 13.7686 61.4406 13.9194V19.8385H59.6687V14.1457C59.6687 13.844 59.5304 13.6116 59.254 13.4482C58.9775 13.2722 58.6193 13.1843 58.1795 13.1843C57.9156 13.1843 57.6705 13.2094 57.4443 13.2597C57.2181 13.2974 57.0296 13.3539 56.8788 13.4293C56.728 13.5047 56.64 13.6053 56.6149 13.7309V19.8385H55.5593ZM72.2794 19.9516C71.651 19.9516 71.0918 19.9076 70.6017 19.8197C70.1241 19.7191 69.7094 19.5369 69.3575 19.273C69.0182 19.0091 68.7606 18.6195 68.5847 18.1043C68.4087 17.589 68.3208 16.9167 68.3208 16.0873C68.3208 15.2578 68.4087 14.5855 68.5847 14.0702C68.7606 13.555 69.0182 13.1654 69.3575 12.9015C69.7094 12.6376 70.1241 12.4617 70.6017 12.3737C71.0918 12.2732 71.651 12.2229 72.2794 12.2229C72.8826 12.2229 73.423 12.2732 73.9005 12.3737C74.3906 12.4617 74.8053 12.6376 75.1446 12.9015C75.4839 13.1654 75.7416 13.555 75.9175 14.0702C76.106 14.5855 76.2003 15.2578 76.2003 16.0873C76.2003 16.9292 76.106 17.6079 75.9175 18.1231C75.7416 18.6384 75.4839 19.0279 75.1446 19.2918C74.8053 19.5432 74.3906 19.7191 73.9005 19.8197C73.423 19.9076 72.8826 19.9516 72.2794 19.9516ZM72.2794 19.0091C72.7318 19.0091 73.1151 18.94 73.4292 18.8017C73.756 18.6635 74.001 18.387 74.1644 17.9723C74.3278 17.5576 74.4095 16.9292 74.4095 16.0873C74.4095 15.2453 74.3278 14.6169 74.1644 14.2022C74.001 13.7875 73.756 13.511 73.4292 13.3728C73.1151 13.2345 72.7318 13.1654 72.2794 13.1654C71.827 13.1654 71.4374 13.2345 71.1106 13.3728C70.7839 13.511 70.5326 13.7875 70.3566 14.2022C70.1932 14.6169 70.1116 15.2453 70.1116 16.0873C70.1116 16.9292 70.1932 17.5576 70.3566 17.9723C70.5326 18.387 70.7839 18.6635 71.1106 18.8017C71.4374 18.94 71.827 19.0091 72.2794 19.0091ZM80.1593 19.8385H78.9529C78.7644 19.8385 78.6199 19.7882 78.5193 19.6877C78.4188 19.5872 78.3685 19.3987 78.3685 19.1222V12.6942C78.6701 12.6062 79.0911 12.5119 79.6315 12.4114C80.1719 12.3109 80.8191 12.2606 81.5731 12.2606C82.3146 12.2606 82.8989 12.3109 83.3262 12.4114C83.7535 12.4994 84.0677 12.6376 84.2687 12.8261C84.4824 13.0021 84.6143 13.222 84.6646 13.4859C84.7274 13.7372 84.7588 14.0325 84.7588 14.3719H83.0623L83.0434 14.108C83.0434 13.8063 82.9618 13.5927 82.7984 13.467C82.6476 13.3288 82.4654 13.2408 82.2517 13.2031C82.0381 13.1654 81.8244 13.1466 81.6108 13.1466C81.2841 13.1466 80.9887 13.178 80.7248 13.2408C80.4735 13.3037 80.285 13.3853 80.1593 13.4859V19.8385ZM90.2652 19.9516C89.4987 19.9516 88.8515 19.9013 88.3236 19.8008C87.8084 19.7003 87.3937 19.5118 87.0795 19.2353C86.7779 18.9588 86.5643 18.5755 86.4386 18.0854C86.3129 17.5953 86.2501 16.9607 86.2501 16.1815C86.2501 15.2515 86.3695 14.4975 86.6082 13.9194C86.847 13.3414 87.268 12.9204 87.8712 12.6565C88.487 12.38 89.3416 12.2418 90.4349 12.2418C91.2895 12.2418 91.9681 12.3486 92.4708 12.5622C92.986 12.7633 93.3567 13.0837 93.5829 13.5236C93.8091 13.9634 93.9222 14.5227 93.9222 15.2013V16.4077H88.6253C88.6253 16.2066 88.6692 16.0433 88.7572 15.9176C88.8452 15.7919 89.0085 15.7291 89.2473 15.7291H92.3388L92.3199 15.239C92.3074 14.5352 92.1566 14.02 91.8675 13.6932C91.5911 13.3665 91.0884 13.2031 90.3595 13.2031C89.7563 13.2031 89.285 13.2974 88.9457 13.4859C88.6064 13.6744 88.3676 13.9823 88.2294 14.4096C88.0912 14.8243 88.022 15.4024 88.022 16.1438C88.022 16.9104 88.0974 17.4948 88.2482 17.8969C88.4116 18.2865 88.6755 18.5504 89.04 18.6886C89.417 18.8269 89.9385 18.896 90.6046 18.896C90.8433 18.896 91.1198 18.8897 91.434 18.8771C91.7607 18.8646 92.0875 18.8457 92.4142 18.8206C92.7535 18.7954 93.0551 18.764 93.319 18.7263C93.5829 18.6886 93.7589 18.6509 93.8468 18.6132V18.8771C93.8468 19.0154 93.8154 19.1536 93.7526 19.2918C93.6898 19.4301 93.5578 19.5432 93.3567 19.6311C93.0928 19.7568 92.7032 19.8385 92.188 19.8762C91.6853 19.9265 91.0444 19.9516 90.2652 19.9516Z" fill="#2A3853"/>
</svg>
