<svg width="11" height="13" viewBox="0 0 11 13" fill="none" xmlns="http://www.w3.org/2000/svg">
<path d="M1.88427 2.73163C1.71327 2.73163 1.54727 2.64413 1.45377 2.48663L1.15727 1.98663C1.01677 1.74913 1.09477 1.44263 1.33277 1.30163C1.56977 1.16113 1.87677 1.23913 2.01777 1.47713L2.31427 1.97713C2.45477 2.21463 2.37677 2.52113 2.13877 2.66213C2.05877 2.70963 1.97127 2.73163 1.88427 2.73163ZM5.16377 5.45313C4.61227 5.45313 4.16377 5.90163 4.16377 6.45313C4.16377 7.00463 4.61227 7.45313 5.16377 7.45313C5.71527 7.45313 6.16377 7.00463 6.16377 6.45313C6.16377 5.90163 5.71527 5.45313 5.16377 5.45313ZM9.75877 7.59013C9.33577 8.14413 7.75377 9.95313 5.16377 9.95313C2.57377 9.95313 1.08627 8.32363 0.561275 7.62263C0.0502746 6.94063 0.0512745 5.99463 0.563775 5.32213C0.987275 4.76663 2.57127 2.95313 5.16377 2.95313C7.72177 2.95313 9.23077 4.58613 9.76077 5.28813C10.2748 5.96913 10.2738 6.91563 9.75877 7.59013ZM7.16377 6.45313C7.16377 5.35013 6.26677 4.45313 5.16377 4.45313C4.06077 4.45313 3.16377 5.35013 3.16377 6.45313C3.16377 7.55613 4.06077 8.45313 5.16377 8.45313C6.26677 8.45313 7.16377 7.55613 7.16377 6.45313ZM5.66377 1.45313V0.953125C5.66377 0.677125 5.43977 0.453125 5.16377 0.453125C4.88777 0.453125 4.66377 0.677125 4.66377 0.953125V1.45313C4.66377 1.72913 4.88777 1.95313 5.16377 1.95313C5.43977 1.95313 5.66377 1.72913 5.66377 1.45313ZM8.87377 2.48613L9.17027 1.98613C9.31077 1.74863 9.23277 1.44213 8.99477 1.30113C8.75777 1.16063 8.45077 1.23863 8.30977 1.47663L8.01327 1.97663C7.87277 2.21413 7.95077 2.52063 8.18877 2.66163C8.42227 2.80113 8.73228 2.72613 8.87377 2.48613ZM8.99477 11.6046C9.23228 11.4636 9.31077 11.1571 9.17027 10.9196L8.87377 10.4196C8.73277 10.1816 8.42627 10.1036 8.18877 10.2441C7.95127 10.3846 7.87277 10.6916 8.01327 10.9291L8.30977 11.4291C8.45127 11.6686 8.76127 11.7436 8.99477 11.6046ZM5.66377 11.9526V11.4526C5.66377 11.1766 5.43977 10.9526 5.16377 10.9526C4.88777 10.9526 4.66377 11.1766 4.66377 11.4526V11.9526C4.66377 12.2286 4.88777 12.4526 5.16377 12.4526C5.43977 12.4526 5.66377 12.2286 5.66377 11.9526ZM2.01777 11.4291L2.31427 10.9291C2.45477 10.6916 2.37677 10.3851 2.13877 10.2441C1.90077 10.1031 1.59477 10.1816 1.45377 10.4196L1.15727 10.9196C1.01677 11.1571 1.09477 11.4636 1.33277 11.6046C1.56627 11.7441 1.87627 11.6691 2.01777 11.4291Z" fill="white"/>
</svg>
