<svg width="140" height="36" viewBox="0 0 140 36" fill="none" xmlns="http://www.w3.org/2000/svg">
<rect x="0.367432" y="0.360352" width="139" height="35" rx="17.5" fill="#ED1C24"/>
<path d="M25.2793 15.9831C26.8394 17.184 26.8394 19.5367 25.2793 20.7376L17.4474 26.7666C15.4747 28.2852 12.6174 26.8789 12.6174 24.3894L12.6174 12.3313C12.6174 9.84182 15.4747 8.43553 17.4474 9.95412L25.2793 15.9831Z" fill="white"/>
<path d="M35.7874 23.3604C35.4394 23.3604 35.1454 23.3124 34.9054 23.2164C34.6774 23.1084 34.4914 22.9464 34.3474 22.7304C34.2154 22.5144 34.1254 22.2324 34.0774 21.8844L32.9614 15.0804L35.1934 15.0984L36.0754 20.7864C36.1234 21.0264 36.1774 21.1944 36.2374 21.2904C36.3094 21.3744 36.4414 21.4164 36.6334 21.4164H36.9754L38.3794 15.0804H40.7014L42.2494 21.4164H42.6634C42.7954 21.4164 42.8974 21.3804 42.9694 21.3084C43.0414 21.2364 43.0834 21.1284 43.0954 20.9844L43.8154 15.0804H45.4894L44.5354 21.9384C44.4874 22.3104 44.3854 22.6044 44.2294 22.8204C44.0734 23.0244 43.8514 23.1684 43.5634 23.2524C43.2874 23.3244 42.9334 23.3604 42.5014 23.3604H40.7734L39.6034 18.3564L39.4234 17.5464L39.2794 18.3564L38.1994 23.3604H35.7874ZM51.2787 23.4504C50.4867 23.4504 49.8447 23.4204 49.3527 23.3604C48.8607 23.3124 48.4827 23.2104 48.2187 23.0544C47.9547 22.8864 47.7747 22.6584 47.6787 22.3704C47.5827 22.0824 47.5347 21.7164 47.5347 21.2724C47.5347 20.6604 47.6007 20.1924 47.7327 19.8684C47.8647 19.5444 48.0867 19.3284 48.3987 19.2204C48.7227 19.1004 49.1547 19.0404 49.6947 19.0404C49.9947 19.0404 50.3307 19.0464 50.7027 19.0584C51.0867 19.0584 51.4587 19.0644 51.8187 19.0764C52.1787 19.0884 52.4907 19.1124 52.7547 19.1484C53.0307 19.1724 53.2167 19.1964 53.3127 19.2204C53.3127 18.7884 53.2767 18.4464 53.2047 18.1944C53.1327 17.9424 53.0127 17.7504 52.8447 17.6184C52.6767 17.4864 52.4607 17.4024 52.1967 17.3664C51.9447 17.3304 51.6387 17.3124 51.2787 17.3124C50.8707 17.3124 50.4567 17.3244 50.0367 17.3484C49.6287 17.3604 49.2387 17.3904 48.8667 17.4384C48.5067 17.4744 48.1887 17.5284 47.9127 17.6004V17.1864C47.9127 16.8864 47.9847 16.6704 48.1287 16.5384C48.2727 16.3944 48.4587 16.2984 48.6867 16.2504C48.9507 16.1904 49.3347 16.1484 49.8387 16.1244C50.3547 16.1004 50.9007 16.0884 51.4767 16.0884C52.2207 16.0884 52.8447 16.1244 53.3487 16.1964C53.8527 16.2684 54.2547 16.4124 54.5547 16.6284C54.8667 16.8444 55.0887 17.1624 55.2207 17.5824C55.3527 17.9904 55.4187 18.5424 55.4187 19.2384V22.8744C55.2747 23.0784 54.8547 23.2284 54.1587 23.3244C53.4747 23.4084 52.5147 23.4504 51.2787 23.4504ZM51.2607 22.5144C51.6687 22.5144 52.0047 22.5084 52.2687 22.4964C52.5447 22.4724 52.7667 22.4364 52.9347 22.3884C53.1027 22.3404 53.2287 22.2804 53.3127 22.2084V19.9764C53.1927 19.9404 53.0007 19.9104 52.7367 19.8864C52.4847 19.8504 52.2267 19.8264 51.9627 19.8144C51.6987 19.7904 51.4767 19.7784 51.2967 19.7784C50.9367 19.7784 50.6427 19.8084 50.4147 19.8684C50.1867 19.9164 50.0187 20.0364 49.9107 20.2284C49.8147 20.4204 49.7667 20.7204 49.7667 21.1284C49.7667 21.4524 49.8027 21.7224 49.8747 21.9384C49.9467 22.1424 50.0907 22.2924 50.3067 22.3884C50.5227 22.4724 50.8407 22.5144 51.2607 22.5144ZM60.2539 23.4324C59.6899 23.4324 59.2459 23.3724 58.9219 23.2524C58.6099 23.1204 58.3879 22.9104 58.2559 22.6224C58.1239 22.3224 58.0579 21.9144 58.0579 21.3984V17.3304H57.3199V16.1784H58.0579V15.1164C58.0579 14.8644 58.0759 14.6784 58.1119 14.5584C58.1479 14.4384 58.2199 14.3604 58.3279 14.3244C58.4479 14.2884 58.6219 14.2704 58.8499 14.2704H60.2539C60.2539 14.3064 60.2479 14.3664 60.2359 14.4504C60.2359 14.5224 60.2359 14.6184 60.2359 14.7384V16.1784H61.9639V17.3304H60.2539V21.2004C60.2539 21.6684 60.2959 22.0104 60.3799 22.2264C60.4759 22.4304 60.7159 22.5324 61.0999 22.5324C61.2199 22.5324 61.3579 22.5204 61.5139 22.4964C61.6819 22.4724 61.7959 22.4484 61.8559 22.4244V23.2704C61.7839 23.2824 61.6039 23.3124 61.3159 23.3604C61.0279 23.4084 60.6739 23.4324 60.2539 23.4324ZM67.8653 23.4684C66.8453 23.4684 66.0173 23.3784 65.3813 23.1984C64.7573 23.0064 64.3013 22.6524 64.0133 22.1364C63.7373 21.6204 63.5993 20.8704 63.5993 19.8864C63.5993 18.8424 63.7373 18.0504 64.0133 17.5104C64.3013 16.9584 64.7573 16.5804 65.3813 16.3764C66.0173 16.1724 66.8453 16.0704 67.8653 16.0704C68.1773 16.0704 68.4773 16.0884 68.7653 16.1244C69.0533 16.1484 69.3953 16.1904 69.7913 16.2504C70.0073 16.2744 70.1813 16.3224 70.3133 16.3944C70.4573 16.4664 70.5653 16.5864 70.6373 16.7544C70.7093 16.9224 70.7453 17.1684 70.7453 17.4924C70.6013 17.4324 70.3913 17.3844 70.1153 17.3484C69.8393 17.3004 69.5453 17.2644 69.2333 17.2404C68.9333 17.2164 68.6573 17.2044 68.4053 17.2044C67.7693 17.2044 67.2593 17.2824 66.8753 17.4384C66.5033 17.5944 66.2333 17.8584 66.0653 18.2304C65.9093 18.6024 65.8313 19.1064 65.8313 19.7424C65.8313 20.3784 65.9093 20.8824 66.0653 21.2544C66.2213 21.6264 66.4853 21.8904 66.8573 22.0464C67.2413 22.2024 67.7573 22.2804 68.4053 22.2804C68.7053 22.2804 69.0053 22.2684 69.3053 22.2444C69.6173 22.2084 69.8993 22.1724 70.1513 22.1364C70.4033 22.0884 70.6013 22.0344 70.7453 21.9744V22.5864C70.7453 22.8384 70.6133 23.0304 70.3493 23.1624C70.0973 23.2824 69.7553 23.3604 69.3233 23.3964C68.8913 23.4444 68.4053 23.4684 67.8653 23.4684ZM73.643 23.3604C73.283 23.3604 73.055 23.3124 72.959 23.2164C72.875 23.1084 72.833 22.9104 72.833 22.6224V14.2704H75.029V16.3764C75.161 16.3404 75.335 16.3104 75.551 16.2864C75.779 16.2504 76.013 16.2264 76.253 16.2144C76.505 16.2024 76.739 16.1964 76.955 16.1964C77.735 16.1964 78.359 16.2564 78.827 16.3764C79.307 16.4964 79.661 16.6884 79.889 16.9524C80.129 17.2044 80.285 17.5284 80.357 17.9244C80.441 18.3204 80.483 18.7944 80.483 19.3464V22.3704C80.483 22.6584 80.459 22.8744 80.411 23.0184C80.363 23.1504 80.267 23.2404 80.123 23.2884C79.991 23.3364 79.787 23.3604 79.511 23.3604H78.359V19.0224C78.359 18.5184 78.293 18.1404 78.161 17.8884C78.029 17.6244 77.831 17.4504 77.567 17.3664C77.315 17.2704 76.979 17.2224 76.559 17.2224C76.415 17.2224 76.241 17.2344 76.037 17.2584C75.845 17.2704 75.653 17.2944 75.461 17.3304C75.281 17.3544 75.137 17.3904 75.029 17.4384V23.3604H73.643ZM88.8348 23.3604V15.9984C88.8348 15.6144 88.8828 15.3684 88.9788 15.2604C89.0748 15.1404 89.3148 15.0804 89.6988 15.0804H91.9308L96.3588 20.9124L96.4488 21.2004V15.0804H98.2128C98.2008 15.1044 98.1888 15.1704 98.1768 15.2784C98.1648 15.3864 98.1588 15.5064 98.1588 15.6384C98.1588 15.7704 98.1588 15.8844 98.1588 15.9804V22.5504C98.1588 22.9224 98.0928 23.1504 97.9608 23.2344C97.8288 23.3184 97.5708 23.3604 97.1868 23.3604H95.1348L90.6348 17.4204L90.5628 17.1144V23.3604H88.8348ZM104.788 23.4684C104.152 23.4684 103.588 23.4264 103.096 23.3424C102.604 23.2464 102.184 23.0724 101.836 22.8204C101.5 22.5564 101.242 22.1784 101.062 21.6864C100.882 21.1944 100.792 20.5584 100.792 19.7784C100.792 18.9984 100.882 18.3624 101.062 17.8704C101.242 17.3784 101.5 17.0064 101.836 16.7544C102.184 16.4904 102.604 16.3164 103.096 16.2324C103.588 16.1364 104.152 16.0884 104.788 16.0884C105.436 16.0884 106 16.1364 106.48 16.2324C106.972 16.3164 107.386 16.4904 107.722 16.7544C108.058 17.0064 108.31 17.3784 108.478 17.8704C108.658 18.3624 108.748 18.9984 108.748 19.7784C108.748 20.5704 108.658 21.2124 108.478 21.7044C108.31 22.1844 108.058 22.5564 107.722 22.8204C107.386 23.0724 106.972 23.2464 106.48 23.3424C105.988 23.4264 105.424 23.4684 104.788 23.4684ZM104.788 22.3704C105.172 22.3704 105.49 22.3044 105.742 22.1724C106.006 22.0404 106.204 21.7884 106.336 21.4164C106.468 21.0444 106.534 20.4984 106.534 19.7784C106.534 19.0584 106.468 18.5124 106.336 18.1404C106.204 17.7684 106.006 17.5164 105.742 17.3844C105.49 17.2524 105.172 17.1864 104.788 17.1864C104.416 17.1864 104.098 17.2524 103.834 17.3844C103.57 17.5164 103.366 17.7684 103.222 18.1404C103.078 18.5124 103.006 19.0584 103.006 19.7784C103.006 20.4984 103.078 21.0444 103.222 21.4164C103.366 21.7884 103.57 22.0404 103.834 22.1724C104.098 22.3044 104.416 22.3704 104.788 22.3704ZM113.943 23.4504C113.223 23.4504 112.635 23.3904 112.179 23.2704C111.735 23.1504 111.405 22.9104 111.189 22.5504C110.985 22.1904 110.883 21.6564 110.883 20.9484V17.0784C110.883 16.7184 110.931 16.4784 111.027 16.3584C111.135 16.2384 111.339 16.1784 111.639 16.1784H113.079V20.9484C113.079 21.4644 113.175 21.8004 113.367 21.9564C113.571 22.1124 113.877 22.1904 114.285 22.1904C114.729 22.1904 115.047 22.1124 115.239 21.9564C115.443 21.7884 115.545 21.5124 115.545 21.1284V16.1784H117.741V21.1284C117.741 21.5124 117.837 21.7884 118.029 21.9564C118.233 22.1124 118.545 22.1904 118.965 22.1904C119.409 22.1904 119.727 22.1124 119.919 21.9564C120.111 21.8004 120.207 21.4644 120.207 20.9484V16.1784H121.593C121.929 16.1784 122.145 16.2384 122.241 16.3584C122.337 16.4664 122.385 16.7064 122.385 17.0784V20.9484C122.385 21.6324 122.283 22.1544 122.079 22.5144C121.875 22.8624 121.539 23.1024 121.071 23.2344C120.615 23.3664 119.997 23.4324 119.217 23.4324C118.437 23.4324 117.813 23.3124 117.345 23.0724C116.889 22.8204 116.613 22.4064 116.517 21.8304H116.769C116.685 22.2384 116.535 22.5624 116.319 22.8024C116.103 23.0304 115.797 23.1984 115.401 23.3064C115.017 23.4024 114.531 23.4504 113.943 23.4504Z" fill="white"/>
</svg>
