<svg width="292" height="249" viewBox="0 0 292 249" fill="none" xmlns="http://www.w3.org/2000/svg">
<path d="M71.0304 154.72C71.0304 154.72 71.7654 154.529 73.0114 154.097C84.3911 149.363 91.6203 142.515 94.5102 139.397C99.5134 133.897 103.446 126.992 103.397 119.168C103.397 117.159 103.158 115.049 102.596 112.783C100.475 104.063 95.0027 93.0396 89.8194 80.6881C84.679 68.3111 79.8068 54.3635 79.786 38.9184C79.7468 27.9051 82.4138 16.2434 88.903 4.58655C81.0282 11.2519 61.345 31.7883 68.5631 65.8926C76.1328 101.662 92.0061 125.925 71.0304 154.72Z" fill="#E54C3A"/>
<path d="M207.801 78.4204C213.946 74.7392 218.356 69.8739 221.013 63.8405C223.666 57.8108 225 52.0288 225 46.4983C225 39.9633 224.129 33.8928 222.381 28.278C220.634 22.6658 217.772 17.7633 213.781 13.5742C209.797 9.38761 204.69 6.07798 198.454 3.6453C192.222 1.21758 184.623 0 175.652 0H111.12C111.081 0.48059 111.04 1.21758 111.04 2.19238C111.111 7.002 111.973 16.7463 118.898 27.65H118.986L118.972 27.6154H178.594C178.976 27.6154 179.315 27.6389 179.678 27.65H179.886C180.018 27.65 180.146 27.6661 180.279 27.6699C180.504 27.681 180.733 27.6884 180.949 27.7021C181.388 27.7268 181.82 27.7677 182.246 27.8259C186.086 28.257 188.232 29.2256 188.232 29.2256C188.232 29.2256 201.27 33.1756 209.869 50.8001C209.869 50.8001 205.8 52.4884 200.348 56.9041C193.385 63.0663 187.599 69.1926 183.588 76.5315C181.037 81.1405 179.063 86.5 176.826 92.2473H179.884C184.704 92.2473 188.859 94.0929 192.346 97.7766C195.837 101.463 197.585 105.737 197.585 110.596C197.585 116.459 195.92 121.193 192.599 124.794C189.272 128.401 184.952 130.198 179.636 130.198H154.678C150.1 135.461 145.005 140.315 139.347 144.545C132.545 149.628 125.848 153.826 118.676 157.848H175.653C184.625 157.848 192.263 156.509 198.579 153.826C204.897 151.144 210.008 147.627 213.91 143.27C217.811 138.913 220.635 133.931 222.381 128.315C224.129 122.702 225 116.963 225 111.101C225 104.901 223.63 98.8269 220.889 92.8778C218.146 86.9286 213.781 82.1091 207.801 78.4204Z" fill="#26A75C"/>
<path d="M159.099 39.3018C148.296 39.8979 137.554 39.4466 137.556 39.4514C133.792 39.2787 130.603 39.0208 130.603 39.0208C147.8 63.4172 142.589 85.1031 142.589 85.1031C141.11 76.6178 139.261 62.3527 122.232 48.8832C93.5534 25.6936 97.8914 0.152466 97.8914 0.152466C63.8293 44.0584 98.3005 81.1129 105.674 110.809C113.05 140.511 79.0485 158 79.0485 158C87.2565 157.059 99.3565 153.735 107.976 149.062C115.524 144.964 122.299 140.814 129.251 135.702C140.143 127.69 148.981 117.085 155.65 105.417C157.589 102.023 159.357 98.5385 160.946 94.968C164.415 87.1883 166.896 79.0168 171.053 71.54C175.78 63.0364 182.385 56.2956 189.691 49.9343C189.786 49.854 191.727 48.1521 191.809 48.2421C183.708 39.3018 169.904 38.7069 159.099 39.3018ZM177.444 47.2141C176.588 47.2141 175.892 46.5256 175.892 45.674C175.892 44.8224 176.587 44.1339 177.444 44.1339C178.302 44.1339 178.995 44.8224 178.995 45.674C178.994 46.5256 178.3 47.2141 177.444 47.2141Z" fill="#FAD117"/>
<path d="M95.3792 220V213.304L89.0072 204.34L88.3592 203.44H93.3632L98.1152 210.784L102.867 203.44H106.215L105.387 204.448L99.0872 213.304V218.488C99.1112 218.872 99.0752 219.184 98.9792 219.424C98.8832 219.64 98.7152 219.796 98.4752 219.892C98.2352 219.964 97.8992 220 97.4672 220H95.3792ZM113.457 220.216C111.993 220.216 110.757 220.12 109.749 219.928C108.765 219.736 107.973 219.376 107.373 218.848C106.797 218.32 106.389 217.588 106.149 216.652C105.909 215.716 105.789 214.504 105.789 213.016C105.789 211.24 106.017 209.8 106.473 208.696C106.929 207.592 107.733 206.788 108.885 206.284C110.061 205.756 111.693 205.492 113.781 205.492C115.413 205.492 116.709 205.696 117.669 206.104C118.653 206.488 119.361 207.1 119.793 207.94C120.225 208.78 120.441 209.848 120.441 211.144V213.448H110.325C110.325 213.064 110.409 212.752 110.577 212.512C110.745 212.272 111.057 212.152 111.513 212.152H117.417L117.381 211.216C117.357 209.872 117.069 208.888 116.517 208.264C115.989 207.64 115.029 207.328 113.637 207.328C112.485 207.328 111.585 207.508 110.937 207.868C110.289 208.228 109.833 208.816 109.569 209.632C109.305 210.424 109.173 211.528 109.173 212.944C109.173 214.408 109.317 215.524 109.604 216.292C109.917 217.036 110.421 217.54 111.117 217.804C111.837 218.068 112.833 218.2 114.105 218.2C114.561 218.2 115.089 218.188 115.689 218.164C116.313 218.14 116.937 218.104 117.561 218.056C118.209 218.008 118.785 217.948 119.289 217.876C119.793 217.804 120.129 217.732 120.297 217.66V218.164C120.297 218.428 120.237 218.692 120.117 218.956C119.997 219.22 119.745 219.436 119.361 219.604C118.857 219.844 118.113 220 117.129 220.072C116.169 220.168 114.945 220.216 113.457 220.216ZM123.625 220L123.589 203.08C123.589 202.576 123.661 202.24 123.805 202.072C123.973 201.88 124.321 201.784 124.849 201.784H127.009V212.8L133.129 206.392C133.441 206.104 133.753 205.9 134.065 205.78C134.401 205.636 134.869 205.564 135.469 205.564C135.925 205.564 136.345 205.576 136.729 205.6C137.113 205.6 137.461 205.612 137.773 205.636C137.701 205.708 137.545 205.828 137.305 205.996C137.089 206.164 136.849 206.356 136.585 206.572C136.321 206.764 136.081 206.956 135.865 207.148L131.221 211.576L137.485 218.524C137.749 218.812 138.013 219.076 138.277 219.316C138.541 219.556 138.793 219.784 139.033 220C138.433 220.024 137.821 220.036 137.197 220.036C136.597 220.036 136.057 220.036 135.577 220.036C135.025 220.036 134.605 219.976 134.317 219.856C134.053 219.712 133.765 219.484 133.453 219.172L128.881 214.024L127.009 215.608V220H123.625ZM151.407 220.072C149.559 220.072 147.975 220.072 146.655 220.072C145.335 220.072 144.219 220.06 143.307 220.036C142.419 220.036 141.687 220.024 141.111 220V205.096C141.111 204.4 141.255 203.956 141.543 203.764C141.855 203.572 142.275 203.464 142.803 203.44C143.523 203.44 144.159 203.44 144.711 203.44C145.287 203.416 145.803 203.404 146.259 203.404C146.739 203.38 147.195 203.368 147.627 203.368C148.083 203.368 148.563 203.368 149.067 203.368C149.643 203.368 150.255 203.38 150.903 203.404C151.551 203.404 152.163 203.416 152.739 203.44C153.315 203.44 153.759 203.452 154.071 203.476C155.415 203.572 156.399 203.944 157.023 204.592C157.647 205.24 157.959 206.2 157.959 207.472C157.959 208.408 157.803 209.164 157.491 209.74C157.203 210.292 156.819 210.688 156.339 210.928C155.883 211.144 155.427 211.276 154.971 211.324C155.475 211.324 155.943 211.372 156.375 211.468C156.807 211.564 157.191 211.756 157.527 212.044C157.863 212.308 158.127 212.716 158.319 213.268C158.511 213.796 158.607 214.504 158.607 215.392C158.607 216.472 158.427 217.336 158.067 217.984C157.707 218.608 157.203 219.076 156.555 219.388C155.931 219.676 155.175 219.868 154.287 219.964C153.399 220.036 152.439 220.072 151.407 220.072ZM150.327 218.2C150.927 218.2 151.491 218.188 152.019 218.164C152.571 218.116 153.063 218.008 153.495 217.84C153.927 217.672 154.263 217.384 154.503 216.976C154.767 216.544 154.899 215.956 154.899 215.212C154.899 214.156 154.659 213.424 154.179 213.016C153.723 212.608 152.811 212.404 151.443 212.404H146.007C145.671 212.404 145.443 212.26 145.323 211.972C145.227 211.66 145.179 211.204 145.179 210.604H151.335C151.839 210.604 152.307 210.544 152.739 210.424C153.195 210.28 153.555 210.004 153.819 209.596C154.107 209.164 154.251 208.528 154.251 207.688C154.251 206.896 154.071 206.284 153.711 205.852C153.375 205.42 152.811 205.168 152.019 205.096C151.611 205.072 151.143 205.06 150.615 205.06C150.087 205.036 149.571 205.024 149.067 205.024C148.419 205.024 147.807 205.024 147.231 205.024C146.655 205.024 146.163 205.036 145.755 205.06C145.491 205.06 145.263 205.144 145.071 205.312C144.903 205.456 144.819 205.708 144.819 206.068V218.164C145.035 218.164 145.275 218.176 145.539 218.2C145.803 218.2 146.115 218.2 146.475 218.2C146.859 218.2 147.351 218.2 147.951 218.2C148.575 218.2 149.367 218.2 150.327 218.2ZM165.568 205.636V215.248C165.568 216.352 165.868 217.132 166.468 217.588C167.068 218.044 168.004 218.272 169.276 218.272C170.644 218.272 171.616 218.032 172.192 217.552C172.792 217.072 173.092 216.304 173.092 215.248V205.636C173.116 205.636 173.212 205.636 173.38 205.636C173.572 205.636 173.776 205.636 173.992 205.636C174.208 205.636 174.412 205.636 174.604 205.636C174.796 205.636 174.916 205.636 174.964 205.636C175.348 205.636 175.648 205.66 175.864 205.708C176.08 205.732 176.224 205.84 176.296 206.032C176.392 206.2 176.44 206.488 176.44 206.896V214.744C176.44 216.016 176.248 217.06 175.864 217.876C175.48 218.668 174.76 219.256 173.704 219.64C172.672 220 171.184 220.18 169.24 220.18C167.416 220.18 165.988 220.024 164.956 219.712C163.948 219.4 163.228 218.872 162.796 218.128C162.388 217.36 162.184 216.316 162.184 214.996V206.896C162.184 206.392 162.268 206.056 162.436 205.888C162.604 205.72 162.94 205.636 163.444 205.636C163.804 205.636 164.152 205.636 164.488 205.636C164.848 205.636 165.208 205.636 165.568 205.636ZM165.424 203.44L168.772 199.12H169.888L173.272 203.44H171.688L169.312 200.74L166.9 203.44H165.424ZM181.129 220C180.457 220 180.121 219.664 180.121 218.992V206.608C180.841 206.32 181.813 206.068 183.037 205.852C184.261 205.612 185.653 205.492 187.213 205.492C188.749 205.492 189.973 205.588 190.885 205.78C191.821 205.972 192.529 206.284 193.009 206.716C193.489 207.124 193.801 207.664 193.945 208.336C194.113 209.008 194.197 209.836 194.197 210.82V218.632C194.197 218.968 194.161 219.244 194.089 219.46C194.041 219.676 193.909 219.82 193.693 219.892C193.501 219.964 193.201 220 192.793 220H190.813V210.1C190.813 209.164 190.525 208.492 189.949 208.084C189.373 207.676 188.461 207.472 187.213 207.472C186.829 207.472 186.397 207.508 185.917 207.58C185.437 207.628 184.981 207.712 184.549 207.832C184.117 207.952 183.769 208.108 183.505 208.3V220H181.129Z" fill="#1C274C"/>
<path opacity="0.5" d="M7.46039 236.8V244.86H13.5404V246H5.42039V237.58C5.42039 237.407 5.42706 237.267 5.44039 237.16C5.45372 237.04 5.51372 236.954 5.62039 236.9C5.72706 236.834 5.89372 236.8 6.12039 236.8H7.46039ZM18.7641 246.12C18.0975 246.12 17.5041 246.074 16.9841 245.98C16.4775 245.874 16.0375 245.68 15.6641 245.4C15.3041 245.12 15.0308 244.707 14.8441 244.16C14.6575 243.614 14.5641 242.9 14.5641 242.02C14.5641 241.14 14.6575 240.427 14.8441 239.88C15.0308 239.334 15.3041 238.92 15.6641 238.64C16.0375 238.36 16.4775 238.174 16.9841 238.08C17.5041 237.974 18.0975 237.92 18.7641 237.92C19.4041 237.92 19.9775 237.974 20.4841 238.08C21.0041 238.174 21.4441 238.36 21.8041 238.64C22.1641 238.92 22.4375 239.334 22.6241 239.88C22.8241 240.427 22.9241 241.14 22.9241 242.02C22.9241 242.914 22.8241 243.634 22.6241 244.18C22.4375 244.727 22.1641 245.14 21.8041 245.42C21.4441 245.687 21.0041 245.874 20.4841 245.98C19.9775 246.074 19.4041 246.12 18.7641 246.12ZM18.7641 245.12C19.2441 245.12 19.6508 245.047 19.9841 244.9C20.3308 244.754 20.5908 244.46 20.7641 244.02C20.9375 243.58 21.0241 242.914 21.0241 242.02C21.0241 241.127 20.9375 240.46 20.7641 240.02C20.5908 239.58 20.3308 239.287 19.9841 239.14C19.6508 238.994 19.2441 238.92 18.7641 238.92C18.2841 238.92 17.8708 238.994 17.5241 239.14C17.1775 239.287 16.9108 239.58 16.7241 240.02C16.5508 240.46 16.4641 241.127 16.4641 242.02C16.4641 242.914 16.5508 243.58 16.7241 244.02C16.9108 244.46 17.1775 244.754 17.5241 244.9C17.8708 245.047 18.2841 245.12 18.7641 245.12ZM28.4046 248.32C28.0179 248.32 27.6313 248.307 27.2446 248.28C26.8579 248.254 26.4979 248.207 26.1646 248.14C25.8446 248.074 25.5779 247.974 25.3646 247.84C25.1646 247.72 25.0646 247.56 25.0646 247.36C25.0646 247.307 25.0646 247.234 25.0646 247.14C25.0646 247.047 25.0646 246.98 25.0646 246.94C25.2379 247.034 25.4979 247.114 25.8446 247.18C26.2046 247.26 26.5846 247.32 26.9846 247.36C27.3979 247.414 27.7579 247.44 28.0646 247.44C28.8379 247.44 29.4313 247.327 29.8446 247.1C30.2579 246.874 30.5379 246.507 30.6846 246C30.8313 245.507 30.8779 244.847 30.8246 244.02H31.1446C31.0113 244.46 30.7913 244.8 30.4846 245.04C30.1913 245.28 29.8313 245.447 29.4046 245.54C28.9779 245.634 28.4979 245.68 27.9646 245.68C27.1779 245.68 26.5246 245.587 26.0046 245.4C25.4979 245.2 25.1246 244.834 24.8846 244.3C24.6579 243.767 24.5446 242.994 24.5446 241.98C24.5446 241.127 24.6179 240.44 24.7646 239.92C24.9246 239.387 25.1779 238.98 25.5246 238.7C25.8846 238.407 26.3446 238.214 26.9046 238.12C27.4779 238.014 28.1846 237.96 29.0246 237.96C29.3046 237.96 29.6379 237.974 30.0246 238C30.4113 238.027 30.7913 238.054 31.1646 238.08C31.5513 238.107 31.8846 238.134 32.1646 238.16C32.4579 238.187 32.6579 238.207 32.7646 238.22C32.7513 238.26 32.7379 238.367 32.7246 238.54C32.7246 238.714 32.7246 238.914 32.7246 239.14C32.7246 239.354 32.7246 239.567 32.7246 239.78L32.7046 244.52C32.7046 245.494 32.5579 246.254 32.2646 246.8C31.9713 247.36 31.5046 247.754 30.8646 247.98C30.2379 248.207 29.4179 248.32 28.4046 248.32ZM28.4846 244.6C28.9246 244.6 29.3179 244.547 29.6646 244.44C30.0113 244.334 30.2913 244.154 30.5046 243.9C30.7313 243.647 30.8446 243.3 30.8446 242.86V239.18C30.7246 239.154 30.4713 239.12 30.0846 239.08C29.6979 239.04 29.2513 239.02 28.7446 239.02C28.1713 239.02 27.7179 239.094 27.3846 239.24C27.0513 239.387 26.8113 239.66 26.6646 240.06C26.5179 240.46 26.4446 241.04 26.4446 241.8C26.4446 242.547 26.5113 243.127 26.6446 243.54C26.7913 243.94 27.0113 244.22 27.3046 244.38C27.5979 244.527 27.9913 244.6 28.4846 244.6ZM36.6641 246.08C35.9575 246.08 35.4775 245.914 35.2241 245.58C34.9708 245.234 34.8441 244.72 34.8441 244.04L34.8641 238.02H36.7241V243.94C36.7241 244.447 36.7841 244.794 36.9041 244.98C37.0375 245.167 37.2575 245.26 37.5641 245.26C37.6841 245.26 37.8175 245.247 37.9641 245.22C38.1108 245.194 38.2041 245.174 38.2441 245.16V245.92C38.1908 245.934 38.1041 245.954 37.9841 245.98C37.8641 246.007 37.6975 246.027 37.4841 246.04C37.2708 246.067 36.9975 246.08 36.6641 246.08ZM35.8241 236.92C35.5175 236.92 35.2841 236.88 35.1241 236.8C34.9775 236.707 34.9041 236.54 34.9041 236.3C34.9041 236.06 34.9775 235.9 35.1241 235.82C35.2708 235.727 35.5041 235.68 35.8241 235.68C36.1308 235.68 36.3508 235.727 36.4841 235.82C36.6308 235.9 36.7041 236.06 36.7041 236.3C36.7041 236.54 36.6308 236.707 36.4841 236.8C36.3508 236.88 36.1308 236.92 35.8241 236.92ZM40.0721 246C39.6988 246 39.5121 245.814 39.5121 245.44V238.56C39.9121 238.4 40.4521 238.26 41.1321 238.14C41.8121 238.007 42.5854 237.94 43.4521 237.94C44.3054 237.94 44.9854 237.994 45.4921 238.1C46.0121 238.207 46.4054 238.38 46.6721 238.62C46.9388 238.847 47.1121 239.147 47.1921 239.52C47.2854 239.894 47.3321 240.354 47.3321 240.9V245.24C47.3321 245.427 47.3121 245.58 47.2721 245.7C47.2454 245.82 47.1721 245.9 47.0521 245.94C46.9454 245.98 46.7788 246 46.5521 246H45.4521V240.5C45.4521 239.98 45.2921 239.607 44.9721 239.38C44.6521 239.154 44.1454 239.04 43.4521 239.04C43.2388 239.04 42.9988 239.06 42.7321 239.1C42.4654 239.127 42.2121 239.174 41.9721 239.24C41.7321 239.307 41.5388 239.394 41.3921 239.5V246H40.0721ZM57.7079 246.08C56.9746 246.08 56.3679 246.02 55.8879 245.9C55.4212 245.767 55.0746 245.514 54.8479 245.14C54.6346 244.754 54.5279 244.18 54.5279 243.42V238.88C54.5279 238.534 54.5679 238.307 54.6479 238.2C54.7412 238.08 54.9279 238.02 55.2079 238.02H56.4079V243.46C56.4079 244.087 56.5346 244.5 56.7879 244.7C57.0412 244.887 57.4412 244.98 57.9879 244.98C58.5746 244.98 58.9946 244.88 59.2479 244.68C59.5012 244.48 59.6279 244.154 59.6279 243.7V238.02H61.5079V243.72C61.5079 244.16 61.6346 244.48 61.8879 244.68C62.1412 244.88 62.5546 244.98 63.1279 244.98C63.6879 244.98 64.0946 244.887 64.3479 244.7C64.6012 244.5 64.7279 244.08 64.7279 243.44V238.02H65.8679C66.1879 238.02 66.3879 238.074 66.4679 238.18C66.5612 238.287 66.6079 238.52 66.6079 238.88V243.42C66.6079 244.154 66.4946 244.714 66.2679 245.1C66.0412 245.487 65.6879 245.747 65.2079 245.88C64.7412 246.014 64.1146 246.08 63.3279 246.08C62.5279 246.08 61.8746 245.954 61.3679 245.7C60.8612 245.447 60.5546 245 60.4479 244.36H60.7079C60.6146 244.8 60.4479 245.147 60.2079 245.4C59.9679 245.654 59.6412 245.834 59.2279 245.94C58.8279 246.034 58.3212 246.08 57.7079 246.08ZM70.4727 246.08C69.7661 246.08 69.2861 245.914 69.0327 245.58C68.7794 245.234 68.6527 244.72 68.6527 244.04L68.6727 238.02H70.5327V243.94C70.5327 244.447 70.5927 244.794 70.7127 244.98C70.8461 245.167 71.0661 245.26 71.3727 245.26C71.4927 245.26 71.6261 245.247 71.7727 245.22C71.9194 245.194 72.0127 245.174 72.0527 245.16V245.92C71.9994 245.934 71.9127 245.954 71.7927 245.98C71.6727 246.007 71.5061 246.027 71.2927 246.04C71.0794 246.067 70.8061 246.08 70.4727 246.08ZM69.6327 236.92C69.3261 236.92 69.0927 236.88 68.9327 236.8C68.7861 236.707 68.7127 236.54 68.7127 236.3C68.7127 236.06 68.7861 235.9 68.9327 235.82C69.0794 235.727 69.3127 235.68 69.6327 235.68C69.9394 235.68 70.1594 235.727 70.2927 235.82C70.4394 235.9 70.5127 236.06 70.5127 236.3C70.5127 236.54 70.4394 236.707 70.2927 236.8C70.1594 236.88 69.9394 236.92 69.6327 236.92ZM75.6807 246.06C75.1474 246.06 74.7274 246 74.4207 245.88C74.1274 245.76 73.914 245.547 73.7807 245.24C73.6474 244.934 73.5807 244.52 73.5807 244V239.04H72.7807V238.02H73.5807V236.7C73.5807 236.46 73.6007 236.287 73.6407 236.18C73.6807 236.06 73.7474 235.987 73.8407 235.96C73.9474 235.92 74.1007 235.9 74.3007 235.9H75.4607C75.4607 235.927 75.4607 235.987 75.4607 236.08C75.4607 236.16 75.4607 236.28 75.4607 236.44V238.02H77.3407V239.04H75.4607V243.82C75.4607 244.34 75.514 244.714 75.6207 244.94C75.7274 245.154 75.9807 245.26 76.3807 245.26C76.514 245.26 76.6607 245.247 76.8207 245.22C76.994 245.194 77.114 245.167 77.1807 245.14V245.92C77.1007 245.934 76.9274 245.96 76.6607 246C76.394 246.04 76.0674 246.06 75.6807 246.06ZM79.6076 246C79.2876 246 79.0809 245.954 78.9876 245.86C78.9076 245.767 78.8676 245.574 78.8676 245.28V235.92H80.7476V238.28C80.9076 238.227 81.1142 238.187 81.3676 238.16C81.6342 238.12 81.9142 238.087 82.2076 238.06C82.5142 238.034 82.7942 238.02 83.0476 238.02C83.8876 238.02 84.5542 238.094 85.0476 238.24C85.5409 238.387 85.9076 238.607 86.1476 238.9C86.4009 239.18 86.5676 239.534 86.6476 239.96C86.7276 240.387 86.7676 240.894 86.7676 241.48V245.08C86.7676 245.347 86.7409 245.547 86.6876 245.68C86.6476 245.814 86.5676 245.9 86.4476 245.94C86.3276 245.98 86.1476 246 85.9076 246H84.9276V241.12C84.9276 240.52 84.8476 240.067 84.6876 239.76C84.5276 239.454 84.2809 239.247 83.9476 239.14C83.6276 239.02 83.2209 238.96 82.7276 238.96C82.5409 238.96 82.3142 238.974 82.0476 239C81.7942 239.014 81.5476 239.04 81.3076 239.08C81.0809 239.107 80.8942 239.154 80.7476 239.22V246H79.6076ZM97.1015 246V242.28L93.5615 237.3L93.2015 236.8H95.9815L98.6215 240.88L101.261 236.8H103.121L102.661 237.36L99.1615 242.28V245.16C99.1748 245.374 99.1548 245.547 99.1015 245.68C99.0482 245.8 98.9548 245.887 98.8215 245.94C98.6882 245.98 98.5015 246 98.2615 246H97.1015ZM107.144 246.12C106.331 246.12 105.644 246.067 105.084 245.96C104.538 245.854 104.098 245.654 103.764 245.36C103.444 245.067 103.218 244.66 103.084 244.14C102.951 243.62 102.884 242.947 102.884 242.12C102.884 241.134 103.011 240.334 103.264 239.72C103.518 239.107 103.964 238.66 104.604 238.38C105.258 238.087 106.164 237.94 107.324 237.94C108.231 237.94 108.951 238.054 109.484 238.28C110.031 238.494 110.424 238.834 110.664 239.3C110.904 239.767 111.024 240.36 111.024 241.08V242.36H105.404C105.404 242.147 105.451 241.974 105.544 241.84C105.638 241.707 105.811 241.64 106.064 241.64H109.344L109.324 241.12C109.311 240.374 109.151 239.827 108.844 239.48C108.551 239.134 108.018 238.96 107.244 238.96C106.604 238.96 106.104 239.06 105.744 239.26C105.384 239.46 105.131 239.787 104.984 240.24C104.838 240.68 104.764 241.294 104.764 242.08C104.764 242.894 104.844 243.514 105.004 243.94C105.178 244.354 105.458 244.634 105.844 244.78C106.244 244.927 106.798 245 107.504 245C107.758 245 108.051 244.994 108.384 244.98C108.731 244.967 109.078 244.947 109.424 244.92C109.784 244.894 110.104 244.86 110.384 244.82C110.664 244.78 110.851 244.74 110.944 244.7V244.98C110.944 245.127 110.911 245.274 110.844 245.42C110.778 245.567 110.638 245.687 110.424 245.78C110.144 245.914 109.731 246 109.184 246.04C108.651 246.094 107.971 246.12 107.144 246.12ZM112.794 246L112.774 236.6C112.774 236.32 112.814 236.134 112.894 236.04C112.987 235.934 113.18 235.88 113.474 235.88H114.674V242L118.074 238.44C118.247 238.28 118.42 238.167 118.594 238.1C118.78 238.02 119.04 237.98 119.374 237.98C119.627 237.98 119.86 237.987 120.074 238C120.287 238 120.48 238.007 120.654 238.02C120.614 238.06 120.527 238.127 120.394 238.22C120.274 238.314 120.14 238.42 119.994 238.54C119.847 238.647 119.714 238.754 119.594 238.86L117.014 241.32L120.494 245.18C120.64 245.34 120.787 245.487 120.934 245.62C121.08 245.754 121.22 245.88 121.354 246C121.02 246.014 120.68 246.02 120.334 246.02C120 246.02 119.7 246.02 119.434 246.02C119.127 246.02 118.894 245.987 118.734 245.92C118.587 245.84 118.427 245.714 118.254 245.54L115.714 242.68L114.674 243.56V246H112.794ZM128.228 246.04C127.201 246.04 126.321 246.04 125.588 246.04C124.855 246.04 124.235 246.034 123.728 246.02C123.235 246.02 122.828 246.014 122.508 246V237.72C122.508 237.334 122.588 237.087 122.748 236.98C122.921 236.874 123.155 236.814 123.448 236.8C123.848 236.8 124.201 236.8 124.508 236.8C124.828 236.787 125.115 236.78 125.368 236.78C125.635 236.767 125.888 236.76 126.128 236.76C126.381 236.76 126.648 236.76 126.928 236.76C127.248 236.76 127.588 236.767 127.948 236.78C128.308 236.78 128.648 236.787 128.968 236.8C129.288 236.8 129.535 236.807 129.708 236.82C130.455 236.874 131.001 237.08 131.348 237.44C131.695 237.8 131.868 238.334 131.868 239.04C131.868 239.56 131.781 239.98 131.608 240.3C131.448 240.607 131.235 240.827 130.968 240.96C130.715 241.08 130.461 241.154 130.208 241.18C130.488 241.18 130.748 241.207 130.988 241.26C131.228 241.314 131.441 241.42 131.628 241.58C131.815 241.727 131.961 241.954 132.068 242.26C132.175 242.554 132.228 242.947 132.228 243.44C132.228 244.04 132.128 244.52 131.928 244.88C131.728 245.227 131.448 245.487 131.088 245.66C130.741 245.82 130.321 245.927 129.828 245.98C129.335 246.02 128.801 246.04 128.228 246.04ZM127.628 245C127.961 245 128.275 244.994 128.568 244.98C128.875 244.954 129.148 244.894 129.388 244.8C129.628 244.707 129.815 244.547 129.948 244.32C130.095 244.08 130.168 243.754 130.168 243.34C130.168 242.754 130.035 242.347 129.768 242.12C129.515 241.894 129.008 241.78 128.248 241.78H125.228C125.041 241.78 124.915 241.7 124.848 241.54C124.795 241.367 124.768 241.114 124.768 240.78H128.188C128.468 240.78 128.728 240.747 128.968 240.68C129.221 240.6 129.421 240.447 129.568 240.22C129.728 239.98 129.808 239.627 129.808 239.16C129.808 238.72 129.708 238.38 129.508 238.14C129.321 237.9 129.008 237.76 128.568 237.72C128.341 237.707 128.081 237.7 127.788 237.7C127.495 237.687 127.208 237.68 126.928 237.68C126.568 237.68 126.228 237.68 125.908 237.68C125.588 237.68 125.315 237.687 125.088 237.7C124.941 237.7 124.815 237.747 124.708 237.84C124.615 237.92 124.568 238.06 124.568 238.26V244.98C124.688 244.98 124.821 244.987 124.968 245C125.115 245 125.288 245 125.488 245C125.701 245 125.975 245 126.308 245C126.655 245 127.095 245 127.628 245ZM136.095 238.02V243.36C136.095 243.974 136.262 244.407 136.595 244.66C136.929 244.914 137.449 245.04 138.155 245.04C138.915 245.04 139.455 244.907 139.775 244.64C140.109 244.374 140.275 243.947 140.275 243.36V238.02C140.289 238.02 140.342 238.02 140.435 238.02C140.542 238.02 140.655 238.02 140.775 238.02C140.895 238.02 141.009 238.02 141.115 238.02C141.222 238.02 141.289 238.02 141.315 238.02C141.529 238.02 141.695 238.034 141.815 238.06C141.935 238.074 142.015 238.134 142.055 238.24C142.109 238.334 142.135 238.494 142.135 238.72V243.08C142.135 243.787 142.029 244.367 141.815 244.82C141.602 245.26 141.202 245.587 140.615 245.8C140.042 246 139.215 246.1 138.135 246.1C137.122 246.1 136.329 246.014 135.755 245.84C135.195 245.667 134.795 245.374 134.555 244.96C134.329 244.534 134.215 243.954 134.215 243.22V238.72C134.215 238.44 134.262 238.254 134.355 238.16C134.449 238.067 134.635 238.02 134.915 238.02C135.115 238.02 135.309 238.02 135.495 238.02C135.695 238.02 135.895 238.02 136.095 238.02ZM136.015 236.8L137.875 234.4H138.495L140.375 236.8H139.495L138.175 235.3L136.835 236.8H136.015ZM144.74 246C144.367 246 144.18 245.814 144.18 245.44V238.56C144.58 238.4 145.12 238.26 145.8 238.14C146.48 238.007 147.253 237.94 148.12 237.94C148.973 237.94 149.653 237.994 150.16 238.1C150.68 238.207 151.073 238.38 151.34 238.62C151.607 238.847 151.78 239.147 151.86 239.52C151.953 239.894 152 240.354 152 240.9V245.24C152 245.427 151.98 245.58 151.94 245.7C151.913 245.82 151.84 245.9 151.72 245.94C151.613 245.98 151.447 246 151.22 246H150.12V240.5C150.12 239.98 149.96 239.607 149.64 239.38C149.32 239.154 148.813 239.04 148.12 239.04C147.907 239.04 147.667 239.06 147.4 239.1C147.133 239.127 146.88 239.174 146.64 239.24C146.4 239.307 146.207 239.394 146.06 239.5V246H144.74ZM163.576 246.12C162.496 246.12 161.623 246.014 160.956 245.8C160.289 245.587 159.809 245.194 159.516 244.62C159.223 244.047 159.076 243.207 159.076 242.1C159.076 240.954 159.223 240.08 159.516 239.48C159.809 238.867 160.289 238.454 160.956 238.24C161.623 238.014 162.496 237.9 163.576 237.9C163.923 237.9 164.249 237.914 164.556 237.94C164.876 237.967 165.243 238.014 165.656 238.08C165.883 238.107 166.063 238.16 166.196 238.24C166.343 238.32 166.449 238.44 166.516 238.6C166.583 238.747 166.616 238.967 166.616 239.26C166.456 239.194 166.223 239.134 165.916 239.08C165.609 239.027 165.283 238.987 164.936 238.96C164.589 238.934 164.283 238.92 164.016 238.92C163.256 238.92 162.649 239.02 162.196 239.22C161.756 239.407 161.443 239.72 161.256 240.16C161.083 240.6 160.996 241.207 160.996 241.98C160.996 242.754 161.083 243.367 161.256 243.82C161.443 244.274 161.756 244.594 162.196 244.78C162.636 244.967 163.243 245.06 164.016 245.06C164.376 245.06 164.723 245.047 165.056 245.02C165.389 244.98 165.689 244.934 165.956 244.88C166.236 244.814 166.456 244.754 166.616 244.7V245.24C166.616 245.48 166.483 245.667 166.216 245.8C165.949 245.92 165.589 246 165.136 246.04C164.696 246.094 164.176 246.12 163.576 246.12ZM170.182 246H168.902C168.702 246 168.548 245.947 168.442 245.84C168.335 245.734 168.282 245.534 168.282 245.24V238.42C168.602 238.327 169.048 238.227 169.622 238.12C170.195 238.014 170.882 237.96 171.682 237.96C172.468 237.96 173.088 238.014 173.542 238.12C173.995 238.214 174.328 238.36 174.542 238.56C174.768 238.747 174.908 238.98 174.962 239.26C175.028 239.527 175.062 239.84 175.062 240.2H173.262L173.242 239.92C173.242 239.6 173.155 239.374 172.982 239.24C172.822 239.094 172.628 239 172.402 238.96C172.175 238.92 171.948 238.9 171.722 238.9C171.375 238.9 171.062 238.934 170.782 239C170.515 239.067 170.315 239.154 170.182 239.26V246ZM180.504 246.12C179.69 246.12 179.004 246.067 178.444 245.96C177.897 245.854 177.457 245.654 177.124 245.36C176.804 245.067 176.577 244.66 176.444 244.14C176.31 243.62 176.244 242.947 176.244 242.12C176.244 241.134 176.37 240.334 176.624 239.72C176.877 239.107 177.324 238.66 177.964 238.38C178.617 238.087 179.524 237.94 180.684 237.94C181.59 237.94 182.31 238.054 182.844 238.28C183.39 238.494 183.784 238.834 184.024 239.3C184.264 239.767 184.384 240.36 184.384 241.08V242.36H178.764C178.764 242.147 178.81 241.974 178.904 241.84C178.997 241.707 179.17 241.64 179.424 241.64H182.704L182.684 241.12C182.67 240.374 182.51 239.827 182.204 239.48C181.91 239.134 181.377 238.96 180.604 238.96C179.964 238.96 179.464 239.06 179.104 239.26C178.744 239.46 178.49 239.787 178.344 240.24C178.197 240.68 178.124 241.294 178.124 242.08C178.124 242.894 178.204 243.514 178.364 243.94C178.537 244.354 178.817 244.634 179.204 244.78C179.604 244.927 180.157 245 180.864 245C181.117 245 181.41 244.994 181.744 244.98C182.09 244.967 182.437 244.947 182.784 244.92C183.144 244.894 183.464 244.86 183.744 244.82C184.024 244.78 184.21 244.74 184.304 244.7V244.98C184.304 245.127 184.27 245.274 184.204 245.42C184.137 245.567 183.997 245.687 183.784 245.78C183.504 245.914 183.09 246 182.544 246.04C182.01 246.094 181.33 246.12 180.504 246.12ZM185.853 241.98C185.853 240.9 186 240.074 186.293 239.5C186.587 238.914 187.013 238.514 187.573 238.3C188.133 238.074 188.807 237.96 189.593 237.96C189.833 237.96 190.107 237.974 190.413 238C190.733 238.014 191.047 238.04 191.353 238.08C191.66 238.12 191.933 238.167 192.173 238.22C192.413 238.26 192.58 238.307 192.673 238.36L192.173 238.6V235.9H194.013L193.993 241.98C193.993 242.887 193.927 243.614 193.793 244.16C193.66 244.694 193.44 245.094 193.133 245.36C192.827 245.627 192.4 245.807 191.853 245.9C191.307 245.994 190.627 246.04 189.813 246.04C189.053 246.04 188.413 245.994 187.893 245.9C187.387 245.794 186.98 245.6 186.673 245.32C186.38 245.04 186.167 244.634 186.033 244.1C185.913 243.567 185.853 242.86 185.853 241.98ZM189.773 245.02C190.293 245.02 190.713 244.987 191.033 244.92C191.353 244.84 191.593 244.7 191.753 244.5C191.927 244.3 192.04 244.02 192.093 243.66C192.147 243.287 192.173 242.807 192.173 242.22L192.153 239.16C192.02 239.147 191.84 239.134 191.613 239.12C191.387 239.107 191.147 239.1 190.893 239.1C190.64 239.087 190.407 239.08 190.193 239.08C189.593 239.08 189.113 239.16 188.753 239.32C188.393 239.467 188.133 239.754 187.973 240.18C187.813 240.607 187.733 241.22 187.733 242.02C187.733 242.874 187.793 243.514 187.913 243.94C188.047 244.367 188.26 244.654 188.553 244.8C188.86 244.947 189.267 245.02 189.773 245.02ZM199.976 246.12C199.163 246.12 198.476 246.067 197.916 245.96C197.37 245.854 196.93 245.654 196.596 245.36C196.276 245.067 196.05 244.66 195.916 244.14C195.783 243.62 195.716 242.947 195.716 242.12C195.716 241.134 195.843 240.334 196.096 239.72C196.35 239.107 196.796 238.66 197.436 238.38C198.09 238.087 198.996 237.94 200.156 237.94C201.063 237.94 201.783 238.054 202.316 238.28C202.863 238.494 203.256 238.834 203.496 239.3C203.736 239.767 203.856 240.36 203.856 241.08V242.36H198.236C198.236 242.147 198.283 241.974 198.376 241.84C198.47 241.707 198.643 241.64 198.896 241.64H202.176L202.156 241.12C202.143 240.374 201.983 239.827 201.676 239.48C201.383 239.134 200.85 238.96 200.076 238.96C199.436 238.96 198.936 239.06 198.576 239.26C198.216 239.46 197.963 239.787 197.816 240.24C197.67 240.68 197.596 241.294 197.596 242.08C197.596 242.894 197.676 243.514 197.836 243.94C198.01 244.354 198.29 244.634 198.676 244.78C199.076 244.927 199.63 245 200.336 245C200.59 245 200.883 244.994 201.216 244.98C201.563 244.967 201.91 244.947 202.256 244.92C202.616 244.894 202.936 244.86 203.216 244.82C203.496 244.78 203.683 244.74 203.776 244.7V244.98C203.776 245.127 203.743 245.274 203.676 245.42C203.61 245.567 203.47 245.687 203.256 245.78C202.976 245.914 202.563 246 202.016 246.04C201.483 246.094 200.803 246.12 199.976 246.12ZM206.166 246C205.793 246 205.606 245.814 205.606 245.44V238.56C206.006 238.4 206.546 238.26 207.226 238.14C207.906 238.007 208.679 237.94 209.546 237.94C210.399 237.94 211.079 237.994 211.586 238.1C212.106 238.207 212.499 238.38 212.766 238.62C213.033 238.847 213.206 239.147 213.286 239.52C213.379 239.894 213.426 240.354 213.426 240.9V245.24C213.426 245.427 213.406 245.58 213.366 245.7C213.339 245.82 213.266 245.9 213.146 245.94C213.039 245.98 212.873 246 212.646 246H211.546V240.5C211.546 239.98 211.386 239.607 211.066 239.38C210.746 239.154 210.239 239.04 209.546 239.04C209.333 239.04 209.093 239.06 208.826 239.1C208.559 239.127 208.306 239.174 208.066 239.24C207.826 239.307 207.633 239.394 207.486 239.5V246H206.166ZM217.868 246.06C217.335 246.06 216.915 246 216.608 245.88C216.315 245.76 216.102 245.547 215.968 245.24C215.835 244.934 215.768 244.52 215.768 244V239.04H214.968V238.02H215.768V236.7C215.768 236.46 215.788 236.287 215.828 236.18C215.868 236.06 215.935 235.987 216.028 235.96C216.135 235.92 216.288 235.9 216.488 235.9H217.648C217.648 235.927 217.648 235.987 217.648 236.08C217.648 236.16 217.648 236.28 217.648 236.44V238.02H219.528V239.04H217.648V243.82C217.648 244.34 217.702 244.714 217.808 244.94C217.915 245.154 218.168 245.26 218.568 245.26C218.702 245.26 218.848 245.247 219.008 245.22C219.182 245.194 219.302 245.167 219.368 245.14V245.92C219.288 245.934 219.115 245.96 218.848 246C218.582 246.04 218.255 246.06 217.868 246.06ZM222.875 246.08C222.168 246.08 221.688 245.914 221.435 245.58C221.182 245.234 221.055 244.72 221.055 244.04L221.075 238.02H222.935V243.94C222.935 244.447 222.995 244.794 223.115 244.98C223.248 245.167 223.468 245.26 223.775 245.26C223.895 245.26 224.028 245.247 224.175 245.22C224.322 245.194 224.415 245.174 224.455 245.16V245.92C224.402 245.934 224.315 245.954 224.195 245.98C224.075 246.007 223.908 246.027 223.695 246.04C223.482 246.067 223.208 246.08 222.875 246.08ZM222.035 236.92C221.728 236.92 221.495 236.88 221.335 236.8C221.188 236.707 221.115 236.54 221.115 236.3C221.115 236.06 221.188 235.9 221.335 235.82C221.482 235.727 221.715 235.68 222.035 235.68C222.342 235.68 222.562 235.727 222.695 235.82C222.842 235.9 222.915 236.06 222.915 236.3C222.915 236.54 222.842 236.707 222.695 236.8C222.562 236.88 222.342 236.92 222.035 236.92ZM229.363 246.12C228.536 246.12 227.863 246.08 227.343 246C226.823 245.934 226.423 245.807 226.143 245.62C225.863 245.434 225.67 245.18 225.563 244.86C225.47 244.54 225.423 244.14 225.423 243.66C225.423 242.98 225.496 242.467 225.643 242.12C225.803 241.76 226.07 241.514 226.443 241.38C226.83 241.247 227.343 241.18 227.983 241.18C228.316 241.18 228.683 241.187 229.083 241.2C229.496 241.214 229.89 241.234 230.263 241.26C230.65 241.274 230.983 241.294 231.263 241.32C231.556 241.347 231.75 241.38 231.843 241.42C231.843 240.86 231.796 240.42 231.703 240.1C231.61 239.78 231.456 239.54 231.243 239.38C231.043 239.22 230.79 239.114 230.483 239.06C230.176 239.007 229.816 238.98 229.403 238.98C228.95 238.98 228.496 238.994 228.043 239.02C227.603 239.047 227.183 239.094 226.783 239.16C226.396 239.227 226.076 239.314 225.823 239.42V239.04C225.823 238.734 225.903 238.514 226.063 238.38C226.236 238.247 226.443 238.16 226.683 238.12C226.95 238.054 227.343 238 227.863 237.96C228.383 237.92 228.936 237.907 229.523 237.92C230.27 237.92 230.903 237.96 231.423 238.04C231.956 238.107 232.383 238.254 232.703 238.48C233.036 238.707 233.276 239.047 233.423 239.5C233.583 239.954 233.663 240.56 233.663 241.32V245.4C233.543 245.654 233.136 245.84 232.443 245.96C231.75 246.067 230.723 246.12 229.363 246.12ZM229.363 245.28C229.896 245.28 230.33 245.267 230.663 245.24C231.01 245.2 231.276 245.154 231.463 245.1C231.65 245.034 231.776 244.954 231.843 244.86V242.1C231.723 242.06 231.51 242.027 231.203 242C230.896 241.96 230.576 241.927 230.243 241.9C229.91 241.874 229.63 241.86 229.403 241.86C228.91 241.86 228.51 241.894 228.203 241.96C227.896 242.027 227.676 242.18 227.543 242.42C227.41 242.66 227.343 243.034 227.343 243.54C227.343 243.954 227.39 244.287 227.483 244.54C227.576 244.794 227.763 244.98 228.043 245.1C228.336 245.22 228.776 245.28 229.363 245.28ZM237.664 246.08C236.957 246.08 236.45 245.94 236.144 245.66C235.837 245.367 235.684 244.854 235.684 244.12V236.7C235.684 236.487 235.697 236.327 235.724 236.22C235.764 236.1 235.837 236.02 235.944 235.98C236.05 235.927 236.21 235.9 236.424 235.9H237.584C237.584 235.927 237.57 236.034 237.544 236.22C237.53 236.407 237.524 236.627 237.524 236.88V243.88C237.524 244.374 237.584 244.727 237.704 244.94C237.824 245.154 238.05 245.26 238.384 245.26C238.49 245.26 238.617 245.247 238.764 245.22C238.924 245.194 239.024 245.174 239.064 245.16V245.92C238.984 245.934 238.844 245.96 238.644 246C238.444 246.054 238.117 246.08 237.664 246.08ZM243.412 246.08C243.159 246.08 242.859 246.074 242.512 246.06C242.166 246.047 241.812 246.02 241.452 245.98C241.106 245.927 240.792 245.854 240.512 245.76C240.339 245.72 240.199 245.667 240.092 245.6C239.999 245.534 239.926 245.42 239.872 245.26C239.832 245.087 239.812 244.827 239.812 244.48C240.146 244.627 240.519 244.747 240.932 244.84C241.346 244.92 241.752 244.974 242.152 245C242.566 245.027 242.919 245.04 243.212 245.04C243.572 245.04 243.926 245.027 244.272 245C244.632 244.974 244.959 244.914 245.252 244.82C245.559 244.727 245.799 244.58 245.972 244.38C246.159 244.18 246.252 243.907 246.252 243.56C246.252 243.094 246.132 242.794 245.892 242.66C245.652 242.527 245.319 242.46 244.892 242.46H242.792C242.272 242.46 241.786 242.427 241.332 242.36C240.892 242.294 240.532 242.12 240.252 241.84C239.986 241.56 239.852 241.087 239.852 240.42C239.852 239.687 240.032 239.14 240.392 238.78C240.752 238.42 241.259 238.187 241.912 238.08C242.579 237.974 243.359 237.92 244.252 237.92C244.586 237.92 244.972 237.927 245.412 237.94C245.866 237.954 246.286 237.994 246.672 238.06C246.992 238.087 247.246 238.14 247.432 238.22C247.632 238.287 247.779 238.387 247.872 238.52C247.966 238.64 248.012 238.827 248.012 239.08V239.54C247.892 239.394 247.686 239.287 247.392 239.22C247.099 239.14 246.752 239.08 246.352 239.04C245.966 239 245.559 238.98 245.132 238.98C244.719 238.967 244.332 238.96 243.972 238.96C243.586 238.96 243.212 238.987 242.852 239.04C242.506 239.08 242.226 239.194 242.012 239.38C241.799 239.567 241.692 239.874 241.692 240.3C241.692 240.634 241.759 240.874 241.892 241.02C242.026 241.167 242.212 241.26 242.452 241.3C242.692 241.34 242.966 241.36 243.272 241.36H245.472C246.006 241.36 246.472 241.407 246.872 241.5C247.272 241.594 247.586 241.794 247.812 242.1C248.039 242.407 248.152 242.887 248.152 243.54C248.152 244.287 247.946 244.84 247.532 245.2C247.119 245.56 246.559 245.8 245.852 245.92C245.146 246.027 244.332 246.08 243.412 246.08ZM258.92 246.12C258.254 246.12 257.66 246.074 257.14 245.98C256.634 245.874 256.194 245.68 255.82 245.4C255.46 245.12 255.187 244.707 255 244.16C254.814 243.614 254.72 242.9 254.72 242.02C254.72 241.14 254.814 240.427 255 239.88C255.187 239.334 255.46 238.92 255.82 238.64C256.194 238.36 256.634 238.174 257.14 238.08C257.66 237.974 258.254 237.92 258.92 237.92C259.56 237.92 260.134 237.974 260.64 238.08C261.16 238.174 261.6 238.36 261.96 238.64C262.32 238.92 262.594 239.334 262.78 239.88C262.98 240.427 263.08 241.14 263.08 242.02C263.08 242.914 262.98 243.634 262.78 244.18C262.594 244.727 262.32 245.14 261.96 245.42C261.6 245.687 261.16 245.874 260.64 245.98C260.134 246.074 259.56 246.12 258.92 246.12ZM258.92 245.12C259.4 245.12 259.807 245.047 260.14 244.9C260.487 244.754 260.747 244.46 260.92 244.02C261.094 243.58 261.18 242.914 261.18 242.02C261.18 241.127 261.094 240.46 260.92 240.02C260.747 239.58 260.487 239.287 260.14 239.14C259.807 238.994 259.4 238.92 258.92 238.92C258.44 238.92 258.027 238.994 257.68 239.14C257.334 239.287 257.067 239.58 256.88 240.02C256.707 240.46 256.62 241.127 256.62 242.02C256.62 242.914 256.707 243.58 256.88 244.02C257.067 244.46 257.334 244.754 257.68 244.9C258.027 245.047 258.44 245.12 258.92 245.12ZM265.541 246C265.168 246 264.981 245.814 264.981 245.44V238.56C265.381 238.4 265.921 238.26 266.601 238.14C267.281 238.007 268.054 237.94 268.921 237.94C269.774 237.94 270.454 237.994 270.961 238.1C271.481 238.207 271.874 238.38 272.141 238.62C272.408 238.847 272.581 239.147 272.661 239.52C272.754 239.894 272.801 240.354 272.801 240.9V245.24C272.801 245.427 272.781 245.58 272.741 245.7C272.714 245.82 272.641 245.9 272.521 245.94C272.414 245.98 272.248 246 272.021 246H270.921V240.5C270.921 239.98 270.761 239.607 270.441 239.38C270.121 239.154 269.614 239.04 268.921 239.04C268.708 239.04 268.468 239.06 268.201 239.1C267.934 239.127 267.681 239.174 267.441 239.24C267.201 239.307 267.008 239.394 266.861 239.5V246H265.541ZM276.843 246.08C276.137 246.08 275.63 245.94 275.323 245.66C275.017 245.367 274.863 244.854 274.863 244.12V236.7C274.863 236.487 274.877 236.327 274.903 236.22C274.943 236.1 275.017 236.02 275.123 235.98C275.23 235.927 275.39 235.9 275.603 235.9H276.763C276.763 235.927 276.75 236.034 276.723 236.22C276.71 236.407 276.703 236.627 276.703 236.88V243.88C276.703 244.374 276.763 244.727 276.883 244.94C277.003 245.154 277.23 245.26 277.563 245.26C277.67 245.26 277.797 245.247 277.943 245.22C278.103 245.194 278.203 245.174 278.243 245.16V245.92C278.163 245.934 278.023 245.96 277.823 246C277.623 246.054 277.297 246.08 276.843 246.08ZM283.152 248.22C282.499 248.22 281.885 248.187 281.312 248.12C280.752 248.067 280.292 247.974 279.932 247.84C279.585 247.72 279.412 247.567 279.412 247.38V246.78C279.625 246.9 279.912 247 280.272 247.08C280.645 247.16 281.032 247.22 281.432 247.26C281.845 247.314 282.239 247.34 282.612 247.34C283.252 247.34 283.765 247.254 284.152 247.08C284.552 246.92 284.845 246.66 285.032 246.3C285.219 245.94 285.312 245.48 285.312 244.92V243.94C285.192 244.207 284.999 244.427 284.732 244.6C284.479 244.774 284.159 244.9 283.772 244.98C283.385 245.047 282.919 245.08 282.372 245.08C281.452 245.08 280.772 244.947 280.332 244.68C279.892 244.414 279.605 244.034 279.472 243.54C279.352 243.047 279.292 242.474 279.292 241.82V238.88C279.292 238.68 279.305 238.52 279.332 238.4C279.359 238.267 279.419 238.174 279.512 238.12C279.605 238.054 279.759 238.02 279.972 238.02H281.212C281.212 238.367 281.212 238.687 281.212 238.98C281.212 239.274 281.212 239.56 281.212 239.84C281.212 240.107 281.212 240.394 281.212 240.7C281.212 240.994 281.212 241.314 281.212 241.66C281.212 242.42 281.299 242.98 281.472 243.34C281.645 243.687 281.885 243.907 282.192 244C282.499 244.094 282.852 244.14 283.252 244.14C283.652 244.14 284.005 244.087 284.312 243.98C284.619 243.86 284.859 243.634 285.032 243.3C285.205 242.967 285.292 242.467 285.292 241.8V238.02H286.512C286.752 238.02 286.925 238.054 287.032 238.12C287.139 238.187 287.192 238.38 287.192 238.7V244.76C287.192 245.96 286.872 246.834 286.232 247.38C285.592 247.94 284.565 248.22 283.152 248.22Z" fill="#101010"/>
</svg>
