<svg width="40" height="40" viewBox="0 0 40 40" fill="none" xmlns="http://www.w3.org/2000/svg">
<g clip-path="url(#clip0_3329_9336)">
<path d="M31.6667 0H8.33333C3.73833 0 0 3.73833 0 8.33333V21.6667C0 26.2617 3.73833 30 8.33333 30H31.6667C36.2617 30 40 26.2617 40 21.6667V8.33333C40 3.73833 36.2617 0 31.6667 0ZM36.6667 21.6667C36.6667 24.4233 34.4233 26.6667 31.6667 26.6667H8.33333C5.57667 26.6667 3.33333 24.4233 3.33333 21.6667V8.33333C3.33333 5.57667 5.57667 3.33333 8.33333 3.33333H31.6667C34.4233 3.33333 36.6667 5.57667 36.6667 8.33333V21.6667ZM16.6667 36.6667C16.6667 38.5083 15.175 40 13.3333 40C11.4917 40 10 38.5083 10 36.6667C10 34.825 11.4917 33.3333 13.3333 33.3333C15.175 33.3333 16.6667 34.825 16.6667 36.6667ZM25.5483 11.6817L18.8867 7.98C16.48 6.535 13.1533 8.49167 13.2467 11.2983V18.7C13.1517 21.5067 16.48 23.4617 18.8867 22.0183L25.55 18.3167C28.115 16.9917 28.1133 13.005 25.5483 11.6817ZM23.9283 15.4033L17.2667 19.105C17.075 19.2117 16.9117 19.16 16.8083 19.1C16.705 19.0383 16.58 18.92 16.58 18.7017V11.2983C16.58 11.08 16.7033 10.96 16.8083 10.9C16.8683 10.865 16.9483 10.8317 17.0433 10.8317C17.1117 10.8317 17.1867 10.8483 17.2683 10.8933L23.93 14.595C24.1283 14.705 24.17 14.875 24.17 15C24.17 15.125 24.1283 15.295 23.9317 15.405L23.9283 15.4033ZM40 36.665C40 37.5867 39.2533 38.3317 38.3333 38.3317H21.6667C20.7467 38.3317 20 37.5867 20 36.665C20 35.7433 20.7467 34.9983 21.6667 34.9983H38.3333C39.2533 34.9983 40 35.7433 40 36.665ZM6.66667 36.665C6.66667 37.5867 5.92 38.3317 5 38.3317H1.66667C0.746667 38.3317 0 37.5867 0 36.665C0 35.7433 0.746667 34.9983 1.66667 34.9983H5C5.92 34.9983 6.66667 35.7433 6.66667 36.665Z" fill="black"/>
</g>
<defs>
<clipPath id="clip0_3329_9336">
<rect width="40" height="40" fill="white"/>
</clipPath>
</defs>
</svg>
