<svg width="70" height="85" viewBox="0 0 70 85" fill="none" xmlns="http://www.w3.org/2000/svg">
<rect x="7.5" width="55" height="55" rx="27.5" fill="white"/>
<path d="M51.474 38.0775C51.4811 31.9355 51.4811 25.7935 51.4811 19.6515C51.4811 16.9907 51.5025 14.3298 51.4383 11.6761C51.4383 11.6333 51.4312 11.5905 51.417 11.5549C51.2529 10.9271 50.3471 10.8701 50.0404 11.4336V14.7151H45.7894V11.3694C45.7823 11.3623 45.7751 11.348 45.768 11.3409C45.447 10.8558 44.6696 10.8986 44.4842 11.4479C44.4699 11.4907 44.4628 11.5406 44.4556 11.5905C44.4485 11.669 44.4414 11.8402 44.4342 11.9187V15.7423H29.0494V11.4336V11.4265C28.7927 10.8915 28.0866 10.8843 27.7228 11.2981V14.7151H23.4647L23.4219 11.3623C23.0795 10.8487 22.245 10.8701 22.0739 11.4978C22.0596 11.5406 22.0525 11.5834 22.0525 11.6333C21.9954 16.1346 22.0525 20.7857 22.0525 25.2942C22.0525 26.0574 22.2736 26.4355 23.1723 26.1431C25.4333 25.3869 27.6943 25.4582 29.8839 26.3999C30.7684 26.7851 31.6029 27.2773 32.5872 27.798C32.7512 27.8836 32.9509 27.7766 32.9652 27.5912C32.9937 27.2274 33.0222 26.9349 33.0222 26.6424C33.0294 24.6807 33.0008 22.7118 33.0365 20.7501C33.0436 20.5147 33.1078 20.2864 33.1934 20.051C33.2933 19.7514 33.6071 19.5873 33.9138 19.6658C34.1563 19.73 34.3845 19.8013 34.5843 19.9297C36.6455 21.3279 38.6926 22.7689 40.7253 24.2027C41.8023 24.9589 41.8095 25.3655 40.7539 26.1074C39.0421 27.3058 37.3374 28.4971 35.6042 29.6742C34.9765 30.1022 34.8196 30.5302 35.219 31.2864C35.6327 32.0639 35.9252 32.9057 36.1035 33.7688C36.1463 33.99 36.2105 34.1683 36.2889 34.3181H44.1632C44.3272 34.3181 44.4628 34.4537 44.4628 34.6177V39.0334C44.4699 39.062 44.4699 39.0905 44.477 39.119C44.691 39.6897 45.4756 39.7682 45.7894 39.3188V36.2727H50.0404V39.3259C50.4041 39.7967 51.1744 39.7611 51.4526 39.1975C51.4597 39.1975 51.4597 39.1904 51.4597 39.1904C51.5453 39.0049 51.474 38.2844 51.474 38.0775ZM27.7228 24.8733H23.4647V20.6074H27.7228V24.8733ZM27.7228 19.5944H23.4647V15.3428H27.7228V19.5944ZM50.0475 35.4167H45.7965V31.158H50.0475V35.4167ZM50.0475 30.1379H45.7965V25.8862H50.0475V30.1379ZM50.0475 24.8733H45.7965V20.6074H50.0475V24.8733ZM50.0475 19.5944H45.7965V15.3428H50.0475V19.5944Z" fill="#1C274C"/>
<path d="M38.792 39.8532C38.5922 39.6107 38.1928 39.575 37.9646 39.789C37.8005 39.9317 37.7363 40.1457 37.665 40.3455C37.2442 41.4726 36.2029 42.35 35.0189 42.5783C34.2771 42.7209 33.464 42.6068 32.8506 42.1716C32.5225 41.9434 32.2586 41.6366 32.0874 41.2799C32.1587 41.2157 32.2301 41.1515 32.3014 41.0802C32.3727 41.016 32.444 40.9518 32.5082 40.8805C32.5867 40.802 32.6651 40.7164 32.7365 40.6379C32.8292 40.5381 32.9148 40.4382 32.9932 40.3455C33.0788 40.2384 33.1573 40.1386 33.2357 40.0387C33.3071 39.9317 33.3855 39.839 33.4568 39.732C33.5353 39.6107 33.6066 39.4966 33.6851 39.3753C33.7564 39.2611 33.8206 39.147 33.8777 39.0329C33.9276 38.9473 33.9775 38.8545 34.0132 38.7689C34.056 38.6762 34.0988 38.5835 34.1487 38.4836C34.3484 38.0484 34.5053 37.5919 34.6194 37.1068C34.8192 36.3221 34.8905 35.5446 34.8619 34.7813C34.8548 34.6957 34.8548 34.6101 34.8477 34.5173C34.8406 34.3889 34.8263 34.2534 34.812 34.1321C34.7978 34.0251 34.7835 33.9181 34.7692 33.8111C34.755 33.7041 34.7336 33.5971 34.7122 33.4972C34.6979 33.4259 34.6836 33.3474 34.6622 33.2832C34.6408 33.1477 34.6052 33.005 34.5553 32.8766C34.5267 32.7696 34.4982 32.6697 34.4625 32.5698C34.3484 32.2203 34.22 31.885 34.056 31.5569C33.9989 31.4427 33.949 31.3357 33.8848 31.2287C33.8277 31.1075 33.7564 31.0005 33.6851 30.8863C33.6209 30.7722 33.5496 30.658 33.4711 30.551C33.3213 30.337 33.1644 30.123 33.0004 29.9233C32.8363 29.7235 32.658 29.5238 32.4726 29.3455L32.4654 29.3383L32.1873 29.0744C32.0945 28.9888 31.9947 28.9032 31.8948 28.8247C31.7878 28.7391 31.6809 28.6535 31.5739 28.5679C31.4098 28.4466 31.2386 28.3325 31.0603 28.2184C31.0247 28.197 30.989 28.1684 30.9462 28.147C30.8535 28.09 30.7608 28.0329 30.6609 27.983C30.5896 27.9473 30.5111 27.9045 30.4398 27.8688C30.3043 27.7975 30.1616 27.7261 30.019 27.6691C29.9334 27.6334 29.8478 27.5906 29.7622 27.5549C29.427 27.4123 29.0775 27.2981 28.7209 27.2125C28.5925 27.1769 28.4641 27.1412 28.3286 27.1198C28.1931 27.0913 28.0647 27.0627 27.9292 27.0485C27.922 27.0485 27.9149 27.0485 27.9078 27.0413C27.6795 27.0057 27.4442 26.9843 27.2016 26.97C27.0947 26.9629 26.9948 26.9629 26.895 26.9629C26.8236 26.9557 26.7523 26.9557 26.681 26.9557C26.5383 26.9557 26.4028 26.9629 26.2602 26.9629C26.1246 26.97 25.982 26.9843 25.8393 26.9985C25.7324 27.0057 25.6254 27.0199 25.5184 27.0342C24.9834 27.1055 24.4699 27.2339 23.9778 27.4051C23.8993 27.4337 23.8208 27.4622 23.7424 27.4907C23.7353 27.4907 23.7281 27.4979 23.721 27.4979C23.5355 27.5692 23.3501 27.6477 23.1789 27.7333C23.0862 27.7689 23.0006 27.8189 22.9079 27.8688C22.8223 27.9188 22.7296 27.9616 22.644 28.0115C22.5584 28.0614 22.4728 28.1114 22.3872 28.1684C22.216 28.2754 22.0449 28.3824 21.8808 28.5108C21.8023 28.5679 21.7239 28.625 21.6454 28.6892C21.5884 28.7248 21.5384 28.7748 21.4814 28.8247C21.3815 28.9103 21.2817 28.9888 21.189 29.0815C21.0962 29.1743 20.9892 29.2599 20.9037 29.3526C20.8109 29.4453 20.7253 29.5381 20.6326 29.6379C20.547 29.7378 20.4543 29.8377 20.3758 29.9376C20.2118 30.1373 20.0549 30.3513 19.9051 30.5653C19.8338 30.6723 19.7625 30.7865 19.6911 30.9006C19.6198 31.0147 19.5556 31.1289 19.4914 31.243C19.4843 31.243 19.4843 31.243 19.4843 31.2501C19.4201 31.3643 19.363 31.4784 19.306 31.5925C19.2632 31.6781 19.2204 31.7638 19.1919 31.8565C19.1562 31.9421 19.1205 32.0277 19.0849 32.1133C19.0064 32.313 18.9351 32.5056 18.8709 32.7054C18.8638 32.7197 18.8638 32.7339 18.8566 32.7553C18.821 32.8695 18.7853 32.9907 18.7568 33.112C18.7282 33.219 18.6997 33.326 18.6854 33.433C18.6213 33.697 18.5785 33.9752 18.5499 34.2534C18.5428 34.3461 18.5285 34.446 18.5285 34.5459C18.5285 34.553 18.5285 34.5601 18.5214 34.5673C18.5143 34.6029 18.5071 34.6457 18.5 34.6814V35.6373C18.5143 35.7586 18.5285 35.8656 18.5428 35.9868C18.5428 36.0225 18.5499 36.0724 18.5571 36.1152C18.5785 36.2722 18.5999 36.4291 18.6284 36.5861C18.7924 37.4421 19.0563 38.2196 19.413 38.9259C19.4415 38.9901 19.4772 39.0543 19.5199 39.1185C19.7553 39.5679 20.0406 39.9888 20.3687 40.374C20.5328 40.5737 20.7111 40.7663 20.8965 40.9518C20.9821 41.0445 21.082 41.1301 21.1818 41.2229C21.7667 41.7436 22.4443 42.193 23.2146 42.5711C23.3073 42.6211 23.4072 42.6639 23.4999 42.7067C23.6211 42.7637 23.7424 42.8137 23.8708 42.8565C24.37 43.0491 24.8907 43.1775 25.4114 43.256C25.6325 43.2916 25.8536 43.313 26.0818 43.3273C26.1246 43.3344 26.1674 43.3487 26.2102 43.3487H26.6881C27.9363 43.3487 29.1203 43.0705 30.1759 42.5711C30.29 42.5854 30.4041 42.6068 30.5183 42.6425C30.7536 42.7281 30.9391 42.9064 31.1459 43.0633C31.8806 43.6412 32.8149 43.9336 33.7421 43.9907C34.812 44.0549 35.9104 43.8124 36.8305 43.2631C37.7577 42.7138 38.4924 41.8506 38.849 40.8377C38.8989 40.7093 38.9346 40.5595 38.956 40.4239C38.9417 40.2099 38.9132 40.0102 38.792 39.8532ZM31.2101 31.6211C32.3442 31.6211 33.2571 32.527 33.2571 33.6613C33.2643 34.7884 32.3442 35.7158 31.2244 35.7158C30.0974 35.7229 29.1631 34.8027 29.1631 33.6827C29.1631 32.5413 30.0832 31.6139 31.2101 31.6211ZM26.6667 28.3182C27.7936 28.3254 28.7137 29.2313 28.7137 30.3656C28.7137 31.4998 27.7794 32.4272 26.6524 32.42C25.5255 32.4129 24.6126 31.4927 24.6126 30.3656C24.6268 29.2313 25.5469 28.3182 26.6667 28.3182ZM20.0763 33.647C20.0834 32.5199 21.0035 31.6211 22.1376 31.6211C23.2574 31.6282 24.1703 32.5484 24.1703 33.6756C24.1703 34.7955 23.2431 35.7158 22.1162 35.7158C20.9892 35.7158 20.0692 34.7884 20.0763 33.647ZM23.8565 41.0588C22.7296 41.0659 21.8095 40.1314 21.8095 38.9901C21.8166 37.8701 22.7367 36.9641 23.8708 36.9641C24.9906 36.9641 25.8964 37.8844 25.8964 39.0186C25.9107 40.1386 24.9906 41.0517 23.8565 41.0588ZM26.6667 35.8228C26.2887 35.8156 25.9963 35.516 25.9963 35.1379C26.0034 34.7599 26.303 34.4674 26.681 34.4674C27.059 34.4674 27.3514 34.7741 27.3514 35.1522C27.3443 35.5303 27.0447 35.8228 26.6667 35.8228ZM27.437 39.0043C27.4442 37.8701 28.3571 36.957 29.4769 36.9641C30.611 36.9641 31.5311 37.8844 31.5239 39.0043C31.5168 40.1314 30.5967 41.0588 29.484 41.0588C28.35 41.0517 27.4299 40.1386 27.437 39.0043Z" fill="#8E93A6"/>
<path d="M3.29233 78.196C3.61499 78.3867 4.03299 78.5333 4.54633 78.636C5.07433 78.724 5.61699 78.7827 6.17433 78.812C6.73166 78.8267 7.21566 78.834 7.62633 78.834C7.78766 78.834 7.971 78.834 8.17633 78.834C8.39633 78.8193 8.587 78.812 8.74833 78.812C9.27633 78.7973 9.73833 78.7387 10.1343 78.636C10.5303 78.5187 10.831 78.328 11.0363 78.064C11.2563 77.8 11.3663 77.426 11.3663 76.942C11.3663 76.3407 11.205 75.952 10.8823 75.776C10.5743 75.6 10.1197 75.512 9.51833 75.512C9.313 75.512 9.093 75.512 8.85833 75.512C8.62366 75.512 8.35233 75.512 8.04433 75.512C7.751 75.512 7.40633 75.512 7.01033 75.512C6.57033 75.512 6.13033 75.49 5.69033 75.446C5.25033 75.402 4.85433 75.3067 4.50233 75.16C4.15033 74.9987 3.86433 74.7493 3.64433 74.412C3.42433 74.06 3.31433 73.5687 3.31433 72.938C3.31433 72.2047 3.44633 71.6253 3.71033 71.2C3.97433 70.7747 4.34099 70.4667 4.81033 70.276C5.29433 70.0707 5.84433 69.9387 6.46033 69.88C7.091 69.8213 7.78033 69.792 8.52833 69.792C8.96833 69.792 9.45233 69.7993 9.98033 69.814C10.5083 69.8287 11.0143 69.8653 11.4983 69.924C11.9823 69.968 12.3563 70.0487 12.6203 70.166C12.9283 70.1953 13.163 70.2907 13.3243 70.452C13.5003 70.5987 13.5883 70.7893 13.5883 71.024C13.5883 71.068 13.5883 71.1413 13.5883 71.244C13.5883 71.3467 13.5883 71.442 13.5883 71.53C13.5883 71.618 13.5883 71.684 13.5883 71.728C13.471 71.5813 13.251 71.4713 12.9283 71.398C12.6203 71.31 12.2683 71.244 11.8723 71.2C11.4763 71.156 11.0877 71.1267 10.7063 71.112C10.3397 71.0827 10.0243 71.068 9.76033 71.068H8.26433C7.76566 71.068 7.31833 71.112 6.92233 71.2C6.52633 71.2733 6.21099 71.4347 5.97633 71.684C5.74166 71.9187 5.62433 72.2853 5.62433 72.784C5.62433 73.1653 5.69766 73.4587 5.84433 73.664C6.00566 73.8547 6.233 73.9867 6.52633 74.06C6.83433 74.1187 7.19366 74.148 7.60433 74.148C8.279 74.148 8.851 74.148 9.32033 74.148C9.78966 74.148 10.149 74.148 10.3983 74.148C11.0583 74.148 11.6377 74.2067 12.1363 74.324C12.6497 74.4267 13.0457 74.6687 13.3243 75.05C13.6177 75.4313 13.7643 76.0327 13.7643 76.854C13.7643 77.6313 13.5957 78.2547 13.2583 78.724C12.921 79.1787 12.459 79.5087 11.8723 79.714C11.2857 79.9047 10.611 80.022 9.84833 80.066C9.39366 80.0953 8.95366 80.11 8.52833 80.11C8.10299 80.1247 7.65566 80.1247 7.18633 80.11C6.761 80.11 6.32099 80.0953 5.86633 80.066C5.41166 80.0367 4.98633 79.9853 4.59033 79.912C4.20899 79.824 3.89366 79.7067 3.64433 79.56C3.40966 79.4133 3.29233 79.2153 3.29233 78.966V78.196ZM17.8202 80.088C17.0429 80.088 16.5149 79.9047 16.2362 79.538C15.9576 79.1567 15.8182 78.592 15.8182 77.844L15.8402 71.222H17.8862V77.734C17.8862 78.2913 17.9522 78.6727 18.0842 78.878C18.2309 79.0833 18.4729 79.186 18.8102 79.186C18.9569 79.186 19.1036 79.1713 19.2502 79.142C19.4116 79.1127 19.5142 79.0907 19.5582 79.076V79.912C19.4996 79.9267 19.4042 79.9487 19.2722 79.978C19.1402 80.0073 18.9569 80.0293 18.7222 80.044C18.4876 80.0733 18.1869 80.088 17.8202 80.088ZM14.2782 69.88L16.3242 67.24H17.0062L19.0742 69.88H18.1062L16.6542 68.23L15.1802 69.88H14.2782ZM21.5506 80C21.1399 80 20.9346 79.7947 20.9346 79.384V71.816C21.3746 71.64 21.9686 71.486 22.7166 71.354C23.4646 71.2073 24.3153 71.134 25.2686 71.134C26.2073 71.134 26.9553 71.1927 27.5126 71.31C28.0846 71.4273 28.5173 71.618 28.8106 71.882C29.1039 72.1313 29.2946 72.4613 29.3826 72.872C29.4853 73.2827 29.5366 73.7887 29.5366 74.39V79.164C29.5366 79.3693 29.5146 79.538 29.4706 79.67C29.4413 79.802 29.3606 79.89 29.2286 79.934C29.1113 79.978 28.9279 80 28.6786 80H27.4686V73.95C27.4686 73.378 27.2926 72.9673 26.9406 72.718C26.5886 72.4687 26.0313 72.344 25.2686 72.344C25.0339 72.344 24.7699 72.366 24.4766 72.41C24.1833 72.4393 23.9046 72.4907 23.6406 72.564C23.3766 72.6373 23.1639 72.7327 23.0026 72.85V80H21.5506ZM36.2052 80.132C35.3105 80.132 34.5552 80.0733 33.9392 79.956C33.3379 79.8387 32.8539 79.6187 32.4872 79.296C32.1352 78.9733 31.8859 78.526 31.7392 77.954C31.5925 77.382 31.5192 76.6413 31.5192 75.732C31.5192 74.6467 31.6585 73.7667 31.9372 73.092C32.2159 72.4173 32.7072 71.926 33.4112 71.618C34.1299 71.2953 35.1272 71.134 36.4032 71.134C37.4005 71.134 38.1925 71.2587 38.7792 71.508C39.3805 71.7427 39.8132 72.1167 40.0772 72.63C40.3412 73.1433 40.4732 73.796 40.4732 74.588V75.996H34.2912C34.2912 75.7613 34.3425 75.5707 34.4452 75.424C34.5479 75.2773 34.7385 75.204 35.0172 75.204H38.6252L38.6032 74.632C38.5885 73.8107 38.4125 73.2093 38.0752 72.828C37.7525 72.4467 37.1659 72.256 36.3152 72.256C35.6112 72.256 35.0612 72.366 34.6652 72.586C34.2692 72.806 33.9905 73.1653 33.8292 73.664C33.6679 74.148 33.5872 74.8227 33.5872 75.688C33.5872 76.5827 33.6752 77.2647 33.8512 77.734C34.0419 78.1887 34.3499 78.4967 34.7752 78.658C35.2152 78.8193 35.8239 78.9 36.6012 78.9C36.8799 78.9 37.2025 78.8927 37.5692 78.878C37.9505 78.8633 38.3319 78.8413 38.7132 78.812C39.1092 78.7827 39.4612 78.746 39.7692 78.702C40.0772 78.658 40.2825 78.614 40.3852 78.57V78.878C40.3852 79.0393 40.3485 79.2007 40.2752 79.362C40.2019 79.5233 40.0479 79.6553 39.8132 79.758C39.5052 79.9047 39.0505 80 38.4492 80.044C37.8625 80.1027 37.1145 80.132 36.2052 80.132ZM43.2335 80C42.8962 80 42.6688 79.9487 42.5515 79.846C42.4488 79.7433 42.3975 79.5233 42.3975 79.186V71.838C42.5588 71.794 42.7642 71.7353 43.0135 71.662C43.2775 71.5887 43.5782 71.5153 43.9155 71.442C44.2675 71.354 44.6488 71.288 45.0595 71.244C45.4848 71.2 45.9248 71.178 46.3795 71.178C46.9075 71.178 47.3622 71.222 47.7435 71.31C48.1248 71.3833 48.4548 71.53 48.7335 71.75C49.0122 71.9553 49.2395 72.256 49.4155 72.652L49.0635 72.63C49.1808 72.3513 49.3568 72.1167 49.5915 71.926C49.8262 71.7207 50.0902 71.5667 50.3835 71.464C50.6915 71.3467 51.0068 71.266 51.3295 71.222C51.6522 71.178 51.9528 71.156 52.2315 71.156C53.1115 71.156 53.8008 71.244 54.2995 71.42C54.8128 71.5813 55.1722 71.86 55.3775 72.256C55.5975 72.652 55.7075 73.1947 55.7075 73.884V79.252C55.7075 79.56 55.6488 79.7653 55.5315 79.868C55.4288 79.956 55.2235 80 54.9155 80H53.6615C53.6615 78.9733 53.6615 77.9467 53.6615 76.92C53.6615 75.8933 53.6615 74.8593 53.6615 73.818C53.6468 73.1873 53.5002 72.762 53.2215 72.542C52.9428 72.322 52.5175 72.212 51.9455 72.212C51.6815 72.212 51.4028 72.2487 51.1095 72.322C50.8308 72.3953 50.5888 72.498 50.3835 72.63C50.1928 72.762 50.0975 72.916 50.0975 73.092V80H48.0295V73.356C48.0295 73.004 47.8682 72.7327 47.5455 72.542C47.2228 72.3367 46.8048 72.234 46.2915 72.234C45.9835 72.234 45.6975 72.2633 45.4335 72.322C45.1695 72.366 44.9495 72.432 44.7735 72.52C44.5975 72.608 44.4948 72.7253 44.4655 72.872V80H43.2335ZM61.9992 80.132C61.0898 80.132 60.3492 80.088 59.7772 80C59.2052 79.9267 58.7652 79.7873 58.4572 79.582C58.1492 79.3767 57.9365 79.098 57.8192 78.746C57.7165 78.394 57.6652 77.954 57.6652 77.426C57.6652 76.678 57.7458 76.1133 57.9072 75.732C58.0832 75.336 58.3765 75.0647 58.7872 74.918C59.2125 74.7713 59.7772 74.698 60.4812 74.698C60.8478 74.698 61.2512 74.7053 61.6912 74.72C62.1458 74.7347 62.5785 74.7567 62.9892 74.786C63.4145 74.8007 63.7812 74.8227 64.0892 74.852C64.4118 74.8813 64.6245 74.918 64.7272 74.962C64.7272 74.346 64.6758 73.862 64.5732 73.51C64.4705 73.158 64.3018 72.894 64.0672 72.718C63.8472 72.542 63.5685 72.4247 63.2312 72.366C62.8938 72.3073 62.4978 72.278 62.0432 72.278C61.5445 72.278 61.0458 72.2927 60.5472 72.322C60.0632 72.3513 59.6012 72.4027 59.1612 72.476C58.7358 72.5493 58.3838 72.6447 58.1052 72.762V72.344C58.1052 72.0067 58.1932 71.7647 58.3692 71.618C58.5598 71.4713 58.7872 71.376 59.0512 71.332C59.3445 71.2587 59.7772 71.2 60.3492 71.156C60.9212 71.112 61.5298 71.0973 62.1752 71.112C62.9965 71.112 63.6932 71.156 64.2652 71.244C64.8518 71.3173 65.3212 71.4787 65.6732 71.728C66.0398 71.9773 66.3038 72.3513 66.4652 72.85C66.6412 73.3487 66.7292 74.016 66.7292 74.852V79.34C66.5972 79.6187 66.1498 79.824 65.3872 79.956C64.6245 80.0733 63.4952 80.132 61.9992 80.132ZM61.9992 79.208C62.5858 79.208 63.0625 79.1933 63.4292 79.164C63.8105 79.12 64.1038 79.0687 64.3092 79.01C64.5145 78.9367 64.6538 78.8487 64.7272 78.746V75.71C64.5952 75.666 64.3605 75.6293 64.0232 75.6C63.6858 75.556 63.3338 75.5193 62.9672 75.49C62.6005 75.4607 62.2925 75.446 62.0432 75.446C61.5005 75.446 61.0605 75.4827 60.7232 75.556C60.3858 75.6293 60.1438 75.798 59.9972 76.062C59.8505 76.326 59.7772 76.7367 59.7772 77.294C59.7772 77.7487 59.8285 78.1153 59.9312 78.394C60.0338 78.6727 60.2392 78.878 60.5472 79.01C60.8698 79.142 61.3538 79.208 61.9992 79.208Z" fill="white"/>
</svg>
