<svg width="77" height="85" viewBox="0 0 77 85" fill="none" xmlns="http://www.w3.org/2000/svg">
<rect x="11" width="55" height="55" rx="27.5" fill="white"/>
<path d="M45.1015 11H43.4517C41.1186 11 39.9521 11 39.2272 11.7248C38.5024 12.4496 38.5024 13.6162 38.5024 15.9493C38.5024 18.2824 38.5024 19.4489 39.2272 20.1737C39.9521 20.8986 41.1186 20.8986 43.4517 20.8986H45.1015C47.4346 20.8986 48.6011 20.8986 49.3259 20.1737C49.7956 19.7041 49.9609 19.0491 50.0191 18.0115H50.0507L52.7157 19.1219C53.7488 19.5523 54.2654 19.7676 54.6327 19.5227C55 19.2778 55 18.7182 55 17.599V14.2995C55 13.1803 55 12.6207 54.6327 12.3759C54.2654 12.131 53.7488 12.3462 52.7157 12.7767L50.0507 13.8871H50.0191C49.9609 12.8495 49.7956 12.1944 49.3259 11.7248C48.6011 11 47.4346 11 45.1015 11Z" fill="#EE5488"/>
<path d="M31.878 35.8289C27.1938 35.8289 24.8517 35.8289 23.3966 34.5242C22.4537 33.6789 22.1218 32.4998 22.0049 30.6321V29.1473H55V30.6321C54.8832 32.4998 54.5512 33.6789 53.6084 34.5242C52.1532 35.8289 49.8111 35.8289 45.1269 35.8289H39.7445V41.768H45.1269C45.8129 41.768 46.369 42.2666 46.369 42.8816C46.369 43.4966 45.8129 43.9952 45.1269 43.9952H31.878C31.192 43.9952 30.6359 43.4966 30.6359 42.8816C30.6359 42.2666 31.192 41.768 31.878 41.768H37.2604V35.8289H31.878Z" fill="#1C274C"/>
<path d="M54.9999 24.1981V25.8478C54.9999 26.7579 54.9893 28.404 54.9785 29.1473H22.0048C21.9941 28.404 22.0047 26.7579 22.0047 25.8478V24.1981C22.0047 17.9764 22.0047 14.8656 23.9376 12.9328C25.8704 11 28.9812 11 35.2028 11H36.7175C36.3789 11.6341 36.222 12.2966 36.1404 12.9042C36.0273 13.7454 36.0275 14.7652 36.0277 15.8146L36.0277 15.9493L36.0277 16.0839C36.0275 17.1333 36.0273 18.1532 36.1404 18.9944C36.2678 19.9427 36.5785 21.0247 37.4773 21.9236C38.3761 22.8224 39.4582 23.133 40.4065 23.2605C41.2477 23.3736 42.2675 23.3734 43.317 23.3732L43.4516 23.3732H45.1014L45.236 23.3732C46.2854 23.3734 47.3053 23.3736 48.1464 23.2605C49.0947 23.133 50.1768 22.8224 51.0757 21.9236C51.2668 21.7324 51.4316 21.5326 51.5739 21.327L51.7638 21.4062L51.8575 21.4452C52.2861 21.6243 52.829 21.8511 53.3165 21.9745C53.7019 22.0721 54.3164 22.1761 54.9962 22.0194C54.9999 22.7 54.9999 23.425 54.9999 24.1981Z" fill="#8E93A6"/>
<path d="M7.14682 78.196C7.46949 78.3867 7.88749 78.5333 8.40082 78.636C8.92882 78.724 9.47149 78.7827 10.0288 78.812C10.5862 78.8267 11.0702 78.834 11.4808 78.834C11.6422 78.834 11.8255 78.834 12.0308 78.834C12.2508 78.8193 12.4415 78.812 12.6028 78.812C13.1308 78.7973 13.5928 78.7387 13.9888 78.636C14.3848 78.5187 14.6855 78.328 14.8908 78.064C15.1108 77.8 15.2208 77.426 15.2208 76.942C15.2208 76.3407 15.0595 75.952 14.7368 75.776C14.4288 75.6 13.9742 75.512 13.3728 75.512C13.1675 75.512 12.9475 75.512 12.7128 75.512C12.4782 75.512 12.2068 75.512 11.8988 75.512C11.6055 75.512 11.2608 75.512 10.8648 75.512C10.4248 75.512 9.98482 75.49 9.54482 75.446C9.10482 75.402 8.70882 75.3067 8.35682 75.16C8.00482 74.9987 7.71882 74.7493 7.49882 74.412C7.27882 74.06 7.16882 73.5687 7.16882 72.938C7.16882 72.2047 7.30082 71.6253 7.56482 71.2C7.82882 70.7747 8.19549 70.4667 8.66482 70.276C9.14882 70.0707 9.69882 69.9387 10.3148 69.88C10.9455 69.8213 11.6348 69.792 12.3828 69.792C12.8228 69.792 13.3068 69.7993 13.8348 69.814C14.3628 69.8287 14.8688 69.8653 15.3528 69.924C15.8368 69.968 16.2108 70.0487 16.4748 70.166C16.7828 70.1953 17.0175 70.2907 17.1788 70.452C17.3548 70.5987 17.4428 70.7893 17.4428 71.024C17.4428 71.068 17.4428 71.1413 17.4428 71.244C17.4428 71.3467 17.4428 71.442 17.4428 71.53C17.4428 71.618 17.4428 71.684 17.4428 71.728C17.3255 71.5813 17.1055 71.4713 16.7828 71.398C16.4748 71.31 16.1228 71.244 15.7268 71.2C15.3308 71.156 14.9422 71.1267 14.5608 71.112C14.1942 71.0827 13.8788 71.068 13.6148 71.068H12.1188C11.6202 71.068 11.1728 71.112 10.7768 71.2C10.3808 71.2733 10.0655 71.4347 9.83082 71.684C9.59615 71.9187 9.47882 72.2853 9.47882 72.784C9.47882 73.1653 9.55215 73.4587 9.69882 73.664C9.86015 73.8547 10.0875 73.9867 10.3808 74.06C10.6888 74.1187 11.0482 74.148 11.4588 74.148C12.1335 74.148 12.7055 74.148 13.1748 74.148C13.6442 74.148 14.0035 74.148 14.2528 74.148C14.9128 74.148 15.4922 74.2067 15.9908 74.324C16.5042 74.4267 16.9002 74.6687 17.1788 75.05C17.4722 75.4313 17.6188 76.0327 17.6188 76.854C17.6188 77.6313 17.4502 78.2547 17.1128 78.724C16.7755 79.1787 16.3135 79.5087 15.7268 79.714C15.1402 79.9047 14.4655 80.022 13.7028 80.066C13.2482 80.0953 12.8082 80.11 12.3828 80.11C11.9575 80.1247 11.5102 80.1247 11.0408 80.11C10.6155 80.11 10.1755 80.0953 9.72082 80.066C9.26615 80.0367 8.84082 79.9853 8.44482 79.912C8.06349 79.824 7.74815 79.7067 7.49882 79.56C7.26415 79.4133 7.14682 79.2153 7.14682 78.966V78.196ZM22.4007 80.066C21.8141 80.066 21.3521 80 21.0147 79.868C20.6921 79.736 20.4574 79.5013 20.3107 79.164C20.1641 78.8267 20.0907 78.372 20.0907 77.8V72.344H19.2107V71.222H20.0907V69.77C20.0907 69.506 20.1127 69.3153 20.1567 69.198C20.2007 69.066 20.2741 68.9853 20.3767 68.956C20.4941 68.912 20.6627 68.89 20.8827 68.89H22.1587C22.1587 68.9193 22.1587 68.9853 22.1587 69.088C22.1587 69.176 22.1587 69.308 22.1587 69.484V71.222H24.2267V72.344H22.1587V77.602C22.1587 78.174 22.2174 78.5847 22.3347 78.834C22.4521 79.0687 22.7307 79.186 23.1707 79.186C23.3174 79.186 23.4787 79.1713 23.6547 79.142C23.8454 79.1127 23.9774 79.0833 24.0507 79.054V79.912C23.9627 79.9267 23.7721 79.956 23.4787 80C23.1854 80.044 22.8261 80.066 22.4007 80.066ZM27.9963 80H26.5883C26.3683 80 26.1996 79.9413 26.0823 79.824C25.965 79.7067 25.9063 79.4867 25.9063 79.164V71.662C26.2583 71.5593 26.7496 71.4493 27.3803 71.332C28.011 71.2147 28.7663 71.156 29.6463 71.156C30.5116 71.156 31.1936 71.2147 31.6923 71.332C32.191 71.4347 32.5576 71.596 32.7923 71.816C33.0416 72.0213 33.1956 72.278 33.2543 72.586C33.3276 72.8793 33.3643 73.224 33.3643 73.62H31.3843L31.3623 73.312C31.3623 72.96 31.267 72.7107 31.0763 72.564C30.9003 72.4027 30.6876 72.3 30.4383 72.256C30.189 72.212 29.9396 72.19 29.6903 72.19C29.309 72.19 28.9643 72.2267 28.6563 72.3C28.363 72.3733 28.143 72.4687 27.9963 72.586V80ZM39.3507 80.132C38.456 80.132 37.7007 80.0733 37.0847 79.956C36.4834 79.8387 35.9994 79.6187 35.6327 79.296C35.2807 78.9733 35.0314 78.526 34.8847 77.954C34.738 77.382 34.6647 76.6413 34.6647 75.732C34.6647 74.6467 34.804 73.7667 35.0827 73.092C35.3614 72.4173 35.8527 71.926 36.5567 71.618C37.2754 71.2953 38.2727 71.134 39.5487 71.134C40.546 71.134 41.338 71.2587 41.9247 71.508C42.526 71.7427 42.9587 72.1167 43.2227 72.63C43.4867 73.1433 43.6187 73.796 43.6187 74.588V75.996H37.4367C37.4367 75.7613 37.488 75.5707 37.5907 75.424C37.6934 75.2773 37.884 75.204 38.1627 75.204H41.7707L41.7487 74.632C41.734 73.8107 41.558 73.2093 41.2207 72.828C40.898 72.4467 40.3114 72.256 39.4607 72.256C38.7567 72.256 38.2067 72.366 37.8107 72.586C37.4147 72.806 37.136 73.1653 36.9747 73.664C36.8134 74.148 36.7327 74.8227 36.7327 75.688C36.7327 76.5827 36.8207 77.2647 36.9967 77.734C37.1874 78.1887 37.4954 78.4967 37.9207 78.658C38.3607 78.8193 38.9694 78.9 39.7467 78.9C40.0254 78.9 40.348 78.8927 40.7147 78.878C41.096 78.8633 41.4774 78.8413 41.8587 78.812C42.2547 78.7827 42.6067 78.746 42.9147 78.702C43.2227 78.658 43.428 78.614 43.5307 78.57V78.878C43.5307 79.0393 43.494 79.2007 43.4207 79.362C43.3474 79.5233 43.1934 79.6553 42.9587 79.758C42.6507 79.9047 42.196 80 41.5947 80.044C41.008 80.1027 40.26 80.132 39.3507 80.132ZM49.547 80.132C48.6377 80.132 47.897 80.088 47.325 80C46.753 79.9267 46.313 79.7873 46.005 79.582C45.697 79.3767 45.4843 79.098 45.367 78.746C45.2643 78.394 45.213 77.954 45.213 77.426C45.213 76.678 45.2937 76.1133 45.455 75.732C45.631 75.336 45.9243 75.0647 46.335 74.918C46.7603 74.7713 47.325 74.698 48.029 74.698C48.3957 74.698 48.799 74.7053 49.239 74.72C49.6937 74.7347 50.1263 74.7567 50.537 74.786C50.9623 74.8007 51.329 74.8227 51.637 74.852C51.9597 74.8813 52.1723 74.918 52.275 74.962C52.275 74.346 52.2237 73.862 52.121 73.51C52.0183 73.158 51.8497 72.894 51.615 72.718C51.395 72.542 51.1163 72.4247 50.779 72.366C50.4417 72.3073 50.0457 72.278 49.591 72.278C49.0923 72.278 48.5937 72.2927 48.095 72.322C47.611 72.3513 47.149 72.4027 46.709 72.476C46.2837 72.5493 45.9317 72.6447 45.653 72.762V72.344C45.653 72.0067 45.741 71.7647 45.917 71.618C46.1077 71.4713 46.335 71.376 46.599 71.332C46.8923 71.2587 47.325 71.2 47.897 71.156C48.469 71.112 49.0777 71.0973 49.723 71.112C50.5443 71.112 51.241 71.156 51.813 71.244C52.3997 71.3173 52.869 71.4787 53.221 71.728C53.5877 71.9773 53.8517 72.3513 54.013 72.85C54.189 73.3487 54.277 74.016 54.277 74.852V79.34C54.145 79.6187 53.6977 79.824 52.935 79.956C52.1723 80.0733 51.043 80.132 49.547 80.132ZM49.547 79.208C50.1337 79.208 50.6103 79.1933 50.977 79.164C51.3583 79.12 51.6517 79.0687 51.857 79.01C52.0623 78.9367 52.2017 78.8487 52.275 78.746V75.71C52.143 75.666 51.9083 75.6293 51.571 75.6C51.2337 75.556 50.8817 75.5193 50.515 75.49C50.1483 75.4607 49.8403 75.446 49.591 75.446C49.0483 75.446 48.6083 75.4827 48.271 75.556C47.9337 75.6293 47.6917 75.798 47.545 76.062C47.3983 76.326 47.325 76.7367 47.325 77.294C47.325 77.7487 47.3763 78.1153 47.479 78.394C47.5817 78.6727 47.787 78.878 48.095 79.01C48.4177 79.142 48.9017 79.208 49.547 79.208ZM57.3575 80C57.0202 80 56.7929 79.9487 56.6755 79.846C56.5729 79.7433 56.5215 79.5233 56.5215 79.186V71.838C56.6829 71.794 56.8882 71.7353 57.1375 71.662C57.4015 71.5887 57.7022 71.5153 58.0395 71.442C58.3915 71.354 58.7729 71.288 59.1835 71.244C59.6089 71.2 60.0489 71.178 60.5035 71.178C61.0315 71.178 61.4862 71.222 61.8675 71.31C62.2489 71.3833 62.5789 71.53 62.8575 71.75C63.1362 71.9553 63.3635 72.256 63.5395 72.652L63.1875 72.63C63.3049 72.3513 63.4809 72.1167 63.7155 71.926C63.9502 71.7207 64.2142 71.5667 64.5075 71.464C64.8155 71.3467 65.1309 71.266 65.4535 71.222C65.7762 71.178 66.0769 71.156 66.3555 71.156C67.2355 71.156 67.9249 71.244 68.4235 71.42C68.9369 71.5813 69.2962 71.86 69.5015 72.256C69.7215 72.652 69.8315 73.1947 69.8315 73.884V79.252C69.8315 79.56 69.7729 79.7653 69.6555 79.868C69.5529 79.956 69.3475 80 69.0395 80H67.7855C67.7855 78.9733 67.7855 77.9467 67.7855 76.92C67.7855 75.8933 67.7855 74.8593 67.7855 73.818C67.7709 73.1873 67.6242 72.762 67.3455 72.542C67.0669 72.322 66.6415 72.212 66.0695 72.212C65.8055 72.212 65.5269 72.2487 65.2335 72.322C64.9549 72.3953 64.7129 72.498 64.5075 72.63C64.3169 72.762 64.2215 72.916 64.2215 73.092V80H62.1535V73.356C62.1535 73.004 61.9922 72.7327 61.6695 72.542C61.3469 72.3367 60.9289 72.234 60.4155 72.234C60.1075 72.234 59.8215 72.2633 59.5575 72.322C59.2935 72.366 59.0735 72.432 58.8975 72.52C58.7215 72.608 58.6189 72.7253 58.5895 72.872V80H57.3575Z" fill="white"/>
</svg>
