<svg width="56" height="55" viewBox="0 0 56 55" fill="none" xmlns="http://www.w3.org/2000/svg">
<rect x="0.5" width="55" height="55" rx="27.5" fill="#1BC469"/>
<path d="M29.6499 32.192C29.6499 28.7696 29.6499 27.0584 30.7373 25.9952C31.8246 24.932 33.5747 24.932 37.0749 24.932C40.5751 24.932 42.3252 24.932 43.4125 25.9952C44.4999 27.0584 44.4999 28.7696 44.4999 32.192V35.822C44.4999 39.2444 44.4999 40.9556 43.4125 42.0188C42.3252 43.082 40.5751 43.082 37.0749 43.082C33.5747 43.082 31.8246 43.082 30.7373 42.0188C29.6499 40.9556 29.6499 39.2444 29.6499 35.822V32.192Z" fill="white"/>
<path d="M11.5 20.9727C11.5 24.3951 11.5 26.1063 12.5874 27.1695C13.6747 28.2327 15.4248 28.2327 18.925 28.2327C22.4252 28.2327 24.1753 28.2327 25.2626 27.1695C26.35 26.1063 26.35 24.3951 26.35 20.9727V17.3427C26.35 13.9203 26.35 12.2091 25.2626 11.1459C24.1753 10.0827 22.4252 10.0827 18.925 10.0827C15.4248 10.0827 13.6747 10.0827 12.5874 11.1459C11.5 12.2091 11.5 13.9203 11.5 17.3427V20.9727Z" fill="white"/>
<path d="M29.8333 16.2247C29.8333 18.0186 29.8333 18.9155 30.1158 19.623C30.4926 20.5664 31.2154 21.3159 32.125 21.7066C32.8073 21.9997 33.6722 21.9997 35.402 21.9997H39.1145C40.8443 21.9997 41.7092 21.9997 42.3915 21.7066C43.3011 21.3159 44.0239 20.5664 44.4007 19.623C44.6833 18.9155 44.6833 18.0186 44.6833 16.2247C44.6833 14.4308 44.6833 13.5339 44.4007 12.8264C44.0239 11.883 43.3011 11.1335 42.3915 10.7428C41.7092 10.4497 40.8443 10.4497 39.1145 10.4497H35.402C33.6722 10.4497 32.8073 10.4497 32.125 10.7428C31.2154 11.1335 30.4926 11.883 30.1158 12.8264C29.8333 13.5339 29.8333 14.4308 29.8333 16.2247Z" fill="white"/>
<path d="M11.5 37.3081C11.5 39.1019 11.5 39.9989 11.7826 40.7064C12.1594 41.6497 12.8821 42.3992 13.7918 42.79C14.474 43.0831 15.3389 43.0831 17.0688 43.0831H20.7812C22.5111 43.0831 23.376 43.0831 24.0582 42.79C24.9679 42.3992 25.6906 41.6497 26.0674 40.7064C26.35 39.9989 26.35 39.1019 26.35 37.3081C26.35 35.5142 26.35 34.6172 26.0674 33.9097C25.6906 32.9664 24.9679 32.2169 24.0582 31.8261C23.376 31.5331 22.5111 31.5331 20.7812 31.5331H17.0688C15.3389 31.5331 14.474 31.5331 13.7918 31.8261C12.8821 32.2169 12.1594 32.9664 11.7826 33.9097C11.5 34.6172 11.5 35.5142 11.5 37.3081Z" fill="white"/>
</svg>
