<svg width="117" height="52" viewBox="0 0 117 52" fill="none" xmlns="http://www.w3.org/2000/svg">
<rect x="1" y="1" width="114.556" height="49.9678" rx="7" stroke="#F2F2F2"/>
<mask id="mask0_3420_17465" style="mask-type:alpha" maskUnits="userSpaceOnUse" x="4" y="8" width="31" height="4">
<rect x="4.48828" y="8.19836" width="30" height="2.87698" rx="1.43849" fill="#F3B811"/>
</mask>
<g mask="url(#mask0_3420_17465)">
<path d="M4.48828 8.19836H15.5883V18.9871V24.0218H13.3891C10.4513 24.0218 7.66207 22.7299 5.76205 20.4892L4.48828 18.9871V8.19836Z" fill="#E52021"/>
<rect x="15.5918" y="8.19836" width="7.8" height="15.8234" fill="#F7F7F7"/>
<path d="M23.3833 8.19836H34.4833V18.9871L33.2095 20.4892C31.3095 22.7299 28.5203 24.0218 25.5825 24.0218H23.3833V18.9871V8.19836Z" fill="#268A42"/>
<rect x="4.48828" y="8.19836" width="30" height="2.87698" rx="1.43849" fill="black" fill-opacity="0.05"/>
</g>
<path fill-rule="evenodd" clip-rule="evenodd" d="M15.5827 11.0741H7.78271V21.8628L8.32569 22.774C8.78244 23.5405 9.35001 24.218 10.0011 24.791C10.2086 24.6944 10.4317 24.6227 10.6665 24.5804L11.5062 24.429C11.63 24.4068 11.7463 24.3559 11.8448 24.2807C11.9433 24.2056 12.0211 24.1086 12.0714 23.9982L12.4126 23.2491C12.9376 22.0968 14.2907 21.4737 15.5605 21.7998L15.5827 21.8055V11.0741Z" fill="#E52021"/>
<path fill-rule="evenodd" clip-rule="evenodd" d="M23.3896 11.0741H15.5896V21.8052L16.3938 22.0117C16.5154 22.043 16.6433 22.0454 16.7661 22.0186C16.8889 21.9917 17.003 21.9366 17.0984 21.8579L17.7458 21.3246C18.7417 20.5043 20.2439 20.5043 21.2397 21.3246L21.887 21.8579C21.9824 21.9366 22.0965 21.9918 22.2194 22.0186C22.3422 22.0454 22.47 22.043 22.5917 22.0117L23.3896 21.8068V11.0741Z" fill="#F7F7F7"/>
<path fill-rule="evenodd" clip-rule="evenodd" d="M31.1867 11.0741H23.3867V21.8049L23.4066 21.7998C24.6764 21.4736 26.0296 22.0968 26.5545 23.2491L26.8957 23.9981C26.946 24.1086 27.0238 24.2056 27.1223 24.2807C27.2208 24.3558 27.337 24.4068 27.4609 24.429L28.3006 24.5804C28.5359 24.6228 28.7595 24.6948 28.9675 24.7917C29.6189 24.2186 30.1868 23.5409 30.6437 22.774L31.1867 21.8628V11.0741Z" fill="#268A42"/>
<path d="M19.6362 9.83502L19.9564 13.0936L21.221 10.0535L20.5709 13.2666L22.6773 10.6914L21.1097 13.5987L23.8873 11.6968L21.5291 14.0628L24.7529 12.9885L21.7951 14.6215L25.204 14.4617L21.8862 15.2294L25.204 15.9971L21.7951 15.8373L24.7529 17.4703L21.5291 16.3959L23.8873 18.7619L21.1097 16.8601L22.6773 19.7674L20.5709 17.1921L21.221 20.4052L19.9564 17.3651L19.6362 20.6237L19.316 17.3651L18.0515 20.4052L18.7015 17.1921L16.5951 19.7674L18.1628 16.8601L15.3851 18.7619L17.7434 16.3959L14.5196 17.4703L17.4774 15.8373L14.0685 15.9971L17.3862 15.2294L14.0685 14.4617L17.4774 14.6215L14.5196 12.9885L17.7434 14.0628L15.3851 11.6968L18.1628 13.5987L16.5951 10.6914L18.7015 13.2666L18.0515 10.0535L19.316 13.0936L19.6362 9.83502Z" fill="#F7B70F"/>
<path fill-rule="evenodd" clip-rule="evenodd" d="M30.4834 34.4764C30.4308 34.3792 30.4033 34.2709 30.4033 34.1609C30.4033 34.0509 30.4308 33.9426 30.4833 33.8454L30.8394 33.1862C31.3872 32.1719 31.0895 30.8936 30.1469 30.2127L29.5343 29.7702C29.4439 29.705 29.3712 29.6191 29.3225 29.52C29.2738 29.4209 29.2506 29.3117 29.2549 29.2018L29.2839 28.4564C29.3285 27.3097 28.4943 26.2846 27.3437 26.0719L26.5958 25.9337C26.4855 25.9134 26.3819 25.8669 26.2942 25.7983C26.2064 25.7297 26.1372 25.6412 26.0924 25.5403L25.7885 24.8564C25.3209 23.8043 24.1157 23.2353 22.9847 23.5332L22.2497 23.7267C22.1414 23.7553 22.0275 23.7574 21.9181 23.7329C21.8087 23.7085 21.707 23.6581 21.622 23.5863L21.0455 23.0993C20.1586 22.3504 18.8207 22.3504 17.9336 23.0993L17.357 23.5863C17.272 23.6581 17.1704 23.7084 17.061 23.7329C16.9516 23.7574 16.8377 23.7553 16.7294 23.7267L15.9944 23.5332C14.8634 23.2354 13.6582 23.8043 13.1906 24.8564L12.8867 25.5403C12.8419 25.6412 12.7726 25.7298 12.6849 25.7983C12.5971 25.8669 12.4936 25.9134 12.3833 25.9337L11.6354 26.0719C10.4847 26.2846 9.65059 27.3097 9.69513 28.4564L9.72407 29.2018C9.72839 29.3117 9.7052 29.4209 9.65651 29.52C9.60782 29.6191 9.53512 29.705 9.44475 29.7702L8.8321 30.2128C7.88954 30.8937 7.59186 32.172 8.13964 33.1862L8.4957 33.8454C8.54825 33.9426 8.57573 34.0509 8.57573 34.1609C8.57573 34.2709 8.54825 34.3792 8.4957 34.4764L8.13964 35.1356C7.59186 36.1498 7.88954 37.4281 8.8321 38.109L9.4447 38.5515C9.53508 38.6168 9.60779 38.7027 9.65648 38.8018C9.70517 38.9009 9.72835 39.0102 9.72401 39.1201L9.69507 39.8655C9.65054 41.0122 10.4847 42.0373 11.6353 42.2499L12.0275 42.3224L12.0276 42.3222L12.3831 42.3879C12.4934 42.4083 12.597 42.4548 12.6847 42.5234C12.7725 42.592 12.8418 42.6806 12.8865 42.7814L13.1904 43.4652C13.658 44.5173 14.8633 45.0863 15.9942 44.7885L16.7292 44.595C16.8376 44.5665 16.9514 44.5643 17.0609 44.5888C17.1703 44.6133 17.2719 44.6636 17.3569 44.7354L17.9334 45.2223C17.9813 45.2626 18.0309 45.3009 18.0819 45.3373L18.0818 45.3375L18.082 45.3374C18.498 45.635 18.9937 45.7843 19.4895 45.7843C19.9778 45.7843 20.4659 45.6399 20.8779 45.3513L20.8779 45.3512C20.9357 45.3107 20.9916 45.2678 21.0454 45.2223L21.622 44.7354C21.707 44.6636 21.8086 44.6133 21.918 44.5888C22.0274 44.5643 22.1413 44.5665 22.2496 44.595L22.9846 44.7885C23.187 44.8417 23.3915 44.8673 23.5939 44.8673C24.5229 44.8672 25.4045 44.3291 25.7884 43.4652L26.0924 42.7814C26.1371 42.6805 26.2064 42.5919 26.2941 42.5233C26.3818 42.4548 26.4854 42.4083 26.5956 42.3879L26.9268 42.3268L26.9269 42.327L26.9269 42.3269L27.3437 42.2499C28.4944 42.0373 29.3285 41.0122 29.284 39.8654L29.255 39.1201C29.2507 39.0102 29.2739 38.9009 29.3226 38.8018C29.3712 38.7027 29.4439 38.6168 29.5343 38.5515L30.147 38.109C31.0896 37.4282 31.3872 36.1499 30.8394 35.1356L30.4834 34.4764Z" fill="#CEDAD9"/>
<ellipse cx="19.4898" cy="34.2199" rx="7.59987" ry="7.44822" fill="white"/>
<circle cx="107.245" cy="9.00549" r="3.25" fill="#828282"/>
<circle cx="107.245" cy="9.00549" r="3.25" fill="white"/>
<circle cx="107.245" cy="9.00549" r="3.25" fill="#1BC469"/>
<circle cx="107.245" cy="9.00549" r="3.25" stroke="#1BC469"/>
<path opacity="0.5" d="M39.6136 23.4693C39.6136 22.9013 39.6736 22.4373 39.7936 22.0773C39.9136 21.7093 40.1056 21.4213 40.3696 21.2133C40.6416 21.0053 40.9936 20.8613 41.4256 20.7813C41.8656 20.6933 42.4016 20.6493 43.0336 20.6493C43.3376 20.6493 43.6256 20.6613 43.8976 20.6853C44.1776 20.7013 44.4656 20.7333 44.7616 20.7813C45.0256 20.8213 45.1976 20.8853 45.2776 20.9733C45.3656 21.0533 45.4096 21.1653 45.4096 21.3093V21.7053C45.2256 21.6253 44.9936 21.5613 44.7136 21.5133C44.4336 21.4573 44.1456 21.4173 43.8496 21.3933C43.5616 21.3613 43.3016 21.3453 43.0696 21.3453C42.5416 21.3453 42.1136 21.4053 41.7856 21.5253C41.4656 21.6453 41.2336 21.8573 41.0896 22.1613C40.9456 22.4653 40.8736 22.9013 40.8736 23.4693C40.8736 24.0373 40.9416 24.4773 41.0776 24.7893C41.2216 25.0933 41.4576 25.3053 41.7856 25.4253C42.1216 25.5453 42.5776 25.6053 43.1536 25.6053C43.3776 25.6053 43.6216 25.5933 43.8856 25.5693C44.1496 25.5373 44.4136 25.4973 44.6776 25.4493C44.9416 25.4013 45.1856 25.3453 45.4096 25.2813V25.6533C45.4096 25.7813 45.3656 25.8893 45.2776 25.9773C45.1976 26.0653 45.0176 26.1293 44.7376 26.1693C44.4496 26.2253 44.1616 26.2613 43.8736 26.2773C43.5856 26.2933 43.2936 26.3013 42.9976 26.3013C42.3496 26.3013 41.8056 26.2613 41.3656 26.1813C40.9336 26.1013 40.5896 25.9573 40.3336 25.7493C40.0776 25.5413 39.8936 25.2533 39.7816 24.8853C39.6696 24.5173 39.6136 24.0453 39.6136 23.4693ZM47.4581 21.4413V24.6453C47.4581 25.0133 47.5581 25.2733 47.7581 25.4253C47.9581 25.5773 48.2701 25.6533 48.6941 25.6533C49.1501 25.6533 49.4741 25.5733 49.6661 25.4133C49.8661 25.2533 49.9661 24.9973 49.9661 24.6453V21.4413C49.9741 21.4413 50.0061 21.4413 50.0621 21.4413C50.1261 21.4413 50.1941 21.4413 50.2661 21.4413C50.3381 21.4413 50.4061 21.4413 50.4701 21.4413C50.5341 21.4413 50.5741 21.4413 50.5901 21.4413C50.7181 21.4413 50.8181 21.4493 50.8901 21.4653C50.9621 21.4733 51.0101 21.5093 51.0341 21.5733C51.0661 21.6293 51.0821 21.7253 51.0821 21.8613V24.4773C51.0821 24.9013 51.0181 25.2493 50.8901 25.5213C50.7621 25.7853 50.5221 25.9813 50.1701 26.1093C49.8261 26.2293 49.3301 26.2893 48.6821 26.2893C48.0741 26.2893 47.5981 26.2373 47.2541 26.1333C46.9181 26.0293 46.6781 25.8533 46.5341 25.6053C46.3981 25.3493 46.3301 25.0013 46.3301 24.5613V21.8613C46.3301 21.6933 46.3581 21.5813 46.4141 21.5253C46.4701 21.4693 46.5821 21.4413 46.7501 21.4413C46.8701 21.4413 46.9861 21.4413 47.0981 21.4413C47.2181 21.4413 47.3381 21.4413 47.4581 21.4413ZM53.4489 26.2293H52.6809C52.5609 26.2293 52.4689 26.1973 52.4049 26.1333C52.3409 26.0693 52.3089 25.9493 52.3089 25.7733V21.6813C52.5009 21.6253 52.7689 21.5653 53.1129 21.5013C53.4569 21.4373 53.8689 21.4053 54.3489 21.4053C54.8209 21.4053 55.1929 21.4373 55.4649 21.5013C55.7369 21.5573 55.9369 21.6453 56.0649 21.7653C56.2009 21.8773 56.2849 22.0173 56.3169 22.1853C56.3569 22.3453 56.3769 22.5333 56.3769 22.7493H55.2969L55.2849 22.5813C55.2849 22.3893 55.2329 22.2533 55.1289 22.1733C55.0329 22.0853 54.9169 22.0293 54.7809 22.0053C54.6449 21.9813 54.5089 21.9693 54.3729 21.9693C54.1649 21.9693 53.9769 21.9893 53.8089 22.0293C53.6489 22.0693 53.5289 22.1213 53.4489 22.1853V26.2293ZM58.3942 26.2293H57.6262C57.5062 26.2293 57.4142 26.1973 57.3502 26.1333C57.2862 26.0693 57.2542 25.9493 57.2542 25.7733V21.6813C57.4462 21.6253 57.7142 21.5653 58.0582 21.5013C58.4022 21.4373 58.8142 21.4053 59.2942 21.4053C59.7662 21.4053 60.1382 21.4373 60.4102 21.5013C60.6822 21.5573 60.8822 21.6453 61.0102 21.7653C61.1462 21.8773 61.2302 22.0173 61.2622 22.1853C61.3022 22.3453 61.3222 22.5333 61.3222 22.7493H60.2422L60.2302 22.5813C60.2302 22.3893 60.1782 22.2533 60.0742 22.1733C59.9782 22.0853 59.8622 22.0293 59.7262 22.0053C59.5902 21.9813 59.4542 21.9693 59.3182 21.9693C59.1102 21.9693 58.9222 21.9893 58.7542 22.0293C58.5942 22.0693 58.4742 22.1213 58.3942 22.1853V26.2293ZM64.5876 26.3013C64.0996 26.3013 63.6876 26.2693 63.3516 26.2053C63.0236 26.1413 62.7596 26.0213 62.5596 25.8453C62.3676 25.6693 62.2316 25.4253 62.1516 25.1133C62.0716 24.8013 62.0316 24.3973 62.0316 23.9013C62.0316 23.3093 62.1076 22.8293 62.2596 22.4613C62.4116 22.0933 62.6796 21.8253 63.0636 21.6573C63.4556 21.4813 63.9996 21.3933 64.6956 21.3933C65.2396 21.3933 65.6716 21.4613 65.9916 21.5973C66.3196 21.7253 66.5556 21.9293 66.6996 22.2093C66.8436 22.4893 66.9156 22.8453 66.9156 23.2773V24.0453H63.5436C63.5436 23.9173 63.5716 23.8133 63.6276 23.7333C63.6836 23.6533 63.7876 23.6133 63.9396 23.6133H65.9076L65.8956 23.3013C65.8876 22.8533 65.7916 22.5253 65.6076 22.3173C65.4316 22.1093 65.1116 22.0053 64.6476 22.0053C64.2636 22.0053 63.9636 22.0653 63.7476 22.1853C63.5316 22.3053 63.3796 22.5013 63.2916 22.7733C63.2036 23.0373 63.1596 23.4053 63.1596 23.8773C63.1596 24.3653 63.2076 24.7373 63.3036 24.9933C63.4076 25.2413 63.5756 25.4093 63.8076 25.4973C64.0476 25.5853 64.3796 25.6293 64.8036 25.6293C64.9556 25.6293 65.1316 25.6253 65.3316 25.6173C65.5396 25.6093 65.7476 25.5973 65.9556 25.5813C66.1716 25.5653 66.3636 25.5453 66.5316 25.5213C66.6996 25.4973 66.8116 25.4733 66.8676 25.4493V25.6173C66.8676 25.7053 66.8476 25.7933 66.8076 25.8813C66.7676 25.9693 66.6836 26.0413 66.5556 26.0973C66.3876 26.1773 66.1396 26.2293 65.8116 26.2533C65.4916 26.2853 65.0836 26.3013 64.5876 26.3013ZM68.3012 26.2293C68.0772 26.2293 67.9652 26.1173 67.9652 25.8933V21.7653C68.2052 21.6693 68.5292 21.5853 68.9372 21.5133C69.3452 21.4333 69.8092 21.3933 70.3292 21.3933C70.8412 21.3933 71.2492 21.4253 71.5532 21.4893C71.8652 21.5533 72.1012 21.6573 72.2612 21.8013C72.4212 21.9373 72.5252 22.1173 72.5732 22.3413C72.6292 22.5653 72.6572 22.8413 72.6572 23.1693V25.7733C72.6572 25.8853 72.6452 25.9773 72.6212 26.0493C72.6052 26.1213 72.5612 26.1693 72.4892 26.1933C72.4252 26.2173 72.3252 26.2293 72.1892 26.2293H71.5292V22.9293C71.5292 22.6173 71.4332 22.3933 71.2412 22.2573C71.0492 22.1213 70.7452 22.0533 70.3292 22.0533C70.2012 22.0533 70.0572 22.0653 69.8972 22.0893C69.7372 22.1053 69.5852 22.1333 69.4412 22.1733C69.2972 22.2133 69.1812 22.2653 69.0932 22.3293V26.2293H68.3012ZM75.3226 26.2653C75.0026 26.2653 74.7506 26.2293 74.5666 26.1573C74.3906 26.0853 74.2626 25.9573 74.1826 25.7733C74.1026 25.5893 74.0626 25.3413 74.0626 25.0293V22.0533H73.5826V21.4413H74.0626V20.6493C74.0626 20.5053 74.0746 20.4013 74.0986 20.3373C74.1226 20.2653 74.1626 20.2213 74.2186 20.2053C74.2826 20.1813 74.3746 20.1693 74.4946 20.1693H75.1906C75.1906 20.1853 75.1906 20.2213 75.1906 20.2773C75.1906 20.3253 75.1906 20.3973 75.1906 20.4933V21.4413H76.3186V22.0533H75.1906V24.9213C75.1906 25.2333 75.2226 25.4573 75.2866 25.5933C75.3506 25.7213 75.5026 25.7853 75.7426 25.7853C75.8226 25.7853 75.9106 25.7773 76.0066 25.7613C76.1106 25.7453 76.1826 25.7293 76.2226 25.7133V26.1813C76.1746 26.1893 76.0706 26.2053 75.9106 26.2293C75.7506 26.2533 75.5546 26.2653 75.3226 26.2653ZM78.4107 26.2773C77.9867 26.2773 77.6827 26.1933 77.4987 26.0253C77.3147 25.8493 77.2227 25.5413 77.2227 25.1013V20.6493C77.2227 20.5213 77.2307 20.4253 77.2467 20.3613C77.2707 20.2893 77.3147 20.2413 77.3787 20.2173C77.4427 20.1853 77.5387 20.1693 77.6667 20.1693H78.3627C78.3627 20.1853 78.3547 20.2493 78.3387 20.3613C78.3307 20.4733 78.3267 20.6053 78.3267 20.7573V24.9573C78.3267 25.2533 78.3627 25.4653 78.4347 25.5933C78.5067 25.7213 78.6427 25.7853 78.8427 25.7853C78.9067 25.7853 78.9827 25.7773 79.0707 25.7613C79.1667 25.7453 79.2267 25.7333 79.2507 25.7253V26.1813C79.2027 26.1893 79.1187 26.2053 78.9987 26.2293C78.8787 26.2613 78.6827 26.2773 78.4107 26.2773ZM82.1961 27.5613C81.8041 27.5613 81.4361 27.5413 81.0921 27.5013C80.7561 27.4693 80.4801 27.4133 80.2641 27.3333C80.0561 27.2613 79.9521 27.1693 79.9521 27.0573V26.6973C80.0801 26.7693 80.2521 26.8293 80.4681 26.8773C80.6921 26.9253 80.9241 26.9613 81.1641 26.9853C81.4121 27.0173 81.6481 27.0333 81.8721 27.0333C82.2561 27.0333 82.5641 26.9813 82.7961 26.8773C83.0361 26.7813 83.2121 26.6253 83.3241 26.4093C83.4361 26.1933 83.4921 25.9173 83.4921 25.5813V24.9933C83.4201 25.1533 83.3041 25.2853 83.1441 25.3893C82.9921 25.4933 82.8001 25.5693 82.5681 25.6173C82.3361 25.6573 82.0561 25.6773 81.7281 25.6773C81.1761 25.6773 80.7681 25.5973 80.5041 25.4373C80.2401 25.2773 80.0681 25.0493 79.9881 24.7533C79.9161 24.4573 79.8801 24.1133 79.8801 23.7213V21.9573C79.8801 21.8373 79.8881 21.7413 79.9041 21.6693C79.9201 21.5893 79.9561 21.5333 80.0121 21.5013C80.0681 21.4613 80.1601 21.4413 80.2881 21.4413H81.0321C81.0321 21.6493 81.0321 21.8413 81.0321 22.0173C81.0321 22.1933 81.0321 22.3653 81.0321 22.5333C81.0321 22.6933 81.0321 22.8653 81.0321 23.0493C81.0321 23.2253 81.0321 23.4173 81.0321 23.6253C81.0321 24.0813 81.0841 24.4173 81.1881 24.6333C81.2921 24.8413 81.4361 24.9733 81.6201 25.0293C81.8041 25.0853 82.0161 25.1133 82.2561 25.1133C82.4961 25.1133 82.7081 25.0813 82.8921 25.0173C83.0761 24.9453 83.2201 24.8093 83.3241 24.6093C83.4281 24.4093 83.4801 24.1093 83.4801 23.7093V21.4413H84.2121C84.3561 21.4413 84.4601 21.4613 84.5241 21.5013C84.5881 21.5413 84.6201 21.6573 84.6201 21.8493V25.4853C84.6201 26.2053 84.4281 26.7293 84.0441 27.0573C83.6601 27.3933 83.0441 27.5613 82.1961 27.5613Z" fill="#1C274C"/>
<path d="M40.3376 41.2293V34.4773C40.3376 34.2426 40.3696 34.0826 40.4336 33.9973C40.5082 33.912 40.6629 33.8693 40.8976 33.8693H47.5536V34.7813H41.9856V36.9413H47.0736V37.8533H41.9856V40.3173H47.5536V41.2293H40.3376ZM48.7932 38.0133C48.7932 37.1493 48.9105 36.488 49.1452 36.0293C49.3799 35.56 49.7212 35.24 50.1692 35.0693C50.6172 34.888 51.1559 34.7973 51.7852 34.7973C51.9772 34.7973 52.1959 34.808 52.4412 34.8293C52.6972 34.84 52.9479 34.8613 53.1932 34.8933C53.4385 34.9253 53.6572 34.9626 53.8492 35.0053C54.0412 35.0373 54.1745 35.0746 54.2492 35.1173L53.8492 35.3093V33.1493H55.3212L55.3052 38.0133C55.3052 38.7386 55.2519 39.32 55.1452 39.7573C55.0385 40.184 54.8625 40.504 54.6172 40.7173C54.3719 40.9306 54.0305 41.0746 53.5932 41.1493C53.1559 41.224 52.6119 41.2613 51.9612 41.2613C51.3532 41.2613 50.8412 41.224 50.4252 41.1493C50.0199 41.064 49.6945 40.9093 49.4492 40.6853C49.2145 40.4613 49.0439 40.136 48.9372 39.7093C48.8412 39.2826 48.7932 38.7173 48.7932 38.0133ZM51.9292 40.4453C52.3452 40.4453 52.6812 40.4186 52.9372 40.3653C53.1932 40.3013 53.3852 40.1893 53.5132 40.0293C53.6519 39.8693 53.7425 39.6453 53.7852 39.3573C53.8279 39.0586 53.8492 38.6746 53.8492 38.2053L53.8332 35.7573C53.7265 35.7466 53.5825 35.736 53.4012 35.7253C53.2199 35.7146 53.0279 35.7093 52.8252 35.7093C52.6225 35.6986 52.4359 35.6933 52.2652 35.6933C51.7852 35.6933 51.4012 35.7573 51.1132 35.8853C50.8252 36.0026 50.6172 36.232 50.4892 36.5733C50.3612 36.9146 50.2972 37.4053 50.2972 38.0453C50.2972 38.728 50.3452 39.24 50.4412 39.5813C50.5479 39.9226 50.7185 40.152 50.9532 40.2693C51.1985 40.3866 51.5239 40.4453 51.9292 40.4453ZM58.2838 34.8453V39.1173C58.2838 39.608 58.4172 39.9546 58.6838 40.1573C58.9505 40.36 59.3665 40.4613 59.9318 40.4613C60.5398 40.4613 60.9718 40.3546 61.2278 40.1413C61.4945 39.928 61.6278 39.5866 61.6278 39.1173V34.8453C61.6385 34.8453 61.6812 34.8453 61.7558 34.8453C61.8412 34.8453 61.9318 34.8453 62.0278 34.8453C62.1238 34.8453 62.2145 34.8453 62.2998 34.8453C62.3852 34.8453 62.4385 34.8453 62.4598 34.8453C62.6305 34.8453 62.7638 34.856 62.8598 34.8773C62.9558 34.888 63.0198 34.936 63.0518 35.0213C63.0945 35.096 63.1158 35.224 63.1158 35.4053V38.8933C63.1158 39.4586 63.0305 39.9226 62.8598 40.2853C62.6892 40.6373 62.3692 40.8986 61.8998 41.0693C61.4412 41.2293 60.7798 41.3093 59.9158 41.3093C59.1052 41.3093 58.4705 41.24 58.0118 41.1013C57.5638 40.9626 57.2438 40.728 57.0518 40.3973C56.8705 40.056 56.7798 39.592 56.7798 39.0053V35.4053C56.7798 35.1813 56.8172 35.032 56.8918 34.9573C56.9665 34.8826 57.1158 34.8453 57.3398 34.8453C57.4998 34.8453 57.6545 34.8453 57.8038 34.8453C57.9638 34.8453 58.1238 34.8453 58.2838 34.8453ZM68.1276 41.3253C67.2636 41.3253 66.5649 41.24 66.0316 41.0693C65.4982 40.8986 65.1142 40.584 64.8796 40.1253C64.6449 39.6666 64.5276 38.9946 64.5276 38.1093C64.5276 37.192 64.6449 36.4933 64.8796 36.0133C65.1142 35.5226 65.4982 35.192 66.0316 35.0213C66.5649 34.84 67.2636 34.7493 68.1276 34.7493C68.4049 34.7493 68.6662 34.76 68.9116 34.7813C69.1676 34.8026 69.4609 34.84 69.7916 34.8933C69.9729 34.9146 70.1169 34.9573 70.2236 35.0213C70.3409 35.0853 70.4262 35.1813 70.4796 35.3093C70.5329 35.4266 70.5596 35.6026 70.5596 35.8373C70.4316 35.784 70.2449 35.736 69.9996 35.6933C69.7542 35.6506 69.4929 35.6186 69.2156 35.5973C68.9382 35.576 68.6929 35.5653 68.4796 35.5653C67.8716 35.5653 67.3862 35.6453 67.0236 35.8053C66.6716 35.9546 66.4209 36.2053 66.2716 36.5573C66.1329 36.9093 66.0636 37.3946 66.0636 38.0133C66.0636 38.632 66.1329 39.1226 66.2716 39.4853C66.4209 39.848 66.6716 40.104 67.0236 40.2533C67.3756 40.4026 67.8609 40.4773 68.4796 40.4773C68.7676 40.4773 69.0449 40.4666 69.3116 40.4453C69.5782 40.4133 69.8182 40.376 70.0316 40.3333C70.2556 40.28 70.4316 40.232 70.5596 40.1893V40.6213C70.5596 40.8133 70.4529 40.9626 70.2396 41.0693C70.0262 41.1653 69.7382 41.2293 69.3756 41.2613C69.0236 41.304 68.6076 41.3253 68.1276 41.3253ZM74.8042 41.3253C74.1429 41.3253 73.6042 41.2933 73.1882 41.2293C72.7722 41.176 72.4522 41.0746 72.2282 40.9253C72.0042 40.776 71.8495 40.5733 71.7642 40.3173C71.6895 40.0613 71.6522 39.7413 71.6522 39.3573C71.6522 38.8133 71.7109 38.4026 71.8282 38.1253C71.9562 37.8373 72.1695 37.64 72.4682 37.5333C72.7775 37.4266 73.1882 37.3733 73.7002 37.3733C73.9669 37.3733 74.2602 37.3786 74.5802 37.3893C74.9109 37.4 75.2255 37.416 75.5242 37.4373C75.8335 37.448 76.1002 37.464 76.3242 37.4853C76.5589 37.5066 76.7135 37.5333 76.7882 37.5653C76.7882 37.1173 76.7509 36.7653 76.6762 36.5093C76.6015 36.2533 76.4789 36.0613 76.3082 35.9333C76.1482 35.8053 75.9455 35.72 75.7002 35.6773C75.4549 35.6346 75.1669 35.6133 74.8362 35.6133C74.4735 35.6133 74.1109 35.624 73.7482 35.6453C73.3962 35.6666 73.0602 35.704 72.7402 35.7573C72.4309 35.8106 72.1749 35.88 71.9722 35.9653V35.6613C71.9722 35.416 72.0362 35.24 72.1642 35.1333C72.3029 35.0266 72.4682 34.9573 72.6602 34.9253C72.8735 34.872 73.1882 34.8293 73.6042 34.7973C74.0202 34.7653 74.4629 34.7546 74.9322 34.7653C75.5295 34.7653 76.0362 34.7973 76.4522 34.8613C76.8789 34.9146 77.2202 35.032 77.4762 35.2133C77.7429 35.3946 77.9349 35.6666 78.0522 36.0293C78.1802 36.392 78.2442 36.8773 78.2442 37.4853V40.7493C78.1482 40.952 77.8229 41.1013 77.2682 41.1973C76.7135 41.2826 75.8922 41.3253 74.8042 41.3253ZM74.8042 40.6533C75.2309 40.6533 75.5775 40.6426 75.8442 40.6213C76.1215 40.5893 76.3349 40.552 76.4842 40.5093C76.6335 40.456 76.7349 40.392 76.7882 40.3173V38.1093C76.6922 38.0773 76.5215 38.0506 76.2762 38.0293C76.0309 37.9973 75.7749 37.9706 75.5082 37.9493C75.2415 37.928 75.0175 37.9173 74.8362 37.9173C74.4415 37.9173 74.1215 37.944 73.8762 37.9973C73.6309 38.0506 73.4549 38.1733 73.3482 38.3653C73.2415 38.5573 73.1882 38.856 73.1882 39.2613C73.1882 39.592 73.2255 39.8586 73.3002 40.0613C73.3749 40.264 73.5242 40.4133 73.7482 40.5093C73.9829 40.6053 74.3349 40.6533 74.8042 40.6533ZM81.7646 41.2773C81.3379 41.2773 81.0019 41.2293 80.7566 41.1333C80.5219 41.0373 80.3512 40.8666 80.2446 40.6213C80.1379 40.376 80.0846 40.0453 80.0846 39.6293V35.6613H79.4446V34.8453H80.0846V33.7893C80.0846 33.5973 80.1006 33.4586 80.1326 33.3733C80.1646 33.2773 80.2179 33.2186 80.2926 33.1973C80.3779 33.1653 80.5006 33.1493 80.6606 33.1493H81.5886C81.5886 33.1706 81.5886 33.2186 81.5886 33.2933C81.5886 33.3573 81.5886 33.4533 81.5886 33.5813V34.8453H83.0926V35.6613H81.5886V39.4853C81.5886 39.9013 81.6312 40.2 81.7166 40.3813C81.8019 40.552 82.0046 40.6373 82.3246 40.6373C82.4312 40.6373 82.5486 40.6266 82.6766 40.6053C82.8152 40.584 82.9112 40.5626 82.9646 40.5413V41.1653C82.9006 41.176 82.7619 41.1973 82.5486 41.2293C82.3352 41.2613 82.0739 41.2773 81.7646 41.2773ZM87.3731 41.3253C86.7224 41.3253 86.1731 41.2826 85.7251 41.1973C85.2877 41.112 84.9357 40.952 84.6691 40.7173C84.4131 40.4826 84.2317 40.1573 84.1251 39.7413C84.0184 39.3253 83.9651 38.7866 83.9651 38.1253C83.9651 37.336 84.0664 36.696 84.2691 36.2053C84.4717 35.7146 84.8291 35.3573 85.3411 35.1333C85.8637 34.8986 86.5891 34.7813 87.5171 34.7813C88.2424 34.7813 88.8184 34.872 89.2451 35.0533C89.6824 35.224 89.9971 35.496 90.1891 35.8693C90.3811 36.2426 90.4771 36.7173 90.4771 37.2933V38.3173H85.9811C85.9811 38.1466 86.0184 38.008 86.0931 37.9013C86.1677 37.7946 86.3064 37.7413 86.5091 37.7413H89.1331L89.1171 37.3253C89.1064 36.728 88.9784 36.2906 88.7331 36.0133C88.4984 35.736 88.0717 35.5973 87.4531 35.5973C86.9411 35.5973 86.5411 35.6773 86.2531 35.8373C85.9651 35.9973 85.7624 36.2586 85.6451 36.6213C85.5277 36.9733 85.4691 37.464 85.4691 38.0933C85.4691 38.744 85.5331 39.24 85.6611 39.5813C85.7997 39.912 86.0237 40.136 86.3331 40.2533C86.6531 40.3706 87.0957 40.4293 87.6611 40.4293C87.8637 40.4293 88.0984 40.424 88.3651 40.4133C88.6424 40.4026 88.9197 40.3866 89.1971 40.3653C89.4851 40.344 89.7411 40.3173 89.9651 40.2853C90.1891 40.2533 90.3384 40.2213 90.4131 40.1893V40.4133C90.4131 40.5306 90.3864 40.648 90.3331 40.7653C90.2797 40.8826 90.1677 40.9786 89.9971 41.0533C89.7731 41.16 89.4424 41.2293 89.0051 41.2613C88.5784 41.304 88.0344 41.3253 87.3731 41.3253ZM91.6526 38.0133C91.6526 37.1493 91.7699 36.488 92.0046 36.0293C92.2392 35.56 92.5806 35.24 93.0286 35.0693C93.4766 34.888 94.0152 34.7973 94.6446 34.7973C94.8366 34.7973 95.0552 34.808 95.3006 34.8293C95.5566 34.84 95.8072 34.8613 96.0526 34.8933C96.2979 34.9253 96.5166 34.9626 96.7086 35.0053C96.9006 35.0373 97.0339 35.0746 97.1086 35.1173L96.7086 35.3093V33.1493H98.1806L98.1646 38.0133C98.1646 38.7386 98.1112 39.32 98.0046 39.7573C97.8979 40.184 97.7219 40.504 97.4766 40.7173C97.2312 40.9306 96.8899 41.0746 96.4526 41.1493C96.0152 41.224 95.4712 41.2613 94.8206 41.2613C94.2126 41.2613 93.7006 41.224 93.2846 41.1493C92.8792 41.064 92.5539 40.9093 92.3086 40.6853C92.0739 40.4613 91.9032 40.136 91.7966 39.7093C91.7006 39.2826 91.6526 38.7173 91.6526 38.0133ZM94.7886 40.4453C95.2046 40.4453 95.5406 40.4186 95.7966 40.3653C96.0526 40.3013 96.2446 40.1893 96.3726 40.0293C96.5112 39.8693 96.6019 39.6453 96.6446 39.3573C96.6872 39.0586 96.7086 38.6746 96.7086 38.2053L96.6926 35.7573C96.5859 35.7466 96.4419 35.736 96.2606 35.7253C96.0792 35.7146 95.8872 35.7093 95.6846 35.7093C95.4819 35.6986 95.2952 35.6933 95.1246 35.6933C94.6446 35.6933 94.2606 35.7573 93.9726 35.8853C93.6846 36.0026 93.4766 36.232 93.3486 36.5733C93.2206 36.9146 93.1566 37.4053 93.1566 38.0453C93.1566 38.728 93.2046 39.24 93.3006 39.5813C93.4072 39.9226 93.5779 40.152 93.8126 40.2693C94.0579 40.3866 94.3832 40.4453 94.7886 40.4453Z" fill="#1C274C"/>
</svg>
