<svg width="89" height="85" viewBox="0 0 89 85" fill="none" xmlns="http://www.w3.org/2000/svg">
<rect x="17" width="55" height="55" rx="27.5" fill="white"/>
<path d="M54.75 36.75L60 42" stroke="#8E93A6" stroke-width="2" stroke-linecap="round"/>
<circle cx="44.25" cy="26.25" r="14.25" stroke="#1C274C" stroke-width="2"/>
<path d="M10.5165 80.154C9.46053 80.154 8.56586 80.0733 7.83253 79.912C7.11386 79.7507 6.5272 79.4793 6.07253 79.098C5.63253 78.702 5.30986 78.174 5.10453 77.514C4.8992 76.8393 4.79653 75.9887 4.79653 74.962C4.79653 73.862 4.92853 72.9673 5.19253 72.278C5.45653 71.5887 5.8452 71.0607 6.35853 70.694C6.87186 70.3273 7.48786 70.078 8.20653 69.946C8.9252 69.814 9.74653 69.748 10.6705 69.748C11.5065 69.748 12.2619 69.77 12.9365 69.814C13.6259 69.8433 14.1905 69.9093 14.6305 70.012C14.9532 70.0707 15.1879 70.1587 15.3345 70.276C15.4959 70.3787 15.5912 70.496 15.6205 70.628C15.6645 70.76 15.6865 70.892 15.6865 71.024V71.596C15.5839 71.4933 15.3859 71.4127 15.0925 71.354C14.8139 71.2953 14.4839 71.244 14.1025 71.2C13.7359 71.1413 13.3545 71.0973 12.9585 71.068C12.5625 71.0387 12.1885 71.0167 11.8365 71.002C11.4845 70.9873 11.2059 70.98 11.0005 70.98C10.0325 70.98 9.26253 71.0973 8.69053 71.332C8.1332 71.552 7.72986 71.948 7.48053 72.52C7.24586 73.092 7.12853 73.906 7.12853 74.962C7.12853 75.974 7.23853 76.766 7.45853 77.338C7.67853 77.91 8.0452 78.3133 8.55853 78.548C9.07186 78.7827 9.76853 78.9 10.6485 78.9C11.4405 78.9 12.0712 78.8267 12.5405 78.68C13.0099 78.5333 13.3472 78.262 13.5525 77.866C13.7725 77.4553 13.8899 76.8907 13.9045 76.172C13.9192 76.0107 13.9192 75.8713 13.9045 75.754C13.9045 75.622 13.9045 75.5193 13.9045 75.446H9.87853C9.87853 75.1233 9.8932 74.874 9.92253 74.698C9.96653 74.5073 10.0692 74.3753 10.2305 74.302C10.3919 74.2287 10.6412 74.192 10.9785 74.192H16.1045V76.15C16.1045 76.9127 16.0092 77.5507 15.8185 78.064C15.6425 78.5627 15.3419 78.966 14.9165 79.274C14.5059 79.582 13.9339 79.8093 13.2005 79.956C12.4819 80.088 11.5872 80.154 10.5165 80.154ZM22.4591 80.132C21.5644 80.132 20.8091 80.0733 20.1931 79.956C19.5918 79.8387 19.1078 79.6187 18.7411 79.296C18.3891 78.9733 18.1398 78.526 17.9931 77.954C17.8464 77.382 17.7731 76.6413 17.7731 75.732C17.7731 74.6467 17.9124 73.7667 18.1911 73.092C18.4698 72.4173 18.9611 71.926 19.6651 71.618C20.3838 71.2953 21.3811 71.134 22.6571 71.134C23.6544 71.134 24.4464 71.2587 25.0331 71.508C25.6344 71.7427 26.0671 72.1167 26.3311 72.63C26.5951 73.1433 26.7271 73.796 26.7271 74.588V75.996H20.5451C20.5451 75.7613 20.5964 75.5707 20.6991 75.424C20.8018 75.2773 20.9924 75.204 21.2711 75.204H24.8791L24.8571 74.632C24.8424 73.8107 24.6664 73.2093 24.3291 72.828C24.0064 72.4467 23.4198 72.256 22.5691 72.256C21.8651 72.256 21.3151 72.366 20.9191 72.586C20.5231 72.806 20.2444 73.1653 20.0831 73.664C19.9218 74.148 19.8411 74.8227 19.8411 75.688C19.8411 76.5827 19.9291 77.2647 20.1051 77.734C20.2958 78.1887 20.6038 78.4967 21.0291 78.658C21.4691 78.8193 22.0778 78.9 22.8551 78.9C23.1338 78.9 23.4564 78.8927 23.8231 78.878C24.2044 78.8633 24.5858 78.8413 24.9671 78.812C25.3631 78.7827 25.7151 78.746 26.0231 78.702C26.3311 78.658 26.5364 78.614 26.6391 78.57V78.878C26.6391 79.0393 26.6024 79.2007 26.5291 79.362C26.4558 79.5233 26.3018 79.6553 26.0671 79.758C25.7591 79.9047 25.3044 80 24.7031 80.044C24.1164 80.1027 23.3684 80.132 22.4591 80.132ZM19.9291 69.88L21.9751 67.24H22.6571L24.7251 69.88H23.7571L22.3051 68.23L20.8311 69.88H19.9291ZM30.7414 80H29.3334C29.1134 80 28.9447 79.9413 28.8274 79.824C28.7101 79.7067 28.6514 79.4867 28.6514 79.164V71.662C29.0034 71.5593 29.4947 71.4493 30.1254 71.332C30.7561 71.2147 31.5114 71.156 32.3914 71.156C33.2567 71.156 33.9387 71.2147 34.4374 71.332C34.9361 71.4347 35.3027 71.596 35.5374 71.816C35.7867 72.0213 35.9407 72.278 35.9994 72.586C36.0727 72.8793 36.1094 73.224 36.1094 73.62H34.1294L34.1074 73.312C34.1074 72.96 34.0121 72.7107 33.8214 72.564C33.6454 72.4027 33.4327 72.3 33.1834 72.256C32.9341 72.212 32.6847 72.19 32.4354 72.19C32.0541 72.19 31.7094 72.2267 31.4014 72.3C31.1081 72.3733 30.8881 72.4687 30.7414 72.586V80ZM41.7218 80.132C40.8125 80.132 40.0718 80.088 39.4998 80C38.9278 79.9267 38.4878 79.7873 38.1798 79.582C37.8718 79.3767 37.6591 79.098 37.5418 78.746C37.4391 78.394 37.3878 77.954 37.3878 77.426C37.3878 76.678 37.4685 76.1133 37.6298 75.732C37.8058 75.336 38.0991 75.0647 38.5098 74.918C38.9351 74.7713 39.4998 74.698 40.2038 74.698C40.5705 74.698 40.9738 74.7053 41.4138 74.72C41.8685 74.7347 42.3011 74.7567 42.7118 74.786C43.1371 74.8007 43.5038 74.8227 43.8118 74.852C44.1345 74.8813 44.3471 74.918 44.4498 74.962C44.4498 74.346 44.3985 73.862 44.2958 73.51C44.1931 73.158 44.0245 72.894 43.7898 72.718C43.5698 72.542 43.2911 72.4247 42.9538 72.366C42.6165 72.3073 42.2205 72.278 41.7658 72.278C41.2671 72.278 40.7685 72.2927 40.2698 72.322C39.7858 72.3513 39.3238 72.4027 38.8838 72.476C38.4585 72.5493 38.1065 72.6447 37.8278 72.762V72.344C37.8278 72.0067 37.9158 71.7647 38.0918 71.618C38.2825 71.4713 38.5098 71.376 38.7738 71.332C39.0671 71.2587 39.4998 71.2 40.0718 71.156C40.6438 71.112 41.2525 71.0973 41.8978 71.112C42.7191 71.112 43.4158 71.156 43.9878 71.244C44.5745 71.3173 45.0438 71.4787 45.3958 71.728C45.7625 71.9773 46.0265 72.3513 46.1878 72.85C46.3638 73.3487 46.4518 74.016 46.4518 74.852V79.34C46.3198 79.6187 45.8725 79.824 45.1098 79.956C44.3471 80.0733 43.2178 80.132 41.7218 80.132ZM41.7218 79.208C42.3085 79.208 42.7851 79.1933 43.1518 79.164C43.5331 79.12 43.8265 79.0687 44.0318 79.01C44.2371 78.9367 44.3765 78.8487 44.4498 78.746V75.71C44.3178 75.666 44.0831 75.6293 43.7458 75.6C43.4085 75.556 43.0565 75.5193 42.6898 75.49C42.3231 75.4607 42.0151 75.446 41.7658 75.446C41.2231 75.446 40.7831 75.4827 40.4458 75.556C40.1085 75.6293 39.8665 75.798 39.7198 76.062C39.5731 76.326 39.4998 76.7367 39.4998 77.294C39.4998 77.7487 39.5511 78.1153 39.6538 78.394C39.7565 78.6727 39.9618 78.878 40.2698 79.01C40.5925 79.142 41.0765 79.208 41.7218 79.208ZM49.3123 80C48.9017 80 48.6963 79.7947 48.6963 79.384V71.816C49.1363 71.64 49.7303 71.486 50.4783 71.354C51.2263 71.2073 52.077 71.134 53.0303 71.134C53.969 71.134 54.717 71.1927 55.2743 71.31C55.8463 71.4273 56.279 71.618 56.5723 71.882C56.8657 72.1313 57.0563 72.4613 57.1443 72.872C57.247 73.2827 57.2983 73.7887 57.2983 74.39V79.164C57.2983 79.3693 57.2763 79.538 57.2323 79.67C57.203 79.802 57.1223 79.89 56.9903 79.934C56.873 79.978 56.6897 80 56.4403 80H55.2303V73.95C55.2303 73.378 55.0543 72.9673 54.7023 72.718C54.3503 72.4687 53.793 72.344 53.0303 72.344C52.7957 72.344 52.5317 72.366 52.2383 72.41C51.945 72.4393 51.6663 72.4907 51.4023 72.564C51.1383 72.6373 50.9257 72.7327 50.7643 72.85V80H49.3123ZM59.2809 75.578C59.2809 74.39 59.4422 73.4807 59.7649 72.85C60.0876 72.2047 60.5569 71.7647 61.1729 71.53C61.7889 71.2807 62.5296 71.156 63.3949 71.156C63.6589 71.156 63.9596 71.1707 64.2969 71.2C64.6489 71.2147 64.9936 71.244 65.3309 71.288C65.6682 71.332 65.9689 71.3833 66.2329 71.442C66.4969 71.486 66.6802 71.5373 66.7829 71.596L66.2329 71.86V68.89H68.2569L68.2349 75.578C68.2349 76.5753 68.1616 77.3747 68.0149 77.976C67.8682 78.5627 67.6262 79.0027 67.2889 79.296C66.9516 79.5893 66.4822 79.7873 65.8809 79.89C65.2796 79.9927 64.5316 80.044 63.6369 80.044C62.8009 80.044 62.0969 79.9927 61.5249 79.89C60.9676 79.7727 60.5202 79.56 60.1829 79.252C59.8602 78.944 59.6256 78.4967 59.4789 77.91C59.3469 77.3233 59.2809 76.546 59.2809 75.578ZM63.5929 78.922C64.1649 78.922 64.6269 78.8853 64.9789 78.812C65.3309 78.724 65.5949 78.57 65.7709 78.35C65.9616 78.13 66.0862 77.822 66.1449 77.426C66.2036 77.0153 66.2329 76.4873 66.2329 75.842L66.2109 72.476C66.0642 72.4613 65.8662 72.4467 65.6169 72.432C65.3676 72.4173 65.1036 72.41 64.8249 72.41C64.5462 72.3953 64.2896 72.388 64.0549 72.388C63.3949 72.388 62.8669 72.476 62.4709 72.652C62.0749 72.8133 61.7889 73.1287 61.6129 73.598C61.4369 74.0673 61.3489 74.742 61.3489 75.622C61.3489 76.5607 61.4149 77.2647 61.5469 77.734C61.6936 78.2033 61.9282 78.5187 62.2509 78.68C62.5882 78.8413 63.0356 78.922 63.5929 78.922ZM72.3085 80.088C71.5312 80.088 71.0032 79.9047 70.7245 79.538C70.4458 79.1567 70.3065 78.592 70.3065 77.844L70.3285 71.222H72.3745V77.734C72.3745 78.2913 72.4405 78.6727 72.5725 78.878C72.7192 79.0833 72.9612 79.186 73.2985 79.186C73.4452 79.186 73.5918 79.1713 73.7385 79.142C73.8998 79.1127 74.0025 79.0907 74.0465 79.076V79.912C73.9878 79.9267 73.8925 79.9487 73.7605 79.978C73.6285 80.0073 73.4452 80.0293 73.2105 80.044C72.9758 80.0733 72.6752 80.088 72.3085 80.088ZM68.7665 69.88L70.8125 67.24H71.4945L73.5625 69.88H72.5945L71.1425 68.23L69.6685 69.88H68.7665ZM76.0389 80C75.6282 80 75.4229 79.7947 75.4229 79.384V71.816C75.8629 71.64 76.4569 71.486 77.2049 71.354C77.9529 71.2073 78.8036 71.134 79.7569 71.134C80.6956 71.134 81.4436 71.1927 82.0009 71.31C82.5729 71.4273 83.0056 71.618 83.2989 71.882C83.5922 72.1313 83.7829 72.4613 83.8709 72.872C83.9736 73.2827 84.0249 73.7887 84.0249 74.39V79.164C84.0249 79.3693 84.0029 79.538 83.9589 79.67C83.9296 79.802 83.8489 79.89 83.7169 79.934C83.5996 79.978 83.4162 80 83.1669 80H81.9569V73.95C81.9569 73.378 81.7809 72.9673 81.4289 72.718C81.0769 72.4687 80.5196 72.344 79.7569 72.344C79.5222 72.344 79.2582 72.366 78.9649 72.41C78.6716 72.4393 78.3929 72.4907 78.1289 72.564C77.8649 72.6373 77.6522 72.7327 77.4909 72.85V80H76.0389Z" fill="white"/>
</svg>
