<svg width="89" height="85" viewBox="0 0 89 85" fill="none" xmlns="http://www.w3.org/2000/svg">
<rect x="17" width="55" height="55" rx="27.5" fill="white"/>
<path d="M59.211 15.3011C58.734 15.0219 58.14 15.0341 57.675 15.3331C57.207 15.6306 56.937 16.1644 56.9715 16.7242C56.9895 16.9942 57 17.2688 57 17.5449C57 24.2732 51.6165 29.7477 45 29.7477C38.3835 29.7477 32.9985 24.2717 32.9985 17.5434C32.9985 17.2673 33.009 16.9942 33.027 16.7227C33.0615 16.1629 32.793 15.629 32.3235 15.3316C31.8555 15.0341 31.2645 15.0219 30.7875 15.2996C28.4505 16.6541 27 19.1938 27 21.9257V32.7954C27 37.0008 30.3645 40.4221 34.5 40.4221H43.5V41.9475H39C38.1705 41.9475 37.5 42.6293 37.5 43.4728C37.5 44.3164 38.1705 44.9982 39 44.9982H51C51.8295 44.9982 52.5 44.3164 52.5 43.4728C52.5 42.6293 51.8295 41.9475 51 41.9475H46.5V40.4221H55.5C59.6355 40.4221 63 37.0008 63 32.7954V21.9257C63 19.1938 61.548 16.6541 59.2125 15.2996L59.211 15.3011Z" fill="#1C274C"/>
<path d="M52.7475 20.6384L51.9225 20.1549C52.116 19.5173 52.2495 18.8538 52.2495 18.1521C52.2495 17.4505 52.116 16.7869 51.9225 16.1493L52.7475 15.6658C53.466 15.2448 53.712 14.3128 53.298 13.5837C52.884 12.853 51.9675 12.6029 51.249 13.0224L50.433 13.5013C49.5255 12.5068 48.3435 11.7853 46.9995 11.4726V10.5254C46.9995 9.68336 46.3275 9 45.4995 9C44.6715 9 43.9995 9.68336 43.9995 10.5254V11.4726C42.6555 11.7853 41.472 12.5068 40.566 13.5013L39.75 13.0224C39.0315 12.6014 38.115 12.853 37.701 13.5837C37.287 14.3143 37.5345 15.2463 38.2515 15.6673L39.0765 16.1509C38.883 16.7885 38.7495 17.452 38.7495 18.1536C38.7495 18.8553 38.883 19.5188 39.0765 20.1564L38.2515 20.64C37.533 21.061 37.287 21.993 37.701 22.7236C38.115 23.4543 39.0315 23.7044 39.75 23.2849L40.566 22.806C41.4735 23.8005 42.6555 24.522 43.9995 24.8347V25.7819C43.9995 26.6239 44.6715 27.3073 45.4995 27.3073C46.3275 27.3073 46.9995 26.6239 46.9995 25.7819V24.8347C48.3435 24.522 49.527 23.8005 50.433 22.806L51.249 23.2849C51.9675 23.7059 52.884 23.4543 53.298 22.7251C53.712 21.9945 53.4645 21.0625 52.7475 20.6415V20.6384ZM45.4995 20.4417C44.259 20.4417 43.2495 19.4151 43.2495 18.1536C43.2495 16.8922 44.259 15.8656 45.4995 15.8656C46.74 15.8656 47.7495 16.8922 47.7495 18.1536C47.7495 19.4151 46.74 20.4417 45.4995 20.4417Z" fill="#8E93A6"/>
<path d="M24.6232 80V70.716C24.6232 70.3933 24.6672 70.1733 24.7552 70.056C24.8578 69.9387 25.0705 69.88 25.3932 69.88H34.5452V71.134H26.8892V74.104H33.8852V75.358H26.8892V78.746H34.5452V80H24.6232ZM27.1092 68.538L29.1332 66.338H29.8372L31.8832 68.538H30.9152L29.4852 67.24L28.0332 68.538H27.1092ZM40.5617 82.442C39.843 82.442 39.1683 82.4053 38.5377 82.332C37.9217 82.2733 37.4157 82.1707 37.0197 82.024C36.6383 81.892 36.4477 81.7233 36.4477 81.518V80.858C36.6823 80.99 36.9977 81.1 37.3937 81.188C37.8043 81.276 38.2297 81.342 38.6697 81.386C39.1243 81.4447 39.557 81.474 39.9677 81.474C40.6717 81.474 41.2363 81.3787 41.6617 81.188C42.1017 81.012 42.4243 80.726 42.6297 80.33C42.835 79.934 42.9377 79.428 42.9377 78.812V77.734C42.8057 78.0273 42.593 78.2693 42.2997 78.46C42.021 78.6507 41.669 78.79 41.2437 78.878C40.8183 78.9513 40.305 78.988 39.7037 78.988C38.6917 78.988 37.9437 78.8413 37.4597 78.548C36.9757 78.2547 36.6603 77.8367 36.5137 77.294C36.3817 76.7513 36.3157 76.1207 36.3157 75.402V72.168C36.3157 71.948 36.3303 71.772 36.3597 71.64C36.389 71.4933 36.455 71.3907 36.5577 71.332C36.6603 71.2587 36.829 71.222 37.0637 71.222H38.4277C38.4277 71.6033 38.4277 71.9553 38.4277 72.278C38.4277 72.6007 38.4277 72.916 38.4277 73.224C38.4277 73.5173 38.4277 73.8327 38.4277 74.17C38.4277 74.4927 38.4277 74.8447 38.4277 75.226C38.4277 76.062 38.523 76.678 38.7137 77.074C38.9043 77.4553 39.1683 77.6973 39.5057 77.8C39.843 77.9027 40.2317 77.954 40.6717 77.954C41.1117 77.954 41.5003 77.8953 41.8377 77.778C42.175 77.646 42.439 77.3967 42.6297 77.03C42.8203 76.6633 42.9157 76.1133 42.9157 75.38V71.222H44.2577C44.5217 71.222 44.7123 71.2587 44.8297 71.332C44.947 71.4053 45.0057 71.618 45.0057 71.97V78.636C45.0057 79.956 44.6537 80.9167 43.9497 81.518C43.2457 82.134 42.1163 82.442 40.5617 82.442ZM51.2179 80.132C50.3086 80.132 49.5679 80.088 48.9959 80C48.4239 79.9267 47.9839 79.7873 47.6759 79.582C47.3679 79.3767 47.1552 79.098 47.0379 78.746C46.9352 78.394 46.8839 77.954 46.8839 77.426C46.8839 76.678 46.9646 76.1133 47.1259 75.732C47.3019 75.336 47.5952 75.0647 48.0059 74.918C48.4312 74.7713 48.9959 74.698 49.6999 74.698C50.0666 74.698 50.4699 74.7053 50.9099 74.72C51.3646 74.7347 51.7972 74.7567 52.2079 74.786C52.6332 74.8007 52.9999 74.8227 53.3079 74.852C53.6306 74.8813 53.8432 74.918 53.9459 74.962C53.9459 74.346 53.8946 73.862 53.7919 73.51C53.6892 73.158 53.5206 72.894 53.2859 72.718C53.0659 72.542 52.7872 72.4247 52.4499 72.366C52.1126 72.3073 51.7166 72.278 51.2619 72.278C50.7632 72.278 50.2646 72.2927 49.7659 72.322C49.2819 72.3513 48.8199 72.4027 48.3799 72.476C47.9546 72.5493 47.6026 72.6447 47.3239 72.762V72.344C47.3239 72.0067 47.4119 71.7647 47.5879 71.618C47.7786 71.4713 48.0059 71.376 48.2699 71.332C48.5632 71.2587 48.9959 71.2 49.5679 71.156C50.1399 71.112 50.7486 71.0973 51.3939 71.112C52.2152 71.112 52.9119 71.156 53.4839 71.244C54.0706 71.3173 54.5399 71.4787 54.8919 71.728C55.2586 71.9773 55.5226 72.3513 55.6839 72.85C55.8599 73.3487 55.9479 74.016 55.9479 74.852V79.34C55.8159 79.6187 55.3686 79.824 54.6059 79.956C53.8432 80.0733 52.7139 80.132 51.2179 80.132ZM51.2179 79.208C51.8046 79.208 52.2812 79.1933 52.6479 79.164C53.0292 79.12 53.3226 79.0687 53.5279 79.01C53.7332 78.9367 53.8726 78.8487 53.9459 78.746V75.71C53.8139 75.666 53.5792 75.6293 53.2419 75.6C52.9046 75.556 52.5526 75.5193 52.1859 75.49C51.8192 75.4607 51.5112 75.446 51.2619 75.446C50.7192 75.446 50.2792 75.4827 49.9419 75.556C49.6046 75.6293 49.3626 75.798 49.2159 76.062C49.0692 76.326 48.9959 76.7367 48.9959 77.294C48.9959 77.7487 49.0472 78.1153 49.1499 78.394C49.2526 78.6727 49.4579 78.878 49.7659 79.01C50.0886 79.142 50.5726 79.208 51.2179 79.208ZM60.2824 80H58.8744C58.6544 80 58.4858 79.9413 58.3684 79.824C58.2511 79.7067 58.1924 79.4867 58.1924 79.164V71.662C58.5444 71.5593 59.0358 71.4493 59.6664 71.332C60.2971 71.2147 61.0524 71.156 61.9324 71.156C62.7978 71.156 63.4798 71.2147 63.9784 71.332C64.4771 71.4347 64.8438 71.596 65.0784 71.816C65.3278 72.0213 65.4818 72.278 65.5404 72.586C65.6138 72.8793 65.6504 73.224 65.6504 73.62H63.6704L63.6484 73.312C63.6484 72.96 63.5531 72.7107 63.3624 72.564C63.1864 72.4027 62.9738 72.3 62.7244 72.256C62.4751 72.212 62.2258 72.19 61.9764 72.19C61.5951 72.19 61.2504 72.2267 60.9424 72.3C60.6491 72.3733 60.4291 72.4687 60.2824 72.586V80Z" fill="white"/>
</svg>
