<svg width="70" height="85" viewBox="0 0 70 85" fill="none" xmlns="http://www.w3.org/2000/svg">
<rect x="7.5" width="55" height="55" rx="27.5" fill="white"/>
<path d="M51.495 18.1489C51.495 24.0482 51.5098 29.946 51.4899 35.8452C51.4811 38.352 49.4897 40.3133 46.992 40.3486C44.7938 40.3803 42.8061 38.6774 42.5073 36.51C42.1777 34.1041 43.6031 31.9786 45.9647 31.4162C47.3467 31.0863 48.6139 31.3956 49.748 32.2496C49.8083 32.2945 49.8665 32.3416 49.9275 32.3865C49.9327 32.3902 49.943 32.385 49.9651 32.3813C49.9651 29.9327 49.9651 27.4819 49.9651 25.0126C48.9937 25.2578 48.0348 25.5 47.0752 25.7437C43.648 26.6124 40.2216 27.4841 36.7937 28.3454C36.5752 28.3999 36.5075 28.4838 36.5075 28.7128C36.5163 32.2554 36.5111 35.7981 36.5148 39.3407C36.5163 40.9317 35.8945 42.2112 34.6103 43.1536C31.9139 45.134 27.9525 43.4348 27.5183 40.1182C27.2033 37.7056 28.698 35.5493 31.0779 35.0449C32.4246 34.76 33.6624 35.0634 34.7634 35.8975C34.8274 35.9461 34.8921 35.9947 34.9959 36.0749C34.9959 35.9321 34.9959 35.8349 34.9959 35.7377C34.9959 31.3705 34.9981 27.0033 34.99 22.6354C34.99 22.3954 35.0592 22.3078 35.2881 22.2511C40.5557 20.923 45.8219 19.5867 51.0881 18.2513C51.1911 18.2248 51.2904 18.1835 51.3913 18.1497C51.4273 18.1489 51.4612 18.1489 51.495 18.1489Z" fill="#1C274C"/>
<path d="M21.8913 30.8983C21.5527 30.8218 21.2076 30.7643 20.8764 30.6642C20.2531 30.475 19.7063 30.1452 19.2604 29.6659C18.1484 28.471 18.2684 26.8146 19.5393 25.7412C20.8293 24.6523 22.8627 24.4624 24.4125 25.2877C24.4684 25.3178 24.5258 25.3458 24.6163 25.3922C24.6163 25.2899 24.6163 25.2104 24.6163 25.1308C24.6163 20.7276 24.6156 16.3236 24.6178 11.9203C24.6178 11.7856 24.6259 11.6457 24.6627 11.5176C24.7532 11.2076 25.0608 10.9971 25.3846 11C25.7077 11.003 26.0278 11.2121 26.1036 11.5242C26.3126 12.3885 26.8498 13.0496 27.4724 13.6224C28.0162 14.123 28.6477 14.5302 29.2548 14.9594C29.9326 15.4379 30.6162 15.9098 31.1365 16.5687C32.0145 17.6819 32.3898 18.9459 32.2352 20.3609C32.08 21.7781 31.6141 23.0783 30.77 24.2341C30.6861 24.349 30.5986 24.4631 30.497 24.5618C30.2152 24.8364 29.767 24.8423 29.4726 24.5853C29.1819 24.3313 29.126 23.9036 29.3424 23.5826C29.3497 23.5716 29.3556 23.5598 29.3652 23.5509C29.7103 23.2447 29.6838 22.8957 29.5528 22.4856C29.0134 20.8027 27.9044 19.663 26.3008 18.9739C26.2714 18.9614 26.2405 18.9504 26.2096 18.9415C26.1985 18.9386 26.1846 18.943 26.1529 18.9459C26.1529 19.0269 26.1529 19.1094 26.1529 19.1926C26.1529 21.9578 26.1301 24.723 26.1618 27.4875C26.1787 28.9702 25.4604 29.9221 24.1755 30.5008C23.77 30.6833 23.3101 30.7452 22.8752 30.8622C22.8325 30.874 22.7898 30.8858 22.7464 30.8968C22.4616 30.8983 22.1761 30.8983 21.8913 30.8983Z" fill="#8E93A6"/>
<path d="M11.3419 80V70.826C11.3419 70.386 11.3933 70.122 11.4959 70.034C11.5986 69.9313 11.8479 69.88 12.2439 69.88H13.9159L17.2379 77.25L17.2819 77.426L17.3259 77.382L17.3699 77.206L20.6479 69.88H22.4299C22.7966 69.88 23.0313 69.924 23.1339 70.012C23.2513 70.1 23.3099 70.32 23.3099 70.672V79.186C23.3099 79.4353 23.2879 79.6187 23.2439 79.736C23.1999 79.8387 23.1119 79.912 22.9799 79.956C22.8626 79.9853 22.6866 80 22.4519 80H21.0439V72.322L20.9339 72.74L17.6779 80H16.2259L13.0579 72.872L12.9479 72.476V80H11.3419ZM28.0903 71.222V77.096C28.0903 77.7707 28.2736 78.2473 28.6403 78.526C29.0069 78.8047 29.5789 78.944 30.3563 78.944C31.1923 78.944 31.7863 78.7973 32.1383 78.504C32.5049 78.2107 32.6883 77.7413 32.6883 77.096V71.222C32.7029 71.222 32.7616 71.222 32.8643 71.222C32.9816 71.222 33.1063 71.222 33.2383 71.222C33.3703 71.222 33.4949 71.222 33.6123 71.222C33.7296 71.222 33.8029 71.222 33.8323 71.222C34.0669 71.222 34.2503 71.2367 34.3823 71.266C34.5143 71.2807 34.6023 71.3467 34.6463 71.464C34.7049 71.5667 34.7343 71.7427 34.7343 71.992V76.788C34.7343 77.5653 34.6169 78.2033 34.3823 78.702C34.1476 79.186 33.7076 79.5453 33.0623 79.78C32.4316 80 31.5223 80.11 30.3343 80.11C29.2196 80.11 28.3469 80.0147 27.7163 79.824C27.1003 79.6333 26.6603 79.3107 26.3963 78.856C26.1469 78.3867 26.0223 77.7487 26.0223 76.942V71.992C26.0223 71.684 26.0736 71.4787 26.1763 71.376C26.2789 71.2733 26.4843 71.222 26.7923 71.222C27.0123 71.222 27.2249 71.222 27.4303 71.222C27.6503 71.222 27.8703 71.222 28.0903 71.222ZM28.0023 69.88L30.0483 67.24H30.7303L32.7983 69.88H31.8303L30.3783 68.23L28.9043 69.88H28.0023ZM38.7214 78.856H44.5734L44.6174 79.296C44.6614 79.5453 44.6174 79.7287 44.4854 79.846C44.3681 79.9487 44.1554 80 43.8474 80H36.1474V78.9L41.7134 72.366H36.4114V71.882C36.4114 71.6767 36.4628 71.5153 36.5654 71.398C36.6828 71.2807 36.8294 71.222 37.0054 71.222H44.4854C44.5148 71.398 44.4854 71.596 44.3974 71.816C44.3241 72.036 44.2068 72.256 44.0454 72.476C43.8988 72.696 43.7374 72.9087 43.5614 73.114L38.7214 78.856ZM48.0702 80.088C47.2929 80.088 46.7649 79.9047 46.4862 79.538C46.2076 79.1567 46.0682 78.592 46.0682 77.844L46.0902 71.222H48.1362V77.734C48.1362 78.2913 48.2022 78.6727 48.3342 78.878C48.4809 79.0833 48.7229 79.186 49.0602 79.186C49.2069 79.186 49.3536 79.1713 49.5002 79.142C49.6616 79.1127 49.7642 79.0907 49.8082 79.076V79.912C49.7496 79.9267 49.6542 79.9487 49.5222 79.978C49.3902 80.0073 49.2069 80.0293 48.9722 80.044C48.7376 80.0733 48.4369 80.088 48.0702 80.088ZM44.5282 69.88L46.5742 67.24H47.2562L49.3242 69.88H48.3562L46.9042 68.23L45.4302 69.88H44.5282ZM51.2066 80L51.1846 69.66C51.1846 69.352 51.2286 69.1467 51.3166 69.044C51.4193 68.9267 51.6319 68.868 51.9546 68.868H53.2746V75.6L57.0146 71.684C57.2053 71.508 57.3959 71.3833 57.5866 71.31C57.7919 71.222 58.0779 71.178 58.4446 71.178C58.7233 71.178 58.9799 71.1853 59.2146 71.2C59.4493 71.2 59.6619 71.2073 59.8526 71.222C59.8086 71.266 59.7133 71.3393 59.5666 71.442C59.4346 71.5447 59.2879 71.662 59.1266 71.794C58.9653 71.9113 58.8186 72.0287 58.6866 72.146L55.8486 74.852L59.6766 79.098C59.8379 79.274 59.9993 79.4353 60.1606 79.582C60.3219 79.7287 60.4759 79.868 60.6226 80C60.2559 80.0147 59.8819 80.022 59.5006 80.022C59.1339 80.022 58.8039 80.022 58.5106 80.022C58.1733 80.022 57.9166 79.9853 57.7406 79.912C57.5793 79.824 57.4033 79.6847 57.2126 79.494L54.4186 76.348L53.2746 77.316V80H51.2066Z" fill="white"/>
</svg>
